
<svg xmlns="http://www.w3.org/2000/svg" viewBox="0 0 215.74 108.51"><title>Recurso 17MODERN ICON</title><g id="Capa_2" data-name="Capa 2"><g fill="rgba(63, 255, 98, 0.1)" id="Capa_1-2" data-name="Capa 1"><path d="M10.25,86.69h7.58a4,4,0,0,1,4,4v28.08a0,0,0,0,1,0,0H10.25a0,0,0,0,1,0,0V86.69A0,0,0,0,1,10.25,86.69Z" transform="translate(-86.69 118.76) rotate(-90)"/><path fill="rgba(63, 255, 98, 0.7)" d="M10.25,70.54h7.58a4,4,0,0,1,4,4V102.6a0,0,0,0,1,0,0H10.25a0,0,0,0,1,0,0V70.54a0,0,0,0,1,0,0Z" transform="translate(-70.54 102.6) rotate(-90)"/><path d="M10.25,38.22h7.58a4,4,0,0,1,4,4V70.29a0,0,0,0,1,0,0H10.25a0,0,0,0,1,0,0V38.22A0,0,0,0,1,10.25,38.22Z" transform="translate(-38.22 70.29) rotate(-90)"/><path  d="M10.25,22.07h7.58a4,4,0,0,1,4,4V54.13a0,0,0,0,1,0,0H10.25a0,0,0,0,1,0,0V22.07A0,0,0,0,1,10.25,22.07Z" transform="translate(-22.07 54.13) rotate(-90)"/><path  d="M46.79,70.54h7.58a4,4,0,0,1,4,4V102.6a0,0,0,0,1,0,0H46.79a0,0,0,0,1,0,0V70.54A0,0,0,0,1,46.79,70.54Z" transform="translate(-33.99 139.15) rotate(-90)"/><path  d="M46.79,54.38h7.58a4,4,0,0,1,4,4V86.44a0,0,0,0,1,0,0H46.79a0,0,0,0,1,0,0V54.38A0,0,0,0,1,46.79,54.38Z" transform="translate(-17.83 122.99) rotate(-90)"/><path  d="M46.79,38.22h7.58a4,4,0,0,1,4,4V70.29a0,0,0,0,1,0,0H46.79a0,0,0,0,1,0,0V38.22A0,0,0,0,1,46.79,38.22Z" transform="translate(-1.68 106.83) rotate(-90)"/><path d="M46.79,22.07h7.58a4,4,0,0,1,4,4V54.13a0,0,0,0,1,0,0H46.79a0,0,0,0,1,0,0V22.07A0,0,0,0,1,46.79,22.07Z" transform="translate(14.48 90.68) rotate(-90)"/><path fill="rgba(63, 255, 98, 0.5)" d="M46.79,5.91h7.58a4,4,0,0,1,4,4V38a0,0,0,0,1,0,0H46.79a0,0,0,0,1,0,0V5.91A0,0,0,0,1,46.79,5.91Z" transform="translate(30.64 74.52) rotate(-90)"/><path d="M83.34,86.69h7.58a4,4,0,0,1,4,4v28.08a0,0,0,0,1,0,0H83.34a0,0,0,0,1,0,0V86.69A0,0,0,0,1,83.34,86.69Z" transform="translate(-13.6 191.85) rotate(-90)"/><path d="M83.34,70.54h7.58a4,4,0,0,1,4,4V102.6a0,0,0,0,1,0,0H83.34a0,0,0,0,1,0,0V70.54A0,0,0,0,1,83.34,70.54Z" transform="translate(2.55 175.69) rotate(-90)"/><path d="M83.34,5.91h7.58a4,4,0,0,1,4,4V38a0,0,0,0,1,0,0H83.34a0,0,0,0,1,0,0V5.91A0,0,0,0,1,83.34,5.91Z" transform="translate(67.18 111.06) rotate(-90)"/><path d="M119.89,86.69h7.58a4,4,0,0,1,4,4v28.08a0,0,0,0,1,0,0H119.89a0,0,0,0,1,0,0V86.69A0,0,0,0,1,119.89,86.69Z" transform="translate(22.94 228.4) rotate(-90)"/><path fill="rgba(63, 255, 98, 0.2)" d="M119.89,54.38h7.58a4,4,0,0,1,4,4V86.44a0,0,0,0,1,0,0H119.89a0,0,0,0,1,0,0V54.38A0,0,0,0,1,119.89,54.38Z" transform="translate(55.26 196.08) rotate(-90)"/><path d="M119.89,38.22h7.58a4,4,0,0,1,4,4V70.29a0,0,0,0,1,0,0H119.89a0,0,0,0,1,0,0V38.22A0,0,0,0,1,119.89,38.22Z" transform="translate(71.41 179.92) rotate(-90)"/><path fill="rgba(63, 255, 98, 0.2)" d="M119.89,22.07h7.58a4,4,0,0,1,4,4V54.13a0,0,0,0,1,0,0H119.89a0,0,0,0,1,0,0V22.07A0,0,0,0,1,119.89,22.07Z" transform="translate(87.57 163.77) rotate(-90)"/><path d="M156.43,54.38H164a4,4,0,0,1,4,4V86.44a0,0,0,0,1,0,0H156.43a0,0,0,0,1,0,0V54.38A0,0,0,0,1,156.43,54.38Z" transform="translate(91.8 232.63) rotate(-90)"/><path fill="rgba(63, 255, 98, 0.7)" d="M0,11.57H0A11.57,11.57,0,0,1,11.57,0H32.06V11.57"/><path d="M46.79-10.25h7.58a4,4,0,0,1,4,4V21.82a0,0,0,0,1,0,0H46.79a0,0,0,0,1,0,0V-10.25A0,0,0,0,1,46.79-10.25Z" transform="translate(46.79 58.36) rotate(-90)"/><path d="M83.34-10.25h7.58a4,4,0,0,1,4,4V21.82a0,0,0,0,1,0,0H83.34a0,0,0,0,1,0,0V-10.25A0,0,0,0,1,83.34-10.25Z" transform="translate(83.34 94.91) rotate(-90)"/><path d="M119.89-10.25h7.58a4,4,0,0,1,4,4V21.82a0,0,0,0,1,0,0H119.89a0,0,0,0,1,0,0V-10.25A0,0,0,0,1,119.89-10.25Z" transform="translate(119.89 131.45) rotate(-90)"/><path fill="rgba(63, 255, 98, 0.3)" d="M193.92,86.69h7.58a4,4,0,0,1,4,4v28.08a0,0,0,0,1,0,0H193.92a0,0,0,0,1,0,0V86.69A0,0,0,0,1,193.92,86.69Z" transform="translate(96.98 302.43) rotate(-90)"/><path d="M193.92,22.07h7.58a4,4,0,0,1,4,4V54.13a0,0,0,0,1,0,0H193.92a0,0,0,0,1,0,0V22.07A0,0,0,0,1,193.92,22.07Z" transform="translate(161.61 237.8) rotate(-90)"/><path fill="rgba(63, 255, 98, 0.6)" d="M156.43-10.25H164a4,4,0,0,1,4,4V21.82a0,0,0,0,1,0,0H156.43a0,0,0,0,1,0,0V-10.25A0,0,0,0,1,156.43-10.25Z" transform="translate(156.43 168) rotate(-90)"/><path fill="rgba(63, 255, 98, 0.4)" d="M156.43,5.91H164a4,4,0,0,1,4,4V38a0,0,0,0,1,0,0H156.43a0,0,0,0,1,0,0V5.91A0,0,0,0,1,156.43,5.91Z" transform="translate(140.27 184.16) rotate(-90)"/></g></g></svg>


