<svg xmlns="http://www.w3.org/2000/svg" viewBox="0 0 100.69 100.69"><title>Recurso 9MANDALA</title><g fill="#00f867" id="Capa_2" data-name="Capa 2"><g id="Capa_1-2" data-name="Capa 1"><polygon points="57.03 5.24 57.03 21.39 51.77 16.16 51.77 0 57.03 5.24"/><rect x="36.72" y="24.77" width="39.63" height="0.99" transform="translate(31.27 81.8) rotate(-90)"/><polygon points="33.58 7.94 41.66 21.93 34.49 20.02 26.41 6.03 33.58 7.94"/><rect x="23.35" y="25.04" width="39.63" height="0.99" transform="translate(42.64 75.68) rotate(-120)"/><polygon points="14.62 22 28.61 30.08 21.45 32.01 7.46 23.93 14.62 22"/><rect x="11.91" y="31.95" width="39.63" height="0.99" transform="translate(42.97 76.4) rotate(-150)"/><polygon points="5.24 43.66 21.39 43.66 16.16 48.91 0 48.91 5.24 43.66"/><rect x="5.45" y="43.66" width="39.63" height="0.99" transform="translate(50.53 88.31) rotate(-180)"/><polygon points="7.94 67.11 21.93 59.03 20.02 66.2 6.03 74.28 7.94 67.11"/><rect x="5.72" y="57.03" width="39.63" height="0.99" transform="translate(76.4 94.58) rotate(150)"/><polygon points="22 86.07 30.08 72.08 32.01 79.24 23.93 93.23 22 86.07"/><rect x="12.63" y="68.48" width="39.63" height="0.99" transform="matrix(-0.5, 0.87, -0.87, -0.5, 108.4, 75.36)"/><polygon points="43.66 95.45 43.66 79.3 48.91 84.53 48.91 100.69 43.66 95.45"/><rect x="24.34" y="74.93" width="39.63" height="0.99" transform="translate(119.58 31.27) rotate(90)"/><polygon points="67.11 92.75 59.03 78.76 66.2 80.67 74.28 94.66 67.11 92.75"/><rect x="37.71" y="74.67" width="39.63" height="0.99" transform="translate(93.85 -12.24) rotate(60)"/><polygon points="86.07 78.69 72.08 70.61 79.24 68.68 93.23 76.76 86.07 78.69"/><rect x="49.16" y="67.75" width="39.63" height="0.99" transform="translate(43.36 -25.34) rotate(30)"/><polygon points="95.45 57.03 79.3 57.03 84.53 51.77 100.69 51.77 95.45 57.03"/><rect x="55.61" y="56.04" width="39.63" height="0.99"/><polygon points="92.75 33.58 78.76 41.66 80.67 34.49 94.66 26.41 92.75 33.58"/><rect x="55.35" y="42.67" width="39.63" height="0.99" transform="translate(-11.51 43.36) rotate(-30)"/><polygon points="78.69 14.62 70.61 28.61 68.68 21.45 76.76 7.46 78.69 14.62"/><rect x="48.43" y="31.23" width="39.63" height="0.99" transform="matrix(0.5, -0.87, 0.87, 0.5, 6.65, 74.96)"/></g></g></svg>