<svg xmlns="http://www.w3.org/2000/svg" viewBox="0 0 120.17 116.03"><defs><style>.cls-1{stroke:#211915;stroke-linecap:round;stroke-miterlimit:10;stroke-width:0.86px;}</style></defs><title>Recurso 4MODERN ICON</title><g id="Capa_2" data-name="Capa 2"><g id="Capa_1-2" data-name="Capa 1"><path class="cls-1" d="M116.26,64v1l.18.17v1l.21.23v1l.21.24v.61l.18.18c.07.33,0,.71,0,1.07l.18.19v1l.22.22v1l.19.19v1l.21.24v1l.2.17c0,.26,0,.57,0,.87l.18.18v.83l.22.22v.83l.22.21v1.25l.19.19v1l.21.23v.82l.22.22v.79l.26.38-.74.74c-.35,0-.46.36-.74.46a.91.91,0,0,0-.26.13c-.22.14-.33.4-.62.5s-.4.35-.61.51-.42.17-.58.37-.48.19-.64.44a1.26,1.26,0,0,1-.56.39c-.21.08-.34.34-.53.48s-.35.14-.5.29a3.67,3.67,0,0,1-.56.38c-.19.13-.29.39-.54.44s-.38.27-.54.44-.58.2-.73.51a2,2,0,0,0-.86.65c-.39,0-.53.5-.93.52-.28.44-.84.54-1.15.95-.17.23-.47.21-.66.43s-.26.41-.54.43-.32.44-.65.42c-.08,0-.16.12-.24.18s-.31.46-.64.44a6.14,6.14,0,0,1-.52.5,2.82,2.82,0,0,1-.42.23c-.14.08-.19.29-.39.3a.24.24,0,0,0-.18.07c-.36.45-1,.63-1.3,1.09,0,0-.06.07-.08.07-.33,0-.41.34-.66.41a.49.49,0,0,0-.33.18c-.31.42-.85.53-1.17.94-.09.12-.28.14-.42.23s-.24.27-.39.3-.29.17-.4.29a2.6,2.6,0,0,1-.64.44,3.06,3.06,0,0,0-.52.5c-.36,0-.43.39-.75.44s-.45.55-.78.6-.38.51-.75.43c-.2.19-.37.47-.6.56a1.87,1.87,0,0,0-.64.46c-.12.11-.21.27-.42.22-.19.29-.57.35-.79.59a3.42,3.42,0,0,1-.79.58c-.25.15-.4.43-.72.53s-.38.5-.69.56-.38.51-.75.44l-.51.51c-.15.14-.37.12-.51.29s-.31.42-.64.46-.26.38-.56.4c-.1,0-.2.16-.3.24s-.29.35-.57.39-.27.37-.56.4c-.11,0-.23.14-.31.24a2.61,2.61,0,0,1-.72.51c-.22.14-.35.38-.62.5a3.13,3.13,0,0,0-.68.59c-.34,0-.41.36-.66.41s-.45.4-.71.54a2.57,2.57,0,0,0-.65.44c-.14.12-.35.13-.5.29s-.26.37-.55.42-.34.23-.44.4-.44.15-.59.35a1.39,1.39,0,0,1-.44.43c-.14.08-.32.08-.42.24h-.82l-.23.21h-.82l-.23.22h-1l-.19.18h-.83l-.18.19c-.38.14-.83-.14-1.17.15s-.58,0-.71.29h-1l-.16.14a.36.36,0,0,1-.17.07c-.24,0-.48,0-.72,0l-.19.19h-1l-.22.22H69.2L69,114h-.82l-.22.22h-.83l-.19.18h-.61l-.23.22h-1l-.18.18c-.33.06-.7,0-1.07,0l-.18.18h-.83l-.22.22h-.83l-.22.22H60.7l-.19.18h-.83l-.22-.2h-.4l-.19-.18-.44,0-.22-.19c-.25,0-.5.11-.7-.1s-.46-.07-.71-.11l-.23-.2h-.38l-.24-.21h-.6l-.23-.21h-.41l-.18-.18-.45,0-.18-.18c-.52.08-.95-.27-1.44-.42h-.62l-.23-.21h-.4l-.23-.21h-.4l-.23-.21h-.56c-.08-.06-.2-.2-.29-.19-.42,0-.72-.42-1.14-.19l-.27-.23H47.5l-.23-.21h-.41l-.23-.22h-.4c-.13-.21-.34-.18-.54-.2s-.3-.26-.54-.21a.68.68,0,0,1-.56-.16c-.13-.1-.39,0-.62,0l-.22-.19h-.39l-.23-.21h-.61l-.23-.22h-.4l-.16-.15c-.16-.14-.41.06-.55-.14s-.31-.1-.48-.11-.26,0-.37-.11-.56,0-.7-.3H39l-.22-.22h-.41l-.23-.21h-.59c-.1-.07-.18-.2-.25-.19-.26,0-.43-.12-.65-.2s-.36,0-.55-.18-.39,0-.62,0l-.22-.19h-.39l-.23-.22H34l-.18-.18c-.37.06-.67-.3-1.08-.26-.2-.29-.5-.15-.78-.18l-.23-.19h-.59l-.24-.22h-.4l-.23-.21h-.56l-.7-.4c-.21,0-.48,0-.6-.06a.64.64,0,0,0-.56-.15c-.24,0-.35-.19-.54-.21s-.41,0-.54-.21h-.61l-.23-.21h-.41l-.18-.18-.44,0-.23-.19a4.6,4.6,0,0,1-.53,0,.23.23,0,0,1-.16-.1c-.19-.21-.57,0-.71-.3h-.61l-.24-.21h-.61l-.23-.21h-.4l-.18-.18-.46,0-.19-.18a3.36,3.36,0,0,0-.45,0c-.21,0-.27-.19-.44-.21s-.34.06-.46-.12-.33,0-.54-.13l-.18-.16H17.7l-.23-.21h-.4c-.13-.22-.34-.19-.54-.21s-.3-.26-.54-.21a.65.65,0,0,1-.56-.16c-.12-.1-.39,0-.62,0l-.22-.19H14.2l-.23-.21h-.61c-.2-.24-.57-.21-.73-.52V101l-.21-.23v-1l-.18-.19v-.83l-.21-.2v-.79l-.23-.3v-1l-.2-.19v-.81l-.21-.24V94l-.21-.23v-1L11,92.56v-.83l-.22-.22v-.83l-.22-.22v-.82l-.19-.19v-1l-.21-.24v-1L10,87c-.06-.32,0-.7,0-1.06l-.17-.18c-.07-.34,0-.71,0-1.08l-.18-.18v-.83l-.22-.22V82.6l-.19-.19v-1l-.21-.23v-1L8.73,80c-.07-.35,0-.72,0-1.09l-.17-.17c-.08-.34,0-.72,0-1.08l-.18-.18v-.83l-.22-.22v-.83l-.19-.19v-1l-.21-.23v-1l-.18-.17v-1l-.22-.22v-1l-.19-.18c-.14-.38.13-.83-.15-1.18s0-.57-.29-.7v-1l-.21-.23V66.07l-.19-.18v-.83L6,64.84V63.6l-.21-.22v-1l-.2-.2v-.6l-.21-.24V60.5l-.22-.23v-1L5,59.06V58l-.22-.22V56.57l-.18-.19c-.14-.38.13-.82-.15-1.17s0-.58-.29-.71v-1l-.22-.23v-1L3.76,52V51l-.22-.22v-1l-.22-.22v-1l-.19-.2v-.6l-.22-.24v-1l-.21-.23v-1L2.52,45c-.06-.32,0-.7,0-1.07l-.17-.16v-1l-.23-.3v-1l-.19-.19v-.6l-.22-.24v-1l-.14-.15a1.34,1.34,0,0,1-.07-.18v-.71l-.15-.15s-.05-.06-.05-.09c0-.41,0-.82,0-1.21l-.18-.19v-1l-.23-.3v-.8l-.2-.19v-.61L.43,33.6v-.41c.19-.11.17-.34.28-.5l.2,0a1,1,0,0,1,.16-.12c.22-.15.31-.47.62-.5s.32-.44.65-.43c.1,0,.21-.15.31-.24s.24-.25.37-.37c.37.09.41-.42.76-.42.1,0,.22-.14.3-.24a2.77,2.77,0,0,1,.72-.51c.23-.14.35-.38.62-.5a3.18,3.18,0,0,0,.69-.59c.37.07.44-.35.75-.45s.46-.38.69-.58c.36,0,.47-.34.71-.51.06,0,.11-.12.16-.12.33,0,.39-.36.65-.42a.69.69,0,0,0,.26-.12c.23-.14.32-.44.62-.5s.35-.31.54-.45a2.59,2.59,0,0,0,.56-.37c.19-.23.49-.2.67-.42a1.14,1.14,0,0,1,.54-.44c.23-.07.38-.39.61-.51s.43-.33.65-.43a1.52,1.52,0,0,0,.63-.47c.17-.23.48-.19.66-.42s.26-.4.55-.43.32-.44.65-.41c0,0,.11-.07.16-.12s.28-.3.44-.43.33,0,.42-.23.47-.23.65-.43.28-.39.54-.44.4-.36.61-.52.44-.15.58-.36a1.55,1.55,0,0,1,.64-.45c.19-.1.32-.31.57-.37a1,1,0,0,0,.44-.43c.11-.18.3-.1.43-.21s.37-.49.7-.56.33-.45.66-.41a3,3,0,0,0,.44-.43c.13-.18.35-.16.5-.28s.32-.47.61-.52.36-.31.55-.43a2.51,2.51,0,0,0,.56-.38c.23-.26.59-.29.82-.57a3.11,3.11,0,0,1,.7-.52l.57-.36c.19-.13.28-.39.55-.44s.35-.3.54-.44a2.86,2.86,0,0,0,.56-.37c.18-.24.49-.2.67-.43a1,1,0,0,1,.53-.43c.24-.08.41-.34.61-.52,0,0,.05-.08.08-.07.33,0,.4-.36.65-.41a.63.63,0,0,0,.41-.26c.34-.38.88-.5,1.16-1,.4,0,.56-.42.92-.53s.41-.54.8-.56A7.62,7.62,0,0,1,36.16,7c.17-.16.43-.13.59-.35a1.2,1.2,0,0,1,.63-.46c.2-.07.34-.33.52-.5,0,0,.05-.06.07-.06.35.06.4-.33.66-.42a1.17,1.17,0,0,0,.26-.1c.23-.15.32-.46.62-.51s.33-.33.57-.42h.53l.25-.19h.77l.26-.21h.58l.25-.21h1L44,3.3h1l.17-.19c.26,0,.57,0,.87,0l.18-.19h.83l.22-.22h.82l.22-.21h.83l.19-.2h.81l.24-.21h1l.17-.18h.83l.22-.22h1l.22-.22h.62l.22-.22h.82L55.74,1h.82l.23-.21h1L58,.64h.84L59,.43h1.5l.18.18h.62l.2.2h.6l.24.21h.39l.23.21h.41l.23.22h.6c.06.05.11.14.16.14.4,0,.71.36,1.13.27a.38.38,0,0,1,.26.11c.2.2.58-.05.71.29h.62l.23.22h.4l.23.21h.62c.14.33.52.08.7.3s.56,0,.71.3h.61l.24.21h.39l.23.22h.62l.18.18c.37-.07.68.3,1.09.26.23.39.76,0,1,.37H75l.24.22h.4l.23.21h.56l.74.42c.46-.18.84.36,1.32.19.21.14.38.34.63.18l.26.24h.6l.24.21h.4l.18.18.46,0,.14.15c.24.14.55-.1.77.15s.56,0,.7.3h.62l.23.21h.4l.23.21h.6c.09.08.17.2.24.19a1.22,1.22,0,0,1,.65.21c.17.07.37,0,.55.17s.39.05.63.06l.22.19h.39l.23.21h.61l.23.21h.4c.13.22.34.19.54.21s.3.25.54.21a.64.64,0,0,1,.56.16c.13.1.39,0,.62.05l.22.19h.39l.23.21h.62l.19.2.43,0c.08.07.17.19.24.19a1.21,1.21,0,0,1,.64.2c.18.07.37,0,.56.18s.39,0,.62.05l.22.19h.6l.22.21h.41l.23.22h.59c.1.07.18.19.25.19a1.31,1.31,0,0,1,.65.2c.18.07.37,0,.55.18s.39,0,.62,0L100,12h.39l.23.22h.62l.18.18c.13,0,.32,0,.44,0a1,1,0,0,0,.45.19c.29,0,.52.25.85.21s.43.31.74.2c0,0,.15.12.24.19h.6l.23.22h.4l.23.21h.61c.13.23.35.2.61.2l.53.58v.36l.19.2v1.24l.22.22v1l.19.19V18.9l.21.23v.41l.19.18v.83l.22.22V22l.22.22v.82l.22.22v1.24l.18.19v1l.22.23v.41l.21.23v1l.19.19v1l.22.22v1l.19.19V31.5l.21.24v.81l.22.23v.61l.21.23v1l.18.18v1l.23.3v1l.19.19v1l.22.24v1l.21.23v.62l.18.18c.06.33,0,.7,0,1.07l.17.17v.79l.23.29v1.22l.19.19v1l.22.24v1l.21.24v.61l.18.18c.07.33,0,.71,0,1.07l.19.19v.82l.21.22v1l.2.19v1.22l.21.24v.81l.2.21c0,.24,0,.54,0,.84l.18.19v.82l.22.22v1L115,57v1l.19.19v1.23l.21.23v.82l.21.23v.6l.22.24v1l.15.16C116.15,63.12,115.85,63.6,116.26,64Zm-36.51,47c.11-.18.26-.26.31-.45s.29-.5.39-.76.34-.44.22-.74a3.72,3.72,0,0,0,.41-.76c.11-.2.2-.4.3-.6s.22-.39.32-.59.13-.47.28-.6,0-.46.2-.65a3.36,3.36,0,0,0,.35-.68,4.87,4.87,0,0,0,.31-.6c.07-.25.31-.42.31-.7.35-.13.12-.49.27-.71s.23-.46.36-.68.23-.46.36-.68a5,5,0,0,0,.38-.77c.09-.24.29-.43.3-.7.32-.15.13-.49.28-.72s.23-.46.35-.67.18-.41.3-.61a1.45,1.45,0,0,0,.31-.69c.32-.15.08-.52.29-.71s.09-.4.29-.5c-.07-.26.3-.37.23-.63.19-.11.19-.34.29-.5a2.82,2.82,0,0,0,.32-.59,1.74,1.74,0,0,1,.17-.55,11.45,11.45,0,0,0,.53-1.12c.2-.37.36-.75.56-1.12a3,3,0,0,0,.46-1.15c.21-.1.13-.35.28-.51a1.68,1.68,0,0,0,.29-.6c.06-.18.27-.29.24-.52.2-.1.12-.37.29-.5s0-.46.21-.64.1-.38.29-.49c-.07-.27.24-.37.25-.63s.24-.38.34-.58.14-.53.31-.69,0-.48.21-.64.17-.42.33-.6.13-.44.26-.6a7.58,7.58,0,0,0,.37-.68c.11-.19.14-.46.29-.6s0-.48.21-.64.08-.4.29-.5c0-.22.17-.34.25-.52a1.83,1.83,0,0,1,.27-.6c.16-.16.09-.39.28-.52s0-.41.15-.55.12-.37.28-.51a.77.77,0,0,0,.24-.51c0-.22.31-.3.22-.54.19-.11.15-.37.29-.49s.1-.38.28-.52,0-.36.14-.56c.21-.35.38-.73.56-1.11a7,7,0,0,1,.54-1c.24-.35.24-.8.46-1.16a5.55,5.55,0,0,1,.29-.6,2.44,2.44,0,0,0,.31-.6,4.34,4.34,0,0,0,.35-.68c.07-.21.28-.4.28-.6a1.33,1.33,0,0,1,.23-.63c.12-.26.26-.52.39-.77s.27-.58.43-.86a2.15,2.15,0,0,0,.27-.82c.21-.1.12-.35.28-.51a2.21,2.21,0,0,0,.28-.6c.08-.17.15-.35.24-.52s.26-.37.36-.57,0-.39.14-.57a2,2,0,0,0,.29-.6,3.66,3.66,0,0,1,.31-.59c.13-.16.08-.4.29-.51-.06-.26.29-.36.23-.62.18-.12.15-.39.29-.5s0-.48.21-.64.08-.4.29-.5c0-.22.17-.34.25-.52a1.66,1.66,0,0,1,.28-.6c.15-.15.08-.39.27-.52s-.05-.41.15-.55.12-.36.28-.51a.77.77,0,0,0,.24-.51c0-.22.31-.3.22-.54.19-.11.15-.37.29-.49s.1-.38.28-.52,0-.36.14-.56c.21-.35.38-.73.56-1.1a7.13,7.13,0,0,1,.54-1,10,10,0,0,0,.46-1.16c.33-.61.61-1.26,1-1.87a.85.85,0,0,0,0-.63c-.29,0-.59,0-.89,0l-.18.19h-1l-.22.21h-.83l-.21.22h-.83l-.22.22h-1l-.17.18h-1l-.23.22h-1l-.19.19h-1l-.22.22h-.83l-.22.22H97.1l-.22.21h-1l-.17.19h-1l-.23.21h-1l-.19.19h-1l-.22.22h-.8l-.31.23h-.57l-.18.17H88.85l-.23.22h-.81l-.23.21H86.35l-.19.19h-1l-.22.22h-.79l-.27.2c-.24,0-.45,0-.64.06l-.15.15H82s-.06,0-.13.1l-.09.11h-1l-.24.21H79.32l-.19.19h-1l-.22.22h-.62l-.18.18c-.37.06-.74,0-1.08.05l-.17.17c-.3,0-.61,0-.84,0l-.21.2h-1l-.23.21h-1l-.19.19H71.06l-.22.22H70l-.22.22H69l-.19.19c-.3,0-.6,0-.84,0l-.21.2h-1l-.23.21h-1l-.19.2h-1l-.3.23H63l-.24.18c-.25,0-.45,0-.65.06l-.14.15h-1l-.23.21h-1l-.24.22h-1l-.19.19h-1l-.3.23h-1l-.2.21H54.9l-.19.18H54a.64.64,0,0,0-.18.06l-.15.14h-1l-.24.22h-1l-.2.19h-1l-.29.23h-1l-.2.21h-.83l-.18.18h-.62l-.23.21h-1l-.23.22H44.36c-.19.24-.58.2-.68.49.1.19.18.37.28.53s.46.32.51.61.28.38.44.54.18.51.44.65.12.3.22.42.29.3.43.45.13.1.13.15c0,.3.32.36.37.57a1.12,1.12,0,0,0,.46.63c.21.16.15.45.36.58s.24.46.43.65.4.28.45.54.3.35.43.54a2.51,2.51,0,0,0,.38.56c.24.21.22.58.5.73s.29.61.59.79.13.3.22.43a2.55,2.55,0,0,0,.44.43c.18.14.09.39.28.51s.39.27.43.44.38.42.43.65a1,1,0,0,0,.4.56c.22.18.2.49.43.65s.19.34.3.49a4.57,4.57,0,0,0,.43.45s.11.1.11.15c0,.3.35.36.38.57a1,1,0,0,0,.47.63c.17.15.15.37.28.51l.51.51c0,.33.37.42.41.65a.93.93,0,0,0,.41.56c.22.18.19.5.43.65s.19.58.51.73.29.6.58.78.13.45.37.58.36.64.66.86.38.71.73.94a1.37,1.37,0,0,0,.51.72.66.66,0,0,1,.18.34c.07.25.45.32.41.66,0,0,0,0,.07.07.18.2.44.37.52.61a1.14,1.14,0,0,0,.44.54c.23.17.16.52.43.65s.14.36.29.5l.51.51c-.07.37.35.45.44.75s.38.46.58.69c0,.37.34.48.52.72,0,0,.12.11.11.15,0,.34.37.39.42.66s.38.46.56.7c0,0,.06,0,.06.07,0,.3.31.37.36.58a1.09,1.09,0,0,0,.47.63c.21.15.19.41.35.59A6.42,6.42,0,0,0,67.42,94c0,.34.36.42.41.66s.36.47.54.71.1.37.29.51.38.27.41.44.33.36.38.56a1.14,1.14,0,0,0,.46.64c.21.15.16.44.36.57s.22.5.44.65.39.62.67.86.41.68.71,1c.11.1.14.29.23.42s.24.24.36.37.13.1.12.15c0,.34.37.39.42.66s.38.46.56.7c0,0,.06.05.06.07,0,.3.31.37.36.58a1.12,1.12,0,0,0,.46.63c.22.15.19.41.36.59a6.42,6.42,0,0,0,.88,1.07c0,.4.47.51.56.8s.52.53.54.92c.44.28.56.83.94,1.16.1.08.23.2.24.31,0,.34.51.38.42.76.2.19.48.36.57.59A2.41,2.41,0,0,0,79.75,111.06ZM54.61,21c-.36.16,0,.62-.38.78l0,.64-.18.22V23l-.21.23v.4l-.22.23v.61l-.21.23v.59l-.18.22,0,.65c-.29.13-.07.47-.23.62s-.14.36-.15.57l-.2.22v.61l-.22.23v.62a.39.39,0,0,0-.2.43c0,.21-.17.28-.2.43a1,1,0,0,0,0,.42c0,.2-.2.26-.21.43s0,.34,0,.53l-.2.23v.39l-.22.23v.41l-.21.23v.6l-.21.24v.61c-.36.15,0,.62-.38.78l0,.64-.18.22v.39l-.22.23v.4l-.21.23v.6l-.21.24v.59l-.22.26v.57l-.19.24v.54l-.41.72v.56l-.21.23v.61c-.22.13-.19.34-.21.54s-.25.3-.21.54a.64.64,0,0,1-.15.56c-.11.13,0,.39-.06.62l-.19.22v.39l-.21.23v.41l-.21.22v.61l-.2.22c0,.27.12.57-.17.77,0,.44-.42.78-.22,1.23l-.23.26v.39l-.21.23v.62l-.21.22V51l-.22.24v.6l-.19.19v.6l-.21.27v.56l-.2.23v.4l-.21.22v.41l-.21.23v.61c-.35.16-.06.61-.38.78l-.06.66-.18.24v.57l-.2.22v.4l-.21.23V59l-.22.23v.6l-.17.21.27.31h.63l.24-.22h1l.2-.19h1l.29-.23h.79l.21-.21h.82l.19-.18h1l.23-.21h1l.24-.22h1l.19-.19h1l.3-.23h.78l.21-.21H56l.18-.18h1l.23-.21h1l.24-.22h1l.19-.19h.8l.3-.23h1l.2-.21H63l.18-.18h1l.23-.22h1l.23-.21h.81l.19-.19h1L68,56h1l.2-.21H70l.18-.18h1l.23-.22h.81l.24-.21h1l.2-.19h1l.29-.24h.79l.17-.16c.37,0,.74,0,1.07,0l.18-.18h1l.23-.22h.81l.24-.21h1l.19-.19h1l.29-.24h.79l.19-.18h1s0,0,.08-.06l.15-.15h1l.23-.21h.81l.24-.21h1l.19-.19h1l.3-.24h.78l.17-.17c.37,0,.74,0,1.08,0l.18-.18c.3,0,.6,0,.83,0l.22-.2h1l.24-.21h1l.19-.19h.8l.3-.24h1l.18-.18h1s0,0,.08,0l.15-.14c.3,0,.6,0,.83,0l.22-.2h1l.23-.21h1l.19-.2h.81l.29-.23h1l.18-.18h1s.06,0,.08,0l.15-.15c.3,0,.6,0,.83,0l.22-.2h1l.22-.2c.17,0,.36.07.49-.1v-.18L94,34.53h-.12l-1-1-.09-.26h-.28L60.46,1.22c-.14.06-.33-.06-.47.11v.41L59.78,2v.41l-.21.23v.6l-.2.23c0,.15,0,.29,0,.43s-.11.23-.17.34,0,.27-.05.4a1.57,1.57,0,0,1-.2.3v.56l-.2.22v.4l-.21.23v.61l-.21.23v.62c-.34.13-.09.52-.31.7s-.09.24-.1.37.06.34-.11.47,0,.4-.15.56l-.15.15v.4l-.21.23v.61l-.22.23v.6l-.19.23a3.08,3.08,0,0,0,0,.43c0,.16-.11.23-.17.35s0,.27,0,.39a1.31,1.31,0,0,1-.2.3v.56l-.2.23V15l-.21.23v.61l-.22.23v.39l-.19.23c0,.25.11.51-.11.7s0,.53-.14.77-.16.36-.17.56l-.2.23v.4l-.21.23v.6l-.21.23ZM43.17,61.17c-.2,0-.25,0-.26.06s-.09.4-.3.5-.16.35-.29.5a3.4,3.4,0,0,0-.61.78c-.15.31-.5.51-.64.87s-.45.37-.54.71-.51.43-.61.78-.46.4-.45.74c-.19.2-.48.37-.55.6a1.12,1.12,0,0,1-.41.55c-.22.18-.22.48-.42.66s-.39.27-.44.54-.35.4-.52.61-.1.38-.29.51a3,3,0,0,0-.43.44c.05.33-.37.39-.4.65s-.25.41-.42.55-.19.49-.43.66a1.38,1.38,0,0,0-.47.63c-.09.22-.3.41-.43.65a2.44,2.44,0,0,1-.57.59c-.2.18-.18.51-.44.64s-.11.3-.21.43a3.27,3.27,0,0,0-.58.69,2.93,2.93,0,0,1-.59.69c0,.37-.36.47-.51.72a1.23,1.23,0,0,0-.12.26c-.08.26-.46.32-.41.66,0,0,0,0-.06.07a3.2,3.2,0,0,0-.61.79c-.13.31-.51.49-.65.87s-.42.4-.56.69a3.18,3.18,0,0,1-.59.69c0,.37-.35.47-.52.72,0,0-.11.1-.11.15,0,.3-.34.36-.38.57A.89.89,0,0,1,27,83c-.2.16-.22.4-.36.58a3.59,3.59,0,0,0-.6.78c-.15.31-.51.51-.65.87s-.45.37-.54.71-.51.43-.6.78-.47.4-.46.74c-.19.2-.48.37-.55.6a1,1,0,0,1-.41.55c-.22.18-.21.48-.42.66s-.39.27-.44.54-.35.4-.52.61-.1.38-.29.51-.38.28-.4.44-.21.34-.33.49-.16.42-.36.58-.34.23-.37.46-.27.39-.45.54-.13.37-.28.51-.34.34-.51.51c.06.26-.18.34-.3.49s-.29.25-.34.49-.25.31-.39.45a.83.83,0,0,0-.23.42c-.06.21-.34.29-.41.56a1.42,1.42,0,0,1-.46.53c-.18.16-.14.43-.35.58a1.37,1.37,0,0,0-.47.63c-.09.24-.37.4-.56.6.06.39-.5.46-.44.85l-.81.8v.2l-.19.21v.43s0,0,.07.07c.37.06.74,0,1.08,0l.18.18H16l.23.21h1.23l.23.21H19l.19.19h1l.3.24h1.2l.17.17c.43,0,.88,0,1.27,0l.19.19h1.23l.23.21H26l.23.21h1l.19.2h1.22l.3.23h1.2l.17.17c.43.05.88,0,1.27,0l.19.19h1l.23.21h1.42l.24.22h1l.19.19h1l.3.23h1.2l.17.17c.44,0,.88,0,1.27,0l.19.19h1.24l.22.21h1.44l.19.19H44l.22.22h1.24l.22.22h1.24l.18.18c.44,0,.88,0,1.27,0l.19.19h1.24l.22.21H51.2l.19.19h1l.22.22h1.24l.22.22h1.24l.22.22h1l.18.18h1.45l.22.22h1.23l.19.19h1l.22.21h1l.22.22h1.45l.22.22h1l.17.18H66.5l.23.22H68l.19.19h1.24l.22.22h1l.22.22H72.1l.22.21h1.25l.17.19H75l.23.21h1.23l.19.19h.82l.22.22h1.19s.1-.07.15-.11v-.41a2,2,0,0,1-.46-.64c-.09-.23-.38-.39-.56-.6,0,0,0-.17,0-.19-.38-.3-.46-.83-.88-1.09-.2-.12-.1-.37-.28-.51s-.39-.26-.43-.43c-.07-.38-.51-.53-.53-.92a2.17,2.17,0,0,1-.66-.87c-.35-.31-.46-.82-.87-1.09a.24.24,0,0,1-.07-.17c0-.21-.21-.25-.3-.4a3.36,3.36,0,0,0-.22-.42c-.15-.18-.34-.34-.51-.51,0-.34-.28-.44-.44-.65s-.18-.16-.18-.23c0-.34-.39-.37-.42-.66s-.35-.39-.49-.62-.08-.18-.13-.26-.22-.25-.31-.39-.13-.3-.23-.42-.33-.34-.49-.52c0-.34-.31-.42-.45-.64a2.21,2.21,0,0,0-.38-.56c-.24-.2-.19-.58-.5-.73s-.29-.61-.59-.79-.1-.31-.22-.43L68,95.55s-.12-.1-.12-.15c0-.34-.38-.38-.42-.66s-.31-.43-.49-.61-.09-.39-.28-.52-.39-.27-.43-.43c-.06-.31-.38-.42-.43-.65a1,1,0,0,0-.4-.56c-.22-.18-.2-.5-.43-.65s-.18-.35-.3-.5a5.93,5.93,0,0,0-.43-.44.6.6,0,0,1-.11-.26c-.08-.26-.46-.32-.43-.66,0,0-.07-.1-.12-.15s-.43-.33-.47-.53a.88.88,0,0,0-.42-.55c-.2-.16-.17-.42-.35-.58a1,1,0,0,1-.32-.49c-.06-.2-.32-.35-.48-.52a.28.28,0,0,1-.1-.17c0-.34-.49-.37-.43-.76,0-.08-.18-.19-.28-.29a1.87,1.87,0,0,1-.39-.56c-.09-.24-.36-.4-.56-.6.09-.37-.38-.42-.43-.75s-.54-.43-.59-.78-.51-.38-.44-.75c-.2-.2-.48-.36-.56-.6a1.1,1.1,0,0,0-.4-.55c-.24-.17-.24-.47-.42-.66s-.32-.51-.53-.71-.29-.53-.51-.72-.26-.61-.58-.8-.3-.58-.58-.79-.15-.42-.36-.58c-.41-.3-.52-.86-1-1.15,0-.39-.49-.53-.51-.92a2.81,2.81,0,0,1-.67-.86c-.08-.2-.28-.34-.38-.57s-.36-.4-.56-.59c.09-.38-.45-.42-.41-.76L50.28,71c0-.38-.35-.47-.52-.72,0,0-.11-.11-.11-.16,0-.33-.38-.37-.42-.65s-.35-.4-.49-.63a2,2,0,0,0-.13-.25c-.09-.14-.21-.26-.3-.39a4.16,4.16,0,0,0-.23-.42,6.14,6.14,0,0,0-.5-.52c0-.35-.31-.42-.45-.64a2.08,2.08,0,0,0-.37-.57c-.25-.2-.19-.58-.5-.73s-.29-.6-.59-.78-.11-.31-.22-.43-.29-.29-.44-.44-.12-.11-.11-.16c0-.3-.34-.36-.38-.56a1,1,0,0,0-.47-.64c-.21-.15-.15-.43-.35-.59A5.88,5.88,0,0,1,43.17,61.17ZM59.5,1.05c-.07,0-.21,0-.25,0a3,3,0,0,1-1,.61,3.87,3.87,0,0,0-.92.49,6.14,6.14,0,0,1-.92.54c-.19.11-.41.19-.6.31s-.43.31-.65.44-.51.25-.76.38l-.86.43a3.5,3.5,0,0,0-.58.36,2.17,2.17,0,0,1-.68.34c-.21.08-.39.23-.59.33a3.94,3.94,0,0,0-.77.38A3.24,3.24,0,0,1,50,6.2c-.2.09-.38.24-.59.33a4.82,4.82,0,0,0-.65.42,7.91,7.91,0,0,1-.77.39c-.29.13-.56.31-.85.43a4.41,4.41,0,0,0-.66.43c-.24.14-.5.26-.76.38s-.57.29-.86.44a2.19,2.19,0,0,0-.58.35,2.88,2.88,0,0,1-.68.34L43,10c-.11.06-.25.07-.34.15a1.09,1.09,0,0,1-.35.16c-.18.08-.3.28-.46.39s-.37.13-.53.22a2.6,2.6,0,0,0-.5.26c-.16.15-.4.09-.52.28s-.49.33-.74.47a3,3,0,0,1-.85.41c-.33.07-.38.52-.76.44-.47.33-1,.52-1.52.82-.34,0-.38.5-.75.42-.48.33-1,.52-1.52.82-.34,0-.39.5-.76.42-.47.33-1,.53-1.52.82-.34,0-.38.5-.76.42-.31.3-.75.36-1.08.62-.35,0-.39.49-.76.41-.47.35-1,.5-1.52.83-.35,0-.39.5-.76.41-.26.26-.64.3-.92.51s-.43.15-.59.36-.45.23-.67.37a3.63,3.63,0,0,0-.59.3c-.16.14-.37.1-.52.27s-.32.07-.41.23-.34.2-.5.3c-.41.25-.87.41-1.28.65-.14.08-.29.14-.42.22s-.24.32-.5.32-.23.25-.43.19c-.1.21-.35.17-.5.3s-.68.22-.93.51a2.86,2.86,0,0,1-.92.51c-.26.12-.53.24-.77.38a4.7,4.7,0,0,1-.73.5c-.29.13-.57.29-.86.42a6,6,0,0,0-.64.44c-.24.15-.52.25-.77.38a13.57,13.57,0,0,0-1.37.7c-.36-.06-.4.47-.76.41-.32.27-.76.35-1.08.62-.21,0-.33.11-.42.25s-.35.15-.51.28a8.37,8.37,0,0,1-.84.44c-.17.1-.4.09-.5.29s-.37.15-.5.3-.4.08-.5.29c-.27-.09-.36.31-.63.22-.15.25-.49.19-.66.42-.36-.06-.4.47-.76.41-.46.35-1,.48-1.51.83a.39.39,0,0,0-.41.24c-.13.19-.36.16-.52.28s-.57.28-.84.45a1.6,1.6,0,0,0-.51.28,1.69,1.69,0,0,1-.48.3v.21c.1.1.18.26.29.28a1.8,1.8,0,0,1,.7.32,3.66,3.66,0,0,0,.65.43c.17.08.24.3.49.32s.29.37.55.4.29.31.48.36a1.38,1.38,0,0,1,.57.37c.16.15.43.15.57.37s.45.13.57.35c.3,0,.37.32.58.36s.38.25.57.38.44.15.57.37.39.08.5.29.42.19.56.37.42.23.56.38.55.26.73.5.49.21.65.43c.37,0,.43.41.75.44s.32.4.56.4.39.49.75.42c.21.27.56.35.8.58s.66.33.87.65c.24-.08.32.22.53.22a.29.29,0,0,1,.17.07c.18.32.58.31.8.58s.6.29.79.59c.29,0,.37.29.57.35s.43.35.65.43a1.92,1.92,0,0,1,.57.39c.15.12.39.08.49.29s.34.19.51.29a5.62,5.62,0,0,1,.65.43c.21.15.43.3.65.43a2.62,2.62,0,0,1,.63.46c.35,0,.44.41.75.44s.38.5.75.44a1.61,1.61,0,0,0,.72.51c.14.3.52.27.71.51s.52.26.76.41a.72.72,0,0,1,.24.18c.13.17.33.2.5.29s.29.34.57.38.28.34.55.41.36.32.56.38.35.4.55.4.37.33.63.25a2,2,0,0,0,.64.46c.22.1.38.35.65.42.16.29.54.27.72.52s.5.19.64.43.49.19.66.43.5.27.75.41a.55.55,0,0,1,.23.19c.13.23.45.16.58.36s.39.24.57.37a2.83,2.83,0,0,0,.57.38c.22.09.37.36.65.42.16.28.53.29.71.51s.5.21.65.44.52.27.74.49.52.29.7.53c.22,0,.34.21.52.23a.55.55,0,0,1,.33.21.71.71,0,0,0,.43.24c.13,0,.23.29.37.33s.42.36.65.43.43.3.64.46c.34-.06.4.38.65.4s.38.38.66.42h.25l.41-.29a.92.92,0,0,1,.19-.7v-.54l.2-.22,0-.43c.09-.1.14-.14.19-.19v-.62l.21-.23v-.39l.21-.25v-.58l.19-.23c0-.29-.1-.59.19-.78-.09-.39.34-.65.23-1l.21-.22v-.61l.21-.23V52c.34-.13.08-.52.3-.7s.1-.24.11-.37-.06-.35.11-.47,0-.4.14-.56l.19-.18v-.63l.18-.18v-.61l.21-.23v-.4l.21-.24v-.58l.21-.25c-.11-.46.23-.82.25-1.25,0-.05.09-.1.14-.15l0-.44.19-.19v-.62l.21-.23v-.39L48,43.1c0-.23,0-.49.06-.62a.66.66,0,0,0,.15-.56c0-.24.19-.35.21-.53s0-.42.21-.54v-.62l.21-.23v-.4l.21-.23v-.6l.2-.23c0-.27-.11-.57.18-.77,0-.44.41-.78.21-1.23l.23-.26v-.39l.21-.23v-.61l.22-.23v-.39l.19-.23c0-.28-.11-.58.18-.77,0-.44.41-.78.21-1.23l.23-.26v-.39l.21-.23v-.61l.22-.23v-.61a.6.6,0,0,1,.08-.08c.25-.17,0-.56.28-.72,0,0,0-.18,0-.28s-.06-.35.12-.47,0-.4.14-.56l.15-.15V27l.21-.23v-.41l.22-.23v-.59l.2-.24a3.05,3.05,0,0,0,0-.43c0-.16.11-.23.17-.34s0-.27.05-.4a1.24,1.24,0,0,1,.2-.29v-.56l.2-.23v-.4l.22-.23v-.61l.21-.23v-.39l.18-.21c0-.24,0-.5.06-.63a.67.67,0,0,0,.16-.56c0-.24.19-.35.2-.54s0-.41.21-.53V18.1l.22-.23v-.4l.21-.23v-.62c.33-.14.08-.52.3-.7s.1-.24.11-.37-.06-.35.11-.47,0-.4.15-.56l.15-.15v-.61l.21-.23v-.4l.21-.24V12.3l.2-.23c0-.16,0-.3,0-.43s.11-.24.17-.35,0-.27,0-.39a1.12,1.12,0,0,1,.2-.3V10l.21-.23v-.4l.21-.23v-.6l.23-.26c-.15-.25,0-.42.16-.62S57.79,7.22,58,7s0-.53.17-.8c.25-.08.11-.32.15-.53l.2-.22V4.86l.21-.23V4.24L59,4V3.39c.36-.16,0-.62.38-.78l0-.67.18-.19c0-.19,0-.39,0-.6C59.57,1.13,59.54,1.1,59.5,1.05ZM42.62,60.69a2,2,0,0,0-.45-.43,3.54,3.54,0,0,1-.65-.44c-.14-.11-.38-.11-.49-.3s-.35-.15-.5-.29-.4-.19-.58-.36-.52-.27-.71-.52c-.27,0-.4-.21-.57-.36s-.4-.09-.5-.3-.45-.14-.57-.36-.44-.19-.56-.37-.54-.27-.73-.51-.51-.26-.76-.41c-.06,0-.14,0-.16-.1-.16-.3-.55-.26-.72-.52s-.49-.18-.66-.43-.54-.22-.72-.51-.39-.08-.49-.29-.4-.2-.58-.36-.36-.12-.49-.3a.88.88,0,0,0-.37-.35,2.18,2.18,0,0,1-.43-.22c-.09-.07-.25,0-.35-.16a.79.79,0,0,0-.49-.31c-.2-.05-.27-.35-.56-.4s-.29-.35-.46-.37a.77.77,0,0,1-.49-.31c-.16-.18-.46-.12-.57-.37s-.4-.11-.5-.29-.53-.26-.72-.51-.51-.27-.76-.41a.49.49,0,0,1-.16-.1,1.78,1.78,0,0,0-.57-.38,4.94,4.94,0,0,0-.65-.44,5.1,5.1,0,0,0-.57-.37c-.22-.09-.37-.37-.65-.42-.16-.28-.53-.29-.71-.52s-.49-.21-.66-.43c-.36,0-.43-.4-.74-.44s-.33-.37-.56-.4-.33-.21-.49-.33-.45-.14-.57-.36-.38-.09-.5-.29a.57.57,0,0,0-.3-.26.66.66,0,0,1-.34-.18,1.49,1.49,0,0,0-.32-.24,2.39,2.39,0,0,1-.67-.36c-.21-.24-.57-.23-.73-.5s-.36-.14-.5-.29-.24-.3-.49-.33-.29-.35-.45-.37-.37-.33-.57-.38-.39-.25-.57-.38-.43-.16-.57-.37-.42-.15-.59-.36a1.26,1.26,0,0,0-.56-.36.76.76,0,0,1-.42-.23.71.71,0,0,0-.42-.24c-.14,0-.23-.29-.38-.33a1.25,1.25,0,0,1-.57-.38c-.14-.13-.39-.08-.49-.29s-.45-.16-.57-.37-.45-.19-.57-.37-.53-.27-.73-.5-.51-.26-.75-.42a1.13,1.13,0,0,1-.24-.17c-.25-.27-.66-.33-.87-.66-.29,0-.37-.28-.58-.35s-.42-.35-.64-.43a1.78,1.78,0,0,1-.57-.38c-.15-.12-.4-.09-.5-.3s-.33-.19-.5-.28a7.31,7.31,0,0,1-.65-.43c-.21-.15-.43-.31-.65-.44a2.37,2.37,0,0,1-.63-.46c-.27.07-.4-.39-.71-.19,0,0-.05.06-.05.08v1l.2.2v.8l.23.3v1l.17.16c.05.37,0,.75,0,1.08l.18.18v1l.22.23v.81l.21.23v1l.19.19v.81l.23.29v1l.17.17c0,.36,0,.74,0,1.07l.18.18c0,.3,0,.6,0,.83l.21.22v1l.21.24v1l.19.19v.81L4,50.2v1l.21.2v.83l.18.19v1l.22.23v1l.21.24v1l.19.2v.8l.24.29V58l.16.17c.06.37,0,.74,0,1.08l.18.17c0,.37,0,.75,0,1.06l.19.2v1L6,62v.81l.19.19v.8l.24.3v1l.16.17c.06.37,0,.74,0,1.08l.18.18c0,.36,0,.74,0,1.06l.19.19v1l.21.24v.81l.19.19v.8l.24.3v1l.16.16c.06.37,0,.75.05,1.08l.17.18c0,.36,0,.74,0,1.06l.19.19v1L8.5,76v.81l.19.19v.83l.22.22v1l.22.22v.83l.19.18v1.23l.21.24v.81l.21.23v.82l.19.19v1l.22.22v1l.22.22v.83l.18.18c0,.37,0,.75,0,1.06l.18.2v1l.21.23v.82l.19.19v1l.22.22v1l.22.22v.83l.19.18a9.23,9.23,0,0,0,0,1.07l.18.19v1l.21.24v.81l.19.19v1l.22.22V100l.19.18,0,.71.3,0c.18-.26.45-.39.54-.73s.49-.41.61-.78.4-.38.53-.61.17-.43.38-.56.29-.44.44-.65.43-.38.53-.71.5-.39.56-.69.51-.38.44-.75c.19-.2.47-.36.56-.6a1,1,0,0,1,.39-.55c.28-.16.23-.48.43-.66a1.49,1.49,0,0,0,.45-.53,1,1,0,0,1,.37-.47c.19-.16.21-.41.36-.57a2.76,2.76,0,0,0,.44-.65c.13-.26.54-.34.51-.72a3.5,3.5,0,0,0,.5-.52,1.69,1.69,0,0,1,.45-.64c.21-.14.24-.38.37-.57s.44-.38.51-.61A1.2,1.2,0,0,1,23,87.8c.23-.18.16-.52.43-.65s.15-.36.29-.5.36-.27.43-.45c.14-.36.49-.56.64-.87a1.73,1.73,0,0,1,.47-.62c.24-.17.19-.49.43-.67a1.42,1.42,0,0,0,.47-.62c.08-.24.36-.4.56-.6-.07-.39.5-.46.44-.85.23-.27.58-.46.65-.86.38-.26.5-.72.82-1s.43-.76.79-1c.08,0,.19-.15.19-.22,0-.3.33-.36.38-.57a1,1,0,0,1,.39-.56c.2-.16.22-.4.36-.58a3.59,3.59,0,0,0,.6-.78c.15-.31.5-.51.65-.87.09-.21.43-.32.48-.52s.3-.43.46-.64a3.29,3.29,0,0,1,.37-.57c.22-.18.23-.47.43-.66s.47-.3.44-.64a2.74,2.74,0,0,0,.6-.68c.12-.27.35-.4.5-.62a2.42,2.42,0,0,1,.51-.72A.59.59,0,0,0,36,70c0-.26.46-.31.41-.66,0,0,0,0,.06-.07a3.4,3.4,0,0,0,.61-.78c.13-.32.5-.5.65-.87s.44-.38.51-.61a1,1,0,0,1,.43-.54c.23-.18.17-.52.43-.66s.2-.48.43-.65c.41-.3.52-.87,1-1.15,0-.34.31-.5.51-.72s.28-.6.58-.8a.31.31,0,0,0,.2-.32c.33-.33.45-.81.83-1.11Zm38.08,50c.18-.2.3-.33.49-.29a8.37,8.37,0,0,1,1.08-.89c.14-.13.31-.08.43-.2s.29-.3.44-.44a.6.6,0,0,1,.26-.11c.26-.08.33-.46.66-.42,0,0,0,0,.08-.06a3.59,3.59,0,0,1,.69-.58c.29-.13.5-.47.79-.58s.38-.52.75-.45a3.13,3.13,0,0,1,.68-.59c.27-.11.39-.36.62-.5a2.3,2.3,0,0,0,.72-.51c.08-.1.21-.23.31-.23.34,0,.38-.5.76-.45.08,0,.19-.18.29-.27a2,2,0,0,1,.56-.39c.23-.1.41-.31.65-.43s.4-.42.7-.56a3.2,3.2,0,0,0,.69-.6c.37,0,.47-.34.71-.51.06,0,.11-.11.16-.11.34,0,.37-.38.66-.42s.4-.35.62-.49.18-.08.26-.13.25-.22.39-.31.29-.13.42-.22.32-.45.62-.51.37-.28.53-.44.51-.19.65-.44.38-.1.51-.28.26-.38.44-.43a.91.91,0,0,0,.55-.39c.17-.26.49-.23.65-.44s.41-.21.58-.36.34-.34.51-.51c.33,0,.44-.27.65-.44a.85.85,0,0,1,.33-.21c.14,0,.25-.2.39-.29s.33-.12.41-.23c.32-.41.87-.53,1.17-1a.56.56,0,0,1,.34-.18c.25-.06.32-.45.66-.41,0,0,0,0,.07-.07.35-.46,1-.63,1.31-1.09a.24.24,0,0,1,.17-.07c.21,0,.25-.21.4-.3a3.36,3.36,0,0,0,.42-.22c.18-.15.34-.34.51-.51.34,0,.44-.28.65-.44s.15-.18.23-.18c.3,0,.36-.35.56-.38a1,1,0,0,0,.64-.47c.14-.17.36-.15.5-.28l.52-.51c.37.06.43-.39.75-.44s.45-.51.78-.61.45-.39.7-.56c.07,0,.19,0,.27-.08s.28-.35.55-.42.38-.28.53-.45.43-.15.59-.36a1.73,1.73,0,0,1,.62-.47c.25-.13.47-.34.73-.49s.34-.4.62-.5a1.53,1.53,0,0,0,.54-.45c.18-.2.51-.15.65-.43s.42-.15.58-.36a2.19,2.19,0,0,1,.47-.42v-.7l-.23-.28a.81.81,0,0,0-.17-.82c.09-.35-.35-.59-.21-.95l-.21-.23v-.61l-.21-.23v-.41a.38.38,0,0,1-.2-.43c0-.21-.17-.28-.21-.43s0-.31,0-.39a.77.77,0,0,1-.18-.45,1.4,1.4,0,0,0-.19-.44V76l-.21-.23v-.4l-.21-.23v-.39l-.21-.24v-.61c-.29-.14-.1-.48-.25-.63s-.09-.39-.17-.55a.94.94,0,0,1-.19-.65l-.21-.23v-.4l-.21-.23v-.61c-.27-.15-.12-.46-.24-.62s-.12-.37-.19-.55-.23-.39-.2-.65c0-.07-.11-.15-.19-.25V68l-.21-.23v-.41l-.21-.22v-.4l-.2-.22c0-.25.12-.52-.11-.7s0-.45-.2-.65a2.29,2.29,0,0,1-.32-.58V64l-.2-.22v-.41l-.21-.22v-.62c-.27-.14-.12-.46-.25-.62s-.11-.37-.18-.55a4.36,4.36,0,0,1-.21-.64c-.06-.21-.23-.39-.18-.65l-.21-.22v-.61l-.22-.23v-.39l-.2-.24c-.09-.23.09-.47-.08-.7a3.07,3.07,0,0,1-.24-.62c-.08-.21-.2-.4-.3-.6V56l-.2-.23v-.4l-.22-.23v-.61c-.27-.15-.11-.47-.24-.63s-.11-.37-.18-.55-.23-.39-.2-.64c0-.07-.12-.16-.19-.24l0-.43-.19-.19v-.62L109.2,51v-.32l-.3-.59h-.29c.16.31-.28.39-.23.69-.2.14-.21.4-.33.59a2.72,2.72,0,0,0-.32.69c0,.21-.28.38-.34.58a2.09,2.09,0,0,1-.24.73c-.13.18-.15.44-.29.6s-.12.46-.34.59a1.28,1.28,0,0,1-.33.68c-.15.22,0,.48-.19.66s-.09.39-.3.49c.07.23-.18.33-.23.53a1.31,1.31,0,0,1-.29.59c-.13.16-.1.37-.27.52s0,.36-.14.56c-.38.66-.7,1.36-1,2.05a4,4,0,0,0-.49,1,4,4,0,0,1-.32.8c-.12.3-.29.57-.43.86s-.31.56-.44.85-.38.55-.29.91a3.5,3.5,0,0,0-.36.58,4.81,4.81,0,0,1-.25.51c-.1.2-.13.47-.28.6s0,.48-.21.64-.13.45-.34.59c.05.26-.3.36-.24.62-.22.18-.25.45-.38.67s-.14.46-.29.6-.06.44-.2.65a7.58,7.58,0,0,0-.55,1c-.18.37-.38.74-.54,1.12s-.38.55-.31.91l-.36.36c0,.16,0,.39-.09.47s-.1.48-.35.59c.11.27-.24.36-.25.63s-.32.43-.35.66a1.88,1.88,0,0,1-.23.64c-.21.43-.43.86-.61,1.3-.08.17-.23.29-.26.51s-.24.38-.34.58.06.42-.15.56c-.38.81-.81,1.59-1.17,2.41-.32.14-.06.5-.28.72a3,3,0,0,0-.38.76c-.12.26-.25.52-.38.78a3.08,3.08,0,0,0-.36.78c-.36.15-.1.55-.34.8s-.26.57-.44.84a6.12,6.12,0,0,0-.38.77c-.12.3-.38.55-.29.91-.21.1-.18.34-.29.51a1.64,1.64,0,0,0-.31.58c0,.22-.3.3-.22.54-.22.13-.16.43-.35.58s0,.37-.13.56c-.24.38-.4.8-.61,1.19s-.36.76-.57,1.11a9.5,9.5,0,0,0-.53,1.23c-.07.17-.07.4-.28.51.08.26-.31.36-.22.63-.2.11-.19.34-.29.5a2.42,2.42,0,0,0-.32.59c-.06.18,0,.41-.19.54A9.6,9.6,0,0,1,86,98.81c-.17.38-.36.75-.55,1.11a3.26,3.26,0,0,0-.47,1.16c-.21.1-.12.35-.28.51a2,2,0,0,0-.28.6c-.08.17-.15.35-.24.52s-.26.37-.36.57,0,.38-.14.57-.18.41-.3.59-.22.46-.35.69-.23.53-.39.76.06.58-.29.71c.1.24-.18.33-.22.53a1.59,1.59,0,0,1-.29.6c-.13.16-.08.4-.29.5.06.26-.29.37-.23.63-.19.12-.15.39-.29.49s0,.48-.21.65S80.68,110.36,80.7,110.71ZM61.37,1.69l.81.8,1,1,1,1,1,1,1,1c.34.34.71.66,1,1s.73.46,1,.79c.46.51,1,1,1.46,1.47l1.53,1.53,1.46,1.46,1.54,1.54,1.46,1.46,1.54,1.53,1.46,1.46,1.46,1.47,1.53,1.53,1.46,1.46,1.54,1.54,1.46,1.46L87.6,27.7l1.46,1.47,1.53,1.53,1.46,1.46,1.47,1.46,1.53,1.54,1.46,1.46,1.54,1.53,1.46,1.47c.51.51,1,1,1.53,1.54s1.06.81,1.54,1.3c1.89,1.94,3.83,3.85,5.76,5.77,0,.05.08.23.23.07v-4l-.2-.2V40.41l-.2-.19V36.1s0-.06-.07-.1l-.13-.12V32l-.21-.23v-3.5l-.19-.19V24.72l-.22-.22V20l-.23-.3V16l-.18-.18V14.67l-.52-.61h-.6l-.23-.21h-.4l-.23-.21h-.61l-.23-.21h-.39l-.22-.19c-.23,0-.49,0-.62-.06s-.38-.1-.55-.17a1.35,1.35,0,0,0-.65-.21c-.07,0-.15-.11-.24-.19h-.6l-.23-.21h-.4l-.23-.21h-.62C99.25,12,99,12,98.83,12s-.23-.26-.43-.2-.35-.17-.53-.2a3.46,3.46,0,0,0-.55,0l-.2-.2h-.61l-.23-.21h-.41L95.64,11h-.51a1.25,1.25,0,0,0-.44-.19.71.71,0,0,1-.45-.18c-.08-.07-.26,0-.39,0s-.22-.25-.43-.21a3.08,3.08,0,0,1-.43,0l-.23-.2h-.39l-.23-.21h-.61l-.23-.21h-.39l-.22-.19c-.23,0-.49.05-.62-.06s-.39-.1-.56-.18a1.3,1.3,0,0,0-.64-.2c-.07,0-.16-.12-.25-.19H88l-.23-.21h-.41l-.23-.22h-.51a1.79,1.79,0,0,0-.44-.19.7.7,0,0,1-.45-.17c-.08-.07-.26,0-.39,0s-.22-.24-.43-.2a3.08,3.08,0,0,1-.43,0l-.22-.2h-.4l-.23-.21h-.61l-.23-.22h-.39L82.16,7c-.41.23-.72-.23-1.13-.19-.1,0-.21-.13-.3-.19h-.56l-.23-.2h-.39l-.23-.21h-.61L78.54,6c-.22-.1-.42,0-.54-.14s-.56,0-.72-.29c0,0-.19,0-.29,0s-.34.06-.47-.12-.39,0-.56-.14-.09-.1-.15-.15H75.2L75,5h-.41l-.23-.21h-.61c-.13-.23-.34-.19-.54-.2s-.24-.27-.44-.2-.34-.17-.52-.21h-.54l-.23-.2h-.39l-.23-.22h-.61L70,3.5h-.39l-.22-.19c-.23,0-.5,0-.63-.05s-.38-.11-.55-.18a1.3,1.3,0,0,0-.64-.2c-.08,0-.16-.12-.25-.19h-.6l-.22-.22h-.41l-.23-.21h-.62c-.14-.33-.52-.08-.7-.3s-.24-.1-.37-.11-.34.06-.47-.11-.4,0-.56-.15A1.06,1.06,0,0,1,63,1.44h-.4l-.23-.21h-.61L61.51,1c-.15.07-.34-.06-.47.1Zm-.45,113.49c.32-.37.74-.1,1.08-.24l.18-.19H63l.18-.18c.3,0,.6,0,.84,0l.21-.21h1l.23-.21h.81l.2-.19h.82l.22-.22h.83l.22-.22h.82l.19-.18c.3,0,.6,0,.86,0l.18-.2h.82l.24-.21h1l.19-.18.63,0,.27-.21h1l.21-.21h.82l.19-.18c.3,0,.6,0,.86,0l.18-.19c.23,0,.48.07.7-.08-.14-.34-.52-.34-.78-.56H75.58l-.2-.21H74.14l-.22-.21H72.68l-.18-.19H71.06l-.23-.21h-.61l-.19-.19H68.79l-.22-.22H67.33l-.22-.21H65.66l-.18-.19c-.44,0-.88,0-1.27,0l-.19-.19H62.79l-.23-.21H62l-.25-.21H60.29l-.2-.19H58.88l-.3-.24H57.17l-.17-.16c-.43,0-.87,0-1.27,0l-.19-.18H54.31l-.23-.22h-.6l-.24-.21H52l-.2-.19H50.4l-.3-.24H48.9l-.18-.18H47.3s-.06,0-.09-.06l-.14-.14H45.83l-.23-.22H45l-.24-.21H43.54l-.19-.19H41.9l-.22-.22H40.44l-.18-.18c-.44-.07-.88,0-1.29-.05l-.18-.17H37.56l-.22-.22h-.61l-.24-.21H35.06l-.19-.19H33.63l-.22-.22H32.17l-.22-.22H30.5l-.21-.21H29l-.18-.19h-.61L28,104H26.58l-.19-.19H25.15l-.21-.22H23.69l-.21-.21H22.23l-.18-.19c-.43,0-.88,0-1.27,0l-.19-.19h-.72a.36.36,0,0,1-.17-.07l-.16-.14h-1.2L18,102.5l-.29.42.52.27h.53l.22.21h.4l.23.21h.62c.13.35.51.09.71.29a.38.38,0,0,0,.26.11c.42-.08.73.28,1.13.27.05,0,.1.09.16.14h.6l.23.22h.41l.23.21h.52a1.58,1.58,0,0,0,.42.19.71.71,0,0,1,.46.17c.08.07.25,0,.39.05s.22.25.43.21a2,2,0,0,1,.43,0l.22.2.44,0,.18.19H28l.23.21h.39c.09.07.19.21.24.19.31-.1.5.24.74.21s.57.22.85.2.34.2.48.22.46,0,.65.06l.15.15h.61l.23.21H33c.19.36.67.07.86.41.43-.16.75.25,1.16.22.1,0,.21.14.29.19h.56l.23.21h.4l.23.21h.53a1.87,1.87,0,0,0,.41.2.65.65,0,0,1,.46.16c.08.07.26,0,.39,0s.22.25.43.21a3.08,3.08,0,0,1,.43,0l.22.19.44,0,.19.19h.61l.23.21h.4l.23.21h.61c.13.24.35.19.55.21s.23.27.43.19.34.19.63.23c.1,0,.31-.09.5,0l.15.15h.61l.23.21h.41c.19.36.67.08.86.41.43-.16.75.25,1.16.22.1,0,.21.14.29.2h.56l.23.2h.4l.23.21h.53a1.5,1.5,0,0,0,.41.2.65.65,0,0,1,.46.16c.08.07.26,0,.39,0s.22.25.43.21a3.08,3.08,0,0,1,.43,0l.22.19.44,0,.19.18h.61l.23.21h.4l.23.22h.61c.13.23.35.18.55.2s.23.27.43.2.34.18.53.21h.53l.23.2h.4l.23.21h.6l.24.22h.38l.24.19ZM40.52,4.34a3.74,3.74,0,0,0-.57.29,3.66,3.66,0,0,0-.44.44s0,.07-.08.07c-.28,0-.38.26-.58.35a1.54,1.54,0,0,0-.63.46c-.14.21-.4.21-.58.36s-.31.45-.61.51-.38.28-.54.45-.46.22-.66.42-.6.29-.78.59-.36.15-.5.29L34,9.09c-.37-.08-.45.35-.75.44s-.46.38-.69.58c-.37,0-.48.34-.72.51-.05,0-.1.13-.15.12-.34,0-.39.37-.66.42s-.46.38-.7.56c0,0-.05.06-.07.06-.26,0-.35.18-.5.31s-.42.15-.58.35-.22.35-.46.38-.36.29-.54.43a.69.69,0,0,1-.34.2c-.26,0-.32.44-.65.4,0,0-.06,0-.08.06-.35.46-.95.64-1.31,1.09a.26.26,0,0,1-.17.09c-.32,0-.38.49-.75.43,0,0-.05.05-.07.07a2.72,2.72,0,0,1-.62.52c-.28.1-.39.36-.61.5s-.18.08-.26.14-.25.21-.39.3-.29.14-.42.22-.32.45-.62.51-.38.28-.54.45-.51.18-.64.43-.38.1-.51.29-.27.37-.44.42a1,1,0,0,0-.56.39c-.16.26-.48.24-.65.44s-.39.23-.57.36-.33.46-.61.52-.4.36-.62.5-.18.08-.26.13-.25.22-.39.31-.3.13-.42.23a4.79,4.79,0,0,0-.52.49c-.35,0-.42.31-.64.45s-.16.17-.24.16c-.35,0-.38.5-.76.44-.08,0-.19.18-.29.28a1.92,1.92,0,0,1-.57.39c-.23.09-.4.36-.59.56-.38-.09-.41.44-.76.41l-.68.61c-.37,0-.47.35-.71.51-.06,0-.11.12-.16.11-.34,0-.38.39-.66.42s-.43.32-.61.5-.39.09-.52.28a3,3,0,0,1-.43.45c-.39-.07-.46.51-.85.44a2.93,2.93,0,0,1-.69.59c-.33.15-.48.46-.78.64H5.07c-.08.13-.26.18-.25.37.21,0,.39.11.58-.06a2.37,2.37,0,0,1,.42-.22c.16-.11.24-.36.5-.3.47-.34,1-.51,1.51-.82.35,0,.39-.51.76-.42.25-.27.64-.31.93-.51.13-.08.29-.13.42-.22s.24-.31.5-.32.23-.25.43-.19c.1-.21.34-.18.5-.29.38-.24.86-.34,1.14-.73.28,0,.47-.2.71-.3a7.32,7.32,0,0,1,.69-.33c.26-.08.32-.46.65-.42.47-.35,1-.47,1.52-.82.36.05.4-.48.76-.42.46-.35,1.05-.47,1.52-.82.36.05.39-.48.76-.42.43-.33,1-.45,1.43-.78.39.05.46-.49.84-.46a8.32,8.32,0,0,1,.93-.5,3.07,3.07,0,0,0,1.15-.72,2.43,2.43,0,0,0,.7-.3,6.22,6.22,0,0,1,.69-.33c.27-.08.32-.47.65-.42.47-.36,1.06-.48,1.52-.83.21,0,.32-.11.41-.25s.35-.15.52-.27a4.27,4.27,0,0,1,.85-.44,6,6,0,0,0,.64-.44c.25-.14.52-.25.77-.38s.57-.29.86-.42a6.16,6.16,0,0,0,.65-.44c.24-.14.51-.25.77-.38l.86-.43a5.05,5.05,0,0,0,.58-.36c.2-.13.45-.23.67-.35s.41-.18.6-.31a4.94,4.94,0,0,0,.76-.39,5.68,5.68,0,0,1,.92-.54c.19-.11.4-.19.6-.31s.42-.3.64-.43.52-.26.77-.39.58-.27.86-.43.39-.09.49-.3.37-.14.5-.29.4-.08.5-.29c.27.08.37-.31.63-.23a2,2,0,0,1,.89-.6c.31-.15.62-.32.95-.45A1.37,1.37,0,0,0,44.23,9a4.36,4.36,0,0,1,1-.6A7.66,7.66,0,0,0,46.08,8a2.37,2.37,0,0,1,.65-.43,6.22,6.22,0,0,0,.69-.33,5.72,5.72,0,0,0,1-.56,4.7,4.7,0,0,1,.85-.47c.44-.24.91-.46,1.36-.7a4.26,4.26,0,0,1,.65-.42A5.47,5.47,0,0,0,52,4.75a6.2,6.2,0,0,0,1-.56,5,5,0,0,1,.84-.47,8.13,8.13,0,0,0,1-.55,6.44,6.44,0,0,1,.83-.49,12,12,0,0,0,2.18-1.23c.06-.06.18-.05.29-.07l0-.33H57.6l-.25.2h-.79l-.2.2h-1l-.16.17c-.25.08-.5-.05-.73.1l-.13.13h-1L53,2.07h-.81L52,2.26h-.83L51,2.48H50l-.22.22h-.83l-.22.21h-.83l-.17.19h-.83l-.23.21h-.82l-.18.19H44.8l-.22.22h-1l-.22.22H42.5l-.22.21h-.83l-.18.19Zm75.72,68c-.13.31.23.51.19.75s.3.43.24.74.32.44.19.75l.2.23v.6l.22.23V76l.2.23c-.15.34.21.55.22.85a2.69,2.69,0,0,0,.28.7c.06-.06.1-.08.1-.1a4.35,4.35,0,0,0,0-.51,2.94,2.94,0,0,0,0-.79l-.17-.16c0-.3,0-.61,0-.84l-.21-.22v-1l-.21-.24v-.81l-.19-.19v-1l-.23-.3v-1l-.21-.21v-.83l-.18-.18v-1l-.22-.23v-1l-.21-.23v-.81l-.19-.19v-1l-.24-.3v-.79l-.16-.17c0-.43,0-.88,0-1.27l-.18-.19v-.82l-.22-.23v-.81L115,60V59l-.19-.2V58l-.24-.3v-1l-.18-.19v-1s0-.06-.06-.09l-.14-.14c0-.3,0-.61,0-.84l-.2-.21v-1l-.21-.24V52l-.19-.2V51l-.24-.3v-1l-.18-.19v-1s0,0-.06-.08l-.14-.14c0-.3,0-.61,0-.84l-.2-.22v-1l-.21-.24v-.81l-.19-.19V44l-.24-.3v-1l-.2-.21v-.82l-.19-.19v-1l-.21-.23v-1l-.21-.24v-.81l-.19-.19v-1l-.24-.3v-1l-.2-.21v-.83l-.19-.18v-1l-.21-.23v-1l-.21-.23v-.81l-.2-.19v-1l-.23-.3v-.79l-.18-.18c0-.33,0-.67,0-1,0,0,0-.06,0-.08l-.15-.15v-1l-.21-.23v-.81l-.21-.24v-.81l-.2-.19V22.87l-.23-.29v-.79l-.18-.18V20.39l-.21-.24a1.51,1.51,0,0,0-.12-.77l-.29.42v1.81l.2.2v3.92L108,26V30.3l.19.18s0,.06,0,.09c0,.73,0,1.45,0,2.17,0,0,0,.06,0,.08l.15.16v3.71s0,.05.1.12l.11.09v4.55l.21.24v3.5l.19.19v3.7l.22.27v.53l.41.75v.54l.21.22v.4L110,52v.4l.19.21c0,.24,0,.5.06.63s.1.38.17.55a1.32,1.32,0,0,1,.21.65c0,.07.11.15.19.24v.39l.21.23v.61l.21.23a1,1,0,0,0,.19.65c.08.16,0,.37.17.55s0,.48.24.62c0,.22,0,.49.22.63v.62l.21.23v.4l.22.23v.39l.21.25v.53l.4.75v.52l.2.23v.4l.21.23v.4l.22.23v.61c0,.06.14.1.14.15,0,.3.23.55.25.83s.36.5.23.85c0,0,.12.15.19.24v.59l.21.24v.4l.22.23v.39l.21.25v.52l.4.75c.06.2-.07.41,0,.6l.15.15v.41l.22.23v.6Z"/></g></g></svg>