<svg xmlns="http://www.w3.org/2000/svg" viewBox="0 0 360.18 157.92"><title>Recurso 6GRAPHS</title><g fill="rgba(80, 255, 80, 0.666)" id="Capa_2" data-name="Capa 2"><g id="Capa_1-2" data-name="Capa 1"><path d="M116.32,154.33l-.2-.2a.75.75,0,0,0-.24-.08h-1.5l-.24.24H66.78l-.22-.21H65.4l-.23.23H19.25l-.29-.25h-.55l-.26.24c-.45-.28-1-.44-1.25-1.11l.14-.33,0,0a.75.75,0,0,0,.08-.24V66.72c-.25,0-.57,0-.74-.16s-.64-.14-.78-.47-.49-.2-.67-.39l0-.28-.55-.58v-3c.27-.3.68-.49.6-1h.37c.27-.24.45-.59.86-.59.19-.39.59-.14.85-.3.16-1.87.21-44.61.07-56.23l-.29-.32c.07-.45.48-.63.63-.8l.73-.37H359.13l1.05,1-.3.61v149l.26.39-1.05,1-.21-.16h-1.09l-.29.25H311.32l-.29-.27h-.82l-.29.27H263.18l-.2-.2a1,1,0,0,0-.25-.07h-1.21l-.24.25h-47l-.28-.22h-1.69l-.24.23H165.28l-.29-.25h-1.37l-.29.27ZM114.38,3H66.8l-.38.42V17.31c.06.05.1.1.13.1q23.83,0,47.67,0a1.09,1.09,0,0,0,.24-.07l.31-.31V3.42Zm1.38,14.39h47.58a1.22,1.22,0,0,0,.27,0s.06-.06.12-.12V3.42L163.32,3H115.75l-.37.42V17Zm-50.2,0V3.45a2.43,2.43,0,0,0,0-.27s-.06-.07-.11-.12h-47L18,3.44V17.15a.29.29,0,0,0,0,.13.57.57,0,0,0,.11.12Zm0,.85H18.71a2.43,2.43,0,0,0-.27,0s-.07.05-.13.09l-.3.32V32.17l.37.46h47s.06,0,.12-.1ZM358.88,3H311.45c-.08,0-.15.06-.23.09l-.29.29V17.34c1.62.12,15.44.16,21.16.06l.42-.92c.46-.49.84-.89,1.07-1.12l1.3-.68h.94l1.23.59,1.23,1.18V17l.4.4c10.39.09,18.92.06,20.59-.08V3.42ZM66.43,137.91c.06.05.1.09.14.09h47.25c.17.13.29.37.57.27l.41-.41V124.63a2.62,2.62,0,0,0,0-.28s0-.07-.08-.13l-.35-.32H66.65a.25.25,0,0,0-.13,0,.26.26,0,0,0-.09.09Zm48.92-13.6v13.28a2.62,2.62,0,0,0,0,.28s.07.06.15.13h47.21l.6.4.44-.66V124.17s0-.1,0-.13-.06-.07-.11-.12H115.77Zm48.37,14.89c-1.29-.11-30.2-.16-47.81-.08-.17,0-.37-.09-.54.11v13.6l.41.39h47.7s.1,0,.13,0,.07-.06.11-.1Zm-97.33-.06v13.8a.32.32,0,0,0,0,.14s.06.06.11.12h47.85l.44-.38V139.38a.57.57,0,0,0,0-.13.38.38,0,0,0-.11-.11Zm147.15-15.21v13.94c.21.15.32.46.67.41l.3-.27h46.18c.16.13.28.37.57.27l.39-.4c.09-6.57.06-12.37-.07-13.95ZM165.29,138h46.42l.41.31c.29-.07.39-.3.57-.43.09-5.27.06-12.4-.06-14H164.69l-.38.38.28.3v13.26l.39.4Zm48.27,15.1c.06,0,.09.11.13.11h47.83s.06-.06.12-.11V139.23c-.06-.06-.09-.11-.13-.11H213.68s-.06.06-.12.11Zm-48.95.11h47.95s.06-.06.1-.09a2.21,2.21,0,0,0,.05-.25q0-6.7,0-13.41a1.14,1.14,0,0,0-.1-.36H164.73s-.07,0-.12.1ZM18,94.44V108l.39.38H65.47c0-.07.09-.1.09-.14V97.49c.23-.22.45-.41.14-.69h-.81c-.21-.19-.39-.48-.62-.53-.45-.11-.63-.49-.92-.75-.08-.56-.64-1-.56-1.57,0,0-.1-.12-.14-.17l-.31.26H18.4Zm96.39-76.19H67.11a2.61,2.61,0,0,0-.28,0s-.07.05-.1.08l-.31.31v13.6l.4.39H87.44c.07,0,.15-.07.23-.1l0-.83,1.51-1.56c.3.11.39-.19.59-.27h2.07a.5.5,0,0,1,.13,0c1.65,1.56,1.65,1.56,2.14,2.71h17.49a1.45,1.45,0,0,0,.3-.31c.16-.3.28-.62.44-1a4,4,0,0,1,1.31-1c.39-.15.75-.38,1.09-.55V18.65Zm148.14,135H309.9a1.06,1.06,0,0,0,.13-.09l.29-.32v-2.42l-.3-.55.32-.36v-.54l-.27-.28.27-.29v-6.9l-.26-.29c-.12-.32.22-.4.24-.5V139.5l-.4-.39H262.64s-.07.06-.12.11ZM19,138h45.6c.17.14.29.37.57.26l.4-.4V124.06s0-.07-.1-.13h-47l-.43.37v13.58c.18.12.26.38.61.41Zm46.55,1.1H19l-.29-.27H18.4l-.39.39c-.09,5.12-.06,12.39,0,13.92,0,0,.08.07.11.07H65.3a.29.29,0,0,0,.13,0,.5.5,0,0,0,.11-.1Zm245.77-30.7H358.6a2.43,2.43,0,0,0,.27,0s.07-.06.1-.09l.3-.29V94.4l-.41-.37H338.78c-.07,0-.15.08-.22.12v.55c-.22.28-.51.47-.62.86s-.43.45-.66.67c-.45-.06-.53.46-.78.53h-2.09l-.69-.29L332.2,95c-.05-.24.09-.48-.11-.66H313.7l-.07.69-.78.78,0,.28c-.44.23-.88.49-1.35.7a1.64,1.64,0,0,1-.55,0V108Zm-.39,44.81h48.24s.07-.07.11-.11v-14h-20c-.21-.2-.39-.46-.69-.14v.75l-.95,1.33h-.49l-.62.8h-2.27l-.79-.8h-.28c-.44-.33-.47-1-.89-1.19-.18-.37.06-.71-.16-1s-.44,0-.61.21H311.19a.32.32,0,0,0-.14,0s-.07,0-.13.1ZM163.27,123.07c.38-.25.49-.45.49-.77q0-6.42,0-12.85a.31.31,0,0,0-.05-.12.75.75,0,0,0-.24-.08c-9.31-.12-46-.07-47.78.07l-.31.34v13l.38.45Zm-48.89-13.83H66.55s-.07,0-.13.1v13.29l.37.43h47.29a2.43,2.43,0,0,0,.27,0,.28.28,0,0,0,.11-.08l.31-.31V109.63Zm98.3.11c-.07,0-.1-.1-.14-.1H165a1.31,1.31,0,0,0-.28,0s-.06.06-.11.12V123c.06.05.09.11.12.11h47.58l.37-.42ZM212.29,3H165a1.31,1.31,0,0,0-.28,0s-.06.06-.11.12V17.31c.06.05.09.1.13.1h20.32a.32.32,0,0,0,.14,0s.06-.06.11-.1c-.13-.43.26-.72.32-1.16a4.89,4.89,0,0,0,.63-.65c.18-.24.46-.25.68-.38l.79-.44h1.13c.11.48.54.14.8.3s.36.53.76.53a.55.55,0,0,1,.38.36c.1.49.49.72.76,1h18.27a6.91,6.91,0,0,0,.6-.62,1.41,1.41,0,0,0,.17-.46h.45l.75-.83.52,0,.37-.4V3.44ZM310.9,109.26V119.9l.41.39h.48c.32.15.42.51.77.57s.5.38.71.6.17.48.38.68,0,.35,0,.52l.39.39h44.87l.38-.41V109.49a.3.3,0,0,0,0-.13s-.07-.06-.1-.1ZM212.71,108q0-5.46,0-10.92a1.08,1.08,0,0,0-.11-.29h-.81L209.94,95c0-.19.1-.44-.11-.62-3.87-.08-16.92,0-18.38,0l-.06.6a2.77,2.77,0,0,0-.52.67.86.86,0,0,1-.61.61,2.61,2.61,0,0,0-.69.54h-2.41s-.07,0-.2-.13-.22-.35-.4-.4c-.61-.14-.84-.58-1.06-1.08s-.39-.76-.59-1.15H167.78a2.62,2.62,0,0,0-.28,0s-.07.06-.1.09a10.92,10.92,0,0,1-.63,1.4c-.27.64-1.09.74-1.51,1.28-.3,0-.63-.11-.91.09s.05.43.23.6v10.62a.57.57,0,0,0,0,.13.76.76,0,0,0,.1.14h47.64Zm.85,15.07H261.5s.07,0,.1-.07a1.22,1.22,0,0,0,.06-.26v-10.5c0-.07-.08-.15-.13-.23H261c-.29-.2-.44-.6-.87-.58l-.67-.69c.06-.44-.44-.54-.55-.87s.1-.47-.15-.63H213.69s-.07,0-.13.1ZM66.81,108.41h47.43a.65.65,0,0,0,.23-.09l.29-.29V96.83l-1-.06c-.29-.11-.34-.52-.75-.55-.22,0-.39-.29-.49-.57A2.61,2.61,0,0,0,112,95l0-.61H94.16a1.58,1.58,0,0,0-.41.65,2.82,2.82,0,0,1-1,1.25c-.45-.07-.54.44-.81.54H89.9l-.74-.32L87.69,95c0-.22.1-.47-.11-.66H69.18c0,.24,0,.46,0,.67l-1.46,1.47c-.41.13-.77.41-1.25.33V108Zm69.82-14.1H118.4a.73.73,0,0,0-.25.1l-.08.7c-.47.1-.43.61-.7.9s-.84.34-1,.72c-.36.16-.7,0-1,.17V108l.39.37h47.58l.4-.4V97.22a2.43,2.43,0,0,0,0-.27s-.06-.07-.1-.12c-.22-.12-.51.07-.74-.17s-.55-.23-.77-.49c-.36-.42-.78-.78-1.14-1.13-.06-.27.08-.51-.12-.7H143c0,.24,0,.46,0,.68l-1.77,1.77h-2.66l-1.93-1.93ZM289.75,17.42h20a.84.84,0,0,0,.23-.09l.31-.3-.25-.29.26-.29V15.35l-.26-.29v-.82l.24-.29-.23-.29.25-.25v-1.9s0-.07-.07-.11l-.2-.2v-.27l.27-.3V6.77l-.27-.29c-.11-.3.2-.39.25-.54V5.11l-.3-.37c.11-.19.22-.37.32-.56.1-.44-.29-.71-.36-1.12h-47.1l-.39.39V14.36a.34.34,0,0,0,0,.14s.05.06.18.22l1.22.64.8.81v.29l.42.38h18c.24-.34.64-.53.7-1a.55.55,0,0,1,.39-.35c.45,0,.52-.48.87-.57s.56.05.74-.28h.53c.22,0,.45-.07.66.08s.44.27.67.38a1.72,1.72,0,0,1,.77.49,3.16,3.16,0,0,0,.51.46A2.58,2.58,0,0,0,289.75,17.42ZM65.56,123.05V109.39s-.06-.07-.11-.12H18.38l-.39.39v12.85a.65.65,0,0,0,0,.14s.06.06.09.1l.31.3ZM191.4,34.44l-.71.71a5.37,5.37,0,0,0-.58.59c-.21.27-.63.16-.78.48h-1.84l-.41-.21-1.75-1.75,0-.48a3.47,3.47,0,0,0-.42,0q-8.77,0-17.55,0c-.08,0-.16.07-.25.11v.55l-.57.6v.29l-.55.19-.57.72c-.45.07-.78-.1-1.06.13l0,.29.28.3V47.41a1.31,1.31,0,0,0,0,.28s0,.07.12.15h44.18c.27,0,.55,0,.82,0,.08,0,.15-.08.23-.12v-.52c.19-.32.62-.46.58-.9l.7-.66c.44.06.53-.46.86-.55s.48.1.63-.16q0-4.22,0-8.43a.6.6,0,0,0-.11-.25h-.68l-.45-.57c-.4.06-.51-.33-.77-.48s-.11-.53-.38-.68-.32-.52-.49-.76c-9.11-.1-16.71-.07-18.39.07ZM45,47h18a1.59,1.59,0,0,0,.13-.22c0-.08,0-.17.06-.24l1.47-1.48h.83l.4-.4-.27-.3V33.88a2.43,2.43,0,0,0,0-.27s-.06-.07-.11-.13H18.38l-.38.39V47.44l.4.4H38.33l.39-.41v-.59c.44-.16.47-.68.78-1s.81-.36,1-.76h2.79s.07.07.1.1l0,.37c.35,0,.58.24.83.49S44.56,46.82,45,47ZM214,3l-.39.39c-.08,3.5-.05,9.75.05,11.16.17.13.28.31.54.37a2,2,0,0,1,.79.42c.28.23.64.47.75.79a1.3,1.3,0,0,0,.51.68h18c.26-.32.62-.52.71-1s.63-.3.85-.6.68-.38,1-.59H238l.43.25a5.92,5.92,0,0,1,.81.37,6.45,6.45,0,0,1,.59.58c0,.51.47.63.67.95h18.66l.47-.81.68-.67c.53-.36,1.12-.37,1.36-.86v-11L261.27,3Zm51.31,92c-.18.17-.38.35-.58.55a5.46,5.46,0,0,0-.67.69c-.18.24-.52.17-.67.39s-.65,0-.85.29q0,4.22,0,8.43a.73.73,0,0,0,.1.25h.75l1.87,1.87c.16.28-.12.62.18.91h44.54l.38-.75v-.79l-.24-.24.25-.3v-2.46l-.34-.45.35-.41V97.77l-.26-.3c.23-.2.42-.4.12-.68h-.83c-.25-.17-.39-.45-.73-.57a1.21,1.21,0,0,1-.82-1c-.41-.2-.09-.7-.38-.94h-17.7c-.47.37-.57,1-.88,1.43s-1,.55-1.33,1.05h-2.11l-.74-.35L283.26,95l-.05-.64a1.74,1.74,0,0,0-.3-.07H265.49c-.07,0-.15.08-.23.13ZM163.73,18.69l-.37-.44H116.07a2.62,2.62,0,0,0-.28,0s-.07.05-.1.07l-.32.32V29.76c1,.48,2.14.87,2.61,2h18.79c.47-.25.47-.84.87-1.16s1-.35,1.35-.77h1.55l1.34.66,0,.31,1,.95h17.85l1.91-1.91c.39-.06.72.07,1-.12ZM263.49,138h45.87l.3.27h.28l.36-.73-.23-.23.26-.29v-5.52l-.27-.31c.05-.39.47-.69.26-1.07l-.23-.31.25-.25v-2.46a2.61,2.61,0,0,0,0-.28s0-.07-.08-.11c-.22-.16-.54.09-.75-.19s-.53-.12-.67-.39a1.2,1.2,0,0,1-1-.82,1.44,1.44,0,0,0-.47-.57h-18c-.33.19-.34.56-.54.78s-.36.54-.72.58-.43.46-.67.54h-2.19a6.59,6.59,0,0,1-1.14-.8,12.45,12.45,0,0,0-.88-.89c-.18-.4,0-.73-.19-1H262.6c-.05.06-.1.1-.1.13q0,6.91,0,13.81c.2.13.28.39.63.42Zm95.78-74.13h-20l-.3-.27h-.27l-.4.8a3.52,3.52,0,0,1-.4.8c-.19.24-.36.54-.71.6s-.44.43-.7.53H334.3a4.15,4.15,0,0,0-.69-.52,1.63,1.63,0,0,1-.88-.92,2.64,2.64,0,0,0-1-1.27l-.28.24h-20.3a.34.34,0,0,0-.14,0,.35.35,0,0,0-.1.08s-.05.07-.05.11c0,3.64,0,7.28,0,10.92,0,.08.09.15.14.22h.55a2.83,2.83,0,0,0,.85.62c.35.15.6.56.89.85l.11.43c.17.06.4,0,.57.23s.45-.12.67-.19h16.45a.5.5,0,0,1,.13,0c.22.35.53.26.89.18.1-.31.5-.4.63-.82a1.18,1.18,0,0,1,1-.81c.23-.28.61-.32.89-.52.28,0,.56,0,.83,0s.55-.07.75,0c.54.4,1.21.48,1.58,1s.56,1.16.88,1.71c10.59.09,19,.06,20.59-.08Zm-46.85,27,1.52,1.53h18.48a4.09,4.09,0,0,1,.46-.8,1.59,1.59,0,0,1,.72-.6,3,3,0,0,0,.71-.51h2.23c.25.48.82.53,1.16.9s.38.92.85,1.13c.05.25-.09.5.12.68,3.54.09,19.17.06,20.59,0V79.22l-.37-.4H338.82a.29.29,0,0,0-.13,0s-.07.06-.11.1c.11.42-.25.72-.32,1.08l-1.58,1.59h-1l-.47.3-.54-.34H334c-.52-.53-1-1-1.51-1.5.06-.21-.06-.33-.18-.48a1.7,1.7,0,0,1-.18-.46c-5-.1-16.6-.07-18.17.06-.23.42-.44.89-.72,1.32s-1,.59-1.34,1.08h-.56l-.41.43v8.25s0,.07.07.11A5.43,5.43,0,0,1,312.42,90.84ZM234.31,62.22a4.86,4.86,0,0,1,1.48-1.93h.54l.31-.28H238l.31.29h.53l.89.88c.31.32.67.58.74,1h18.28l.69-.69v-.27c.21-.16.33-.39.65-.45s.41-.34.62-.53h.44l.77-.39-.27-.3v-8a2.48,2.48,0,0,0-1.23-.72l-1-1a4,4,0,0,0-.67-1.18c-7.5-.09-16.37-.06-18.06.06l-.2.2c-.2.22-.17.61-.49.76s-.13.52-.39.67l-.76.49a2.13,2.13,0,0,0-.3.3h-2.48c-.2-.19-.37-.47-.6-.53a.74.74,0,0,1-.65-.58c-.06-.31-.41-.38-.48-.63a1.39,1.39,0,0,0-.51-.75h-17.4a3.13,3.13,0,0,0-.79,1.32c-.29.22-.52.73-1,.88-.2.06-.27.25-.43.28a2.37,2.37,0,0,1-.53,0l-.41.41.27.29v8l1.05.48,1.85,1.84Zm-167-1.95c.34.17.45.6.9.6a.51.51,0,0,1,.37.37c0,.5.49.63.69.95H87.6c.22-.32.6-.46.66-.88a.56.56,0,0,1,.34-.39c.49-.1.72-.51,1.05-.79a1.27,1.27,0,0,1,.23-.12h.42l.3.28h.54l.35-.33c.18.11.35.3.54.31s.43.3.65.44a5.43,5.43,0,0,0,.54.27,1,1,0,0,0,0,.18l1,1.05H112l.08-.29,1.54-1.65h.81l.42-.39v-8a1.22,1.22,0,0,0,0-.27s-.06-.07-.11-.11c-.45.08-.78-.29-1.13-.37L112,49.64c-.06-.24.09-.49-.11-.66H93.81c0,.25,0,.46-.06.68l-.49.49-.1.38a1.77,1.77,0,0,0-.77.47,3.07,3.07,0,0,1-.72.4H89.73l-.52-.52h-.28l-.66-.66-.08-.38-.5-.17v-.59c-.19-.13-.27-.38-.62-.42l-.38.29H70.12c-.14-.17-.28-.36-.56-.26l-.39.39v.6l-.78.73a5.39,5.39,0,0,0-.58.59c-.18.22-.48.16-.69.36s-.48.12-.73.16v8.35l.41.4ZM216.18,31.8h17.94l1-1v-.27l1.34-.68h1.72l1.35.67,0,.25,1,1H259s.07-.05.1-.08c.39-.26.4-.78.77-1.07s.85-.33,1-.77l.71-.05V21.12a7.4,7.4,0,0,1-.8-.39c-.3-.18-.67-.22-.9-.49s-.55-.37-.49-.76c-.43-.2-.13-.69-.4-1h-18.5s-.07,0-.11.07a4.83,4.83,0,0,1-.4.93,2.49,2.49,0,0,1-.88.86,3.21,3.21,0,0,0-.86.62h-1.94c-.33-.49-.94-.63-1.35-1.05a9.35,9.35,0,0,1-.87-1.44H216.31a.86.86,0,0,0-.26.1v.53l-.86.76v.42l-1.65.79v8.52c0,.07.1.14.15.22h.58c.18.45.68.51,1,.77S215.72,31.54,216.18,31.8Zm42.61,1.93H240.65a1,1,0,0,0-.25.09l-.07.63L238.85,36h-.28l-.28.27h-1.88a7.54,7.54,0,0,1-.83-.51,6.32,6.32,0,0,1-.69-.68c-.21-.23-.5-.39-.6-.66l0-.6H216.41a1.22,1.22,0,0,0-.42.66,1.67,1.67,0,0,1-.47.76,1.35,1.35,0,0,1-.62.5,3.06,3.06,0,0,0-.74.53c-.21,0-.47-.1-.62.15V45a5.46,5.46,0,0,1,1,.48,3.83,3.83,0,0,1,.89.55c.28.3.24.8.66,1h18.35a1.26,1.26,0,0,1,.49-.8c.21-.17.38-.5.6-.52.4,0,.5-.38.75-.55h1.87l.69.33,1.18,1.16.1.38h18.91a1.94,1.94,0,0,0,.32-.33c.48-.79.48-.79,1.16-1.15.37-.2.75-.39,1.11-.57V36.47c0-.08-.08-.15-.12-.24h-.63c-.11-.13-.23-.38-.42-.46a2,2,0,0,1-.85-.61,9.59,9.59,0,0,1-.47-.9C259.06,34.07,258.91,33.9,258.79,33.73Zm51.53,30.62-.37-.46H289.71l-.41.9-1.57,1.57c-.25-.09-.33.24-.46.27h-1.71c-.24-.31-.66-.3-.88-.61s-.77-.19-.84-.59-.39-.59-.6-.86c-.05-.22.09-.46-.11-.66H265.36c-.05.06-.1.1-.1.13s0,.37,0,.53c-.19.27-.53.37-.58.76,0,.18-.27.46-.42.46-.45,0-.53.49-.88.58-.47-.09-.75.3-1.17.41l.28.28v8c.45.18.81.44,1.2.58a1.6,1.6,0,0,1,1,.84c.15.37.45.55.66.83,0,0,.16,0,.27.09l.38-.27h16.35c.18.4.51.26.87.2l.49-.81a2.92,2.92,0,0,1,.64-.62,3.46,3.46,0,0,0,.94-.69h2l.23.23h.31l1.88,1.93h.59l.29-.26h15.75l.3.26c.51.09.83-.27,1.23-.42v-.27c.26-.27.52-.53.79-.79s.39-.5.76-.49c.19-.42.7-.07.93-.38V70.94l-.26-.29.24-.24ZM283.22,79.1H265.54a1,1,0,0,0-.25.09l-.06.56-1.78,1.84h-.55l-.41.41q0,4.14,0,8.28s.05.07.09.12l.63.07c.17.18.33.46.5.48.49,0,.64.48,1,.71,0,.37.24.54.48.69h18.29l.09-.42c.27-.27.59-.55.85-.86s.7-.37,1-.61h2.14a4.09,4.09,0,0,0,.71.52,1.47,1.47,0,0,1,.83.81,1.15,1.15,0,0,0,.46.56h18.15c.58-.58,1.23-1.22,1.95-1.95h.66c0-.06.09-.1.09-.14v-5.2l-.25-.3v-.82l.23-.3-.24-.24.28-.33c-.1-.35.09-.77-.06-1.12l-.34-.33-.63-.08-.51-.51h-.2c-.83-.43-.84-1.38-1.43-1.92-7.25-.1-15.9-.07-17.6.07-.23.42-.45.89-.72,1.33s-1,.58-1.34,1.07h-2.42l-1.32-.94v-.41l-.57-.42ZM18.4,93.2h44s.07.06.12.09l.18.19.37-.72c-.24-.52-.9-.6-1.29-1a.56.56,0,0,0-.33-.19c-.27,0-.34-.29-.53-.4a3.81,3.81,0,0,0-.57-.29,2.42,2.42,0,0,1-.87-.58c-.17-.19-.47-.17-.67-.39a2.59,2.59,0,0,0-.75-.5,7.17,7.17,0,0,1-.94-.4,4.73,4.73,0,0,1-.64-.64,7.47,7.47,0,0,1-1.75-.93c-.38-.31-.9-.41-1.17-.86a4.39,4.39,0,0,1-1.35-.76,5.88,5.88,0,0,1-1.42-.9c-.35.11-.48-.4-.84-.3-.2-.17-.38-.45-.61-.5s-.49-.4-.74-.57c-.37.15-.48-.44-.85-.3,0,0-.06-.06-.09-.09-.33-.39-.83-.48-1.21-.75s-.81-.51-1.19-.81c-.35.08-.46-.24-.66-.4L44.33,81l-.49,0-.54.53c-1,0-2,0-3,0,0,0-.08,0-.11-.07L40,81H39.9c-.7-.27-.86-.81-1.17-1.32,0-.24.11-.57-.1-.86H18.37l-.37.39V92.8Zm295.27,30.73.94,1a5.23,5.23,0,0,1,1.2.64,13.93,13.93,0,0,0,1.64,1.06c.11.06.27,0,.35.14a4.14,4.14,0,0,0,.75.51c.26.16.58.17.8.45a2.44,2.44,0,0,0,.75.49c.19.11.4.12.58.29s.39.66.85.61c.19.33.63.27.88.56a3.35,3.35,0,0,0,.87.54c.11.06.3.07.34.16.22.4.72.35,1,.68s.69.35,1,.66a6.07,6.07,0,0,0,.85.59,1.65,1.65,0,0,0,.93.41c.2.34.68.24.87.59s.38.19.56.3.32.47.63.48.4.32.71.32.3.37.5.45a1.28,1.28,0,0,1,.66.41c.22.29.63.25.88.56a3,3,0,0,0,.94.53,6.92,6.92,0,0,0,.66-.67c.2-.28.63-.15.77-.49h1.58l.77.41.66.67.46.11c-.21.53.45.57.57,1.09v.7a1.3,1.3,0,0,0,.67.05l.28-.25h18.54c.23.36.55.28.86.22l.37-.38V124.15a.3.3,0,0,0,0-.13s-.07-.06-.09-.09ZM234.26,94.31H216.45a5.09,5.09,0,0,1-1.49,2l-.81.47c-.25,0-.58-.13-.86.09-.13.29.08.42.25.59v10.62a.65.65,0,0,0,0,.14s.05.07.11.15h45.12s.07-.06.1-.09l0-.3-.66-.66c-.35.08-.5-.31-.84-.33s-.39-.44-.73-.55a3,3,0,0,1-1.4-1c-.05-.06-.15-.08-.22-.12h-.42c-.41-.48-1-.67-1.48-1.09-.21-.19-.58-.2-.81-.37a5.08,5.08,0,0,1-.66-.7,2.27,2.27,0,0,1-1.26-.66c-.18-.25-.49-.17-.68-.38s-.25-.41-.53-.39-.38-.32-.7-.33-.52-.29-.77-.46-.39-.49-.71-.6a3.76,3.76,0,0,1-.81-.38c-.25-.17-.4-.5-.77-.48-.26-.32-.73-.31-1-.68-.13-.2-.47-.16-.66-.39a2.14,2.14,0,0,0-.76-.48,2,2,0,0,1-.67-.4c-.3-.32-.8-.39-1-.78-.46.07-.55-.44-.89-.5l-.81-.25c-.37.23-.83.34-1,.74h-2.25c-.57-.11-.6-.53-1-.57-.18,0-.48-.26-.48-.41,0-.45-.47-.54-.57-.86ZM118.15,64.82l-1.44,1.43a.78.78,0,0,1-.22.12h-.69l-.43.35V77.53l.37.46H160l.3.28c.21,0,.46.09.65-.11l0-.4c-.15-.12-.35-.31-.57-.46s-.39-.19-.57-.3-.32-.48-.66-.39c-.36-.48-1-.59-1.36-1.07a3.15,3.15,0,0,1-1.44-.87c-.2,0-.32-.08-.47-.2s-.38-.09-.45-.21c-.23-.38-.72-.36-1-.68-.5.09-.57-.55-1-.57-.27,0-.34-.29-.53-.4a6,6,0,0,1-.56-.3c-.21-.17-.53-.11-.67-.39s-.52-.21-.65-.4c-.26-.36-.74-.35-1-.68s-.67-.26-.87-.58c-.5.09-.58-.52-1-.59-.19,0-.34-.26-.52-.38a2.55,2.55,0,0,0-.57-.29,2.36,2.36,0,0,1-.87-.59c-.18-.17-.52-.12-.66-.39s-.45-.26-.68-.38a4.53,4.53,0,0,1-.86-.59c-.21-.2-.59-.2-.76-.5s-.47-.17-.68-.37a3.09,3.09,0,0,0-.89-.41l-.42.59h-2.9c-.21-.4-.72-.45-1-.76s-.37-.8-.71-1c-.12-.27.05-.53-.18-.7-6.78-.1-16.68-.07-18.37.06Zm122.23-.06-1.62,1.62h-.46l-.29.25H236.6c-.19-.39-.58-.18-1.08-.41,0,0-.07-.36-.39-.4-.08,0-.2,0-.23.09-.15.27-.54.1-.68.38s-.5.34-.77.48a4.17,4.17,0,0,0-.87.59c-.21.2-.53.26-.77.48a3.48,3.48,0,0,1-.9.47.8.8,0,0,0-.22.13,5.06,5.06,0,0,1-1.22.73,6.35,6.35,0,0,1-1.33.8c-.08,0-.18.07-.21.14-.21.39-.71.36-1,.68-.49-.1-.56.57-1,.56a13.23,13.23,0,0,1-1.76,1.09c-.1.07-.3,0-.36.11-.33.46-1,.5-1.26,1a3.1,3.1,0,0,0-1.44.87c-.2,0-.33.08-.48.2s-.38.1-.45.21c-.23.38-.72.36-1,.68-.5-.09-.57.55-1,.58s-.43.43-.73.55a6.57,6.57,0,0,0-.93.44,1.16,1.16,0,0,0-.26.28c.06.32-.14.66,0,.85.39.22.48-.08.66-.19h41.61a1,1,0,0,0,.25-.09l.07-.63c1.55-1.64,1.55-1.64,2.72-2.16q0-4,0-8s0-.07.07-.11l.19-.2a2.89,2.89,0,0,0-1.31-.48l-.48-.49h-.3l-1-1.35c0-.12.12-.37-.09-.55h-.62l-.23.23h-16.6l-.29-.27h-.27l-.4.41ZM314,31.68c.05.05.08.11.12.11h18c.56-.55,1.11-1.11,1.66-1.66H334l.29-.28h2.08l.13,0a3.71,3.71,0,0,1,2.14,2.72h20.26l.41-.37V18.66l-.42-.41H338.72s-.07.05-.1.07l-.31.31a1.78,1.78,0,0,1-.33,1.09,2.17,2.17,0,0,1-.77.73,9.35,9.35,0,0,1-1.14.56H334.6c-.34-.2-.62-.49-.93-.52s-.48-.51-.85-.52a3.68,3.68,0,0,1-.4.39c-.13.09-.35.09-.46.21s-.57.19-.79.46-.55.29-.73.52-.67.24-.89.57-.67.36-1,.55c-.08,0-.19.07-.22.14-.21.4-.71.36-1,.68-.49-.1-.57.53-1,.58-.19,0-.34.27-.53.39s-.39.18-.56.31-.54.1-.67.38-.57.23-.77.49-.88.45-1.16.88c-.32-.1-.43.28-.7.31a.52.52,0,0,0-.33.18c-.27.38-.77.42-1.09.76a2.14,2.14,0,0,1-1,.51c-.25.41-.72.49-1.08.73-.13.09-.35.09-.45.25-.2.33-.68.26-.86.59s-.52.31-.78.46a8.78,8.78,0,0,0-.86.6,5.92,5.92,0,0,1-.93.4C314.36,31.42,314.17,31.56,314,31.68ZM359.3,47.43V33.87a1.22,1.22,0,0,0,0-.27s-.06-.07-.14-.15H339.24c-.21-.21-.36-.41-.66-.16l-.05,1c-.55.14-.46.81-.89,1.1s-.79.56-1.24.88h-2.14a1.15,1.15,0,0,0-.55-.31c-.23-.08-.39-.36-.53-.5-.57-.11-.89.28-1.28.43-.23.1-.32.47-.67.38a1.08,1.08,0,0,1-.57.32c-.23.08-.4.47-.61.49-.44,0-.48.57-.88.58s-.48.48-.87.57-.48.37-.75.53-.62.28-.91.45-.33.47-.67.39a1.18,1.18,0,0,1-.57.31c-.23.09-.39.37-.62.5s-.59.19-.81.37a2.42,2.42,0,0,1-.87.58c-.2.4-.73.35-1,.69s-.68.24-.87.58c-.49-.1-.56.58-1,.56a8.06,8.06,0,0,1-1.55.93c-.29.15-.54.41-.86.58s-.45.38-.76.5-.55.41-.87.58-.61.15-.78.45c-.45-.06-.54.45-.88.55a1.83,1.83,0,0,0-.25.06c-.12.05-.11.12,0,.19h17.77l1.89-1.9h2.7l1.54,1.55.47.94H339l.29.26H358.9Zm-241,44.94h18.52s.07-.06.11-.09,0-.08,0-.12,0-.2.06-.25c.31-.33.68-.63,1-1s.63-.14.78-.48h2.21c.25.16.36.54.77.55.22-.17.43-.46.7-.53s.49-.4.74-.57c.37.15.48-.44.85-.29.25-.18.36-.49.73-.57s.41-.33.62-.51c.35.12.48-.42.84-.3.2-.18.38-.49.6-.52.39,0,.48-.44.76-.53a1.26,1.26,0,0,0,.66-.41c.2-.25.6-.17.77-.47.72-.11,1.15-.75,1.8-1,.19-.41.73-.34,1-.69s.64-.27.87-.57a2,2,0,0,1,1-.52.41.41,0,0,0,.21-.18c.2-.4.72-.32,1-.67s.81-.33,1.12-.61a5.72,5.72,0,0,1,1-.66c.15-.09.39-.09.46-.21.23-.38.72-.36,1-.68.49.07.58-.54,1-.58s.39-.39.63-.48a1.4,1.4,0,0,0,.77-.52l-.08-.41-.38.31h-44.4l-.5.37v10l.25.29-.21.21c0,.26-.17.53.1.75h.8c.42.34.71.84,1.26,1v.27ZM359.3,62.76V49.09a1.29,1.29,0,0,0,0-.28s-.06-.07-.1-.11H338.58l0,.68a2,2,0,0,0-.61.86c-.09.37-.63.29-.84.59s-.65.29-.87.6h-2c-.18-.17-.36-.49-.58-.52-.38,0-.5-.37-.76-.52s-.11-.53-.38-.68-.29-.53-.49-.76H314.91c-.16-.15-.29-.38-.57-.26l-.44.44c.28,0,.61,0,.76.16s.55.12.68.38.73.32,1,.66a.51.51,0,0,1,.47.21,5.17,5.17,0,0,0,.72.61c.25.16.55.22.81.38s.38.53.77.48c.25.32.74.3,1,.68.07.11.32.11.45.21a3.71,3.71,0,0,1,.5.47c.36-.11.49.41.84.3a2.05,2.05,0,0,0,.86.61c.27.07.39.45.77.5.22,0,.38.47.6.5s.49.35.83.38.4.33.63.47.59.2.8.39.54.1.68.38.56.27.76.49.55.32.75.51.72.37,1,.67.65.29.87.58c.49-.07.58.54,1,.58s.38.41.63.48a1.64,1.64,0,0,1,.76.5,1,1,0,0,0,.22.13h.68l.52-.55h2c.57.11.64.47,1,.58s.62.54.85,1a5.35,5.35,0,0,0,.65,1.23c.29.11.38-.21.65-.29ZM209.24,48.67h-44.5s-.07.06-.15.12V59.31l-.29.29c.23.17.36.41.72.46a1.28,1.28,0,0,1,.75.48c.21.27.6.18.75.48,0,.1,0,.18,0,.11l1,1.08h17.38c.57-.58,1.13-1.12,1.67-1.68a3.39,3.39,0,0,1,1-.54l.33.29h.54l.29-.27h.7l.82.83.46,0c.3-.52.92-.56,1.27-1,.15-.17.46-.19.66-.39a1.67,1.67,0,0,1,.76-.48,1.67,1.67,0,0,0,.67-.4,8.93,8.93,0,0,0,1-.68c.2-.19.57-.19.81-.36s.8-.34,1.09-.72c.15-.18.52-.13.66-.4s.47-.2.67-.39.58-.19.76-.48.54-.24.78-.48a12.31,12.31,0,0,1,1.17-.83c.27-.2.7-.23.89-.47s.75-.31,1-.66.75-.29,1-.69a.3.3,0,0,1,.22-.12c.29,0,.39-.4.71-.28.15-.26.53-.19.66-.39.25-.37.74-.34,1-.68s.68-.24.87-.58c.5.1.57-.52,1-.59.22,0,.39-.41.62-.47a1.17,1.17,0,0,0,.74-.54l-.12-.36Zm78.28,71.64c.22.22.38.5.55.51.34,0,.45.27.67.42s.24.46.4.66.19.71.56.87h17.55a5.53,5.53,0,0,0,.58-1c.12-.39.46-.55.66-.84.46,0,.62-.47.89-.59l.57,0,.37-.36v-1.61l-.3-.55.31-.35-.26-.29.26-.28V114.4l-.31-.46.3-.45v-3.86l-.41-.39h-44.5s-.07,0-.11.09c.24.57.82.72,1.29,1a9.61,9.61,0,0,1,1.23.72,3.21,3.21,0,0,0,.85.58,3,3,0,0,1,.85.62c.36-.11.49.41.84.3.2.19.39.5.61.53.39,0,.48.43.75.52a1.14,1.14,0,0,1,.66.41c.16.27.47.21.69.37s.82.29,1.11.61.81.37,1.08.77c.14.2.52.12.66.4s.45.25.67.38a3.31,3.31,0,0,1,.87.58c.13.15.37.2.55.31s.28.32.53.39a7.41,7.41,0,0,1,1.66,1,4.63,4.63,0,0,1,.76.48c.21.19.54.09.69.37s.5.34.76.48a2.85,2.85,0,0,1,.87.59c.17.18.5.13.67.38,0,0,.17,0,.42,0l.82-.83Zm-25-99.19c0,2.84,0,5.65,0,8.47a1,1,0,0,0,.09.24l.65.07c.28.14.34.61.76.52a5.39,5.39,0,0,1,.59.58c.18.24.2.59.51.77h18.36l.08-.42,1.17-1.16a1.11,1.11,0,0,0,.25-.05l.38-.25h2.21c1.65,1.57,1.65,1.57,2.18,2.74h17.13s.07,0,.1.08l.23.22a2,2,0,0,1,.17-.49c.11-.15.26-.26.25-.31A2.48,2.48,0,0,0,306.34,31c-.14-.08-.36,0-.46-.21-.22-.38-.72-.34-1-.68s-.82-.33-1.12-.61a7.65,7.65,0,0,0-1-.66c-.14-.1-.38-.09-.46-.21-.23-.38-.71-.36-1-.68-.49.08-.58-.55-1-.57s-.34-.29-.53-.4a3.4,3.4,0,0,0-.57-.29,4.74,4.74,0,0,1-.88-.57c-.29-.2-.58-.38-.86-.6s-.67-.21-.92-.42-.74-.29-1-.66c-.13-.2-.51-.12-.65-.4s-.45-.25-.67-.38a10.17,10.17,0,0,1-.88-.57c-.28-.21-.57-.41-.86-.59s-.64-.28-.91-.44a3,3,0,0,1-1-.64c-.16-.23-.58-.21-.74-.51s-.48-.16-.69-.37a3,3,0,0,0-.9-.41c-.17.51-.74.54-1.1.88h-1.55c-.23-.12-.38-.2-.54-.27a2.65,2.65,0,0,1-1.63-1.59c.05-.35-.27-.43-.43-.62h-17.7c-.17.22-.46.34-.4.68-.31.26-.34.7-.66,1s-.68.24-.89.55c-.21,0-.32.1-.47.21A1.88,1.88,0,0,1,262.49,21.12Zm-53.1,55.82a.83.83,0,0,1-.69-.33c-.32.12-.43-.29-.72-.29s-.4-.29-.69-.33-.39-.41-.63-.47-.41-.33-.63-.47-.53-.12-.67-.4-.45-.25-.67-.38a3,3,0,0,1-.87-.59c-.17-.19-.53-.11-.65-.4s-.6-.19-.77-.48c-.72-.11-1.14-.78-1.81-1-.21-.38-.7-.38-1-.69s-.65-.29-.87-.58c-.49.07-.58-.54-1-.58s-.45-.43-.74-.56-.78-.19-1-.52-.7-.35-1-.66-.65-.42-1-.69c-.14-.13-.43-.1-.56-.31-.31.09-.43-.29-.7-.3s-.4-.36-.64-.48-.52-.14-.66-.39-.49-.18-.67-.39c0,0-.12,0-.1,0l-.66.28-.11.41c-.11,0-.28,0-.36.07a.69.69,0,0,1-1.06.06c-.14-.12-.42-.07-.56-.08l-.34.26c-.36.1-.44-.38-.77-.26l-1.56-1.69v-.39l-.41-.41h-17.4s-.07,0-.14.1l-.29.32,0,.56-.53.53v.26c-.21.24-.6.19-.76.5s-.47.18-.68.38-.59.19-.76.52l.26.29V74.8l-.27.29c.27.27.61.08.92.14l.76.82.43,0a1.83,1.83,0,0,0,.18.46,4.17,4.17,0,0,0,.47.47v.58c.34.11.15.61.61.7l.39-.29h16.27l.3.27H185c-.06-.44.5-.7.32-1.21.24-.16.24-.45.37-.68.56-.05.76-.59,1.18-.87a1.15,1.15,0,0,0,.54-.27h1.94c.78.26,1.16,1,1.74,1.46l.1.38.66.32.26-.21h16l.29.22h.91Zm-42-45.28s.06.09.1.09h17.76a1.14,1.14,0,0,0,.44-.67c0-.19.33-.31.46-.5s.49-.15.69-.37.45-.23.67-.33h1.85a6.51,6.51,0,0,1,.82.52,9.57,9.57,0,0,1,.79.77l.59.59h18.61c.29-1,1.33-1.27,1.9-1.9l.57,0c.05-.07.1-.11.1-.14,0-2.86,0-5.71,0-8.7-.45.29-.54-.38-1-.26-.19-.34-.6-.32-.88-.56s-.31-.74-.65-1c.06-.34-.25-.45-.41-.67H191.57s-.07,0-.1.07c0,.54-.67.71-.69,1.24-.43.59-1.15.78-1.78,1.17h-1.63c-.27-.49-.81-.61-1.28-.83-.55.43-1.31.52-1.76,1.11-.44-.06-.54.43-.87.56a9.65,9.65,0,0,0-.92.43,4,4,0,0,0-.79.47c-.29.25-.69.38-.94.7a.26.26,0,0,1-.12.05,6.74,6.74,0,0,0-.82.35c-.26.15-.38.54-.77.48-.28.44-.82.53-1.16.88s-.84.42-1.24.68c-.21.15-.52.13-.66.4s-.45.25-.68.38a4.48,4.48,0,0,0-.86.58c-.22.2-.53.26-.77.49a3.81,3.81,0,0,1-.9.46c-.08,0-.19.08-.22.14-.21.4-.71.36-1,.68-.49-.09-.56.53-1,.59-.19,0-.34.27-.53.39s-.38.18-.56.3-.59.19-.77.48-.6.17-.78.47C167.66,31.19,167.56,31.51,167.35,31.66ZM136.54,49H118.39a.77.77,0,0,0-.24.1l-.07.63-1.49,1.48h-.27l-.29.27c-.23,0-.47-.09-.66.12-.07,3.27,0,8.25.07,8.42l.37.34h.81c.45.45.85.9,1.3,1.29.2.17.14.41.29.6h18.33a2.93,2.93,0,0,0,.72-1c.15-.42.8-.36,1-.78,0-.07.14-.1.18-.13h2.75c.28.27.5.57.88.58,0,.16.08.28,0,.15l1.09,1.21,17.1-.08s.06-.06.06-.06c-.14-.34-.48-.37-.73-.54a3.89,3.89,0,0,1-.9-.55,2.2,2.2,0,0,0-1-.51s-.07-.06-.1-.09c-.34-.44-.95-.5-1.26-1a2.42,2.42,0,0,1-1.33-.8c-.35.09-.49-.41-.84-.31-.2-.18-.39-.5-.61-.52-.39,0-.49-.49-.75-.52-.47-.05-.6-.52-1-.63a2.11,2.11,0,0,1-.8-.38,6.91,6.91,0,0,0-.86-.59c-.25-.18-.52-.33-.76-.5s-.54-.09-.69-.37-.5-.34-.76-.48a2.71,2.71,0,0,1-.87-.58,2.52,2.52,0,0,0-.56-.31c-.19-.11-.29-.3-.53-.4s-.69-.18-.9-.48-.6-.23-.76-.49-.65-.31-.87-.58-.69-.37-1-.61h-1.09l-.52.52h-2.29a5.07,5.07,0,0,1-.49-.57c-.17-.26-.49-.2-.68-.38s-.15-.12-.19-.2-.11-.33-.2-.47-.28-.25-.38-.4A1.81,1.81,0,0,1,136.54,49Zm6.1-3.87c.14-.41.62-.43.9-.7s.65-.34.85-.59.74-.32,1-.65c.44.06.53-.5.88-.54s.49-.51.74-.52.48-.46.85-.32c.2-.19.38-.5.6-.53.39,0,.48-.45.75-.53a1.14,1.14,0,0,0,.66-.41c.21-.26.61-.17.78-.47a2.69,2.69,0,0,0,1.24-.69,2.32,2.32,0,0,1,.56-.31c.19-.11.26-.34.52-.4a1.67,1.67,0,0,0,.8-.39c.27-.25.62-.36.85-.59s.68-.31.87-.58.67-.27.88-.58.64-.29.86-.58c.43,0,.59-.37.87-.58.36.12.49-.32.84-.33s.36-.47.75-.52a2.41,2.41,0,0,0,.74-.42c-.1,0-.17-.11-.25-.11-5-.1-16-.05-17.4.08l-.07.64-1,1c-.31.31-.84.34-1,.78h-1.6l-.77-.39-.68-.68-.38-.09a2.87,2.87,0,0,0-.26-.6,1.82,1.82,0,0,1-.17-.73H118.26c-.25.16-.08.54-.39.68s-.24.46-.41.65-.37.56-.71.6-.39.41-.71.29c-.13.28-.47.22-.67.38-.07,3.26,0,8.25.06,8.42l.35.32.49,0a4.5,4.5,0,0,0,.72.53,1.47,1.47,0,0,1,.83.81,1.11,1.11,0,0,0,.47.56H136.7l1.89-1.89h2.53l.58.3.34-.32ZM111.55,92.34c-.4-.54-1-.56-1.25-1a2.92,2.92,0,0,1-.69-.33,4.65,4.65,0,0,1-1.23-.73c-.21-.2-.54-.25-.76-.49a2.84,2.84,0,0,0-.78-.45c-.11-.06-.27-.07-.34-.15-.21-.26-.52-.33-.76-.5a4.55,4.55,0,0,0-.87-.58c-.28-.11-.52-.39-.79-.41-.44,0-.49-.53-.88-.58-.2,0-.37-.22-.58-.26s-.39-.36-.62-.5-.44-.07-.57-.29c-.25-.4-.74-.45-1.08-.76s-.84-.4-1.23-.67c-.07,0-.19,0-.26,0-.26-.16-.36-.49-.75-.54-.22,0-.4-.35-.6-.53-.37.14-.49-.43-.85-.29-.25-.18-.36-.51-.74-.55s-.43-.6-.88-.54c-.17-.31-.52-.31-.78-.45a3.29,3.29,0,0,1-.85-.61s-.08,0-.13,0l-.49,0-.53.53H89.48c-.21-.4-.72-.46-1-.77s-.38-.8-.72-1c-.11-.28.06-.53-.15-.69H69.2l-.07.68c-.1.3-.57.33-.54.75,0,.1-.13.26-.24.3a2.65,2.65,0,0,0-1,.69s-.08,0-.08,0l-.54,0-.38.41c0,2.76,0,5.47,0,8.19,0,.07.08.15.13.22h.54l.31.29h.16l1.33,1.33.12.32H87.8s.07-.05,0,0a4.27,4.27,0,0,1,2-1.9h2.11c.32.12.4.5.76.56s.53.47.82.68V92l.38.38ZM38.63,62.19c.23-.32.66-.48.7-1a.55.55,0,0,1,.37-.37c.46,0,.56-.44.84-.56s.47,0,.57-.06c.35-.35.74-.21,1.09-.19l.36.27h.74l1.49,1.46.1.41H63a1.39,1.39,0,0,1,.39-.7,3.54,3.54,0,0,0,.4-.65l.39,0,.4-.56h.88l.38-.39c.11-.31-.2-.4-.25-.55V51.85l.25-.31c-.34-.18-.66-.06-1-.11-.4-.36-.7-.83-1.24-1l0-.44-.51-.34,0-.64-.4-.37h-.55l-.29.24h-16l-.59-.34-.46.49v.58l-.5.5-.11.43c-.3-.07-.45.16-.66.33a8.62,8.62,0,0,1-.83.51H41a3,3,0,0,1-1.26-.83c-.21,0-.45-.05-.55,0a3.59,3.59,0,0,1-1,.51c-.33.13-.42.63-.88.56-.06,0-.14.11-.2.18a2.51,2.51,0,0,1-1.12.64c-.41.19-.57.68-1,.84a3.15,3.15,0,0,0-1.11.66,1.49,1.49,0,0,1-.79.42c-.42,0-.47.57-.87.57s-.4.31-.71.32-.3.37-.49.44a1.15,1.15,0,0,0-.66.42c-.16.26-.53.12-.67.38s-.54.3-.76.5-.54.1-.68.38-.54.27-.76.49-.32.48-.67.39a1.12,1.12,0,0,1-.56.32c-.24.08-.39.36-.62.5a7.43,7.43,0,0,0-.81.37,6.34,6.34,0,0,0-.72.76h-.61c-.27.18-.37.53-.76.55s-.39.52-.74.54a.58.58,0,0,0-.51.39c-.12.27-.54,0-.58.41Zm141,24.37.82.83c.28-.07.39.23.58.26.72.15,1.15.77,1.8,1,.17.3.51.33.76.5s.42.43.77.5a1.38,1.38,0,0,1,.75.48c.21.28.56.24.79.47s.49.14.72.45l.41-.6h2.77l1.88,1.88h18.12c.39-.38.76-.73,1.1-1.1a2.71,2.71,0,0,1,1.71-.88.76.76,0,0,0,.06-.25c0-2.76,0-5.53,0-8.29,0-.08-.08-.15-.12-.23h-.85c-.21-.42-.74-.46-1-.79s-.39-.78-.71-1c-.11-.27,0-.52-.18-.69-9.34-.1-16.66-.07-18.35.06l-.05.37c-.16.57-.56.63-.58,1,0,.16-.28.42-.45.44-.39,0-.5.38-.76.56h-2.48c-.19-.31-.63-.23-.88-.52-.08-.09-.35,0-.52,0-.27.25-.46.59-.87.6-.14.28-.52.15-.67.39s-.53.31-.75.51-.54.09-.68.37-.51.34-.78.47a3.17,3.17,0,0,0-.86.6c-.17.18-.52.12-.66.39s-.47.21-.67.39-.6.19-.76.49-.62.16-.77.49a1.52,1.52,0,0,1-.11.23c.5,0,.66.43,1,.6ZM296.54,40.25c-.27-.21-.64-.22-.8-.51s-.47-.19-.69-.37-.52-.28-.75-.5a1.79,1.79,0,0,0-.79-.42c-.31-.06-.41-.34-.64-.47s-.55-.23-.81-.38-.47-.46-.74-.52-.48-.51-.74-.54-.43-.31-.71-.32-.44-.44-.69-.53h-1l-1,.53h-1.79s-.07,0-.11-.07L285,36h-.26l-1.27-1.26c.05-.22-.09-.33-.2-.48a1.83,1.83,0,0,1-.18-.48H265.41s-.07,0-.1.08c0,.41-.35.61-.59.86,0,.5-.45.64-.68,1-.43,0-.59.37-.72.46-.36.19-.61,0-.8.22V45l.69.06c.25.17.36.48.74.56a1.18,1.18,0,0,1,.68.62,1.53,1.53,0,0,0,.51.72h18c.23-.24.57-.44.64-.71s.25-.58.57-.65.46-.43.72-.55h2.75l.33.27a2.85,2.85,0,0,0,.71-.29c.52-.4,1.25-.46,1.66-1,.46,0,.62-.47,1-.62a3.34,3.34,0,0,0,.81-.37,2.43,2.43,0,0,1,.88-.57c.19-.41.7-.37,1-.69.48.07.58-.55,1-.58.27,0,.42-.27.7-.33S296.3,40.47,296.54,40.25Zm-80.2,38.64c0,.13-.06.3,0,.37a1.91,1.91,0,0,0,.51.41,4.46,4.46,0,0,1,1.77,1.06c.38,0,.51.35.77.47a2.72,2.72,0,0,0,.94.41.18.18,0,0,1,.09.1c.2.4.71.36,1,.68.49-.08.57.55,1,.58s.43.47.74.55a2.59,2.59,0,0,1,.91.45,8.09,8.09,0,0,0,.77.48,2.79,2.79,0,0,1,.89.56,1.19,1.19,0,0,0,.77.42c.43,0,.49.52.88.59a1.87,1.87,0,0,1,.8.39A7.27,7.27,0,0,0,229,87c.25.18.53.32.76.49s.54.1.68.37.5.34.77.48a2.85,2.85,0,0,1,.87.59c.16.2.52.11.66.4s.52.29.78.46a3.68,3.68,0,0,1,.75.51c.22.21.59.19.76.49s.27.24.59.16l.4-.5h2.79l.27.58c.29,0,.54,0,.62-.11.18-.25.53-.13.68-.38s.58-.29.75-.51c.29-.38.78-.41,1.09-.75s.87-.38,1.21-.71a4.34,4.34,0,0,1,1.13-.63c.08,0,.18-.07.21-.14.21-.4.73-.35,1-.69s.66-.25.88-.55c.48.08.54-.63,1-.55l.6-.55c.36.15.48-.43.84-.29.21-.18.39-.47.61-.52.38-.07.47-.46.75-.54a3,3,0,0,0,.92-.43,10.11,10.11,0,0,1,.87-.58c.27-.14.61-.17.78-.47s.59-.17.77-.49a.69.69,0,0,1,.56-.31c.15,0,.25-.27.39-.37a2.55,2.55,0,0,1,.57-.29,2.36,2.36,0,0,0,.87-.59c.18-.17.48-.16.67-.38a2.45,2.45,0,0,1,.76-.5c.19-.09.42-.09.57-.29a5,5,0,0,1,.46-.47,1,1,0,0,0-.3-.12C249,78.7,218.17,78.76,216.34,78.89Zm67.6-28.57c-.21.21-.36.49-.54.52-.38,0-.51.37-.77.49a7.3,7.3,0,0,1-.94.43c-.27.08-.36.47-.75.53-.22,0-.4.34-.6.52-.37-.15-.48.44-.85.3,0,0-.07.06-.09.1-.23.43-.77.42-1.08.77s-.87.38-1.21.7a4.07,4.07,0,0,1-1.13.63.47.47,0,0,0-.21.15c-.29.42-.9.43-1.16.87-.54.11-.85.59-1.33.81a3.92,3.92,0,0,0-.76.49c-.21.18-.54.09-.68.36s-.51.35-.77.48a3.71,3.71,0,0,0-.87.59c-.21.2-.53.26-.77.48a3.5,3.5,0,0,1-.9.47c-.08,0-.19.07-.22.14-.21.4-.71.36-1,.68-.49-.1-.57.51-1,.59-.27,0-.49.36-.75.52s-.35,0-.25.26c3.74.08,16.42,0,17.83-.05.2-.29.55-.43.64-.84s.68-.37.9-.71.68-.24.87-.58h1.66l.59.55c.22,0,.44.07.65-.12a5,5,0,0,1,.56-.31c.19-.12.34-.36.53-.38s.39-.32.71-.33.36-.48.74-.54a1.2,1.2,0,0,0,.68-.32,6.51,6.51,0,0,1,1.44-.89,4.32,4.32,0,0,1,.87-.56c.2-.4.71-.37,1-.69.45,0,.56-.42.88-.55a1.39,1.39,0,0,0,.46-.22c.13-.1.39-.09.46-.21.23-.38.72-.36,1-.68.5.09.58-.5,1-.59s.48-.38.75-.52a5.75,5.75,0,0,0,1.13-.64c.32-.28.78-.4,1-.77h.54l.81-.81c.26.06.39-.13.57-.27s.31,0,.35-.12c.22-.39.72-.36,1-.68.52.08.61-.62,1.13-.62.16,0,.33-.23.57-.28s.35-.22.57-.29a.44.44,0,0,0,.33-.48H289.7l-.4.43c.15.49-.27.8-.4,1.2h-.27l-1.11,1.11h-2.17s-.07,0-.11-.07l-.2-.2h-.25ZM112,64c-.07-.07-.1-.13-.13-.13H94.19l-.4.41v.53l-.57.6v.27l-.57.29c-.2.11-.26.36-.53.41a2.34,2.34,0,0,0-.6.29l-.42-.31c-.49-.22-.78.47-1.18.31l-.85-.86h-.36c-.54-.3-.49-1-.95-1.19-.14-.28,0-.54-.21-.75H69.9c-.06,0-.12.09-.18.14.12.11.21.22.31.31s.17,0,.24.1c.33.2.74.26,1,.59s.66.25.86.58.61.17.77.49c.46-.08.54.43.88.55s.47.19.71.27.38.54.74.55.39.4.71.29c.25.4.74.47,1.06.78a3.2,3.2,0,0,0,1.13.62c.31.11.47.48.86.59s.51.43.86.58.52.47.88.56c.2.39.69.38,1,.68.46,0,.62.48,1,.61a3,3,0,0,1,.81.38,4.53,4.53,0,0,0,.86.59c.27.14.61.17.78.48s.6.16.77.48a.78.78,0,0,0,.56.32c.19,0,.3.34.5.46s.43.08.56.3c.42,0,.59.36.86.59H89l.42-.54H92c.27.19.37.59.81.53a2.82,2.82,0,0,1,1-.74c.22-.13.52-.14.66-.4s.48-.19.68-.38.25-.41.52-.41.39-.4.71-.28c.13-.28.49-.2.66-.4s.64-.36.85-.6.72-.34,1-.66c.46.09.53-.49.88-.53a.75.75,0,0,0,.54-.36c.17-.26.5-.16.69-.38s.51-.13.66-.39c.4.05.5-.4.77-.47a2.57,2.57,0,0,0,.76-.5,4.64,4.64,0,0,1,.8-.41c.08,0,.19,0,.24-.1a1.88,1.88,0,0,1,.86-.58c.2-.4.71-.36,1-.68.45,0,.56-.43.88-.56a1.54,1.54,0,0,0,.47-.22c.12-.1.38-.09.45-.21.23-.38.72-.35,1-.67.5.09.58-.5,1-.6.27-.06.48-.37.74-.52s.62-.3.92-.45Zm-50.2.14h-16c-.17-.13-.29-.38-.57-.27l-.4.4v.49l-1.61,1.6h-.75l-.23.2c-.72.28-1.18-.32-1.75-.25-.26-.2-.38-.52-.77-.53-.14,0-.33-.21-.38-.37s-.1-.44-.31-.56-.24-.47-.4-.66-.27-.39-.58-.32l-.29.27H22l-.29-.27a1.87,1.87,0,0,0-1.2.26c.85-.16.94.63,1.53.61.34.49,1,.55,1.33,1.07h.56a3.66,3.66,0,0,0,.7.67,4.18,4.18,0,0,0,.93.44c.29.07.4.45.73.56a2.33,2.33,0,0,1,1.11.67c.13.15.37.19.56.3s.25.4.53.39.39.31.71.32c.16,0,.3.37.49.44a1.23,1.23,0,0,1,.66.41c.18.29.62.16.77.49s.54.25.78.47.48.18.65.41a1.63,1.63,0,0,0,.9.48c.38.11.49.49.86.6a1.52,1.52,0,0,1,.9.49c.19.29.61.22.76.49s.62.33.88.57a1,1,0,0,0,.53.38c.2,0,.34.28.53.4a3.76,3.76,0,0,0,.56.3,2.22,2.22,0,0,1,.47.2,4,4,0,0,1,.41.46h.75l.36-.52H42.8c.52.13.58.48.89.53a2.48,2.48,0,0,0,.8-.39c.25-.18.6-.17.79-.44.4,0,.48-.43.76-.5a1.07,1.07,0,0,0,.65-.42c.17-.26.49-.15.69-.37s.49-.16.66-.4a.5.5,0,0,1,.44-.26c.11,0,.21-.15.32-.23s.27-.28.42-.3.32-.29.44-.27c.33.07.44-.27.71-.32a1.12,1.12,0,0,0,.52-.39c.19-.19.53-.11.67-.38s.65-.26.87-.58.68-.36,1-.56c.07,0,.16-.07.22-.14a3.43,3.43,0,0,1,.75-.51c.25-.16.64-.13.78-.46s.6-.19.77-.49c.39,0,.57-.43.87-.56a4.05,4.05,0,0,1,.93-.41c.31-.47,1-.51,1.26-1a3.19,3.19,0,0,0,1.43-.88c.36.14.48-.42.84-.29.26-.17.37-.5.75-.56a2.53,2.53,0,0,0,.78-.43l-.12-.37h-.59Zm31-18.53c.3-.21.46-.6.89-.59.25-.32.73-.3,1-.67.1-.16.37-.2.56-.31s.52-.12.67-.38.35-.23.56-.31a1.69,1.69,0,0,0,.75-.49c.22-.28.61-.2.78-.48s.51-.34.77-.48a3.36,3.36,0,0,0,.88-.58,2.12,2.12,0,0,1,.79-.41.69.69,0,0,0,.57-.74,2.23,2.23,0,0,1-.84-.48,9,9,0,0,0-1-.54,9.33,9.33,0,0,0-.87-.57,3.64,3.64,0,0,1-.89-.55,6.37,6.37,0,0,0-1-.54,4.24,4.24,0,0,0-.88-.56c-.2-.4-.71-.36-1-.68-.42,0-.6-.36-.87-.59h-1.1l-.57.53H89.91a4.78,4.78,0,0,1-.73-.31c-.23-.14-.35-.42-.67-.52a1.17,1.17,0,0,0-.47.1A9.78,9.78,0,0,0,87,36.2c-.29.23-.76.23-1,.54s-.84.35-1.07.78c-.36.08-.57.43-.87.56s-.56.46-.86.59a6.52,6.52,0,0,1-.94.41c-.2.4-.64.5-1,.66a3.29,3.29,0,0,0-.85.61c-.36-.12-.48.43-.84.3-.2.18-.39.5-.61.52-.39.06-.48.47-.75.53s-.51.36-.77.5a2.41,2.41,0,0,1-.94.41s-.07,0-.09.09c-.23.43-.76.43-1.07.77s-.87.38-1.22.7A3.71,3.71,0,0,1,73,44.8a.45.45,0,0,0-.21.15,2,2,0,0,1-.76.5c-.27.13-.39.45-.77.5a1.34,1.34,0,0,0-.76.47c-.2.25-.54.24-.72.48,0,0,.07.09.1.09h17.7c.24-.29.64-.45.72-.92a.7.7,0,0,1,.47-.43c.39,0,.49-.38.77-.58h2.73s.07.05.1.07l.17.48ZM162,35.38c-.24.06-.45,0-.68.12a3.3,3.3,0,0,0-1,.7c-.36-.11-.49.42-.84.3-.2.19-.39.5-.61.53-.39,0-.48.43-.76.52a1.05,1.05,0,0,0-.65.42c-.14.23-.45.1-.57.29s-.52.11-.69.38c0,.08-.25,0-.36.11-.26.15-.36.48-.75.54-.22,0-.4.34-.6.53-.37-.15-.48.43-.85.3,0,0-.07.05-.09.09-.22.3-.63.37-.85.61s-.72.34-1,.66c-.45-.07-.55.51-.88.53s-.5.55-.87.57-.48.54-.88.56-.43.47-.74.54a2.79,2.79,0,0,0-.91.46c-.26.18-.55.3-.77.49s-.54.09-.68.37-.51.34-.77.48a2.85,2.85,0,0,0-.87.59c-.17.18-.53.11-.66.4s-.48.19-.67.38a1.87,1.87,0,0,0,.08,1h20.21l.44-.37v-11a.3.3,0,0,0,0-.13s-.06-.07-.08-.09a1.84,1.84,0,0,1-.65-.12C162.62,35.92,162.18,35.79,162,35.38Zm149,16.08v10.9a2.43,2.43,0,0,0,0,.27s.06.07.13.14h20.44l.34.27c.15-.22.42-.3.39-.57-.1-.44-.55-.42-.79-.64s-.63-.37-.85-.6-.73-.34-1-.66c-.44.06-.55-.42-.87-.55a2.22,2.22,0,0,1-1-.53c-.3-.36-.8-.37-1.08-.76-.14-.19-.52-.14-.65-.4s-.46-.25-.68-.38a3.37,3.37,0,0,1-.86-.59c-.18-.19-.53-.12-.66-.4s-.45-.25-.67-.38a3,3,0,0,1-.87-.59c-.16-.2-.53-.12-.66-.4s-.53-.27-.78-.47-.65-.23-.92-.42-.49-.51-.87-.57c-.22-.37-.7-.4-1-.7s-.65-.28-.87-.57c-.49.06-.59-.55-1-.59s-.46-.58-.88-.56c-.44-.43-1.09-.59-1.48-1.1h-1.26l-.66.85ZM114.8,66.79l-.41-.41h-.74c-.36-.13-.44-.53-.91-.57-.12.38-.63.24-.9.6s-.75.4-1.13.59a.24.24,0,0,0-.1.1c-.19.41-.72.33-1,.68s-.67.37-1,.53a.49.49,0,0,0-.21.16c-.19.28-.51.34-.76.49a2.65,2.65,0,0,0-.89.57A2.5,2.5,0,0,1,106,70a2.84,2.84,0,0,0-.35.16c-.21.15-.32.48-.67.39a1.15,1.15,0,0,1-.56.31c-.24.08-.39.43-.62.5a.86.86,0,0,0-.54.37c-.17.25-.46.22-.69.36-.46.31-1,.43-1.42.9a.82.82,0,0,0-.66.4c-.16.26-.49.15-.68.37s-.49.15-.66.4-.76.29-1,.68a.27.27,0,0,1-.22.13c-.3,0-.39.33-.72.31-.16,0-.3.33-.57.25-.25.4-.75.47-1.06.79a3.85,3.85,0,0,1-1.24.68s-.06.06-.09.09l-.21.25v.85c.37.34.49-.1.76-.19h19.54l.42-.39ZM312.87,30.42a6.3,6.3,0,0,0,1.33-.72c.56-.52,1.39-.59,1.86-1.22.28.05.42-.16.55-.33s.39-.18.57-.29.31-.48.63-.48.39-.34.71-.33c.16,0,.3-.37.49-.44a1.11,1.11,0,0,0,.66-.41c.16-.27.53-.13.67-.39s.51-.33.77-.49c.51-.32,1.14-.45,1.53-1,.45.06.55-.42.87-.55a2.41,2.41,0,0,0,1-.53c.29-.36.81-.36,1.08-.77.07-.11.31-.11.45-.21s.32-.32.51-.43c.34-.19.78-.21,1-.54s.75-.28,1-.68.55-.21.77-.48a1.27,1.27,0,0,1,.75-.47c.31,0,.43-.32.7-.33s.41-.35.64-.48a3.91,3.91,0,0,1,.49-.18l-.07-.42h-20.5l-.46.37c0,3.69,0,7.33,0,11,0,.08.07.16.12.24h.82l.59.57Zm-5,20.48c-.46.21-.56.62-1,.54-.14.28-.52.19-.66.4-.26.41-.77.43-1.08.76s-.87.39-1.22.71a3.47,3.47,0,0,1-1.13.62.62.62,0,0,0-.21.15c-.52.56-1.35.64-1.84,1.23-.28-.05-.43.17-.54.34s-.47.22-.7.36-.58.39-.86.6a4.6,4.6,0,0,1-.93.41.69.69,0,0,0-.19.19,2.09,2.09,0,0,1-1,.57c-.4.13-.51.67-1,.6-.25.32-.73.31-1,.68-.13.21-.53.12-.65.4s-.53.29-.79.46-.75.29-1,.54-.83.37-1.08.76-.53.11-.67.39-.55.25-.75.49c0,.22-.1.46.1.64H310l-.14-.18.53-.16-.3-.3.24-.29-.25-.28v-.82l.26-.29-.25-.29.24-.23V58l-.3-.53.31-.36a8.51,8.51,0,0,0,0-1.13l-.25-.24.3-.4-.34-.62.28-.41V52.75l-.28-.5c.09-.3.54-.42.19-.79l-.87,0-.53-.52ZM289.58,18.64a5.33,5.33,0,0,0,.64.63,3.49,3.49,0,0,0,.82.35c.21.07.3.36.57.29.33.37.82.51,1.17.84s1,.35,1.33.78.75.44,1.09.74a5.84,5.84,0,0,0,1.24.66c.14.08.34.1.44.25.2.33.67.25.86.59s.67.24.87.56c.45-.06.53.5.88.54a.74.74,0,0,1,.54.36c.17.26.47.22.69.37.47.3,1,.43,1.42.9a.81.81,0,0,1,.66.39c.16.27.49.16.68.38s.51.13.66.39.35.24.56.31.25.27.4.37a3.76,3.76,0,0,0,.56.3c.16.07.39.09.46.21s.43.11.59.28.24.34.39.37c.38.09.58.4.86.59a4,4,0,0,0,.82.35l.61-.58c.31,0,.64.12.92-.1V28.45l-.29-.6.32-.34v-3l-.27-.3.24-.23V19l-.38-.74H289.77s-.07,0-.11.07ZM68,45.66c.35-.15.6-.23.82-.35a2.86,2.86,0,0,0,.76-.5c.2-.22.52-.2.66-.39.26-.35.73-.36,1-.68s.66-.27.87-.58c.5.09.57-.55,1-.58s.43-.43.73-.55.78-.2,1-.54.78-.25,1-.67c.12-.26.52-.12.66-.4s.54-.26.77-.48.53-.12.66-.4c.4.06.5-.38.77-.47s.57-.48.87-.57a2.6,2.6,0,0,0,.86-.62c.36.14.48-.42.84-.29a2,2,0,0,1,.86-.61c.27-.07.37-.53.76-.48.56-.65,1.43-.83,2.07-1.37.32-.28.77-.36,1.11-.65a6.12,6.12,0,0,1,1.13-.61,1.39,1.39,0,0,0,.26-.28s-.07-.1-.1-.1c-1.2-.08-19.87,0-20.84,0a1.14,1.14,0,0,0-.06.25c0,3.69,0,7.37,0,11.06,0,.08.08.15.12.23h.82ZM18,77.88a.83.83,0,0,0,.13.11H37.78c.14.17.28.36.56.25l.42-.41a3.2,3.2,0,0,1-.5-.47c-.15-.22-.45-.12-.56-.29s-.52-.12-.69-.38a1.12,1.12,0,0,0-.53-.38,2.73,2.73,0,0,1-1.1-.69c-.19-.21-.53-.26-.77-.48a3.84,3.84,0,0,0-.9-.47c-.08,0-.19-.07-.22-.14-.21-.39-.72-.35-1-.68s-.78-.26-1-.68c-.65-.24-1.07-.88-1.8-1-.15-.26-.47-.22-.67-.38s-.52-.51-.81-.72-.77-.22-1-.55-.65-.26-.88-.56c-.07-.08-.3,0-.35-.13-.22-.39-.74-.34-1-.68s-.69-.24-.88-.58c-.5.12-.55-.6-1-.55-.43-.45-1.08-.62-1.48-1.11H21l-.79-.79h-1l-.52.51c-.22.06-.46-.09-.68.12Zm76,1v.4c.19.09.46.14.56.3.24.38.66.45,1,.63a5.28,5.28,0,0,1,1.23.72,2.69,2.69,0,0,0,.56.3c.19.11.25.4.53.39s.39.32.71.32c.16,0,.3.37.49.44a1.92,1.92,0,0,1,.67.41c.32.29.79.39,1.06.77a3.72,3.72,0,0,1,1.28.58,9.38,9.38,0,0,0,1.33.8c.08,0,.19,0,.23.11.21.39.73.34,1,.68s.67.26.87.58c.49-.09.56.57,1,.57a8.72,8.72,0,0,0,1.66,1c.27.14.59.19.76.49s.51.12.68.38a.94.94,0,0,0,.54.37c.23.06.41.34.61.52.36-.15.48.44.84.29.26.17.37.5.74.56a3,3,0,0,1,.79.42,1.05,1.05,0,0,0,.21.06l.45-.49c.34,0,.67.11,1-.1V79.19l-.38-.35ZM163.75,60V49c0-.05,0-.1,0-.14a1.62,1.62,0,0,0-.16-.14H143.71c-.5-.38-.51-.38-.74.11l.65.64c.16.15.42.06.58.28s.37.1.45.21c.23.39.71.36,1,.68.49-.09.57.55,1,.58s.39.37.62.49a6.54,6.54,0,0,1,.93.41c.28.21.57.4.86.59a3.69,3.69,0,0,0,.88.57c.22.43.75.44,1.07.77a3.92,3.92,0,0,0,1.13.59,2.94,2.94,0,0,1,.87.58c.13.15.37.2.56.31s.28.31.52.4a3,3,0,0,1,.91.47c.3.25.65.45,1,.69s.72.33,1,.68c.09.11.34.1.45.21s.55.1.68.38.58.23.76.49.75.44,1.08.76a4.14,4.14,0,0,0,1.12.6,2.9,2.9,0,0,1,.47.21,3.16,3.16,0,0,1,.44.47h.36l.17-.48C162.85,60.27,163.18,59.9,163.75,60Zm2.11-29.55c.17-.06.27-.07.33-.13.27-.22.62-.28.89-.56a2,2,0,0,1,.9-.46.32.32,0,0,0,.21-.15c.2-.4.71-.35,1-.67.5.11.55-.56,1-.58.18,0,.33-.28.52-.4a5,5,0,0,1,.56-.3c.27-.14.6-.19.77-.49.65-.24,1.07-.89,1.79-1,.17-.22.53-.19.66-.38s.74-.35,1-.67.66-.28.87-.58c.5.08.58-.55,1-.58s.42-.47.74-.55a6,6,0,0,0,.92-.44,3,3,0,0,0,.78-.47c.28-.26.69-.38,1-.69a1.07,1.07,0,0,1,.46-.2,2.22,2.22,0,0,0,.87-.58c.17-.18.48-.16.67-.39a2.31,2.31,0,0,1,.76-.49,3.65,3.65,0,0,0,1.43-.88s.19,0,.27,0,.07-.11.1-.18l-.38-.36H164.71s-.07.07-.15.14V29.19l-.22.23.31.43.64,0Zm145,96.22v11a.78.78,0,0,0,.09.24l.65.27.22-.21h18.79l.33.28c.26-.09.58.08.92-.12a2.88,2.88,0,0,0-.22-.27c-.27-.22-.68-.23-.86-.58-.41-.1-.65-.46-1-.66s-.44-.12-.55-.32-.46-.25-.68-.39a2.47,2.47,0,0,1-.86-.58c-.16-.22-.53-.12-.66-.4s-.53-.29-.78-.47-.84-.28-1.12-.61-.81-.36-1.08-.76c-.14-.2-.52-.12-.65-.4s-.45-.25-.68-.38a4.11,4.11,0,0,1-.86-.59c-.21-.2-.54-.25-.77-.48a3,3,0,0,0-.9-.47.67.67,0,0,1-.22-.13,1.89,1.89,0,0,0-.76-.51c-.28-.09-.39-.45-.77-.5s-.38-.44-.73-.55a1.41,1.41,0,0,1-.89-.5c-.19-.3-.56-.24-.78-.47s-.51-.13-.67-.4-.34-.24-.56-.31-.25-.26-.4-.37a3.71,3.71,0,0,0-.56-.29,2.24,2.24,0,0,1-.47-.21,4.45,4.45,0,0,1-.43-.46h-.54c-.36.21-.65.4-1,.54A2,2,0,0,1,310.9,126.67ZM191.69,62.08c.07.08.11.14.14.14h18c.24-.31.68-.45.72-.94,0-.1.15-.22.26-.29s.33-.11.47-.21a2.4,2.4,0,0,0,.39-.39c.15-.18.43,0,.58-.28s.31-.13.47-.19V51.5a3.26,3.26,0,0,0-.89-.54c-.45-.08-.62-.5-1-.65-.28,0-.41.3-.72.33s-.38.44-.73.54a1.52,1.52,0,0,0-.89.51c-.19.3-.55.24-.78.47s-.49.14-.67.39-.66.38-1,.54-.56.72-1,.84a.67.67,0,0,0-.23.1c-.28.2-.67.24-.87.57s-.53.12-.66.4-.55.25-.77.48-.51.13-.67.4-.34.23-.56.31-.25.26-.4.37-.38.18-.56.3-.53.11-.67.38c-.28-.07-.44.12-.56.3s-.53.17-.67.39c-.23.39-.73.35-1,.69s-.67.24-.88.56c-.49-.09-.54.57-1,.58-.17,0-.33.28-.51.41a4.44,4.44,0,0,1-.57.3,2.17,2.17,0,0,0-.78.47,2.56,2.56,0,0,1-.77.45c-.27.13-.56.21-.82.35A1.88,1.88,0,0,0,191.69,62.08Zm70.82,61h20.28s.07,0,.15-.1a1.09,1.09,0,0,0-.21-.26,3,3,0,0,0-.91-.45c-.37-.11-.43-.57-.87-.59a1.32,1.32,0,0,1-.77-.44c-.23-.24-.55-.29-.77-.49s-.63-.36-.85-.59-.73-.34-1-.66c-.45.05-.56-.43-.88-.56a2.21,2.21,0,0,1-1-.52c-.29-.36-.82-.35-1.07-.77-.11-.19-.42-.06-.57-.29s-.25-.4-.54-.36a4.69,4.69,0,0,0-1.55-.92c-.21-.38-.67-.4-1-.68-.46,0-.62-.47-1-.62a2.35,2.35,0,0,1-.9-.47c-.27-.32-.75-.3-1-.67-.13-.21-.38-.2-.56-.3s-.26-.27-.4-.37a2.59,2.59,0,0,0-.57-.3c-.35-.11-.58-.42-.88-.56a3.24,3.24,0,0,1-.84-.61h-1.17l-.52.52c-.22,0-.46-.1-.68.11ZM212.68,66.75a3.27,3.27,0,0,1-1-.52c-.32-.35-.91-.34-1-.77s-.48-.62-.63-.9l0-.6c-1-.08-16.69-.12-17.84-.05,0,0-.07.06-.17.16a1.85,1.85,0,0,0,.43.32,2.88,2.88,0,0,1,1,.51c.33.31.82.37,1.08.76s.53.12.66.4.54.27.78.47.58.21.76.5.53.11.66.4.52.3.78.47c.46.32,1.06.41,1.42.89a1.45,1.45,0,0,1,.78.48,3,3,0,0,0,.56.31c.19.11.27.33.52.4a5.53,5.53,0,0,1,1.76,1.09c.28.22.66.23.88.55s.68.36,1,.56a.55.55,0,0,1,.22.14,3.11,3.11,0,0,0,.75.51c.26.16.58.17.8.45a1.89,1.89,0,0,0,.76.49,1.4,1.4,0,0,1,.66.4c.22.29.62.3.88.57s.66.4,1,.69a2.28,2.28,0,0,0,.81.34c.31.12.47-.19.71-.28a3.3,3.3,0,0,0,.53-.25l.59,0Zm-69.76-2.83a3.41,3.41,0,0,0,.37.38,2.73,2.73,0,0,0,.8.4c.4.06.48.49.87.59s.48.37.75.52.71.22.89.47.76.3,1,.66.35.24.56.31.25.27.4.37.39.19.57.3.53.11.67.39c.39-.06.5.38.77.47a1.83,1.83,0,0,1,.76.51c.18.19.53.11.67.39s.45.25.66.39.65.27.88.58c.11.15.37.19.55.3s.27.35.53.41a2,2,0,0,1,.8.38,8.29,8.29,0,0,0,.86.6c.25.17.52.32.76.49s.54.1.69.37.5.34.77.48a2.64,2.64,0,0,1,.86.59c.17.2.53.12.66.39s.46.25.67.39.4.18.57.3.31.31.44.43a2.63,2.63,0,0,0,1.37-.55c.21-.06.46.09.67-.12v-8.4a2.47,2.47,0,0,1-1.74-.85c-.15-.18-.33-.32-.49-.5s-.43-.33-.51-.6a2,2,0,0,0-.09-.84ZM37.76,48.67H18.41a1.31,1.31,0,0,0-.28,0s-.06.06-.11.11V60l.79,0,.39.55a1.3,1.3,0,0,0,.36-.07,2.63,2.63,0,0,0,.75-.49c.24-.31.65-.27.89-.57s.55-.29.74-.51.68-.25.88-.57c.49.09.57-.53,1-.59a2.87,2.87,0,0,0,.8-.39l.69-.69h.57c.26-.51.89-.55,1.25-1,.12-.15.37-.19.55-.3s.27-.36.53-.41a2.72,2.72,0,0,0,.58-.26c.08,0,.19,0,.22-.11.21-.4.74-.35,1-.69s.68-.24.87-.58c.49.1.56-.58,1-.56.44-.43,1.09-.6,1.48-1.1h.55a3.63,3.63,0,0,1,.69-.67,7.18,7.18,0,0,1,.92-.46c.23-.09.4-.35.61-.53.36.14.48-.44.84-.3.3-.47.95-.5,1.25-1l-.12-.37Zm275.18-3c.31-.21.41-.55.8-.58s.38-.52.74-.53.47-.5.87-.59.48-.36.74-.52.71-.23.9-.47.74-.31,1-.66.67-.36,1-.54a1,1,0,0,0,.21-.14c.21-.16.32-.42.67-.43.17,0,.32-.23.56-.28s.39-.38.62-.52.75-.21,1-.53.81-.38,1.07-.77c.08-.12.32-.12.46-.21s.33-.31.51-.43.78-.21,1-.54.79-.25,1-.68c.65-.24,1.07-.89,1.8-1,.25-.32.74-.28,1-.65s.58-.19.77-.49.58-.38.89-.49a.83.83,0,0,0,.51-.4c.09-.33.57,0,.57-.46H313.94a1,1,0,0,0-.25.09l-.06.63-.51.51v.27a5.4,5.4,0,0,0-.65.4,8,8,0,0,0-.59.58c-.31,0-.63-.08-.95.1v8.33l.37.42c.34,0,.67-.11,1,.11l.1.42ZM161.69,80.81c-.28.15-.51.26-.73.39s-.26.36-.53.4a1.67,1.67,0,0,0-.58.26,3.27,3.27,0,0,0-1.1.7c-.09.12-.33.11-.46.21a5.47,5.47,0,0,0-.5.47c-.35-.11-.48.41-.84.3a2,2,0,0,1-.86.61c-.27.07-.37.53-.76.48-.49.68-1.45.67-1.93,1.36a1.92,1.92,0,0,0-.93.41c-.29.19-.55.41-.87.58a2.37,2.37,0,0,0-.79.46c-.18.22-.51.32-.74.51a1.23,1.23,0,0,1-.57.31c-.15,0-.25.26-.4.36a3.1,3.1,0,0,1-.57.3,2.79,2.79,0,0,0-.87.57c-.23.19-.54.25-.77.49a2.94,2.94,0,0,1-.77.45,2.84,2.84,0,0,0-.35.16c-.22.14-.32.47-.67.4-.15.25-.47.22-.67.38s-.41.45-.76.5a2.13,2.13,0,0,0-.65.37s.06.1.1.1l17.41,0h.27a.39.39,0,0,0,.11-.06c.36-.36.74-.71,1.08-1.08a2.48,2.48,0,0,1,1.7-.85.51.51,0,0,0,.06-.15V81.8c0-.07-.09-.14-.14-.22h-.86C162.55,81.16,162.07,81.07,161.69,80.81ZM241.62,94.6c.26.17.37.48.74.56s.48.42.75.51a1,1,0,0,1,.52.4c.16.22.41.14.59.27s.63.3.87.59.37.2.55.31.27.34.53.4a1.82,1.82,0,0,1,.8.39,8.19,8.19,0,0,0,.86.59c.25.18.54.31.76.49s.54.09.69.37.5.34.76.48a2.68,2.68,0,0,1,.87.59c.17.19.52.12.66.4s.49.2.66.39.54.11.67.39.61.22.76.49.72.33,1,.68.79.34,1.11.6a5.86,5.86,0,0,0,1,.67c.15.08.39.09.46.2.23.39.72.36,1,.68.48,0,.59.55,1,.59s.46.57.87.56l.58-.28a2.82,2.82,0,0,1,.44-.26c.2-.07.46.08.62-.18V97.09s.41,0,.14-.29h-.76l-.62-.35-1.21-1.21c-.07-.13-.11-.25-.17-.37s-.12-.13-.15-.21-.07-.24-.11-.35H241.06s-.06.06-.11.1C241.09,94.79,241.42,94.47,241.62,94.6Zm18.2-13.87a3.52,3.52,0,0,0-.85.39,3.08,3.08,0,0,1-.87.58c-.37.13-.64.48-1,.64s-.56.5-.86.58a2.2,2.2,0,0,0-.66.42,2.89,2.89,0,0,1-.78.44c-.33.11-.59.35-.92.44-.2.41-.71.37-1,.69a.92.92,0,0,1-.57.31c-.15,0-.25.26-.39.36s-.4.18-.56.31-.54.1-.67.38-.57.23-.77.48a1.1,1.1,0,0,1-.66.42c-.19,0-.32.42-.5.44s-.44.28-.69.34a.59.59,0,0,0-.34.18c-.24.35-.71.34-1,.65-.48-.09-.53.56-1,.57a1.13,1.13,0,0,0-.76.44c-.22.35-.65.29-.88.57s-.87.45-1.15.88c-.32-.1-.43.31-.71.3s-.29.18-.43.29a2.51,2.51,0,0,1-.31.26c-.12,0-.34,0-.32.25h17.83c.39-.21.36-.77.75-1l1.24-.88c.13,0,.37.11.57-.1v-8.7A2.46,2.46,0,0,1,259.82,80.73ZM87.27,77.4c-.36-.29-.48-.58-.82-.52-.14-.27-.52-.19-.66-.39-.24-.38-.74-.34-1-.68s-.68-.24-.87-.58c-.5.11-.56-.58-1-.56a4.68,4.68,0,0,0-1.56-.9c-.45-.65-1.38-.61-1.82-1.27-.41,0-.6-.36-.86-.59-.37.15-.48-.44-.84-.29-.26-.17-.37-.48-.74-.57s-.47-.43-.75-.51-.45-.51-.73-.55-.5-.36-.76-.51-.55-.22-.82-.35a.81.81,0,0,1-.31-.24,2.26,2.26,0,0,0-1-.56c-.4-.13-.51-.67-1-.61-.25-.32-.73-.3-1-.67-.13-.21-.52-.12-.65-.4s-.59-.2-.77-.49c-.39,0-.6-.34-.85-.58-.39.26-.9.35-1.13.8H66.8l-.41.41v7.84a.72.72,0,0,1-.07.25c-.19.19-.19.19-.08.34h.65l.82.35,1.16,1.16V77l.74.37.21-.21H85.89l.29.22ZM234,64c-.07-.07-.11-.13-.14-.13H216.44l-.39.4c0,.36-.2.65-.28,1s-.32.22-.48.33-.19.21-.3.29-.31.42-.62.5a5.82,5.82,0,0,0-.85.4v7.8c-.07.4-.33.41-.14.64h.82c.32.22.43.61.86.55a2,2,0,0,1,1-.73c.35-.15.57-.48.87-.58a2.56,2.56,0,0,0,.85-.62h.55a2.48,2.48,0,0,1,.86-.61c.3-.1.47-.53.87-.56a2,2,0,0,1,1-.67c.33-.14.57-.45.86-.57a2.87,2.87,0,0,0,.87-.62h.61a2.29,2.29,0,0,1,.42-.47c.21-.15.46-.23.68-.39a7.9,7.9,0,0,1,1.75-1.09c.08,0,.2,0,.23-.1.24-.42.77-.42,1.07-.77s.76-.39,1.13-.6a9.24,9.24,0,0,0,1-.65c.29-.22.76-.29,1-.54s.73-.34,1-.66.68-.36,1-.66a2.49,2.49,0,0,1,1-.52C233.79,64.31,233.89,64.14,234,64ZM45,79.13c.25.25.4.51.5.49.33-.06.45.27.71.33s.41.43.63.46c.46,0,.59.57,1,.61s.4.31.71.32.36.49.74.53.41.31.7.33c.06,0,.13.11.19.18a2.18,2.18,0,0,0,1,.57c.39.13.51.67,1,.6.26.32.74.3,1,.68.1.15.37.19.55.3s.27.33.53.39a2,2,0,0,1,.8.4c.21.16.54.1.67.38s.59.22.76.49.52.31.77.49a2,2,0,0,0,.76.51,1.34,1.34,0,0,1,.75.48c.22.27.54.3.8.45A4.44,4.44,0,0,1,61,89a.74.74,0,0,1,.65.39c.17.27.48.19.7.37s.54.25.75.5.59.19.76.49a.42.42,0,0,0,.49.21l.56-.54c.32,0,.65.11.9-.08s-.06-.44-.22-.62c0-2.42,0-4.86,0-7.3a1.09,1.09,0,0,1,.07-.24l.2-.2-.4-.39-.82,0-1.55-1.5V79.5l-.38-.37Zm.8-2h16.3c.14.16.28.35.56.26l.68-.67v-.28a7.16,7.16,0,0,0,.66-.39,6.47,6.47,0,0,0,.58-.59c.3.11.4-.16.59-.27s.46.1.64-.11l0-.28-.27-.3V67.35l.27-.29v-.27l-.4-.41h-.82L64,65.82h-.86c-.26.5-.88.55-1.23,1-.17.2-.49.14-.68.38-.07.08-.34,0-.45.21-.26.38-.76.41-1.08.75a2.06,2.06,0,0,1-1,.51c-.26.4-.73.48-1.07.76-.09.07-.3,0-.35.13-.22.39-.72.35-1,.67-.49-.06-.58.54-1,.59s-.44.52-.74.53c-.45,0-.53.46-.87.59a2.2,2.2,0,0,0-1,.54c-.45-.07-.54.49-.87.53s-.49.39-.76.53-.64.24-.93.41-.38.46-.77.5a1.31,1.31,0,0,0-.75.48c-.22.26-.55.27-.78.47s-.54.25-.78.47-.68.38-1,.69c-.1.12-.3.15-.46.21L44.7,77c.34.1.38.41.75.41Zm218-16.55a3.51,3.51,0,0,0,.87-.45,9.59,9.59,0,0,1,1.22-.73c.39-.28.81-.51,1.19-.8.1-.07.27-.05.36-.12.29-.22.53-.5.82-.7s.59-.2.8-.38a3.31,3.31,0,0,1,.87-.58,2,2,0,0,0,.88-.57c.13-.15.37-.2.56-.31s.25-.4.53-.38.38-.42.71-.3c.16-.16.29-.4.49-.47a1.11,1.11,0,0,0,.65-.41c.17-.27.53-.13.68-.39s.5-.34.76-.48a2.86,2.86,0,0,0,.88-.58c.12-.15.38-.19.55-.31s.52-.12.68-.38a.57.57,0,0,1,.56-.3c.21-.31.66-.26.87-.58s.61-.3.87-.58.69-.36,1-.69c.09-.11.33-.1.45-.21s.54-.1.67-.38.58-.22.77-.49l.21-.26c-.07-.06-.11-.11-.14-.11H265.4l-.41.41v.49l-1.19,1.21a3.63,3.63,0,0,0-1.31.8v8s-.06.07-.09.11l-.18.19.8.41h.43ZM216.09,92.37h17.76s.07-.06.11-.09c0-.29-.28-.11-.37-.2-.27-.3-.69-.35-1-.65a2.11,2.11,0,0,0-1-.51s-.07-.07-.1-.1c-.21-.16-.32-.47-.67-.39a1.1,1.1,0,0,0-.56-.31c-.24-.09-.39-.43-.62-.49a.89.89,0,0,1-.53-.37c-.17-.26-.5-.16-.69-.38s-.47-.16-.67-.39A2.63,2.63,0,0,0,227,88a5.57,5.57,0,0,1-.93-.41,2.53,2.53,0,0,0-.87-.57c-.2-.39-.72-.36-.95-.69s-.66-.27-.87-.58c-.5.09-.57-.54-1-.57s-.42-.47-.74-.55a7,7,0,0,1-.92-.44,2.75,2.75,0,0,1-.78-.47c-.27-.26-.68-.37-1-.69-.1-.11-.33-.1-.46-.21s-.51-.12-.68-.37a.81.81,0,0,0-.55-.34c-.23,0-.4-.35-.6-.54h-.76l-.29-.55-.6,0-.53.53H214a1.88,1.88,0,0,1-.3.27c-.12.07-.37-.1-.36.2l.25.25v8.1l.69.06c.3.1.34.51.74.56.22,0,.44.31.6.51A7.77,7.77,0,0,1,216.09,92.37Zm-30.78.12a3.25,3.25,0,0,0-.8-.38c-.39-.07-.47-.52-.87-.59a2.33,2.33,0,0,1-.79-.39c-.23-.13-.33-.4-.66-.44s-.39-.5-.74-.53-.39-.38-.71-.3c0,0-.06-.06-.09-.09-.32-.38-.83-.47-1.2-.74s-.82-.51-1.2-.81c-.27.07-.42-.13-.55-.31s-.39-.2-.57-.3a2.83,2.83,0,0,1-.51-.48h-.86a1.76,1.76,0,0,1-.91.65c-.2.4-.71.36-1,.68-.52-.07-.62.66-1.14.59-.16.31-.52.32-.78.45s-.56.47-.86.59a2.49,2.49,0,0,0-.75.51c-.2.17-.48.16-.68.38a1.59,1.59,0,0,1-.75.48c-.39.1-.57.49-.87.57a2.26,2.26,0,0,0-.85.62c-.05,0-.06.13-.07.14l.36.67c.32.12.39-.22.55-.25h16.32c.16.18.31.37.59.22a1.65,1.65,0,0,1,.19-.45A.48.48,0,0,0,185.31,92.49ZM104.87,40.21c.4.78,1.35.79,1.89,1.38.08.09.24.1.34.17.36.25.81.33,1.1.71.15.2.52.12.65.4s.45.24.67.38a2.53,2.53,0,0,1,.87.59c.15.2.52.11.66.39s.53.26.77.47a1.7,1.7,0,0,0,.68.35c.31.06.43.3.64.44a.77.77,0,0,0,.19.08l.5-.49h.55l.39-.4V36.31c-.8-.24-1.42-.87-2.31-.93-.18.18-.36.51-.57.54-.38,0-.49.39-.77.5a5,5,0,0,0-.77.48,2.06,2.06,0,0,1-.92.43c-.25.33-.76.26-1,.66s-.52.11-.66.39-.53.29-.77.48-.58.21-.76.49-.6.18-.77.47C105.16,39.77,105.05,40.08,104.87,40.21Zm195.51.3a3.86,3.86,0,0,1,.57.3c.21.15.53.1.67.38s.52.32.77.47a4.37,4.37,0,0,1,1.42.89c.37,0,.51.34.77.48a2.57,2.57,0,0,0,.94.41c.07,0,.15.11.19.19.17.3.58.25.76.49s.57.39.87.57a3,3,0,0,0,.81.37c.25.06.36.47.65.29l.36-.3h.72l.46-.36V40l-.31-.42c.19-.37.44-.65.29-1l-.23-.29v-.85l.23-.22a1.91,1.91,0,0,0-.06-1l-1.06-.06-.33-.52H308c-.38.28-.88.39-1.22.67s-.74.34-1,.66-.65.28-.87.58c-.49-.08-.57.56-1,.58-.27,0-.34.28-.53.4a5.93,5.93,0,0,1-.56.29,2.22,2.22,0,0,0-.87.58c-.17.18-.51.13-.67.38,0,0-.18,0-.26,0Zm-130.13,43-.81-.81c-.36.13-.48-.44-.85-.3-.13-.27-.46-.23-.67-.39s-.32-.39-.64-.46-.41-.32-.64-.51a1.81,1.81,0,0,0-.89.06l-.17.47h-.86c-.15.21-.46.32-.41.68l.27.3v7.17c-.13.2-.5.34-.15.69l.85,0c.27.2.38.48.74.54a1,1,0,0,0,.27-.21c.27-.38.83-.35,1.07-.77,0-.07.14-.1.21-.14a3,3,0,0,0,.81-.37,2.57,2.57,0,0,1,.88-.57c.19-.4.7-.36,1-.68.48.06.58-.55,1-.59s.39-.31.7-.32.3-.37.5-.44a1.16,1.16,0,0,0,.65-.41c.16-.27.52-.14.68-.39s.28-.24.22-.49c-.22-.14-.46-.4-.72-.42-.45,0-.51-.53-.88-.57s-.47-.51-.74-.53c-.44,0-.55-.44-.87-.58ZM112,33.55s-.08-.09-.12-.09H94.21s-.07,0-.13.1v.35a4.56,4.56,0,0,1,1,.5,13,13,0,0,0,1.21.73c.39.28.81.52,1.2.8.1.07.29,0,.36.12.24.28.62.37.84.6s.73.34,1,.66c.44,0,.54.47.87.55.74.19,1.23.8,2,1.12h1c.21-.35.76-.25.94-.67.65-.24,1.08-.88,1.8-1,.15-.25.52-.19.66-.39.25-.36.74-.34,1-.67s.67-.26.87-.58c.5.09.57-.56,1-.57.26,0,.36-.26.51-.41s.49-.16.7-.37.41-.11.55-.31S112,33.79,112,33.55Zm72.64,45.27H167.49s-.06.06-.12.11v.35c.19.15.46.06.6.29a1,1,0,0,0,.41.35,4.37,4.37,0,0,0,.71.28c.3.11.38.54.73.55s.4.4.71.29a3.8,3.8,0,0,0,.61.53c.25.16.56.21.82.35s.32.46.63.49.39.37.63.47a1.62,1.62,0,0,1,.76.49.66.66,0,0,0,.2.14l.51,0c.2.19.34.44.53.5a1,1,0,0,1,.56.31h1.11c.16-.16.3-.4.49-.47a6.08,6.08,0,0,0,1.56-.91c.41,0,.47-.54.87-.56s.42-.46.74-.55a2.43,2.43,0,0,0,.91-.45c.24-.2.53-.3.76-.49s.58-.17.8-.45a1.54,1.54,0,0,1,.75-.49,1,1,0,0,0,.65-.41c.15-.23.41-.14.58-.27s.17-.54-.1-.75Zm122-45.36H289.75s-.07.06-.13.11v.34a3.69,3.69,0,0,1,1.26.7,1.69,1.69,0,0,0,.9.48c.39.09.49.49.86.6a5.13,5.13,0,0,1,1.75,1.08c.28.23.7.22.88.56.51-.12.57.51,1,.58a1.39,1.39,0,0,1,.89.5c.21.33.68.23.86.58h.88c.1-.4.58-.27.83-.57a3,3,0,0,1,.87-.53c.11-.07.26-.08.34-.17.53-.55,1.36-.63,1.85-1.22.39,0,.49-.49.74-.5s.48-.44.85-.34c0,0,.14-.11.19-.18.24-.34.7-.36,1-.64.48.08.53-.6,1-.57.18,0,.3-.33.58-.27,0,0,.1-.12.16-.21s.09-.45-.16-.61S306.77,33.35,306.58,33.46ZM111.74,46.87a2.88,2.88,0,0,1-.82-.53,1.32,1.32,0,0,0-.78-.41c-.42,0-.47-.55-.87-.58s-.45-.51-.73-.53c-.45,0-.53-.49-.84-.57l-.57,0c-.25-.49-.82-.53-1.16-.9s-.86-.36-1.23-.68-.78-.57-1.22-.88h-.47l-.26-.23a2.68,2.68,0,0,0-.48.23c-.29.19-.66.23-.89.51a2,2,0,0,1-1,.57c-.39.13-.51.67-1,.6-.26.32-.74.3-1,.68-.14.21-.52.11-.66.39s-.53.27-.77.48-.51.15-.65.4-.48.19-.68.38-.25.42-.51.41-.39.38-.72.3c-.07,0-.18.19-.3.25s-.35-.07-.33.28h17.78S111.67,46.94,111.74,46.87Zm191-2.62c-.32-.5-1-.59-1.36-1-.17-.2-.53-.24-.81-.35s-.38-.51-.73-.55-.46-.41-.72-.54h-1a3,3,0,0,0-.77.4,2.55,2.55,0,0,1-1.24.69,3.28,3.28,0,0,1-1.18.81c-.14.08-.35.09-.45.25-.2.33-.68.26-.85.59s-.53.3-.79.46-.57.38-.86.59-.64.23-.92.41-.83.34-1,.73l-.4.1c-.08.22-.08.38.12.49s.37-.21.57-.28H306.6l.3.28c.31,0,.44-.08.4-.39-.19-.17-.29-.41-.62-.46a2.2,2.2,0,0,1-.78-.42c-.22-.14-.32-.48-.67-.39-.14-.28-.47-.22-.67-.39a1.63,1.63,0,0,0-.76-.51c-.23,0-.34-.41-.61-.48Z"/><path d="M5.24,157.92a3,3,0,0,1-1.36-1v-.51l-.25-.25V155l-.27-.27v-1.13l.21-.26c0-.29,0-.68.12-.89a1.21,1.21,0,0,0,.2-.77l1-1,.57-.31H7l1,1c-.12.29.17.39.22.53l-.6.68-.73-.37V152l-.43-.39H5.64l-.62.75v.79c.23.19.46,0,.66.11l.21-.22c.58-.33,1,.46,1.52.16l.1.51.4.14a1.85,1.85,0,0,0,.25.48.51.51,0,0,1,.14.5c-.05.27.27.36.28.58a.86.86,0,0,1-.13.63,7.13,7.13,0,0,0-.56,1.09l-.85.82Zm.17-1.1H6.52l.39-.41c-.12-.41.25-.7.31-1.08L6.93,155c0-.2.09-.44-.11-.66H5.18l-.46.37v.86c.35.2.25.55.3.85Z"/><path d="M6.24,138.84H5.49a3.52,3.52,0,0,1-1.16.54,1.5,1.5,0,0,1-.41,0v-3.73c.18-.2.43-.05.64-.1l.3-.27H7.62l.4.39a1.82,1.82,0,0,1-.09,1H5.14c-.08.09-.14.12-.14.15,0,.37,0,.74,0,1.11.22.22.26.22.68-.12H6.5l.29.25H7.3a4.08,4.08,0,0,1,1.29,2.07v.45c-.21.41-.43.83-.69,1.36l-.81.81H6.33l-.5.35-.46-.33H4.62a2.94,2.94,0,0,1-1-1.36v-.71c.17-.24.42-.11.63-.14.62.27.68,1,1.18,1.38h.71l.23-.12c.44-.28.56-.78.83-1.18a.47.47,0,0,0,0-.4A3.36,3.36,0,0,0,6.39,139Z"/><path d="M6.92,92.79s0-.09,0-.13V91.39L6.5,91H5.38c-.1.12-.35.27-.37.45,0,.34-.29.43-.45.63H3.74c-.27-.28-.08-.62-.15-1l.67-.57c.21-.19.39-.39.59-.59h.82l.3-.27.2.2c.25.17.53,0,.64,0,.41.08.93.68,1.45,1.51a.31.31,0,0,1,.05.12v1l-.26.32v.54c-.44.44-.93.87-1.34,1.35s-1.16.53-1.39,1.21c0,0,0,0,.06,0H7.86l.43.42,0,.54L8,97.25c-.06,0-.1.1-.14.1H3.75l-.41-.41v-.55c.2-.28.59-.43.57-.86.26-.26.53-.52.78-.78s.57-.2.78-.48a6.38,6.38,0,0,1,.77-.79Z"/><path d="M6.82,112.56H4.92l-1.3-1.29v-.79l.37-.37.7.36,0,.32.84.65h1l.39-.36v-1.42l-.38-.42H6.05l-.77-.4v-.55a2.76,2.76,0,0,1,1.3-.78l.28-.65L6,106.23h-1l-.08.41L4.6,107a1.91,1.91,0,0,1-.92-.05c-.33-.44.12-.74.22-1.1a.72.72,0,0,1,.57-.5c.28-.06.5-.33.85-.28.13,0,.29-.17.49-.3l.48.3H7l1,1.07v1.57l-.53.56v.31l.45.16c-.05,0,0,0,0,0A8.18,8.18,0,0,0,8.58,110a.47.47,0,0,1,0,.4c-.44.6-.53,1.44-1.23,1.83C7.17,112.35,6.92,112.35,6.82,112.56Z"/><path d="M6.09,127.38v-1.14c-.08-.07-.11-.12-.15-.12H3.75l-.41-.4V124.6c.7-.53.74-1.57,1.51-2.09.22-.15.13-.5.39-.67a.78.78,0,0,0,.33-.54c.06-.23.36-.4.52-.61a1.09,1.09,0,0,0,.12-.36c.36.13.48-.43.88-.29l.39.44v4.12c.23.25.48.05.75.2.08.1.3.21.36.39,0,.34-.42.72-1.08,1v1.16l-.73.38C6.64,127.53,6.36,127.52,6.09,127.38Zm-1.65-2.79c.07.08.1.14.14.14H6s.07-.06.14-.13v-1.36l.3-.38L6,122.79c-.21.21-.41.4-.59.6a1.12,1.12,0,0,0-.42.66C4.92,124.25,4.62,124.41,4.44,124.59Z"/><path d="M3.88,65.94v-.81l-.26-.29V62.9l.24-.24v-.72l.46-.82.28,0,.51-.51H6.47c.27.24.67.31,1,.6s.28.65.58.88v3.32c-.07.17-.37.26-.26.57l-1,1H6l-.3.27L5.43,67l-.91,0-.12-.41Zm2.36.16.69-.7c0-.94,0-1.9,0-2.86,0-.08,0-.16,0,.05l-.64-.9H5.38l-.4.42v.53l-.25.29v1.66l.24.24,0,.85.39.42Z"/><path d="M7.48,3.44l-.27.3.38.37L8,4.2v.71L7.59,5c-.26.23,0,.57-.14,1l-.39.33H6.5l-.4-.4V5.11C6,5.07,6,5,5.88,5h-2l-.57-.45a4.24,4.24,0,0,0,.6-1.15c.07-.42.49-.49.6-.86a1.77,1.77,0,0,1,.46-.9c.29-.24.3-.63.56-.88A8.1,8.1,0,0,0,6.11,0c.65-.11,1,.24,1.37.39ZM6.28,1.7c-.26.07-.37.33-.57.48s-.11.35-.21.46a2.19,2.19,0,0,0-.29.57c-.1.19-.33.31-.46.5s0,.24,0,.43c.26,0,.48,0,.7,0s.46.09.68-.16V2.32C6.33,2.11,6.52,2,6.28,1.7Z"/><path d="M6.32,19.12l-1-.1c-.18-.4-.6-.1-.88-.32v-.62l.37-.37c.32-.06.73,0,1.13,0l.41-.8c0-.42-.5-.51-.65-.86-.16,0-.31,0-.39.1a.87.87,0,0,1-.48.21c-.15,0-.21.29-.44.26A.82.82,0,0,1,3.87,16c.1-.34.48-.49.69-.79H6.81l.66.73v1.61l-.54.57a5.54,5.54,0,0,1,.68.69,5.15,5.15,0,0,1,.44.81c-.1.18-.2.36-.29.55a2.52,2.52,0,0,0-.27.58.68.68,0,0,1-.42.5,1,1,0,0,0-.55.31H4.3l-.41-.4v-.59l.43-.33.79.22.34.31.83-.39.33-.64a1.14,1.14,0,0,1-.23-.25A1.51,1.51,0,0,1,6.32,19.12Z"/><path d="M4.58,31.52l-.29.27c-.13-.19-.39-.27-.41-.61s.47-.46.68-.75h.81l.31-.28.29.27h.82l.69.68v2.26l-1.06,1c0,.57-.61.75-.85,1.17,0,0,.12.11.19.11.6,0,1.19,0,1.9,0l.4.6c0,.18-.28.3-.44.51H4.28l-.38-.45v-.51c.17-.41.84-.52.82-1.12.36-.36.71-.72,1.07-1.07,0-.44.38-.58.58-.89v-.8c-.24-.26-.5-.5-.78-.79l-.49.37Z"/><path d="M4.69,46.07,6,45.41l.68.33v5c.34.22.67.09,1,.12.13.18.37.27.41.52s-.24.36-.38.57H4.5l-.34-.44c0-.33.26-.44.42-.65h.55l.41-.41V47.12c-.32-.21-.46,0-.65.11a2.07,2.07,0,0,1-.61.09L4,46.75Z"/><path d="M4.86,77.11l-.69-.36v-.58l.44-.37h.54l.7-.91c0,.09,0-.07.08-.22h.86c0,.07.13.15.13.22,0,2.38,0,4.76,0,7.17a2.05,2.05,0,0,1-1.1,0V76.76l-.13-.14C5.48,76.92,5.05,76.85,4.86,77.11Z"/><path d="M2.76,109.35l0,.62-.64.38H.41L0,109.9v-.55c.06,0,.09-.1.12-.1q1.23,0,2.46,0S2.69,109.3,2.76,109.35Z"/><path d="M2.78,125.15l-.4.4h-2L0,125.11v-.52s.07-.1.1-.1H2.67C2.87,124.7,2.73,124.93,2.78,125.15Z"/><path d="M2.77,79.35v.44c-.07,0-.14.13-.22.13-.81,0-1.63,0-2.4,0-.23-.22-.09-.46-.14-.69l.42-.39h2Z"/><path d="M0,94.45l.4-.4h2l.35.44V95s-.07.1-.1.1H.12C-.08,94.9.06,94.66,0,94.45Z"/><path d="M2,139.39l.78.4v.56l-.81.42a2.51,2.51,0,0,1-.9,0c-.32-.11-.6-.34-.93-.24-.2-.28-.07-.51-.13-.77a5.26,5.26,0,0,1,1.25-.08l.29-.27Z"/><path d="M.43,154.6h2l.38.46v.54a6.6,6.6,0,0,1-2.68,0,.17.17,0,0,1-.06-.11c0-.17,0-.35,0-.5Z"/></g></g></svg>