<svg xmlns="http://www.w3.org/2000/svg" viewBox="0 0 132.58 141.02"><title>Recurso 41ART</title><g id="Capa_2" data-name="Capa 2"><g id="Capa_1-2" data-name="Capa 1"><path d="M90.93,46.33c0,.14.12.18.19.25a1,1,0,0,1,.29.42h.15a.37.37,0,0,0,0,.18c.09.12.2.23.31.35h.56l.32.4,0,.27h.33l.07.2-.29.22v.2l.26.08,0,.32c0,.05.13.09.19.18a2.29,2.29,0,0,0,.14.27c.08.11,0,.26.19.33s.1.23.19.32a.92.92,0,0,1,.28.42,1.34,1.34,0,0,0,.28.42,1.41,1.41,0,0,1,.19.39c.06.18.24.25.34.4s.11.22.19.37v.35c.25.16.28.49.53.67l0,.31.26.17v.32l.13.15v.22c.18.23.21.58.48.78h.13l.22.42v.36c.13,0,.2-.19.34-.08s0,.3.14.42,0,.25.1.36,0,.29.06.39a1.27,1.27,0,0,0,.18.37c.12.08,0,.29.19.3s.21.14.31.22v.2a.17.17,0,0,0,0,.07l.38.38V59l.14.15v.26l.14.15v.39a1,1,0,0,1,.29.42,1,1,0,0,0,.23.37c.09.11.19.19.22.23l.18.39v.46l.14.13v.35l.27.5v.35l.14.15v.37l.27.47v.34l.11.15a.36.36,0,0,1,0,.11,1.82,1.82,0,0,1,0,.33c0,.14.12.17.14.28s0,.21,0,.25.08.2.14.28c.15.23.23.49.36.7s-.1.14-.2.13l-.19.21.12.13v.39l.14.15v.75l.19.38.19,0v-.41l.19-.21.17,0,.19-.36v-.49l-.13-.14v-.27l-.1-.09c-.11-.1,0-.27-.09-.37s0-.27-.1-.35-.08-.25-.18-.33,0-.21-.07-.32a.46.46,0,0,0-.35-.23l0,0c0-.23,0-.45,0-.67l.1-.1c0-.12-.21-.23,0-.37h.15l.23.52.19-.12c.3,0,.24.33.42.46v.59l-.19,0s-.06.06-.06.09a.27.27,0,0,0,.08.17c.08.08,0,.17.05.25a.42.42,0,0,0,.09.16c.08.08,0,.21.13.28s0,.23.06.31a.55.55,0,0,1,.13.29c0,.2.24.37.12.57.07.15.09.29.18.37s.07.24.18.33.1.22.17.33,0,.25.11.36.08.18.17.39v.3l.13.13v.38c.1.13.18.26.35.25l.32.65v.31l.13.16v.37l.15.19v.52l.12.12v.55l.21.17.2-.39c0-.14-.25-.23-.07-.39l.2.2V73l.14.15v.39l.12.12c0,.13,0,.28,0,.43l.11.11V75l.14.17v.41l.27.21c0,.13,0,.27,0,.3s.12.33.26.44v.35l.15.21-.37.71a.92.92,0,0,0-.1-.39c-.09-.1,0-.27-.18-.33s-.13-.36-.15-.54a1.17,1.17,0,0,0-.15-.34,1.4,1.4,0,0,0-.18-.39c-.12-.12,0-.29-.1-.36s-.11-.27-.22-.39a1.53,1.53,0,0,1-.17-.39c-.07-.13-.14-.26-.22-.38s0-.26-.18-.33c.07-.17-.21-.23-.14-.41-.23-.1,0-.39-.24-.5,0-.19-.24-.32-.16-.54a.42.42,0,0,1-.13-.41c-.15-.08-.11-.27-.23-.38s0-.12,0-.18-.22-.27-.14-.48a.86.86,0,0,0,0-.32c-.17-.09-.13-.23-.14-.41l-.25-.13a3.09,3.09,0,0,0,0,.54l.14.15v.26c.17.07.13.26.23.38s0,.32.16.47,0,.22,0,.34l.13.15v.38l.14.16v.66l.13.14c0,.15,0,.34,0,.54l.09.09a.53.53,0,0,1,0,.12c0,.18,0,.36,0,.54a1.49,1.49,0,0,0,.39.57V76l.14.15v.26l.14.14v.22l.26.49v.32l.27.48c0,.15,0,.34,0,.55h-.21l0-.06c0-.22,0-.45,0-.64l-.27-.47v-.36c-.25-.19-.21-.55-.42-.87v-.39c-.14,0-.18.12-.25.19l.11.11v.34l.28.51v.35l.14.16v.79l.14.15v.26l.13.15v.38c0,.06.13.12.13.16,0,.28.28.51.11.81l-.11,0c-.25,0-.25-.27-.35-.43a2.84,2.84,0,0,1-.23-.5l-.06,0c0,.2,0,.39,0,.56l.13.13v.37l.15.22-.22.42c-.12,0-.12,0-.4-.27l-.31.37.37.3h.48l.14-.12h.4l.47-.5v-.13s.13-.06.17,0,.2.15.31.16l.45.89V82l-.13.13v.15l.25.09v.55l.28.27v.43l.18.13.23.43v.23l.12.12c0,.08,0,.22,0,.28s.08.25.18.33.06.2.07.32l.42.37c-.07.19.07.24.12.34v.25c.09.13.25.18.28.37s.1.21.13.34a3.27,3.27,0,0,0,.24.5,2.85,2.85,0,0,1,.24.5l.18.53a.64.64,0,0,0,.13.17v.52l.13.15v.39l.14.15v.26l.13.15v.36s.14.13.13.19c0,.27.27.47.13.72,0,.13.2.17.13.35l.42.33v.42s.13.13.12.19.13.28.13.41.11.28.14.42.2.23.15.41.18.19.13.34c.17.1.07.31.16.4s.09.33.1.5l.27.47v.53a1.79,1.79,0,0,1,.32.3,2.36,2.36,0,0,1,.22.38v.38l.29.21c-.12.25.13.38.11.58a6.69,6.69,0,0,1,.53,1,1.7,1.7,0,0,0,.23.3c.07.08,0,.23.14.28a1.48,1.48,0,0,0,.57.81V101l.14.14v.23c0,.11.2.16.14.32a.33.33,0,0,1,.13.28,1.66,1.66,0,0,0,.13.35c0,.06,0,.13,0,.18s.15.26.24.41v.23l.13.15v.26c.08.08.19.14.11.29l-.1,0c-.11,0-.15-.13-.21-.12-.23,0-.26-.23-.43-.28a1,1,0,0,1-.44-.22c-.24-.23-.57-.25-.79-.48a1.74,1.74,0,0,0-.42.38v1.46s-.09.07-.09.1c0,.28-.21.51-.18.8a7.94,7.94,0,0,1,0,.84l.14.14v.54l.12.12v.4l.14.14v.67l.12.12v.67l.13.13,0,.43.12.12v.54l.13.13v.52s0,0,0,.06-.06-.13-.1-.16-.15-.35-.32-.48a7,7,0,0,1-.62-.6v-.21l-.64-.65c-.06.23,0,.48,0,.7.16.14.15.39.34.48a1,1,0,0,0,.34.47v.26l.21.23.18.37v.63l-.14.17.14.24V113l-.14,0h-.06l-.46-.43v-.46l-.2-.05a1.89,1.89,0,0,1-.38-.49c-.11-.2-.32-.34-.43-.56s-.28-.31-.38-.51-.36-.34-.47-.55-.29-.31-.39-.47a1.46,1.46,0,0,0-.26-.53,4.24,4.24,0,0,1-.42-.43c-.12-.17-.35-.17-.49-.34l-.18.24v.26l.26.2v.18c.15.16.3.32.47.47a1.31,1.31,0,0,1,.24.37c.09.14.1.33.28.42s.09.28.23.37a2.88,2.88,0,0,1,.35.35c0,.09,0,.17.08.2s.09.24.18.34.43.26.44.55c.21.14.26.39.4.57v.4l.28.18h.2c.11.14.1.37.36.41s.23.19.36.29v.49a.66.66,0,0,0,0,.1l.63.58a.43.43,0,0,1,.35.28c.18.39.54.61.8.93.06,0,.12,0,.14,0,.16.2.44.31.48.61.2.15.31.43.61.47l.46.45v.31l.2.05.09-.26.19,0,.07.21-.34.23a6.65,6.65,0,0,0,1.1,1l.06.39.15-.32h.15c.13.13,0,.29.06.44s.19.43.41.57a.16.16,0,0,1,.09.09.47.47,0,0,0,.31.37c.13,0,.26.13.41.2v.59l.33,0,.34.34.38.38.33.33c.12.13.29.25.33.4s.28.22.29.42c-.14.08-.14.08-.08.26.12-.06.06-.17.08-.26h.21l.08.23a.54.54,0,0,1,.37.24v.36c.17.33.54.39.75.64a6.85,6.85,0,0,0,.66.66s.12,0,.18,0l0,.32a.31.31,0,0,0,.12,0,2.25,2.25,0,0,0,.26,0,.12.12,0,0,0,.14.14c0,.08,0,.16,0,.26h.26c-.08-.14-.14-.23-.27-.25s0-.14-.14-.14v-.2l-.13-.14v-.16l.24,0,0,.22.32.32a.27.27,0,0,1,.31.19.43.43,0,0,0,.38.37c.07,0,.13.12.18.17v.21h-.32c-.15-.13-.15-.13-.2-.08v.3l.24.09.07.23h.35c0,.1,0,.21.09.29s0,.16,0,.24h-.2l-.14-.13-.24.25-.31,0c-.1.21-.4,0-.5.24h-.55l-.13-.13a.82.82,0,0,0-.31,0c0,.16.11.08.17.11l.32.31,0,.22h.27s.06,0,.1.07l.65.33h.21l.15.13h.8l.1.1c.13.08.29,0,.44,0a2.72,2.72,0,0,0,.24.24.86.86,0,0,0,.21.07l0,.23.17-.13c.18.11,0,.29.1.39l-.16.22v.38c-.09.11-.19.05-.29.07,0-.17.07-.36-.07-.52,0,.17-.1.35.07.52a3.32,3.32,0,0,1,0,.42l.32.63.19,0c.15.07.14.31.28.45s0,.17,0,.29l-.21.17h-.38l-.14-.12H126l-.16-.14h-.65l-.15-.13h-.8l-.12-.12c-.21,0-.46,0-.69,0,0,0-.06-.08-.1-.09-.32,0-.6-.26-1-.12a.86.86,0,0,1-.17.17c-.14.09-.33.1-.39.3a4.34,4.34,0,0,1-.17.4l-.18,0-.38.38-.14-.12c-.14,0-.34,0-.54,0l-.11-.12h-.54l-.14-.14h-.42l-.1-.11-.06,0h-.73l-.39-.21c-.12-.07-.28-.1-.37-.24s-.22-.09-.33-.18-.31-.11-.44-.21a3.07,3.07,0,0,0-.42-.28c-.14-.08-.34-.1-.42-.28a.36.36,0,0,0-.1-.07c-.17-.08-.38-.1-.5-.26s-.33-.11-.42-.28c-.24.06-.26-.28-.49-.27,0,0-.11-.07-.15-.11s-.18-.25-.29-.27a.48.48,0,0,1-.32-.21c-.1-.11-.28-.08-.38-.23a2,2,0,0,0-.32-.33.86.86,0,0,0-.24-.09,2.3,2.3,0,0,0-.23-.24,1.74,1.74,0,0,0-.44-.38,1.9,1.9,0,0,1-.4-.33c-.15-.13-.26-.34-.43-.42a4.06,4.06,0,0,1-.75-.62c-.16-.11-.15-.3-.27-.42s-.31-.2-.31-.41a.05.05,0,0,0,0-.05c-.3-.2-.39-.57-.66-.8s-.47-.48-.71-.71c0,0-.09,0-.14,0l-.23-.24-.66-.66c-.31-.07-.42-.38-.66-.51a2.35,2.35,0,0,1-.6-.48c-.18-.17-.35-.35-.52-.52,0,0-.11,0-.14,0l-.8-.8c-.1-.33-.46-.47-.59-.76a3,3,0,0,0-.6-.68c-.1-.12-.08-.29-.23-.38a2.57,2.57,0,0,1-.33-.33l-.33-.32v-.16l-.2-.06a1.56,1.56,0,0,1-.5-.76l-.2,0,0-.19c-.11-.13-.31-.22-.27-.45h-.2c0-.32-.37-.4-.45-.68s-.42-.32-.43-.62l-.61-.62,0-.19-.46-.45-.24-.51a6.58,6.58,0,0,0-.53-.52c-.17-.13-.2-.33-.33-.47s-.3-.2-.3-.41c0,0-.05-.07-.08-.1s-.36-.3-.44-.49-.28-.28-.36-.45c-.18-.43-.58-.65-.86-1v-.11l-.4-.45c0-.27-.35-.32-.4-.56,0,0,0,0,0-.09L95,110c-.11-.11-.21-.23-.33-.33s-.11-.32-.28-.42a.56.56,0,0,1-.25-.37c0-.13-.2-.19-.26-.36s-.25-.29-.31-.36l-.46-.9.13,0c.14,0,.2.17.34.28l.2-.26-.28-.5a.8.8,0,0,0-.42,0c-.21-.14-.48-.15-.69-.28s-.44-.17-.56-.4h-.37l-.75-.39h-.38l-.18-.2v-.25a2.38,2.38,0,0,1-.27-.34c-.07-.12-.11-.26-.18-.41a1.36,1.36,0,0,1-.34.25.42.42,0,0,0-.29.3,2.75,2.75,0,0,1-.2.38H88.7a1.74,1.74,0,0,1-.75.54c-.2-.15,0-.36-.12-.52s-.21,0-.31,0a2.72,2.72,0,0,0-.29.3c-.07.09-.06.24-.18.32v.39l-.13.13v.67l-.13.13s.11.09.1.12c0,.21.14.36.16.55v.13l-.13.15v.67l.11.11v.54l.15.15v2l.12.12v.83l-.11.11v.5l-.27.48v.5l-.14.14v.27c-.23.12-.08.4-.26.57s-.11.35-.27.49v.52l-.14.16v1.19l-.13.15v.13l-.27.26v1.62l-.13.06c0-.13-.14-.17-.21-.28-.18,0-.37,0-.52.09l-.23.11c.06,0,.07.08.09.08h.87c0,.06,0,.11.11.25v.55l.29.52a1.18,1.18,0,0,0-.16.54h-.5l-.41.21.19.2h.53l.15.14.16-.15a2.09,2.09,0,0,1,0,.61l.13.14v.52c.06.09.18.15.12.32-.21.08-.46,0-.77.07l-.27.34v.1c.17.18.23,0,.32-.07h.3l0,.22c.07.12.23,0,.35.07s0,.29,0,.44l.12.12,0,.29.11.14-.17.17c-.4,0-.68.33-1.1.43l-.21-.28H84.7l-.19-.19v-.41c0-.07.14-.13.14-.27s.14-.1.12-.23,0,0,0,0l-.41-.4v-.67l-.12-.13v-.67l.13-.14v-.41c-.2-.1-.25-.33-.4-.56v-.5l-.14-.14v-.54l-.12-.12v-.26l-.14-.15v-.63l-.26-.46v-.39c.13-.09.34-.06.36-.29,0,0,0,0,0,0h-.86l-.2.31c-.1-.06-.18-.08-.19-.12a1.36,1.36,0,0,0-.39-.65,1.29,1.29,0,0,1-.29-.61s0-.07,0-.07c-.22-.09-.07-.32-.18-.46a2.84,2.84,0,0,1-.22-.41,6.79,6.79,0,0,1,0-.77c0-.3-.17-.53-.18-.8,0,0-.06-.07-.09-.1V114l-.23-.07c-.06-.2-.24-.36-.19-.59l-.12-.14v-.37l.11-.14c0-.13-.21-.23-.09-.38l-.15-.17v-2l.13-.14v-.4l-.1-.09c-.07-.1,0-.21,0-.34l.18,0,.15.14a.07.07,0,0,0,0,0c.06-.29,0-.42-.24-.82V108l-.24-.22a1.56,1.56,0,0,1,0-.53c0-.15,0-.3,0-.45a7.73,7.73,0,0,0-.58-.57c-.22-.17-.24-.47-.48-.61v-.3l-.28-.21v-.18l-.2-.19-.14.12h-.39l-.14-.13-.2.19v.66c-.09.13-.26.12-.37.24s-.13.32-.28.42-.11.26-.25.36l-.06-.21-.24-.26a3.08,3.08,0,0,0,0-.65c-.08.27-.31.42-.22.66-.17.1-.33,0-.47.06l-.34.34v.13l-.19.2c-.16-.25-.22-.55-.47-.72,0-.16,0-.32-.05-.46-.13,0-.19.16-.28.23s-.22,0-.33,0l0-.33-.18,0-.2.2c0,.24-.13.4-.21.61-.11-.11,0-.23-.07-.33l-.25-.26v-.42l-.25-.15-.15.15,0,.18-.22.06,0,.15-.46.49a.53.53,0,0,1-.34-.2v-.66c-.08-.13-.2,0-.29-.08s-.2.24-.37.28a1.91,1.91,0,0,0-.37.17s-.07.14-.12.23l-.09.22-.33.15a1.14,1.14,0,0,1,0-.45l.11-.11v-.3l-.17-.18c-.06-.05-.18,0-.28,0a2.43,2.43,0,0,0-.27,0l-.19.2v.28l-.25.08,0,.21-.2,0a.91.91,0,0,1,0-.48l.11-.11v-.42l-.17-.19c-.15-.06-.2.08-.3.12h-.93a1.13,1.13,0,0,0-.5-.25s-.08,0-.17,0l-.2-.27h-.19l-.36-.38-.35,0,0-.2-.22-.09a1.61,1.61,0,0,1-.23-.23c-.08-.12-.22-.11-.32-.19a1.06,1.06,0,0,1-.28-.55c.13-.13.29,0,.49-.07l.32.41H66l.2-.2-.54-.52.13-.15v-.54l-.21-.22-.17.23.12.14c0,.19-.14.23-.22.33a1,1,0,0,1-.72-.35c.06-.22-.14-.17-.23-.23a.43.43,0,0,1-.1-.09h-.4l-.28-.27-.15,0L63.3,101l-.4,0-.23-.19v-.43l-.18,0-.5.53h-.84c-.18-.08-.27-.31-.5-.42l-.34.3h-.24a2.48,2.48,0,0,1-.39-.4c-.1-.13-.14-.31-.32-.42l-.21.1v0s0,0,0,0h-.45c-.39-.19-.79-.2-1-.54h-.28l-.14-.13-.11.12h-.42l-.14-.11H55.35l-.22.36-.06-.06s0,0,0,0c0,.24-.15.39-.22.58H54.7c-.11.08,0,.2-.07.37,0,0-.09.08-.17.13s-.07.14-.1.23-.14.1-.12.21a.37.37,0,0,1-.1.3s0,.17,0,.25-.1.14-.12.21a.84.84,0,0,0,0,.28l.36,0,.05.17-.14.15v.66l-.13.15.1.09a.53.53,0,0,1,0,.12v1.25l-.16.19.17.27v1.56l.12.13v.4l-.13.14.14.14v1.33l.12.12v2.55l.13.13v.83l-.13.12v.54l-.12.12v.66c-.16.1-.12.33-.27.43,0,.36-.26.61-.4,1v.29a.75.75,0,0,0-.18.34l-.2.05,0,.2c-.08.13-.27.16-.4.26a3.41,3.41,0,0,0-.38.38s0,.11,0,.12-.11.33-.27.43v.4l-.12.11,0,.43c-.15.12-.31,0-.52.1s-.3.55-.61.74l-.26-.23-.34.18v.14l-.19.17-.27-.39c-.16.17-.35.29-.38.52-.1.05-.18,0-.23,0s0-.11,0-.12c-.19-.13-.22-.37-.38-.52a1.76,1.76,0,0,0-.28-.14l-.46-.47-.36.21s0,0-.13.12a2.55,2.55,0,0,1,.44.2,3.06,3.06,0,0,1,.49.3,2.39,2.39,0,0,1,.28.49,2.5,2.5,0,0,1,.14.25v.36s-.07.06-.11.07-.21,0-.31.07-.33.1-.39.3.18.23.15.41.09.22.15.34l-.23.19c-.09,0-.16-.2-.33,0v.51l-.19.23-.24-.17c-.22.31-.29.65-.5.92l.11.12v.29c-.05,0-.12.17-.21.17s-.21.14-.34.24l.15.26c-.09.05-.12.19-.26.19,0-.17-.18-.17-.19-.27-.2,0-.23.12-.33.18v.68a.85.85,0,0,1,.1.13.23.23,0,0,1,0,.12c-.07.16-.3.21-.27.43l-.34.34c-.05,0-.15,0-.16-.05a3.61,3.61,0,0,1-.08-.38l-.22.22v.39l-.13.15v.46l-.29.19.13.13c0,.14-.12.07-.2.1l-.08.22c-.17.1-.31,0-.44-.07l-.18.15c-.05.17.07.22.12.3v.41l-.3.13c.11.32-.11.45-.1.65s-.16.29-.19.47c-.08,0-.19,0-.25,0a.54.54,0,0,0-.42-.13c-.08-.14-.26-.13-.38-.22a2.58,2.58,0,0,1-.37-.24.87.87,0,0,0-.38-.2c-.15,0-.21-.14-.29-.23s.13-.22.21-.32h.26c.13-.13,0-.3.08-.51a3.8,3.8,0,0,1,.4-.36c.14-.12.12-.32.28-.42a1.13,1.13,0,0,0,.32-.44c.19,0,.23.13.34.21s.15.19.32.2.18.16.27.25c.11-.1,0-.22.06-.32l-.6-.61c-.1,0-.19,0-.2-.18s.32-.19.27-.43c.15-.1.21-.29.39-.35,0,.09,0,.19.13.1l-.13-.1a1,1,0,0,0,0-.18l.24-.24c.08-.06,0-.25.22-.22s.25.29.45.4l.18-.07a1.45,1.45,0,0,0-.26-.51.27.27,0,0,0-.22-.11s-.06-.1-.08-.13l.43-.42c.15-.31.19-.52.32-.63s.17-.35.33-.48v-.39c.13-.2.39-.3.42-.6.19,0,.39,0,.59,0l.32-.32c0-.22-.19-.27-.26-.42s0-.1,0-.13.31-.23.35-.38.2-.24.25-.37a1.13,1.13,0,0,1,.29-.42c0-.21.21-.31.34-.48l-.18-.23v-.25l.12-.12,0-.28.12-.14v-.93l-.15-.19.15-.24v-.4l-.26-.2v-.33l.23-.08c.07-.1,0-.21,0-.31l-.14-.16.26-.51-.11-.13v-2.14l.13-.14v-.26l-.13-.14v-.8l.16-.18-.16-.28v-.61l-.13-.13v-1.59l-.14-.16V106.8l-.14-.15v-1.47l-.11-.11,0-.3-.12-.12v-1.2l-.14-.14V102l-.12-.13v-.52l-.14-.15v-.8l-.09-.1a.12.12,0,0,1-.05,0v-.66l-.1-.1a1.09,1.09,0,0,1,0-.41l-.13-.18v-.51l-.14-.14v-.81l-.13-.12v-.8l-.27-.29v-.93l-.13-.12V94.08l-.14-.14V92.6l-.12-.13v-.94l.12-.14v-.26L45.27,91v-.4l.33-.33c.19,0,.24-.15.39-.23l-.18-.26v-.39l-.23-.19-.4,0c-.09-.11,0-.23,0-.34l.26-.09v-.58l-.1-.09c.05-.14.22-.23.11-.41l-.16-.22.16-.21v-.39a.84.84,0,0,1,.37-.25.35.35,0,0,0,.2-.34c.21,0,.26.12.36.17,0,.21,0,.4,0,.61h.22c.09-.16,0-.31,0-.46l.12-.12v-.54l.13-.12-.27-.47c-.36.09-.33.54-.62.65s-.2-.13-.3-.19V84.72c-.18-.22-.23-.5-.4-.71,0-.27-.26-.47-.12-.75L45,83.1V81.47l.11-.12V81L45,80.81v-.43l.26,0,0,.36c.1.11.33,0,.37.23l.07.38c.15-.15.06-.32.09-.47l-.14-.15v-.26l-.2-.21-.19-.38V79l-.41-.79V77.9l-.28-.47v-.37c-.08-.08-.17-.15-.1-.3l.17,0a.49.49,0,0,1,.07.11c0,.09,0,.22,0,.25s.07.26.19.33.17.24.23.37a4.07,4.07,0,0,0,.29.55,4.17,4.17,0,0,0,.47.47.64.64,0,0,0,.13.29v.34c0,.14-.26.21-.13.41a.61.61,0,0,0,.07.1c.06.09.14.17.19.26a1.85,1.85,0,0,0,.37.58.65.65,0,0,1,.09.26c.15-.22,0-.45.1-.65l.05,0,.33.33v.13l.4.4v.44l.21,0a.24.24,0,0,1,.06.1c0,.06,0,.16,0,.19s.09.29.21.38a.73.73,0,0,1,.24.38,1.09,1.09,0,0,0,.33.46c.12.08.13.21.19.32a1.54,1.54,0,0,0,.33.47,2.28,2.28,0,0,1,.38.38c.09.11.09.28.24.37s0,.26.19.32.16.29.29.42v.39c.2.24.23.59.5.78l.35-.17c.14.1.07.22.09.33s.25.18.27.35.19.19.23.31a.64.64,0,0,0,.24.36c.18-.16,0-.26-.11-.38l.17-.23v-.61a3.15,3.15,0,0,0-.19-.37c-.06-.11-.21-.15-.21-.31s-.12-.16-.15-.28-.12-.21-.16-.35l-.32,0L50.75,85l.13-.23c-.14-.1-.3,0-.46,0l-.19-.2v-.49L50,83.59v-.5a1.16,1.16,0,0,1-.28-.82l-.1-.1s0,0,0,0V81.6c-.17-.09-.32,0-.47-.06l-.19-.19v-.26l-.25-.26-.07-.21h-.16l-.12.27h-.21V80.4l-.22-.08a.54.54,0,0,1,0-.11v-.46l-.13-.15v-.21l-.53-1V78a.43.43,0,0,0,.1-.45s0,0-.1,0a.81.81,0,0,1-.18.19,1.55,1.55,0,0,1-.23.08V78l.13.14v.46a.91.91,0,0,1-.45-.51c-.06-.15-.14-.29-.21-.44a1,1,0,0,1-.15-.41,1,1,0,0,0-.25-.43c-.15-.18-.2-.43-.41-.57a3.68,3.68,0,0,0-.38-.77.63.63,0,0,1,0-.28l-.13-.14v-.26l-.14-.14v-.36l-.27-.47v-.33L44.2,73v-.62l-.14-.15V72l-.13-.15v-.39l-.13-.14c0-.31.17-.52.29-.75l-.16-.18v-.8l.13-.14v-.66s-.13-.11-.12-.14-.13-.22-.16-.35a.53.53,0,0,0-.24-.3c-.13-.09-.09-.28-.23-.36l-.13,0c-.13.14,0,.34-.1.5-.1,0-.12-.11-.19-.14a1,1,0,0,1,0-.39c0-.11,0-.22,0-.32l.25-.26v-.41L43,66.48V65.3l-.14-.16v-.39l-.14-.14v-.94l-.12-.12v-.67l-.28-.28v-.4l-.14-.14v-.54l-.12-.12V59.93l-.14-.14v-.67L41.8,59v-.68l-.14-.14.11-.14V57.5s-.13-.12-.19-.2a1,1,0,0,1-.13-.25s-.06,0-.06.06v1.21l.12.11a3.49,3.49,0,0,1,0,.56l-.11.11c0,.27,0,.55,0,.84l-.12.11v.54l-.25.26.14.24c-.1.15-.23.08-.37.12l-.32-.45v-.15l.11-.14c-.05-.14-.17-.06-.26-.08s-.18,0-.25-.07a1.11,1.11,0,0,0,.36-.56l-.08-.09v-.43l-.28-.19V58.6c-.16-.18-.19-.44-.41-.55v-.27l-.19-.2c-.18,0-.22.13-.4.2l.47.36v.58l.11.12v.45l-.18,0A.87.87,0,0,1,39.2,59a.34.34,0,0,0-.34-.19c-.07-.19.07-.24.13-.36l-.14-.26V56.29c.08-.09.18,0,.26,0v.2l.13.14c0,.1-.08.25.12.3v-.45c-.09-.06-.12-.19-.25-.19v-.56l-.19-.37s-.08,0-.08.08V56l-.19.22H38.5c-.11-.09,0-.21-.06-.32s-.25-.35-.5-.38c-.07-.1,0-.21,0-.31l.12-.12c-.16-.16-.14-.46-.47-.5s-.16-.29-.31-.44v-.54c-.2-.1-.09-.31-.18-.41s-.08-.25-.18-.33l-.33-.33v-.27l-.19-.2-.14.13H36l-.33-.64v-.22l-.14-.15v-.39l-.13-.15v-.23l-.12-.17c-.09-.17,0-.32.16-.49-.12-.11-.25-.19-.29-.3s-.06-.21-.16-.26v-.68l-.12-.12v-.54l-.13-.13v-.64l-.13-.17V44.11l.11-.12v-.63l.28-.48v-1s0,0,0-.05.07.18.08.27,0,.22,0,.32l.12.12v.6a1.35,1.35,0,0,1,.14.32.33.33,0,0,0,.14.29v.52c.11.09.12.25.22.35.1-.11,0-.23.06-.31l-.14-.15v-.94l.12-.12v-.68l-.11-.13V40.63l.11-.12v-.67l-.12-.14V35l-.14-.14V33.81l-.12-.12,0-.43-.12-.11v-.67l-.14-.14v-.81L35,31.41V31l-.13-.16v-.39l-.14-.15v-.39l-.12-.12c0-.24-.19-.44-.17-.7-.18-.13-.09-.33-.11-.51l-.13-.15v-.51c-.1-.09-.11-.24-.19-.33s-.07-.29-.22-.38c0-.15-.11-.21-.14-.34a1,1,0,0,0-.34-.66C33.16,26.12,33,26,33,26s0-.27-.07-.38-.16-.4-.3-.54-.19-.4-.37-.52-.06-.25-.19-.33a.72.72,0,0,1-.23-.23,4.81,4.81,0,0,1-.25-.51l-.19-.05,0-.18-.66-.66V22.3c-.31-.16-.31-.16-.46-.47h-.16l-.31-.32c.05-.24-.26-.28-.28-.49s-.09-.14-.12-.21a.29.29,0,0,1,0-.13v-.12c-.08-.08-.17-.23-.3-.29a.88.88,0,0,1-.41-.29c-.1-.14-.27-.12-.38-.23s-.17-.27-.36-.19l0-.2-.81-.41v-.27s-.08-.06-.11-.06h-.69l-.65-.32,0-.33c-.34-.05-.67,0-1,0-.1-.22-.4,0-.51-.24l-.57,0-.11-.12h-.79l-.16-.13h-.26L22,17.27h-.26l-.17.16-.28-.15H20.09l-.25-.15-.3.16-.2-.15h-.25L19,17l-.1.09c-.12.08-.26,0-.38.06L18.28,17h-.61l-.23-.15a.42.42,0,0,0-.12,0s-.06.06-.1.1h-.41l-.13-.13h-.94l-.07-.08c-.16-.11-.32,0-.49-.08l-.1-.1h-.53l-.15-.14H14c-.11-.12-.05-.23-.07-.34.13-.13.3,0,.45-.07l.16.13H15.6l.14-.12h.67l.05,0c-.07-.18-.22-.06-.33-.08a1.7,1.7,0,0,0-.39,0l-.14-.13c-.26-.09-.43.24-.69.11l-.11-.12H11.32l-.13-.12H8.53l-.16-.14H6.78l-.15-.14H4.76l-.17-.15-.28.14H3.83l-.14-.11H3.35c-.14,0-.18-.19-.33-.14l-.14.13H2.62l-.14-.13H2.22L2.06,15H1.54l-.12-.13H1c-.12-.09-.06-.18-.08-.27l.39-.18c0-.12-.13-.07-.22-.11l-.05-.19L.94,14c.2-.13.44,0,.64-.09l.1-.1h.8l.14.13.12-.12.26,0c.26-.18.6-.14.81-.38H4.2l.16-.14H5l.14-.14h.22l.5-.26h.61l.07-.07.05,0c.2,0,.35-.12.54-.15a1.17,1.17,0,0,1,.27,0l.15-.13h.66l.15-.13h.39l.15-.14h.93l.12-.12h.67l.14-.14h.67l.14-.15H12.8l.12-.12h2.54l.15-.14h3.74l.14.14h2l.09.09s0,0,.06,0h3.46l.13.13h1.48c.14.21.34.12.49.14s.15.19.35.09l.1-.09h.52l.15-.13h.25l.2.15c.2-.08.17-.31.32-.41s.11-.32.31-.41l.16,0a.6.6,0,0,1-.08.47c.21.14.26-.08.38-.16v-.27l.48-.47h.19V11a.69.69,0,0,0-.41.3l.05.17c.15-.15.42-.13.49-.36s.08-.28-.13-.31c0,0,0-.1-.05-.1a2.87,2.87,0,0,0-.31-.05s0-.07,0-.11,0-.05,0-.07l.13-.14v-.18l.21-.15h.26c.32-.33.32-.33.29-.39h-.31a.86.86,0,0,1-.45.32v.22a1.88,1.88,0,0,0-.34,0c-.07-.16-.26-.11-.37-.22s-.21,0-.31,0c-.1.22-.4,0-.5.24a.47.47,0,0,1-.33,0c0-.15.11-.06.08,0l.37-.36h.27l.19-.2V9.3l.27-.13-.33-.34a1.56,1.56,0,0,1-.63.27.26.26,0,0,0-.11.07s0,0,0,.11l.26.3c-.19.22-.26-.11-.45-.06l-.16.12c-.3,0-.49.21-.76.27s-.1-.12-.09-.23a1,1,0,0,0,.23-.08.91.91,0,0,0,.17-.17l0-.15c-.08-.08-.13-.07-.33.1h-.32l-.21.31-.28-.18h-.37l-.14.13h-.26l-.14-.13-.14.12h-.26l-.15-.12L25,9.64H24l-.12.13H22.59l-.16.13H20.16L20,9.77H18.69l-.1-.09s0,0-.05,0h-.79l-.2-.2V9.28l.53-.11a5,5,0,0,0-.85-.08l-.15.14h-.4l-.14-.13h-.43l0-.21s.06-.05.08-.05h2.47L19,8.64l0-.2h.45l.11.11H21c0-.16-.1-.09-.16-.12a.93.93,0,0,1-.15-.13H20l-.13-.13c-.3,0-.63,0-.95,0l-.1-.1c-.2-.09-.43,0-.63-.09,0,0,0,0,0,0l2.18,0a1.88,1.88,0,0,1,.2-.2,1.26,1.26,0,0,1,.26-.14l-.25-.1a.39.39,0,0,1-.1-.08l-.25.25H19.05l0-.19.53-.27s0-.06-.06-.06H17.35l-.1.1a.83.83,0,0,1-.44,0l-.14-.12c-.23,0-.27.22-.42.27l-.14,0c-.07-.1,0-.21,0-.31s0,0,0,0h.8l.15-.14.14.13h.26l.16-.14h1.18L19,6.67l.23.14.13-.11h.26l.14.13h.4l.2.2-.28.13c.17.12.35,0,.51.07s.32-.07.44.07.37,0,.46.19h.39c.11.07.18.23.37.08l-.44-.33h-.25L21.17,7l0,0H22c.06,0,.08.14.19.12s.05.11.09.13a.25.25,0,0,0,.17,0c0,.08,0,.19.13.1a.49.49,0,0,0-.13-.1s0-.09-.08-.11a.51.51,0,0,0-.18,0V6.9s.07-.06.1-.07.16,0,.19,0,.45.07.6.26h.57c0,.06.08.13.11.13s.22,0,.3,0c-.11-.14-.26,0-.41-.08a.65.65,0,0,0,0-.2c.1-.11.13-.1.32.06.26,0,.26,0,.76-.26l.34.16.06-.22L25,6.45c-.24,0-.43-.22-.71-.17V5.92l.17,0,.16.14h.26l.12.13.35,0a.15.15,0,0,0,.24.09l0-.16c-.09-.13-.25-.07-.34-.2a5,5,0,0,0-.51-.52c-.25,0-.3-.32-.55-.29l-.43-.41h-.33l-.91-.46V4.07s0-.05.05-.05h.67l.14.13h.26l.26-.25h.84c.05,0,.11.23.27.09s-.21-.23,0-.37l.14.13c.14.06.19-.09.26-.12h.3l0,.18L25.58,4l.19.07.14-.28h.27c.17.13,0,.33.09.49s.17,0,.25,0V4.5c-.05,0-.13.06-.16,0s-.29-.18-.47-.1.19.18.06.35l-.15,0-.15-.15h-.26l-.14-.13h-.2c-.05-.22-.27-.24-.41-.35s-.21,0-.31,0,0,0-.09.09l.21.06.24.25h.36c.15.41.6.43.88.67.25-.09.42.24.69.11.09-.08-.05-.09-.05-.13s0-.34,0-.53l.2.28a2,2,0,0,0,.38,0c0,.09,0,.19.13.1l-.13-.1a3,3,0,0,0,0-.31c.1-.16.31,0,.41-.14s.26,0,.38-.12V4.21c-.1-.12-.23,0-.36-.1s-.34-.21-.52-.34L27,3.88c-.16,0-.2-.11-.31-.18V3.4L27,3.21h.12l.25.26h.26l.32-.4h.9c.1-.17.32-.13.42-.27.22,0,.25-.23.45-.27l.17.08-.28.56.23.1.08-.06h.6L30.92,3l-.23-.45.22-.07a6.2,6.2,0,0,0,.69-.38l.26.14c.14,0,.18-.12.26-.18L32,1.83l.4-.23c.21.09.34-.17.55-.14s.15-.06.27-.12h.61l.29-.28H35l.12-.12h.54L35.83.8h.53l.13-.13h.42l.23-.33.31.18.11-.11h.94l.12-.12c.2-.08.44.06.62-.1s.37,0,.46-.19H40l.14.13h.26l.15.14h.79l.1.1c.15.1.35-.06.5.09l-.26.28c.09.11.21,0,.32.06l.14.13h.4l.21.21c-.2.12-.43,0-.63.09l-.1.09h-.52l-.16.14h-.27l-.14-.12h-.27l-.17.19c0,.1.21.16.05.34h-.7a.32.32,0,0,0,.09.21v.13l0,0h-1L38.72,2c-.18,0-.25,0-.31.07l-.24.24.14.14v.26c.13.15.3,0,.46.1l.22-.3h.32s0,0,0,0v.69l-.11.13a1,1,0,0,0,0,.46h.44l.11-.11h.56l.15.14.31-.42h.34c.11.1,0,.22.06.33l.13.14v.13c-.08.12-.2,0-.39.1l-.15.15.2.22h.3l.08-.25.17,0a.16.16,0,0,1,0,.24c0,.05-.11.08-.1.16h0l-.23.22.07.19.2,0c0-.13,0-.25,0-.38s.18,0,.26,0,.33-.11.41-.29c0,0,0-.08,0-.14l.3-.14L42.22,4c-.08-.09,0-.21,0-.29l.13-.16c0-.17-.13-.22-.2-.32h-.67L41.2,3l-.3,0-.11-.11h-.35c-.29-.14-.28-.41-.42-.61.18-.13.34,0,.47-.08l.19.15c.18,0,.24-.17.34-.25s.25,0,.23-.16c.11,0,.13-.1.21-.13h.26l.14.12h.69l.05-.19c.15-.08.15-.08.39.08l.22-.14a.34.34,0,0,1,.38.12c.18-.09.23.24.43.13l0-.15c-.09-.19-.26-.23-.41-.31,0,0,0,0,.05,0,.26,0,.53,0,.83,0l.11.09L45,1.29l0-.18c.1-.09.21,0,.32,0s0,.2.06.31l0,.05.4.17h.84l.54.54h.94l.11.12c.17,0,.37,0,.56,0l.1.09.11,0h.73l.18-.35-.18-.18L49.62,2h-1.2l-.14-.13H48a.65.65,0,0,1,0-.49.93.93,0,0,1,.47,0l.09.26.24,0-.16-.18.21-.08.19.3c.22,0,.38,0,.52-.05,0-.11-.2-.18-.08-.32a.19.19,0,0,1,.12,0c.06,0,.11.06.23.13a1,1,0,0,1,.18,0c.07,0,.12,0,.11.13a.54.54,0,0,0-.18,0s-.06.09-.07.13-.19,0-.1.12l.1-.12a.43.43,0,0,0,.16,0s.06-.09.09-.13h.6a.93.93,0,0,0,.15.13.72.72,0,0,0,.23,0l-.31.16-.08-.09L50.5,2s0,0,0,.1l.17,0L50.83,2h.4l.12.11h.53l.13.14h.41l.27-.17.22.31c0,.11-.13.17-.21.27s-.25-.09-.32.09c.13.09.26,0,.39.05h.33l.1.09a.07.07,0,0,0,0,0H54c.13.13.24.31.39.37a.75.75,0,0,1,.35.26l0,.12c-.09.1-.21,0-.35.06l0,.22c.19.09.37,0,.54,0s.13.19.24.27l.17-.06,0-.2h-.38V3.68c.1-.12.13,0,.21.06h.29a.78.78,0,0,1,.14.19.74.74,0,0,1,.1.22c.16-.06.21.15.35.13s.18,0,.24.06.26.06.32.19.27.12.38.23.18,0,.22.11.42.22.57.41a4.34,4.34,0,0,0,.52.53c0,.21.16.31.28.41s.13.32.28.43.18.32.29.54l.4.38a6.57,6.57,0,0,1,.3.61,1.32,1.32,0,0,0,.29.42.53.53,0,0,1,.08.22l.17,0A1.16,1.16,0,0,1,60.4,9c.07.18.3.25.3.48L61,9.8c.1.11.26.21.29.34s.19.24.28.36a.86.86,0,0,0,.41.29v.13l.52.53c-.09.21.16.33.14.53a9.33,9.33,0,0,1,.43.83c.1.16.14.36.32.47s.18.13.17.19c0,.22.27.25.27.43s.33.25.28.49a1.79,1.79,0,0,1,.39.44,1.41,1.41,0,0,0,.32.4c.11.14.26.25.37.38s.25.17.27.36.29.21.26.43.21.22.33.33.06.24.18.33a1.53,1.53,0,0,1,.29.28c-.06.16.15.21.13.35s0,0,0,.06a3.49,3.49,0,0,1,.57.7c.12.15.32.24.36.45s.27.21.28.43.24.18.26.36.24.22.28.42.19.23.29.35a.78.78,0,0,1,.1.15c0,.11.1.23.18.38l.16.05a1.33,1.33,0,0,0,.12.24,2.71,2.71,0,0,0,.24.25l-.16.25.22.06a.92.92,0,0,0,.09.23c0,.07.07.14.15.29l.46.46V23l.5.46c.07.29.26.48.3.73.22.15.27.44.47.61a.89.89,0,0,1,.33.66c0,.14.2.19.14.35.24.16.28.49.53.64v.26c.07.15.25.2.28.37s.15.24.14.41a.83.83,0,0,0,.19.39c.09.15.3.21.33.4s.32.25.28.48c.12.13.28.23.29.42.24.16.26.5.5.64v.4l-.14.17.48,1,.74.73v.12c.09.11.18.2.26.31s0,.08,0,.13l.52.51c-.07.18.21.23.14.41l.3.29-.15.24c.06.16.22,0,.33.08s0,.21,0,.28l.79.77c.21,0,.37.14.56.21v.15a1.55,1.55,0,0,1,.23.08,1.73,1.73,0,0,1,.23.24h.14l.22.37.35,0,0,.2.26.13c.09,0,.12.19.25.19s.16.14.27.17v.43c.16.09.37.13.43.33h.4l.5.3-.15.31.27.1,0,.2.19.15c.08,0,.15-.21.3-.07l-.09.18c.1.09.22,0,.32,0s.22.16.19.38l.45.36-.17.3.38.19-.08.1H84c.12.16.31.12.49.17l0,.28c0,.11.21.16.23.27a.81.81,0,0,0,.25.37c.08.1.22.16.19.32.21.15.3.45.61.48.1.16.34.22.33.46.1.08.15.23.33.2.09.29.37.51.33.86l.27.29c-.09.18.27.2.12.38l.47.46h.56l.18.28h.33l.2.38v.32l.41.38v.62l-.22.07-.22.5-.21,0,0,.29.17.18a.77.77,0,0,0,.45,0c.12-.13,0-.3.09-.48s.14-.23.3-.17,0,.28.12.4A1,1,0,0,1,90,48c0,.12,0,.28.13.33v.41c0,.1.19.15.14.29l.26.28v.42l-.23.08c0,.11.12.16.19.23h.26l.19.38v.22l.13.14v.27l-.39.2c-.08,0-.24,0-.38,0l.15.35.3,0s0,0,0,0l.05,0,.76.77c.06,0,.16,0,.17-.08s0-.21.15-.26V51.6l.36-.07c.08-.1,0-.21,0-.33L92,51.11l.13-.19c0-.19-.18-.24-.27-.37v-.39L91.74,50v-.4l-.14-.14v-.34c-.12-.33-.41-.59-.4-1l-.3-.48h-.29c-.17-.16-.33-.34-.5-.49.11-.24.11-.24.33-.08.1,0,.16-.11.22-.2l-.25-.09v-.7c.07-.1.17,0,.25-.06A.34.34,0,0,0,90.93,46.33ZM44.87,29.06c0-.1,0-.14-.13-.14l0-.26h-.26c.08.14.14.23.27.25s0,.14.12.1,0,.21.14.11A.37.37,0,0,0,44.87,29.06Zm58.78,67.09c0,.09,0,.13.12.09,0,.11,0,.21.14.12a.5.5,0,0,0-.12-.08c0-.09,0-.14-.14-.13s0-.14-.13-.14v-.19c-.13-.12-.22-.28-.4-.34,0-.22-.15-.34-.19-.53-.21-.16-.25-.45-.47-.6,0-.26-.34-.3-.29-.56a2,2,0,0,1-.34-.46,1.59,1.59,0,0,0-.38-.37c-.16-.34-.25-.57-.37-.79a1.36,1.36,0,0,0-.24-.24v-.26l-.13-.15v-.18l-.28-.2a.56.56,0,0,0-.09-.41,1,1,0,0,1,0-.44c-.25-.14-.28-.43-.48-.61s-.1-.33-.2-.44a.4.4,0,0,1-.08-.42l.23-.23-.26-.45c0-.13.07-.29-.06-.43h-.13l-.14.13H98.9l-.33-.33c0-.22-.21-.27-.28-.44v-.24c-.16-.18-.39-.31-.43-.57l-.21-.05c-.13-.15-.28-.31-.42-.48s0-.11-.06-.18l-.2,0c0,.11.18.16.12.3a2.92,2.92,0,0,1,.46.47.78.78,0,0,1,.21.59l.27.29c-.06.15.13.2.14.34a1.57,1.57,0,0,0,.35.79,2.85,2.85,0,0,0,.23.37c.1.12.09.28.22.39a.68.68,0,0,1,.24.36c0,.19.18.29.31.44-.15.21.16.32.12.52.14.07.1.24.19.32s.06.26.19.33.13.21.19.32a7.25,7.25,0,0,0,.63,1.08,1.84,1.84,0,0,1,.2.42,1.74,1.74,0,0,1,.41.53.69.69,0,0,0,.23.38c.15.09.1.33.28.42s.2.15.21.24.17.25.27.36a2.57,2.57,0,0,0,.33.33c.11.1.18.25.35.29v.19a1.1,1.1,0,0,0,.4.34C103.52,96.1,103.56,96.15,103.65,96.15ZM48.08,29.86c0-.09,0-.14-.13-.13.06-.17-.13-.26-.14-.41s-.08-.13-.22-.13l-.18.19.33.35H48c0,.09,0,.13.13.13s0,.14.13.13,0,.06,0,.07.26.12.37.23a1.3,1.3,0,0,1,.26.43.69.69,0,0,0,.26.34c.17,0,.36-.07.49.12a.7.7,0,0,0,.49-.05l-.81-.81L48.63,30h-.42C48.22,29.9,48.17,29.86,48.08,29.86ZM43,30.7c0-.1,0-.21-.14-.12,0,0,.07.07.11.05s0,.2.13.11S43,30.68,43,30.7Zm64.78,62.86c0,.11,0,.21.14.12,0,0-.08-.06-.11,0s0-.21-.14-.12C107.72,93.55,107.76,93.58,107.79,93.56Zm-62-72.64c0-.1,0-.2-.14-.11,0,0,.07.06.11,0s0,.21.14.12C45.89,20.94,45.85,20.9,45.82,20.92Zm-5.63,4.42c0-.1,0-.2-.13-.11a.36.36,0,0,0,.12.08c0,.09,0,.13.12.09,0,.11,0,.21.13.12a.36.36,0,0,0-.12-.08C40.32,25.35,40.27,25.3,40.19,25.34ZM97.34,91.15c0,.11,0,.21.14.12,0,0-.07-.06-.1,0s0-.21-.14-.12C97.28,91.14,97.31,91.17,97.34,91.15Zm-43.75-87c0-.11,0-.21-.14-.12,0,0,.07.06.11,0s0,.21.13.12S53.62,4.16,53.59,4.19ZM103.37,89c0,.11,0,.21.14.12l-.12-.08a.12.12,0,0,0-.14-.14v-.28l-.19-.38-.17,0s0,0,0,0a4.6,4.6,0,0,0,.4.58C103.25,89,103.29,89.05,103.37,89ZM46,124c.11,0,.21,0,.12-.14,0,0-.06.07,0,.1s-.21,0-.12.14C46,124.09,46.05,124.05,46,124Zm-.61-96.13c0-.11,0-.21-.14-.12,0,0,.07.06.11,0s0,.21.13.12S45.45,27.87,45.42,27.89ZM41.1,39.73c0,.11,0,.21.14.12a.5.5,0,0,0-.12-.08c0-.09.06-.21-.08-.26C41,39.69,41,39.69,41.1,39.73ZM43,41c0-.08.07-.2-.08-.25-.06.17-.06.17.08.25s-.06.21.08.26C43.13,41.05,43.13,41.05,43,41Zm2.41-17.4c0-.1,0-.14-.13-.14s0-.09-.05-.11-.19-.24-.34-.29-.17.1-.13.22.31.23.52.18a.12.12,0,0,0,.13.14s.05.11.09.12a.14.14,0,0,0,.16,0c0,.11,0,.21.14.12a.5.5,0,0,0-.12-.08c0-.05-.05-.11-.09-.13A.54.54,0,0,0,45.4,23.57Zm58.67,73.15c0-.1,0-.21-.14-.12a.57.57,0,0,0,.13.08c0,.09-.07.21.07.26C104.19,96.76,104.19,96.76,104.07,96.72Zm.27-6c0-.1,0-.2-.14-.11l.12.08c0,.08-.06.2.08.25C104.46,90.73,104.46,90.73,104.34,90.69ZM57.6,27.62c0-.1,0-.21-.13-.12a.25.25,0,0,0,.12.08c.08.14.08.14.25.08C57.79,27.52,57.67,27.61,57.6,27.62Zm-3.48,10c0-.1,0-.2-.14-.11l.12.08,0,.26.25,0C54.3,37.74,54.24,37.65,54.12,37.66Zm-10.88-.61c0,.11,0,.21.14.12,0,0-.07-.06-.1,0-.05-.22,0-.37-.1-.49C43.09,36.83,43.08,37,43.24,37.05ZM23.71,7.76c-.08-.13-.08-.13-.26-.07.05.14.17,0,.22.06s.1.14.13.14.22.05.3,0C24,7.7,23.84,7.79,23.71,7.76Zm84.63,87.05c0-.09.07-.21-.08-.26-.06.18-.06.18.08.26V95c.08,0,.12.17.25.17l0-.18C108.51,94.94,108.47,94.81,108.34,94.81ZM74.05,29.59l0,.27.26,0c-.08-.13-.14-.23-.27-.25,0-.21-.06-.35-.27-.38V29c-.23-.22-.23-.22-.39-.13.13.11.21.28.39.33A.33.33,0,0,0,74.05,29.59ZM97.36,77.8c0-.09.06-.21-.08-.26-.06.18-.06.18.08.26v.32a1.42,1.42,0,0,0,.12.13.44.44,0,0,0,.15.08v.34s.13.1.12.14.25.28.15.49c.1.13.14.29.24.43s0,.31.15.41c0,.17.14.29.19.45s.09.12.08.17.16.29.15.48.15.29.2.45a1.15,1.15,0,0,0,.06.17.58.58,0,0,0,0,.19,2.85,2.85,0,0,1,.28.55.43.43,0,0,0,.09.1v.39c.13.16.13.16.07.33h-.27a.94.94,0,0,0-.6-.6.57.57,0,0,0,0-.13c-.14-.14-.27-.29-.42-.43s-.12-.37-.36-.45l-.15.06c.1.15.29.23.28.43.14.07.11.23.19.33a1.09,1.09,0,0,1,.19.39c0,.13.15.19.16.34s.15.24.22.37.12.31.19.46.2.23.23.37a.91.91,0,0,0,.21.44c.12.14,0,.32.13.42s0,.37.19.46c0,.11,0,.22,0,.33s0,.22.07.3,0,.26.09.36l.1.1v.26l.28.29v.4c.17.1.13.26.12.37l-.15.24.14.18,0,.32.47,0c0,.08,0,.16.08.23l.18.31.15.16s0,0,0,0a1,1,0,0,0,.31.68,1.45,1.45,0,0,0,.22.09c.09,0,.12.18.25.19a.2.2,0,0,0,0-.24.73.73,0,0,1-.22-.31c0-.14-.15-.26-.12-.43l-.27-.28v-.2L101,88.9c0-.06.06-.18,0-.23l-.24-.07V88l-.13-.12c0-.26,0-.53,0-.8,0,0,0,0,0,0s.2.09.33.08l0-.17c-.14-.1-.34-.1-.4-.33a.27.27,0,0,0-.12-.33v-.52l-.14-.16v-.25l-.14-.15V85l-.14-.16v-.25l-.13-.16v-.33l-.28-.54.14-.19c0-.15-.12-.19-.12-.25s-.08-.2-.14-.29v-.37a1.55,1.55,0,0,1-.13-.17c-.05-.11-.14-.24-.12-.34s-.2-.26-.15-.42-.15-.22-.13-.34-.17-.3-.14-.48c-.22-.09-.09-.32-.18-.46-.22-.36-.39-.74-.57-1.11-.09-.18-.25-.35-.19-.6-.11,0-.12-.18-.26-.17,0-.23-.16-.35-.21-.54ZM38.56,47.36c0,.11,0,.21.13.12a.36.36,0,0,0-.12-.08v-.33c-.08-.06-.11-.17-.23-.18A.57.57,0,0,0,38.56,47.36Zm69,45.67c0,.1,0,.21.14.12a.23.23,0,0,0-.12-.08V93s-.18-.46-.19-.45l-.06,0v.31C107.37,92.93,107.41,93.07,107.52,93ZM48.08,78.87c0,.09-.06.21.08.26.06-.18.06-.18-.08-.26v-.35c-.11,0-.11-.19-.25-.15s0-.2-.14-.11a.5.5,0,0,0,.12.08c0,.17-.06.37.06.53ZM51.63,9.64h.26l.15.13c.1,0,.21.05.31,0-.08-.21-.33-.21-.47-.33a.78.78,0,0,0-.19.28c-.17,0-.36-.09-.58.05C51.35,9.79,51.52,9.81,51.63,9.64ZM93.06,53.93c0,.1,0,.2.14.11a.57.57,0,0,0-.13-.08V53.5c-.07-.06-.11-.17-.23-.18a1,1,0,0,0,0,.46C92.91,53.83,92.94,54,93.06,53.93ZM46.21,5.29l.17.17a.58.58,0,0,0,.14.13c.07,0,0,.16.15.17s.06-.24,0-.33l-.19-.23c-.1.06-.22,0,.11.54-.1,0-.2,0-.11.14C46.56,5.84,46.59,5.8,46.21,5.29Zm6.42,82.29c0,.08-.06.2.08.25.06-.18.06-.18-.08-.25,0-.22-.15-.34-.18-.54l-.2,0v.33l.18.19Zm-24-73.39H29l.37-.19a.15.15,0,0,0-.07-.21c-.41.16-.41.16-.53.39-.19,0-.34-.06-.52.17C28.4,14.27,28.54,14.41,28.66,14.19Zm72.72,73.65,0-.26h-.25c.07.14.14.23.27.25s0,.15,0,.19a5.36,5.36,0,0,1,.34.62h.19v.2c.08.05.12.17.25.17l0-.18c-.1-.06-.13-.19-.27-.19v-.2c-.1-.13-.28-.21-.28-.42S101.51,87.84,101.38,87.84Zm-36.55,13c0-.1,0-.21-.13-.12a.25.25,0,0,0,.12.08c0,.14.13.17.2.27h.65s0,0,.07-.08l-.36-.19A2.69,2.69,0,0,0,64.83,100.87ZM47,24.63v.21c.08.05.11.17.25.17v-.2c-.11,0-.12-.18-.26-.17a1.12,1.12,0,0,0-.33-.66s-.11,0-.19,0v.34A1.6,1.6,0,0,0,47,24.63ZM98.42,65c0,.1,0,.21.13.12a.17.17,0,0,0-.12-.06v-.35l-.1-.11c-.08-.18,0-.34-.1-.51-.09.07-.23-.07-.33.08l.13.14c0,.07,0,.16,0,.2s.11.32.24.43S98.37,65.06,98.42,65ZM53.17,90.52a.32.32,0,0,0,.27.27c0,.07,0,.15,0,.19s.18.44.39.53c0,.13,0,.25.07.35l.2,0v-.32l.11-.12-.44-.61h-.34v-.27h-.27v-.46c-.13-.07-.11-.23-.19-.32s-.21-.2-.24-.37a.19.19,0,0,0-.23-.15c0-.1,0-.21-.13-.12a.25.25,0,0,0,.12.08v.47c.12.07.11.22.18.32s.22.19.25.36A.24.24,0,0,0,53.17,90.52ZM48.06,30.89c0,.11,0,.21.14.12a.36.36,0,0,0-.12-.08v-.26l-.18-.29h-.39l-.29-.16-.22.24.21.2h.28l.23.27A.86.86,0,0,0,48.06,30.89ZM39.38,7.5c.13,0,.16-.14.25-.19l0-.31.25-.09c-.07-.16-.31-.21-.24-.53L40,6.22c-.31-.13-.28-.48-.53-.58a.22.22,0,0,0,0,.11c0,.13,0,.26,0,.38l.1.09V7l-.13.14V7.5a.37.37,0,0,0-.26.21.34.34,0,0,0,.11,0,.94.94,0,0,0,.15-.06Zm12.3,20.85c0,.1,0,.21.14.12a.28.28,0,0,0-.12-.08s0-.06,0-.07a3.32,3.32,0,0,1-.41-.43c-.12-.15-.3-.16-.43-.27a.27.27,0,0,0-.36,0v.17l.28.22v.41a.59.59,0,0,1,.12.17.65.65,0,0,1,0,.2l.2.24c.16,0,.33.06.51-.1l-.26-.2L51,28.57c0-.1,0-.23.07-.31h.27l.14.13A.28.28,0,0,0,51.68,28.35ZM43,3.08h.74l.2-.22c0-.08-.08-.24.09-.32h.38l.12-.12h.56l.38.38a1.49,1.49,0,0,1,.14-.12c.06,0,.17,0,.18-.07a1.73,1.73,0,0,0-.62-.48h-.77L44.28,2h-.42l-.14.11L43.61,2l-.34.19c.08.11.21.16.24.32a4.45,4.45,0,0,0-.65,0v.17l.13.14v.23c-.12-.09-.26,0-.38-.08l-.08-.23-.19,0,0,.15c.08.17.25.21.4.28v.15c.11.1.21.21.33.31s.08,0,.13,0l.15-.14h.79l.28-.26c.07,0,.18,0,.17-.1s0,0-.06,0h-.65l-.12.12h-.83l0-.05A.86.86,0,0,0,43,3.08ZM80.87,44.55c0,.11,0,.21.14.12a.5.5,0,0,0-.12-.08c0-.14-.21-.18-.14-.34-.09-.12-.27-.17-.26-.36l.1-.17c-.21-.35-.6-.4-.89-.62h-.85L78.57,43l-.23.21c0,.14,0,.27.07.35h.4c.09.16.32.12.42.27.19,0,.24.17.36.24l.46.19c.12.06.24.2.37.22S80.7,44.65,80.87,44.55Zm16.36,66.39v.4c.09.14.27.2.28.41s.15.14.24.2l.15.07v.4l.21.21c0-.12.22-.16.19-.34a1.61,1.61,0,0,1-.44-.72l0,0a6,6,0,0,0-.58-.51v-.33l-.14-.15v-.26c-.12-.09-.32-.09-.36-.24a.73.73,0,0,0-.25-.36,1.49,1.49,0,0,1-.32-.54c-.07-.12-.13-.26-.19-.38l-.23,0c.09-.2-.1-.25-.19-.37-.22,0-.27-.21-.43-.27s-.22,0-.29.06.06.2.12.29,0,.13,0,.17.36.27.38.51c.17.18.34.35.52.52s.14.11.12.22c.21.21.3.51.53.71s.32.31.47.47A.26.26,0,0,0,97.23,110.94ZM93.07,49.68V50c.08.06.12.17.26.18v-.33c-.09,0-.12-.18-.26-.15v-.28l-.27-.21v-.48L92,48l0-.15-.52-.13c0,.09,0,.2,0,.26.17.22.22.5.4.71v.65l.14.16v.43c.26,0,.22.33.38.48s0,.17,0,.27l.26.28c0,.17.2.24.15.41.16.05.07.24.2.32l.19,0V51l.17-.32c-.6-.15-.68-.78-1.11-1.07v-.54s0,0,.06-.06h.16l.19.2v.29a.53.53,0,0,1,.18,0A1.48,1.48,0,0,0,93.07,49.68Zm13.51,50.18c0,.1,0,.21.14.12a.2.2,0,0,0-.12-.08v-.34l-.14-.14v-.26c-.06-.07-.14-.13-.19-.2s0-.16-.1-.22a7.36,7.36,0,0,1-.46-.88c-.14-.32-.3-.64-.46-.94s-.22-.65-.49-.82c-.07-.14,0-.24-.08-.35s-.25-.48-.37-.72l-.37-.71a.66.66,0,0,1-.16-.53l-.27-.26c.09-.17-.06-.3-.12-.45l-.22-.45c-.08.05-.18.09-.18.11s-.08.18-.13.27l.39.39v.17c.06.28.29.25.41.37v.62l.27.17c-.06.38.31.59.26.92l.27.25v.26a4.68,4.68,0,0,1,.56,1.29l.24.24v.4l.52.52a.42.42,0,0,0,.19.32c.12.09.08.29.23.37-.06.15.13.21.14.34A.24.24,0,0,0,106.58,99.86ZM55.2,15.27l-.27,0,0-.25-.53-.53H54l-.11.12h-.46a1.25,1.25,0,0,1-.51,0l-.69-.35H51.5l-.18.15-.4-.12-.08.08h-.7L50,14.2c-.3,0-.3,0-.32.07l.17.19h.41l.14.13h1.68a.51.51,0,0,1,.12.05l0,.19-.32,0-.2.19c.12.1.29.1.38.24s.29.08.37.23h.66l.15.14h.39l.12.12h.75c.34.17.37.5.61.68l.17,0c0-.26,0-.26,0-.38a1,1,0,0,1-.2-.59.6.6,0,0,0,.14-.21c.12,0,.26,0,.42-.08L55.37,15C55.31,15.1,55.18,15.13,55.2,15.27Zm53,85.29v.38c.32-.13,0,.28.24.27a.58.58,0,0,0,0-.32c-.17,0,0-.32-.25-.32V100l-.14-.15v-.23a2.76,2.76,0,0,1-.26-.46c0-.12,0-.27-.12-.35,0-.17-.2-.24-.15-.41s-.14-.21-.13-.34-.15-.15-.13-.21-.14-.33-.13-.48-.18-.3-.17-.48l-.38-.38v-.26l-.13-.14v-.4a1.32,1.32,0,0,1-.41-.7,4.17,4.17,0,0,0-.31-.68c-.06-.13-.25-.18-.23-.37-.2-.09-.06-.33-.18-.46s-.22,0-.32,0c-.08.25,0,.52-.08.76a.19.19,0,0,0-.21.13v-.73l-.14-.14v-.31l-.27-.21c.05-.36-.24-.56-.29-.84-.38-.31-.37-.86-.75-1.16a0,0,0,0,1,0,0l0-.26-.21-.2-.06.19.15.16a.61.61,0,0,0,0,.19c0,.1.11.18.13.28s.21.21.28.37v.24l.34.34.19.37a.31.31,0,0,0,0,.14c0,.06.06.11.08.16l0,.12a.83.83,0,0,1,.09.16,1.21,1.21,0,0,1,0,.18l.13.14v.34a1.19,1.19,0,0,0,.27.38c0,.11.1.13.13.22s0,.21,0,.3l.32,0c0,.1.16.14.17.27s.17.2.13.35.18.19.13.34c.11.09.1.24.18.32s.08.25.1.42l.27.21V97l.26.27c0,.12,0,.29.12.39,0,.21.18.28.28.41v.22l.22.44a.91.91,0,0,1,.16.11,1.65,1.65,0,0,0,0,.32c0,.06.09.1.1.16a.8.8,0,0,1,0,.22l.22.21C107.78,100.12,107.88,100.43,108.21,100.56ZM49,32.14c-.2,0-.09-.17-.17-.24s-.32-.19-.46-.32-.41-.16-.49-.38h-.29c-.15.09-.19.26-.27.38l-.2.07c.14.17.19.4.37.52s.2.33.33.46.31.33.48.47.39.18.5.38h.27l.54.54.16-.21c-.11-.15-.14-.37-.33-.49s-.25-.36-.15-.61l.2-.06.36.45.24-.08v-.33a1.15,1.15,0,0,1,.57.38c.21-.09.2-.32.33-.46s0-.17,0-.27l-.13-.14v-.26l-.12-.13,0-.17-.35-.15,0,.32-.11.14.26.25c0,.1,0,.22,0,.31l-.16,0c-.06-.06-.18-.14-.19-.22a.42.42,0,0,0-.17-.27,1.57,1.57,0,0,1-.42-.7.69.69,0,0,0-.49,0Zm-2.41,3.34v.35c.1.05.14.2.31.2s.16.13.21.18,0,.27.08.34h.13l.19-.19c-.21-.28-.26-.67-.62-.88h-.3V35.2l-.54-.53v-.2l-.26-.26v-.8l-.13-.14v-.8l-.14-.15,0-.17h.14a.93.93,0,0,0,.36.43l.19-.33.2.08v.28a1.28,1.28,0,0,0,.54.34l.25,0v-.65l-.63-.63.09-.08a1.55,1.55,0,0,0-.38-.56.41.41,0,0,1-.14-.21.71.71,0,0,0-.4-.4c-.15-.07-.29-.18-.47-.14l-.13-.11-.22.2a1,1,0,0,0,.2.05c.08,0,.18,0,.22.09v.13c-.12.07-.29.09-.37.23s-.11.27-.17.42l.28.23c0,.22,0,.4,0,.58l-.05,0h-.17c-.13-.36-.35-.67-.48-1,0-.07-.12-.12-.17-.17a1.81,1.81,0,0,1-.58,0l0-.22h-.19l-.19.45.21.21c.13,0,.19.07.28.13l0,0,.09-.25.2.07v.27l.27.29v.53c.18.1.08.3.16.41s.08.24.18.33l.33.33v.27l.34.33h.12a3.37,3.37,0,0,0,.19.32,3.83,3.83,0,0,0,.29.28v.23l.45.64Zm48.61,66.69c-.3.1-.38.39-.54.63v.56l-.26.2c0,.29,0,.29-.07.35h-.54c-.08-.07-.14-.18-.27-.12l-.18.18,0,.19a.73.73,0,0,1-.51,0v-.27a1.09,1.09,0,0,0,.28-.82l.11-.13-.21-.2-.18.06V103l-.14.15v.26l-.14.15v.4l-.1.1c-.09.15.07.35-.09.49h-.4l-.14-.12h-.67s0,0,0,0v.14l.21.26.27-.17h.67l.11.11a.93.93,0,0,0,.44,0l.1-.1.2.19-.27.29.19,0,.24,0,.47.48.16-.14,0-.21h.45l.11.11c.07-.06.17-.11.18-.18l-.13-.25.38-.22h.46l.41.32a1.28,1.28,0,0,0-.17.57c-.09.06-.14.17-.27.18s-.14.1-.21.12-.23,0-.3.08v.15l.24.08.49.51h.37l.34.29.07.23h.29l.48.51a1.94,1.94,0,0,0,.65.19c.06.47.44.72.73,1l.19,0a.39.39,0,0,0,.19.33.8.8,0,0,1,.41.29c.09.14.27.12.37.24v.26l.19.19h.26l.15.14.23-.23a2,2,0,0,1-.35-.3c-.1-.13-.13-.31-.29-.41H99.7l-.52-.52c-.3,0-.4-.33-.6-.46l0-.19-.24-.08v-.15c-.1-.16-.28-.19-.42-.29a4.54,4.54,0,0,1-.38-.38l-.11-.08H97l-.18-.2s0,0,0,0h.68l.14.12h.52l.22.17.34-.3c.12,0,.24,0,.32-.06A.27.27,0,0,0,99,107a.45.45,0,0,1-.07-.19l-.26-.13a1.45,1.45,0,0,1-.22-.09,2.46,2.46,0,0,0-.25-.22c-.07,0-.18,0-.18-.18l.13-.18v-.51l.13-.14v-.23l-.47-.51h-.53c-.16-.17-.41-.18-.51-.4l-.16.13h-.46a.21.21,0,0,1-.11,0l-.11-.1-.08.24-.4.18c-.16-.14-.41-.15-.5-.35v-1.06c.15-.17.18-.42.4-.52l-.14-.16a.8.8,0,0,0,0-.31c.1,0,.21,0,.12-.14C95.27,102.09,95.23,102.12,95.22,102.17Zm-8-50.53v-.15l-.49-.5-.26-.56c0-.07-.31-.16-.34-.43l-.52-.52c.05-.14-.06-.2-.14-.28L85.2,49a1.36,1.36,0,0,1-.24-.24c-.08-.12-.23-.09-.33-.18a1.22,1.22,0,0,0-.25-.2,1.45,1.45,0,0,0-.25-.12c0,.07,0,.13,0,.15.14.18.16.45.43.58l-.25.08-.44-.48s0,0,0-.06v-.3l-.34-.39c-.17,0-.33-.06-.45.08.17.11.13.26.11.38l-.16.19-.2.06-.1.27a1.23,1.23,0,0,1-.47-.4c.07-.23-.13-.38-.19-.58h-.14l-.19.2.12.14c0,.1.05.21,0,.31l-.14,0c-.21-.12-.23-.38-.37-.57l.32-.36-.16-.23v-.25l.1-.12a1.24,1.24,0,0,0-.45-.62H81c-.1-.12-.08-.33-.33-.37v.81a2,2,0,0,0,.38.56s0,.08,0,.12c-.16.14-.16.14-.4-.1v-.15c-.37-.25-.47-.75-.89-1-.12.16,0,.36-.11.52h-.27c-.09,0-.15-.25-.31-.09s0,.24,0,.36l.36.72-.07.06c-.16.1-.22-.11-.34-.11s-.13-.06-.16-.15-.12-.17-.21-.29l-.08.42-.23,0-.19-.28h-.47l-.49-.53h-.93l-.14-.12h-.37l-.28.22.35.24-.08.19c-.16.06-.21-.08-.3-.12a.57.57,0,0,1-.41-.12l-.28.29a.22.22,0,0,1-.24.09c-.25-.31-.63-.52-.8-.93a1,1,0,0,0-.33-.33,3.6,3.6,0,0,0-.4-.22l-1.7,0s0,0,0,0,.13.19.26.19.18.12.25.19,0,.12,0,.2l-.46,0-.2.19.34.34c.19,0,.2,0,.2.18l-.15.18.27.18c-.06.24-.26.24-.37.34.09.1.21,0,.31.06s.17-.44.43-.52c.09.1,0,.21,0,.33a.85.85,0,0,1,.22.09c.09.06.16.2.24.22a.48.48,0,0,1,.28.15,2.34,2.34,0,0,0,.43.26.59.59,0,0,0,.23,0l.21.21v.27c.07.06.13.13.19.19h.22l.52.52h.36l.09-.25h.28l.28.27H76c.09.13.08.33.3.38,0-.07,0-.14,0-.18s-.18-.29-.26-.44,0-.11.05-.17h.08c.24.09.35.32.54.46v.2l.8.8c.21-.06.39.26.64.11l.09-.1h.81c.18.15.23.17.33.07l-.13-.15c0-.08,0-.19,0-.29l.09,0,.39.39h.34l.13.12c.19-.05.19-.25.3-.37l.57.58.22-.35.2.08v1.35l-.13.14v.94s0,0,.07.07a1.57,1.57,0,0,1,.13-.4c.07-.11,0-.26.18-.33s.09-.28.26-.36l.16.06v.55l.19.19a1.23,1.23,0,0,0,.42-.51l.12.1.29-.17c0,.3.22.43.39.59l.13-.26h.41l.19.38v.48l.14.15v.41a1.13,1.13,0,0,1,.43.82c.1.09.19.27.37.1v-.8a.93.93,0,0,0,.13-.15c0-.06,0-.17.13-.16v.55l.19.21.22,0c0,.16,0,.33.12.42,0,.16.17.22.14.35s.17.29.15.47.15.23.34.19l.45-.46s0,0,0-.11L87,55.75V55.5l-.13-.13a5.34,5.34,0,0,1,0-.55s0,0,0,0h.14l.19.21c0,.09,0,.23.08.34a1.16,1.16,0,0,1,.19.37v1l-.13.14c0,.14.1.19.14.3v.37l.13.13v.67s.1.08.11.11a.61.61,0,0,1,0,.18c.21,0,.36.23.56.19.24.11.2.41.42.52h.26a.51.51,0,0,0,.4-.11c.11-.08.1-.38.34-.48v-.55L90,58v-1.7c-.19-.31-.15-.7-.48-.89-.1.16-.25.13-.4.1s-.07-.25-.19-.33,0-.22-.06-.32l-.13.27h-.27a1.72,1.72,0,0,1-.18-.32.59.59,0,0,0-.15-.28l-.28-.25V53.09l-.15-.16c.13-.29-.16-.51-.14-.8C87.41,52,87.4,51.72,87.18,51.64ZM53.44,12c0-.22.17-.14.26-.24-.11-.2-.35-.21-.48-.33h-.35l-.37.19c.08.11.21.16.24.3a1,1,0,0,1-.41,0l-.52-.27-.22.14H50.32s-.06.05-.09.08l.19.18c.19,0,.39,0,.56,0l.11.12h1.08l0,0,0,.18a.8.8,0,0,1,.34.18h.62a1.55,1.55,0,0,1,.39.25c.12.15.34.11.43.28h.25l.2-.15c.24.17.24.17.29.35l-.22.19-.4,0-.12.13h-.32c-.09,0-.22-.07-.27.08s0,0,0,0h.66l.15.13h1.07s0,0,0-.05l-.14-.25.14-.15-.59-.6-.21-.06.28-.3c-.08-.08-.22-.15-.23-.24,0-.25-.24-.32-.43-.41s-.09-.1-.14,0,0,.3,0,.44-.23-.1-.34-.1S53.52,12.05,53.44,12Zm55,85.46v-.23l-.27-.49v-.31A1.53,1.53,0,0,0,108,96c-.12-.12,0-.26-.13-.43l-.33-.31V95a.36.36,0,0,1-.15-.27c0-.07-.14-.11-.12-.22a.37.37,0,0,0-.1-.29c-.06-.07,0-.2,0-.3a1.66,1.66,0,0,1-.43-.69l-.43-.44c-.05.11-.19.13-.2.32.17,0,.1.26.22.39s.11.27.19.38a.83.83,0,0,1,.15.48l.24.24v.57l.34.27c.1.22,0,.32.12.43a1.48,1.48,0,0,1,.21.44,1.31,1.31,0,0,0,.41.71v.26l.14.15v.25l.13.16v.25l.25.25c.06.11,0,.26.09.36s0,.27.1.35.11.23.17.34.25.35.21.54l.45.5c.12,0,.24,0,.33-.06v-.08l-.32-.39-.33,0V99.3c-.06,0-.12-.08-.12-.11a2,2,0,0,0-.16-.54c0-.06,0-.13,0-.18s-.15-.26-.26-.44v-.49ZM49.56,7.76l.64-.33.07-.2h.28l.15-.14h1.22c0-.1.18-.09.15-.24-.25-.07-.54.06-.75-.16-.48-.14-.48-.14-.7-.37l0-.12s0,0,.05,0h1l.2.27h.3l.18-.2-.2-.2h-.53l-.14-.13h-.67l-.1.1c-.2.09-.43,0-.63.09l.14.16,0,.18a.87.87,0,0,1-.28,0c-.15-.07-.29-.16-.46-.26h-.22a1.48,1.48,0,0,1-.31.26c-.29.11-.55.28-.83.4a.44.44,0,0,1-.2,0L47.74,7c-.15,0-.3,0-.49.08l.22.18h.69L48.4,7c.39,0,.43-.12.69-.41,0-.06.1-.15.21-.14l.39.2c0,.11,0,.23-.07.34h-.44l0,.21-.38.19-.1,0,.27.35Zm49.27,97.83v.4l.34.33h.93l.14.13.14-.12h.24l.22.14.14-.08.4-.7c0-.09,0-.22,0-.25s-.07-.25-.18-.33A1,1,0,0,1,101,105h-.38l-.14-.11-.26.26H100l-.15.13h-.66Zm11.43-8.75,0,0c0,.18,0,.36,0,.5l.41.78v.29l.39.75v.36a.43.43,0,0,1,.09.1c.06.13.11.27.18.39a1,1,0,0,0,.25.29c.15.1.12.27.23.38s.44.43.66.65l.2-.2v-.27l-.14-.14v-.26a1.88,1.88,0,0,1-.14-.36l-.31-.38-.16.13a1.71,1.71,0,0,1-.2-.27c-.12-.24-.24-.48-.37-.72a7,7,0,0,1-.38-.78c-.1-.26-.34-.48-.31-.8C110.48,97.17,110.49,96.92,110.26,96.84ZM92.54,58.89a2.05,2.05,0,0,1-.13-.25c-.1-.21-.21-.41-.3-.61s-.21-.2-.26-.37-.22-.26-.35-.38a.66.66,0,0,1-.2-.33c0-.08-.1-.14-.14-.2l-.22.07v.29l.13.14c0,.1,0,.22,0,.31l-.18-.1a.51.51,0,0,0,0,.14c0,.22.19.38.16.61,0,0,.06.06.09.09.07.2-.06.42.08.62l.2-.2-.14-.16c0-.18,0-.38,0-.57h.31c0,.07.16.1.17.2l-.12.17.27.5-.12.13a.65.65,0,0,0,0,.14,1.44,1.44,0,0,0,.26.56c0,.19,0,.39.06.57h.14c.2-.1.19-.35.34-.47Zm10.9,55.31c-.2-.41-.37-.74-.54-1.07a1.47,1.47,0,0,0-.1-.22c-.12-.17-.35-.27-.37-.51l-.51-.51c0-.25-.23-.32-.34-.47s-.3,0-.44,0a.66.66,0,0,0,.39.63.42.42,0,0,1,.26.3l-.14.18V113a.65.65,0,0,1,.13.16s0,.16.06.16a.32.32,0,0,1,.27.15c.08.13.22.13.33.18a1.68,1.68,0,0,1,.46.33,2.47,2.47,0,0,0,.28.28S103.3,114.21,103.44,114.2ZM37,5.35c-.22.13-.43.17-.52.35v.38l.33.34h1.47c.06-.07.17-.11.18-.22l-.12-.12V5.41l-.17-.18h-.69l-.15.12Zm39.29,39,.3-.3-.12-.23H75.9l-.25.14-.21-.15h-.23l-.14.12-.15-.12a.4.4,0,0,1-.27.15c-.07,0-.12.12-.19.18s-.15.16-.23.23a.39.39,0,0,1-.16.1c-.15,0-.21.14-.28.25v.24s0,.05.07.05h.48l.46-.26.41,0c.1-.16.27-.1.42-.11a.53.53,0,0,0,.12,0l.24-.23Zm27.25,63.6H103l-.24-.3c-.15.09-.32,0-.45.1V108c.2,0,.32.19.46.33H103l.15.14h.26a1.42,1.42,0,0,0,.64.4l.21-.14h.25l.08.25.44,0,.12.13h.53s0,0,.07,0-.26-.09-.34-.21-.26-.22-.47-.28h-.47c-.13-.16,0-.36-.1-.51s-.2,0-.3.13-.37,0-.56,0ZM51.77,8.43h.53l.14.13h.39L53,8.44h.5c.19.1.33.19.48.26s.08,0,.14,0V8.49a3.91,3.91,0,0,1-.61-.32c-.38,0-.64-.28-1-.41h-.74l-.15-.13h-.26l-.15-.13h-.66s0,0-.07.06l.25.12,0,.21h.56l.12.12c.25.07.52,0,.78.07l-.06.23h-.71a.16.16,0,0,0,0,.25h.13ZM47.57,11l.43-.2.06.07.37-.46h.39l.14-.11h.62l.26.14.29-.22-.3-.11V9.92a1.17,1.17,0,0,0,.67-.22l-.21-.17-.44.24H48.69l-.29.28c-.26,0-.53,0-.79,0,0,0,0,0-.08.07l.18.18c.17,0,.29,0,.37.07v.14l-.54.27Zm35.8,31h-.8l-.15-.14a2.81,2.81,0,0,0-.63,0c.22.18.34.39.56.5s.27.11.39.18.17.18.31.23a1.54,1.54,0,0,1,.35.29l.16.1a1.43,1.43,0,0,0,.28.13s.07,0,.11,0,0-.17,0-.2l-.21-.06v-.42l-.27-.28.12-.14ZM72.72,50.22v.33c.09.09.17.22.29.27a1.21,1.21,0,0,1,.41.3l0,0a1,1,0,0,1,.5.25c.14.18.4.17.51.38.22,0,.39.3.64.13l-1-1c-.08,0-.14-.08-.23-.12s-.22-.05-.27-.15-.23-.11-.33-.19l-.21-.21ZM47.49,12.32c-.07.12-.24.11-.35.21.17.09.33,0,.47.06l.14.13h1.73l.15-.13c.11,0,.17,0,.23.1l0,0h.88l.38-.19-.36-.19H49.74l-.12.12H47.89l-.15-.13ZM36.43,46.49l.2.37h.16s0-.05,0-.07V45.73l-.14-.15v-.52c0-.06-.13-.12-.12-.16.07-.2-.12-.31-.14-.48s0-.14-.14,0v.69l-.25.09v.41c.07.08.1.22.17.31s.07.3.22.38ZM97.9,67v-.8c-.23-.24-.24-.24-.39-.13l.11.13v.68l-.11.11v1.08l.13.18v.38c.19,0,.19,0,.39-.16V67.23a.56.56,0,0,0,0-.12ZM79.48,42.85h1.37l.27-.42.26.13.19-.2c-.22-.12-.46,0-.65-.09l-.09-.08-.21.15-.21-.15H79.8l-.15.24c-.18,0-.3,0-.37.1S79.41,42.75,79.48,42.85ZM106,103.94l.23-.39v-.77l-.09-.09c-.09-.21,0-.37-.1-.5l-.14,0-.35.68v.86l-.12.15.2.18h.27Zm-62-100v.19l.24.24.24-.17h.26L44.8,4h.25c.19-.16.52-.17.51-.52h.73l.1.1a.7.7,0,0,0,.49,0l-.2-.2h-.39l-.16-.14h-.51s0,0-.1.07l-.18.2h-.27l-.16-.15-.17,0,0,.32-.21.19ZM99.11,67.13a1.67,1.67,0,0,1,.29.73l.19.18.16-.06V66.87l-.11-.11v-.4l-.1-.11c-.07-.13,0-.25-.08-.34-.25,0-.19.29-.32.41s0,.2,0,.29l.14.16C99.23,66.9,99.28,67.05,99.11,67.13ZM85.73,43.38l.53.54.12-.07a1.19,1.19,0,0,0-.51-.88h-.5a1.17,1.17,0,0,0-.2-.19l-.67-.34-.25,0v.19c.36.16.6.52,1,.48l.26.25Zm-33.63-12-.28-.31,0-.27.27-.09-.28-.29v-.29c.11,0,.13-.18.27-.18s.21.2.36.28l.19-.06-.48-.48h-.11l-.18.14h-.25l-.14-.13-.2.2c0,.17,0,.34,0,.52a.09.09,0,0,0,0,.05l.23.08v.55l.12.12,0,.18.35.15Zm-5,5.45a.63.63,0,0,1-.23-.08c-.07-.07-.17-.13-.18-.26s-.06-.11-.1-.16l-1.16-1.15c-.2,0-.22.07-.2.21.24.13.27.43.47.6s.41.41.62.61a1.53,1.53,0,0,0,.29.28c.1.07.06.2.13.28s.26.09.36-.05ZM47.4,8.64l-.34-.19h-.4l-.11.11h-.31L45.91,9H45.6l-.2.2c.11.13.24.06.31.05l.3-.16.37.47.22-.22-.13-.14V9c.22-.06.38-.29.64-.16l.08.23h.28s0-.06.05-.09l-.22-.08C47.23,8.78,47.33,8.72,47.4,8.64Zm-5.76,21.7a2.27,2.27,0,0,1-.24-.41c0-.14,0-.31-.15-.41.08-.18-.22-.22-.15-.38l-.47-.5-.19.06.14.16a.81.81,0,0,0,.08.36,1.62,1.62,0,0,1,.21.52.7.7,0,0,0,.32.51l.16-.13,0,.19-.14.15c.33.33.33.33.39.28ZM96.69,95.68l-.14.14v.53l-.14.15,0,.18h.17l.47-.32v-.55l.17-.21c-.21-.13-.15-.43-.41-.53l-.13,0s0,0,0,.05Zm-9-49.09c-.1-.15-.09-.4-.36-.39-.1.11-.09.18,0,.36V47a.19.19,0,0,1,.1.26l.72.72.16-.08c-.31-.08-.06-.4-.29-.49L88,47c0-.09-.09-.14-.12-.2l-.06-.15ZM49,2.94H47.48L47.42,3c.07.18.23,0,.32.08l.15.14h.8c.12.23.43,0,.56.27h.64c.11.11.2.21.34,0l0-.18-.45,0-.23-.23c-.17-.06-.33,0-.49-.08ZM52.35,11s0,0-.05,0h-.53l-.15-.13H51l-.15.13h-.25l-.15.13c-.16,0-.32-.07-.46.07l.21.18h.41l.12-.11h1.19l.16-.14C52.12,11.06,52.28,11.21,52.35,11ZM45.27,36.35v.4l.13.15v.26l.14.14c0,.24.12.4.2.6l.18-.36-.11-.11v-.66l0-.05c-.14-.07-.07-.24-.19-.33a.36.36,0,0,1-.2-.32s-.06,0-.1,0L45,35.89c-.08,0-.19,0-.29,0s.12.07.19.1ZM53.7,16.14s-.06-.07-.09-.07-.25,0-.36-.11-.26,0-.35-.1-.3,0-.41-.13-.34,0-.49-.09l-.09-.09h-.46l0,.19.38.19h.45l.47.27h.5l.13.11ZM50.26,29.69l-.58-.57-.41-.21h-.46c-.22-.16-.26-.17-.34,0l.31.21-.2.4.24.23.2-.07c-.07-.12-.25-.18-.09-.34.31-.12.56.16.85.14l.24.25Zm-5.33-8.14c0,.09-.17.11-.17.23l.43.43c.23,0,.28.25.48.29s.3.3.52.4l.15-.06v-.15c-.07-.06-.12-.17-.2-.18s-.31-.12-.34-.32A1.53,1.53,0,0,0,44.93,21.55Zm58.46,82.83v.4l-.15.15.05.17h.34l.05-.37.19,0,.23.29.21-.2v-.47h-.57l-.16-.14ZM48.08,90.32l-.26-.27v-.33s.19,0,.07-.13-.41.1-.59.19a.24.24,0,0,0-.14.32s.09.11.17.13a.41.41,0,0,1,.37.37c0,.08.11.14.17.2l.21-.21ZM94,55.13l.36.71s0,0,.19.08V54.69l-.11-.11L94,54.37l0,.18.15.15V55ZM48.12,5.49h.82L49,5.42l0-.19c-.13,0-.25,0-.35-.06a1.1,1.1,0,0,0,0-.18c0-.06,0-.12,0-.17h-.28L48.14,5c-.14,0-.3,0-.47.06l0,.2c.13,0,.25,0,.34,0ZM25.25,5.22A3.57,3.57,0,0,0,25,5a3.37,3.37,0,0,0-.37-.24.15.15,0,0,0-.22,0l.4.4a4.14,4.14,0,0,1,.52.26,3.83,3.83,0,0,1,.35.34h.28l.23.3.17-.18-.27-.4c-.18,0-.31,0-.4-.1C25.49,5.42,25.43,5.17,25.25,5.22ZM93.74,52.29v-.4l.12-.12-.18-.35c-.15.25-.21.55-.47.72.07.14.26.19.27.38l-.12.19.12.11v.41l.2.19s0,0,0-.05v-.55l-.12-.13v-.26ZM43.24,5.05c.07,0,0-.16,0-.26s.14-.15.14-.28.1-.17.16-.27l-.35-.34s0,0-.05,0L43,4.09c0,.12,0,.24-.07.32s-.23,0-.3,0ZM109.61,99c.07-.11.21-.11.32-.17.12-.25-.19-.43-.11-.67l-.36-.38-.18.08v.41l.14.15v.39ZM20,9.37h.26l.14-.13h.67s0,0,.06.05a.45.45,0,0,1,0,.1c-.06.16-.26,0-.21.24a2.14,2.14,0,0,0,.62,0c-.09-.15-.16-.28-.24-.4S21,9.12,21,9l-.14.11h-.77l-.25-.15-.24.23c.1.11.22,0,.33.07Zm78,82.7c.25.11,0,.41.26.51,0,.18.16.31.21.49l.21-.2v-.14l-.14-.14v-.26l-.13-.15v-.53c-.14-.08-.13-.21-.14-.34s0-.14-.12-.07v.68ZM44.46,70l-.19-.36a.14.14,0,0,0-.21.07c0,.16.19.22.14.41s.2.27.14.47a1.31,1.31,0,0,0,0,.39l-.18.3.24.22.21-.2v-.8l-.14-.15Zm6.32-65.1-.39-.23H49.23s0,0-.08,0l0,.21h.89a.28.28,0,0,1,.12,0l.1.1h.52s0,0,.07-.07Zm-.61,26c.2.17.27.38.5.39.21.26.54.33.79.5,0,0,.06,0,.1,0v-.28l-.27-.13c-.09-.06-.13-.18-.23-.2h-.22c-.18-.11-.27-.35-.52-.41Zm30.66,22c.08-.1.18-.17.2-.32s.24-.18.27-.38-.14-.14-.2-.23-.3,0-.4.07l-.25.12c.21.11.14.26.18.37A2.24,2.24,0,0,0,80.83,52.89Zm12.65,47.86c-.16.19-.17.25-.07.35l.2,0v-.21l.26-.19v-.57l-.11-.11v-.42l.11-.15-.2-.18s0,0,0,.06v1.06l-.14.15ZM48.62,6.08c-.13-.07-.27-.08-.35-.19h-.8l-.19.2.35.18h.8Zm.92,2.54,0,.2c.23.06.38-.25.61-.09l.09.1c.15,0,.3,0,.37-.12l.26-.06a.42.42,0,0,0-.22-.08l-.18,0-.07-.24C50.07,8.27,49.85,8.55,49.54,8.62ZM46.61,120.85c.29.28.41.69.79.88l.14-.07v-.28l-.71-.7s0,0,0,0ZM49.1,36.27l-.08,0v.84c.16.09.11.33.28.42l.1,0,0-.32c.07-.1.21-.15.23-.3l-.36,0,0-.48-.06,0ZM109.81,101l.23.4a.28.28,0,0,1,0,.12c0,.11,0,.21.1.29s0,.25.09.36a1.46,1.46,0,0,1,.14.28l.21,0c0-.11,0-.26,0-.31s-.07-.25-.17-.33,0-.25-.1-.36A1.14,1.14,0,0,1,110,101Zm-72-98.58h-.93l-.3.26s-.09,0-.13,0-.06.06,0,.11h.42L37,2.67c.3,0,.61,0,.92,0,0,0,0,0,.08-.07Zm64.61,101.23a.32.32,0,0,0,.39-.25c0-.1.06-.13.16-.15s.17-.13.26-.19l0-.19h-.48a4.71,4.71,0,0,0-.29.48A1,1,0,0,0,102.45,103.64Zm-2.34,4.16h.4c.07-.1.22-.16.21-.26l-.19-.27h-.44c-.07.1-.2.14-.19.28S100,107.71,100.11,107.8ZM43,22.76c.08.06.13.13.18.13a.77.77,0,0,1,.42.13s.11,0,.16-.05v-.15c-.06-.06-.13-.12-.19-.19s-.31,0-.45,0l-.09-.1h-.54s0,0-.08.08l.24.18ZM106.4,91.33a1.36,1.36,0,0,1,.46.67.43.43,0,0,0,.25.26s.11,0,.16-.05l-.13-.15c0-.12,0-.24-.06-.32s0-.25-.18-.32-.13-.26-.23-.36Zm-50.82,1.8.27.28v.66l.2.2.05,0v-.68L56,93.36V93a.38.38,0,0,0-.27,0,.22.22,0,0,0-.11,0ZM39.58.67H40a.39.39,0,0,0,.27.14c.08,0,.14.16.27.11l.19-.18L40.33.52H40L39.55.28l-.17.19Zm-18.42,7,.38.21h.33l.46.26c.53,0,.53,0,.56-.09s-.21,0-.32,0l-.14-.13H22.2l-.48-.28C21.56,7.68,21.35,7.56,21.16,7.69Zm23.63-1.8.27-.26.31,0,.44-.33c-.17-.11-.32,0-.49-.06-.09.24-.37.24-.54.4-.13,0-.18.09-.27.15s-.06.06,0,.11Zm8.08,19,.57.57.12-.06c.06-.15-.08-.2-.13-.3v-.25c-.09-.06-.13-.19-.25-.19s-.06,0-.07,0ZM48.79,8c-.14-.06-.23-.07-.28-.12a1.16,1.16,0,0,1-.2-.25l-.24.08.27.29-.51.52s0,0,0,0l0,0c.13,0,.18-.12.28-.13C48.45,8.39,48.52,8.12,48.79,8Zm2.57,8.5h.27l0,0-.32-.37h-.26l-.18-.15c-.12.1-.3-.07-.42.09l.2.2c.08,0,.2,0,.25,0S51.27,16.3,51.36,16.47ZM18.22,9.16l.36.21h.5s0,0,.05,0l.09.09c.08-.11.29-.16.17-.36a.56.56,0,0,0-.12,0h-1S18.26,9.13,18.22,9.16ZM37.7,47.94l0,0c0,.2,0,.39,0,.58.16.12.12.37.34.43,0,0,0,0,0-.05,0-.18,0-.36,0-.53C37.88,48.28,37.9,48,37.7,47.94ZM50.63,23.49a1.54,1.54,0,0,0,.54.43.37.37,0,0,0,.37,0l-.32-.35c-.22,0-.26-.21-.42-.27S50.62,23.3,50.63,23.49Zm52.42,57.66.2-.2c-.07-.07-.14-.17-.22-.19a.52.52,0,0,1-.22-.12c-.08-.07-.13-.18-.29-.16l-.19.21.18.18.28,0Zm-58-76.6c-.12,0-.12,0-.18.09.14.08.3,0,.49,0l.18-.23c.17-.06.29,0,.35-.07l-.15-.24-.3,0Zm-1,17.22c-.17-.22-.46-.26-.61-.48,0,0-.09,0-.14,0l-.21.22.19.17c.2,0,.36-.06.48.06l0,.19C44,22,44.05,22,44.07,21.77ZM87.5,49l.08,0v-.72c-.33-.33-.33-.33-.38-.28s0,.32.13.49v.36l.06,0ZM52.25,5.57c0-.05-.07-.08-.09-.08h-.53l-.14-.14a2.65,2.65,0,0,0-.62,0l.41.24h.62L52,5.7Zm-.1,26.19s-.14.09-.15.15l.29.37c.18,0,.34.06.47-.07A1.21,1.21,0,0,0,52.15,31.76ZM23.11,9h-.66s0,0-.08.06l0,.21h.82s.05-.05.07-.07ZM53.5,3.21h-.26c-.1,0-.21,0-.23.12l-.26.06c.06.06.07.09.09.09h.78s.05-.05.07-.07Zm-23.69,1,.1-.28c.18.07.24-.1.34-.18l-.15-.21c-.23,0-.23.08-.24.2s0,0,0,0l-.22.08C29.57,4,29.73,4,29.81,4.16Zm12.45,30,.16-.35c-.12-.18-.16-.41-.36-.51,0-.19,0-.19-.14-.15v.22c.06.18.26.21.27.42l-.13.17Zm8.44-30c-.12-.13-.22-.22-.35-.07l0,.16c.15.07.34,0,.42.14a.67.67,0,0,0,.5,0l-.21-.19Zm2.15,1.73h.52s0,0,.08-.09l-.26-.18h-.62s0,0-.06,0S52.77,5.77,52.85,5.89Zm-1.42,4.39a.42.42,0,0,0,.35-.1h.52l.17.14c0-.1,0-.16,0-.22l0,0h-1s0,0,0,0ZM39.64,27.83l.65.65,0-.16c-.16-.16-.32-.3-.47-.47s-.06-.15-.09-.22-.06-.06-.11,0ZM125.76,131.9h.59c.06-.07.16-.11.19-.27H126l-.19,0Zm-24.94-51,.05.25h.46c0-.19.3,0,.26-.25ZM51.05,25.38l.17.2c.11,0,.23,0,.32,0s.07-.25,0-.36h-.28Zm4.58,65.14-.06.17a.79.79,0,0,1,.12.15,1.55,1.55,0,0,1,.08.23L56,91c-.09-.16.07-.34-.1-.49ZM32.14,11.76c0,.29,0,.52,0,.76a.06.06,0,0,0,.11,0l.05-.19.25-.08C32.39,12.13,32.41,11.88,32.14,11.76Zm14-8.68c.15,0,.31,0,.46-.05v-.2l-.19,0a.92.92,0,0,0-.48.06Zm64.91,122.7c.14-.08.26,0,.35-.08l0-.16-.37-.31C111,125.37,111,125.53,111.05,125.78Zm-61.69-109c.09-.05.21,0,.33-.08l0-.2c-.18,0-.33,0-.46,0l-.13-.12-.05.23C49.14,16.62,49.29,16.61,49.36,16.75ZM42.72,34.83v.44c.08.07.12.17.23.19s0-.25,0-.38,0-.17-.05-.25ZM54.17,11c-.05.08-.16.11-.17.2l.17.2c.11,0,.23,0,.32-.05l0-.15L54.3,11Zm-10.06-6C44,5,43.8,4.87,43.68,5l.2.2c.13-.07.31.07.44-.09ZM96,95l-.26.28.21.21c0-.07,0-.13,0-.18s.1-.14.14-.2.06-.31-.08-.43C96,94.77,96,94.89,96,95ZM48.56,13c-.46,0-.46,0-.66.13h.9s.05,0,.07-.08l-.19-.19ZM41.77,5.84l-.18-.22c-.12,0-.24,0-.34.07a1.45,1.45,0,0,0,.18.17c.06,0,.08.16.18.14Zm54.3,91.35a.24.24,0,0,1,.09.22s0,0,.09.06a2.09,2.09,0,0,1,.08-.23l.13-.21-.22-.11ZM51.82,12.44c-.2,0-.36,0-.5.05s.12.15.19.24.21,0,.31-.07Zm42.66,94.69c-.1,0-.22,0-.31,0s.12.15.18.23.22,0,.31-.05S94.54,107.2,94.48,107.13ZM47.35,4.27l.16-.15-.14-.23c-.22,0-.24.06-.23.2Zm6.36,2.48c-.13-.08-.27-.06-.35-.21,0,.11-.17.12-.17.24s.21,0,.32,0l.15.16Zm-25,6.5-.22.2c.11.12.23.07.33.05l.21-.18C29,13.21,28.86,13.27,28.75,13.25Zm2.54-1.07a.83.83,0,0,0,.05-.4c0-.14-.06-.15-.26-.07l.16.2-.18.24Zm14.17,111c.08-.11.23-.15.2-.38l-.22-.15A.7.7,0,0,0,45.46,123.21ZM90.52,56.52c0,.16,0,.27.08.39l.21,0c0-.13,0-.25-.07-.35Zm-.21,2.29c.12-.14.25-.2.22-.36s-.12-.16-.23-.18A.83.83,0,0,0,90.31,58.81ZM49.15,8.9a.3.3,0,0,0-.41,0l0,.19H49Zm53.56,83.4-.19-.33-.21.08c.12.12.23.24.37.37C102.7,92.32,102.71,92.26,102.71,92.3ZM47.12,13.61c-.15.09-.27,0-.33.06l.2.25.15,0ZM96.47,98.45l.21-.38c-.08,0-.09-.16-.23-.16A.91.91,0,0,0,96.47,98.45ZM48.62,28.27c.16,0,.28,0,.41-.09-.12-.05-.13-.19-.28-.2s-.1,0-.11.05A1.17,1.17,0,0,0,48.62,28.27Zm7.5,7.09c.16,0,.28,0,.37,0a.33.33,0,0,0-.24-.23s-.1,0-.11.05A1.06,1.06,0,0,0,56.12,35.36ZM54.05,10.84a.16.16,0,0,0,0-.27c-.09,0-.21,0-.3,0s0,0,0,.05a1.45,1.45,0,0,0,.16.18Zm-8.25-1c0-.16,0-.26-.22-.23l-.15.22C45.51,10,45.64,9.9,45.8,9.88ZM38,3.37a.38.38,0,0,0,0-.43l-.21,0V3ZM86,125.17c-.14-.14-.25-.26-.38-.37l-.08.21.3.19ZM46.13,6.51c.61,0,.61,0,.73,0a1.32,1.32,0,0,0-.52,0S46.26,6.46,46.13,6.51ZM49,15.62c-.16.08-.27,0-.34.06l.21.25.14,0ZM83.23,46.09l.14.27.14-.06L83.37,46ZM53.17,22.43c.51.06.51.06.66,0A1.09,1.09,0,0,0,53.17,22.43Zm-3.65-7.51c-.5-.06-.5-.06-.62,0A.91.91,0,0,0,49.52,14.92ZM34.45,8.5l-.26-.17-.06.17.25.17Zm4.3-.23L39,8.1l-.07-.17-.25.16ZM73.46,45.53a.16.16,0,0,0,0,.27l.2,0,0-.23Zm-2.85,57-.06.16.26.16.06-.16Zm32.11-14.84a.17.17,0,0,0-.28,0l0,.2.24,0Zm-47.37-68-.06.14.25.18.06-.15Zm-5.66-2.38-.2-.21c-.06.08-.17.12-.18.23A.35.35,0,0,0,49.69,17.21Zm-.17-4.37a.49.49,0,0,1-.15.12.9.9,0,0,1-.23.08.3.3,0,0,0,.42,0ZM97.05,99.4l-.14-.06-.18.25.15.06ZM48.48,80a.16.16,0,0,0-.27,0l0,.2.23,0ZM38.37,4.82c.07,0,.17,0,.18-.09l-.18-.18c-.07,0-.17,0-.18.09Zm63.47,59.73a.36.36,0,0,0,0,.4l.22,0ZM52.74,3.27c-.5-.06-.5-.06-.63,0A.94.94,0,0,0,52.74,3.27Zm-1.58-.93c-.09-.1-.18-.1-.28,0l0,.2.23,0Zm72.71,128.82c-.09-.09-.17-.09-.27,0l0,.2.23,0ZM30.4,11.58c.08.06.12.16.2.17l.21-.17A.3.3,0,0,0,30.4,11.58Zm9.74,20.26a.37.37,0,0,0,0-.38l-.23,0,.16.17C40.06,31.79,40.06,31.79,40.14,31.84ZM50.62,13.59c-.63-.08-.63-.08-.65,0A1.05,1.05,0,0,0,50.62,13.59ZM19.36,9a.17.17,0,0,0,0-.27c-.07,0-.17,0-.19.09ZM29.77,9c.09-.11.19-.15.21-.26s-.15-.06-.25,0Zm23.44.16c-.33-.06-.33-.06-.42,0A.38.38,0,0,0,53.21,9.16Zm-5.49.4c-.34-.06-.34-.06-.42,0A.41.41,0,0,0,47.72,9.56Zm1.7,1.62a.28.28,0,0,0-.4,0A.28.28,0,0,0,49.42,11.18ZM33.29,12.76c.06-.33.06-.33,0-.42A.38.38,0,0,0,33.29,12.76ZM48.76,17h-.15l-.11.05,0,.09.16.16Zm2.37,1.11c-.11,0-.25-.11-.37,0A.26.26,0,0,0,51.13,18.11Zm-.33.69c-.34-.06-.34-.06-.42,0A.41.41,0,0,0,50.8,18.8ZM52,25.64a.16.16,0,0,0-.27,0c.07.06.11.16.24.18ZM41,27.69l-.32.06.26.26Zm6.4,5.52h.15l.11-.05,0-.09-.16-.16ZM50,35.1a.19.19,0,0,0,0-.29l-.19,0Zm-9.1,6.24c-.07.31-.06.31,0,.42A.4.4,0,0,0,40.91,41.34Zm43.93.84a.16.16,0,0,0,0-.27c-.07,0-.17,0-.18.09ZM95,60.35c-.11-.08-.15-.18-.26-.2a.17.17,0,0,0,0,.24ZM46.28,71.28c.06-.32.06-.32,0-.42C46.18,71,46.18,71.09,46.28,71.28Zm57.53,18.6c0,.12.12.16.18.24a.16.16,0,0,0,0-.27Zm-5.24,23.34c.08.1.17.1.26,0s0-.17-.08-.18ZM42.2,2.54h-.15l-.11,0,.05.09.16.15ZM38.42,3.77l.32-.06-.26-.25Zm1.91.81c0,.12.13.16.19.24.09-.1.09-.18,0-.28Zm.66.77h-.14l-.11.05a.2.2,0,0,0,0,.09s.08.09.16.16ZM34,7.62c-.08.12-.12.21,0,.27A.22.22,0,0,0,34,7.62Zm16.81,2.89a.16.16,0,0,0-.27,0A.17.17,0,0,0,50.76,10.51Zm-19.82-.14a.17.17,0,0,0-.27,0A.16.16,0,0,0,30.94,10.37Zm3.1,6v.08l.18,0s.05,0,0,0,0-.08,0-.08A.55.55,0,0,0,34,16.36ZM85.69,117.81v-.08l-.18,0s-.05,0,0,0a.39.39,0,0,0,0,.09A1.13,1.13,0,0,0,85.69,117.81ZM48.21,14A.15.15,0,0,0,48,14,.15.15,0,0,0,48.21,14ZM82.77,45.86c-.12-.08-.2-.12-.26,0S82.66,46,82.77,45.86ZM32.14,17.34a.17.17,0,0,0,.27,0A.16.16,0,0,0,32.14,17.34Zm6.59,30.58h.09s0-.11,0-.17a.07.07,0,0,0,0-.05s-.09,0-.09.05A1.1,1.1,0,0,0,38.73,47.92ZM51.22,17.13c-.08.12-.12.2,0,.26A.18.18,0,0,0,51.22,17.13Zm45.85,84.12H97a1.1,1.1,0,0,0,0,.18.08.08,0,0,0,0,0s.09,0,.09,0A1.1,1.1,0,0,0,97.07,101.25ZM37.57,47.53c-.09.12-.13.2,0,.26S37.66,47.64,37.57,47.53ZM52.21,7.34V7.25l-.18,0s-.05,0,0,0,0,.09,0,.09ZM70,101.9c.1-.08.1-.17,0-.26A.16.16,0,0,0,70,101.9Zm-22.27,19h.09a1.1,1.1,0,0,0,0-.18s0,0,0,0-.09,0-.09,0S47.7,120.84,47.7,120.9Zm-2,2.36c.12.09.21.13.26,0S45.77,123.18,45.66,123.26Zm56.63-32.05h-.09a1.1,1.1,0,0,1,0,.18s0,0,0,0,.08,0,.08,0A1.1,1.1,0,0,0,102.29,91.21ZM49.55,12a.16.16,0,0,0,.27,0A.17.17,0,0,0,49.55,12Zm5.16,4.76a.17.17,0,0,0,0-.27A.16.16,0,0,0,54.71,16.74ZM52,4.66V4.57l-.18,0,0,0s0,.09.05.09Zm-2.66-.18a.17.17,0,0,0-.27,0A.16.16,0,0,0,49.29,4.48Zm-2.68-.4a.16.16,0,0,0-.27,0A.16.16,0,0,0,46.61,4.08Zm-1.48-1.2a.15.15,0,0,0-.26,0A.16.16,0,0,0,45.13,2.88Zm45.2,54.83a.16.16,0,0,0,0-.27A.16.16,0,0,0,90.33,57.71Zm11.88,10.83h.08a1.1,1.1,0,0,0,0-.18s0,0,0,0-.08,0-.08,0A.55.55,0,0,0,102.21,68.54ZM44.57,71.79h-.08a1.11,1.11,0,0,0,0,.17.07.07,0,0,0,0,0s.08,0,.08,0A.55.55,0,0,0,44.57,71.79Zm11.08-37c.08-.12.12-.2,0-.26S55.56,34.71,55.65,34.82Zm-16-.25v.09l.17,0a.07.07,0,0,0,0,0s0-.09,0-.09Zm12.2-5.13h.08a1.1,1.1,0,0,0,0-.18.07.07,0,0,0,0-.05s-.08,0-.09.05A1.13,1.13,0,0,0,51.86,29.44ZM99,87.31a.17.17,0,0,0,0,.27A.16.16,0,0,0,99,87.31ZM50.94,16.75l0,.05a.18.18,0,0,0,.09,0s0,0,.05,0Zm53.5,80.42,0-.09,0,0,0,.09Zm.4.4,0-.08s0,0,0,0l0,.09ZM33,16.85l.08-.05,0,0-.09,0Zm-1.41-.07-.05,0a.79.79,0,0,0,0,.09s0,0,0,0Zm20.35-.26,0-.05a.41.41,0,0,0,0,.09s0,0,0,0Zm2.48-.17-.05,0a.18.18,0,0,0,.09,0s0,0,0,0ZM48,14.88l0,0L48,15l0,0ZM1.81,14.06l0,0,0,.09s.05,0,0,0A.18.18,0,0,0,1.81,14.06Zm66.74,87.13,0-.09s0,0,0,0a.39.39,0,0,0,0,.09ZM33.89,13.05l0,0-.09,0s0,0,0,0A.18.18,0,0,0,33.89,13.05Zm19.53-2L53.37,11l0,0a.18.18,0,0,0,0,.09ZM50.83,9.24l0,0a.41.41,0,0,0,0,.09l0,0A.79.79,0,0,0,50.83,9.24Zm-25.36,0,.05.09,0,0a.79.79,0,0,0,0-.09Zm-3.39-.09,0-.09,0,.05,0,.09Zm6-.14L28.06,9l0,0,0,.09Zm-6.19-.23,0-.05a.18.18,0,0,0-.09,0s0,0-.05,0Zm2.57-.21,0,0,0,.09,0,0ZM80.67,109.79l.08-.05s0,0,0,0a.18.18,0,0,0-.09,0ZM23.31,7.56l0,0-.09,0s0,.05,0,0A.18.18,0,0,0,23.31,7.56Zm80.56,112.71-.08,0s0,0,0,0l.09,0ZM44.33,6.09s0,0,0,0a.15.15,0,0,0-.09,0s0,0,0,0Zm13.51-.25-.05-.09s0,0,0,0a.18.18,0,0,0,0,.09ZM55.56,24.15l-.05,0,0,.09,0,0Zm19.5,26.73,0,0,0,.09,0-.05A.41.41,0,0,0,75.06,50.88ZM42.32,5s0,0,0,0a.18.18,0,0,0-.09,0l0,0ZM40.16,4.6l0,0,0,.09s0,0,0,0Zm-2.95-.14,0,0a.26.26,0,0,0-.05.09l.05,0ZM102.27,89.2l-.09,0s0,0,0,0l.08,0Zm-51-85.84-.09.05s0,0,0,0a.15.15,0,0,0,.09,0ZM102.6,89.9l.05.09s0,0,0,0l0-.09Zm-47.84.17,0-.08s-.05,0,0,0a.18.18,0,0,0,0,.09Zm.33.3.09-.05,0,0-.09,0Zm-9.84,33,0,0,0,.09s0,0,0,0ZM40.53,27.56l0,0-.09-.05s0,0,0,.05Zm32.08-.33,0,.08s0,0,0,0a.41.41,0,0,0,0-.09Zm-29.28-.72s0,0,0,0a.41.41,0,0,0,0,.09l0,0ZM41.45,40.44l0,0,0,.09s0,0,0,0A.18.18,0,0,0,41.45,40.44ZM93.59,51.07l0,0,0,.09,0,0Zm1.85,10.28-.09,0s0,0,.05,0l.09,0ZM54.66,38.52l.05,0a.79.79,0,0,0,0-.09l0,0Zm4.11-1.25,0-.05a.41.41,0,0,0,0,.09s0,0,0,0Zm-1.12-.58,0,0,0,.09.05,0A.41.41,0,0,0,57.65,36.69Zm-.31-.36,0,.09,0,0,0-.09Zm-1.47-1.47,0,.09L56,34.9a.41.41,0,0,0-.05-.09Zm1.56,57.05,0,0a.18.18,0,0,0,0,.09s0,0,0,0ZM97,77s0,0,0,0a.41.41,0,0,0,0,.09l0,0A.79.79,0,0,0,97,77ZM69.22,21.51l0-.09,0,0,0,.09ZM46.32,32.89l0-.08,0,0,0,.09Zm11-1,0,0-.09,0s0,.05,0,.05Zm-5.51,0-.05-.08s0,0,0,0l0,.09ZM69,21.22l0,0-.09,0s0,.05,0,0A.18.18,0,0,0,69,21.22ZM42.54,30.91l.05-.05-.09,0,0,0Zm65.65,63.45,0-.09s0,0,0,0l0,.09ZM51.54,9.19l0-.09,0,.05,0,.09ZM39.33,30.28l-.09,0s0,0,0,0l.09,0Zm12.75-10,0,0,0,.09s0,0,0,0Zm-2.06-1s0,0,0,0a.79.79,0,0,0,0,.09s0,0,0,0A.18.18,0,0,0,50,19.28ZM45.92,81.6l-.05,0,0,.09s0,0,0,0ZM48.64,19l0,.05a.18.18,0,0,0,0-.09s0,0,0,0Zm53,67.26.05,0a.18.18,0,0,0-.09,0s0,0,0,0ZM48.21,16.94s0-.05,0-.05l-.09.05,0,0ZM46.54,28.39l0,0,0,.09,0,0A.79.79,0,0,0,46.54,28.39Z"/><path d="M112.1,86.26a1.41,1.41,0,0,0,.32.51l.14-.13h.4l.2.19V87l.21.09.24-.37a.87.87,0,0,1,.08.23.33.33,0,0,1,0,.25,1.55,1.55,0,0,0-.19.36l.24.08v.17c.11.1.2.26.34.3a.56.56,0,0,1,.35.29l-.14.22v.24l.13.14v.29l-.25.08,0,.17c.27.18.33.49.48.73l.25-.24c.26.09.22.45.46.54.07.14,0,.29.1.39s0,.23.07.3a2.06,2.06,0,0,1,.17.33c.11,0,.18-.2.34-.06V92c-.14.1-.3,0-.45,0a1.14,1.14,0,0,1-.36-.64l-.33,0c-.1-.1,0-.22,0-.32s-.2,0-.31-.07-.12-.31-.29-.39c-.18.08-.23-.23-.41-.15l-.66-.66c-.11,0-.22,0-.33,0l.06.11c.13.15.43.13.45.33s.23.26.28.42-.23.23-.08.44l.29,0c.2.09.18.33.32.47s0,.17,0,.26c.18.1.42.14.42.42l.57.56.13,0a1.36,1.36,0,0,1,.21.37.32.32,0,0,0,.18.25c.15.08.33.12.36.31s.28.22.28.43c0,0,0,.08.06.11l.28.28c.08.1.08.23.18.33s.23.41.43.56a5.52,5.52,0,0,1,.48.45l.08.26L118,96a.42.42,0,0,1,.29.26c.09.16.16.34.26.5s.16.32.41.45a.71.71,0,0,1,.39.41c0,.12.13.17.2.25s.12,0,.18,0,0,.08,0,.12a1.94,1.94,0,0,1,.39.7c.12.19.32.29.42.5a2.27,2.27,0,0,0,.38.45c0,.25.33.29.28.55l.32.33h.29l.23.5.18.05.22.48.16.05a.89.89,0,0,0,.28.39c.13.09.16.24.24.37a3.4,3.4,0,0,0,.32.34.57.57,0,0,1,.08.23h.15c.11.1.12.26.24.37q1.62,1.61,3.22,3.22c.17.17.41.22.56.42s.32.31.47.46v.3l-.25.08,0,.24a1.34,1.34,0,0,0,.06.12c.12.23.4.25.56.42l.52.52c.31,0,.35.4.64.41l.58.53c.16,0,.22.13.32.2v.15a1.9,1.9,0,0,1,.84.55c.23.3.62.4.82.71h.15c.08.1.22.16.2.32s-.12.12-.33,0h-.54l-.14.12h-.26l-.14-.13h-.26l-.15-.14h-.2l-.28-.13a1,1,0,0,0-.28-.13.33.33,0,0,1-.28-.12h-1.24l-.11.11h-.67c-.12-.15-.33-.16-.48-.3s-.32-.2-.45-.35c-.21,0-.35-.13-.56-.16s-.27-.38-.54-.41l-.52-.51L125,110l-.06-.42-.22.14-.44-.22c-.13-.07-.28-.1-.37-.24s-.15-.07-.22-.1-.25-.19-.38-.22a.91.91,0,0,1-.42-.3c-.17.08-.23-.21-.41-.14a4.18,4.18,0,0,0-.69-.57c-.12-.1-.28-.09-.39-.22s-.17,0-.25,0-.22-.28-.42-.29-.24-.08-.33-.18-.15-.24-.32-.2c-.21-.28-.63-.32-.76-.66H119a2.05,2.05,0,0,0-.2-.23.94.94,0,0,0-.23-.1,1,1,0,0,1-.46-.33c-.09-.12-.24-.11-.32-.2s-.26,0-.34-.18a.37.37,0,0,0-.32-.19,1.56,1.56,0,0,0-.69-.43c-.05-.12-.22,0-.27-.14s-.44-.19-.55-.42l.25-.25v-.54c-.06-.11-.22-.21-.09-.4l-.3-.24v-.3l-.14-.15V102l-.26-.26v-.29l-.26-.15v-.33l-.22-.39-.17-.18,0-.28c-.06-.07-.19-.14-.24-.25s-.05-.21-.15-.27V99.3l-.14-.15v-.39l-.12-.12c0-.31,0-.64,0-1l-.1-.1c-.09-.15.07-.36-.09-.5s0-.34-.19-.46,0-.26-.1-.36,0-.19-.13-.28,0-.36-.19-.46c.1-.21-.12-.35-.14-.54a1.19,1.19,0,0,0-.24-.51c-.07-.1,0-.3-.15-.4,0-.18-.17-.28-.15-.48s-.17-.24-.12-.41a.78.78,0,0,1-.16-.47c-.18-.09-.05-.29-.14-.41s-.06-.06-.1-.1v-.39l-.14-.15v-.24a9.5,9.5,0,0,0-.8-1.39v-.25c-.16-.07-.09-.28-.23-.37s0-.12,0-.18-.14-.25-.12-.35-.19-.25-.14-.41-.12-.22-.14-.35a1.51,1.51,0,0,0-.13-.25v-.33l-.27-.47v-.31l-.54-1.05v-.35l-.11-.11,0-.3-.11-.11v-.51l-.13-.16a1.1,1.1,0,0,0-.29-.81v-.54l-.12-.11c0-.17,0-.37,0-.56,0,0-.09-.06-.1-.1,0-.27-.22-.51-.17-.78l-.3-.58.18-.09a3.63,3.63,0,0,1,.49.46c.14.19.39.2.53.37a2.34,2.34,0,0,0,.31.32c-.17.13-.36,0-.57.1.14.14.23.25.34.34a.8.8,0,0,0,.23.1c0,.13.09.19.13.28a.7.7,0,0,1,0,.25l.3.3.05,0c.13-.06.17.09.27.12l.11-.11h.42c.1.1,0,.22.06.32a1.43,1.43,0,0,1,.25.56c-.07.09-.17,0-.25,0V83.9l-.35-.35c0,.12-.21.14-.18.34l.27.2h.26v.34c.18.12.12.49.46.47l.61.6v.17c.11,0,.26,0,.35.07s.2.07.3.14v.3c-.08.1-.18,0-.25.08s0-.19-.13-.1Zm2.15,7.92a2.31,2.31,0,0,0-.29-.24c-.13-.08-.09-.26-.19-.32s-.18-.34-.33-.48-.28-.28-.42-.42l-.19-.19c-.11,0-.22,0-.33,0s.13.08.2.09l.19.19v.39a.82.82,0,0,0,.41.3v.11l.33.35h.14a3.5,3.5,0,0,0,.29.54.94.94,0,0,0,.55.37.39.39,0,0,0,0-.14.6.6,0,0,0-.06-.11h-.15a.85.85,0,0,0-.09-.22A.27.27,0,0,1,114.25,94.18Zm.67-3.36v.08l.17,0a.07.07,0,0,0,.05,0s0-.08-.05-.09Zm-1.51-2.76,0-.08,0,0,0,.09Z"/><path d="M84.45,133.68l.58-.59-.12-.23c0-.15.12-.18.18-.28h.5l.49-.28h.23l.15.14h.93c.09.12.1.29.24.37l.53.16,0,0c0,.06,0,.12.07.2l.37.37v.54l-.12.13c0,.1,0,.22,0,.33H87.9l-.18.27h-.33l-.14-.13h-.53s0,0-.06,0c.07.19.23,0,.35.11s.4.21.54.42a.85.85,0,0,1,0,.45l-.24.09,0,.46-.21,0-.06.14c.06.17.24.21.28.38a2.6,2.6,0,0,0,.16.35l-.22.07c-.2-.3-.57-.34-.84-.54,0,0-.13,0-.2,0l-.3.18-.21-.26c-.07-.17.3-.27.07-.45l-.13.12a3.36,3.36,0,0,1-.55,0c-.11-.09,0-.21-.06-.32l-.13-.14v-.66s0,0,0-.05.2,0,.28.1h.4c.12-.14.35-.13.49-.35l-.22-.11c-.22-.21-.42.2-.7,0l0-.16c.09-.12.22-.05.34-.08l.19-.16c0-.25-.11-.26-.25-.3l.54-.27c0-.06,0-.14-.06-.17s-.19-.25-.34-.3l-.12,0s-.06.06-.09.09H85c-.11.08,0,.21-.07.34l-.53.46h-.8c.06-.16.14-.25.27-.26s.21-.22.36-.28Zm1.82-.22a.35.35,0,0,0,.38,0l0-.23-.08.07C86.38,133.4,86.27,133.32,86.27,133.46Zm.73-.11,0,0a.18.18,0,0,0-.09,0s0,0,0,0Zm.14,2.42,0-.05a.18.18,0,0,0-.09,0s0,0,0,0Z"/><path d="M38.71,136.72c0-.17-.21-.21-.27-.35L38.3,136l.14-.21-.18-.42-.46,0,0-.18.35-.34h.53l.14.13h.16l0-.26h-.34l-.16-.14a6.71,6.71,0,0,1-.75.27,1.26,1.26,0,0,1-.34,0c0-.09,0-.18,0-.21a5,5,0,0,1,.4-.4l0-.17c-.2-.08-.43,0-.66-.06l.21-.22h.36l.39-.23c0-.17-.13-.22-.2-.32l-.15.13h-.15l0-.17.2-.21h1.74l.42.24.13-.11h.4l.14.13h.66l.13.12.3,0c0,.05,0,.11,0,.17s.07.06.08.1.05.12.12.29l.34.29,0,.16c-.12.09-.26,0-.38,0,0-.2-.17-.09-.26-.2s-.12-.22-.21-.34H41s-.07,0-.11,0l-.1.09c-.1,0-.22.05-.31,0s.13-.39.11-.64c-.27,0-.51,0-.74,0a.12.12,0,0,0-.05.05c0,.11.25.17.08.32a.55.55,0,0,1-.49-.12h-.62l-.11-.11c-.2.1-.22.31-.34.5a.94.94,0,0,1,.2,0,.93.93,0,0,1,.15.13h.45l.18.28c.15,0,.28,0,.35-.09-.15-.18-.16-.23-.07-.32a1,1,0,0,1,.45,0l.08.23h.74a.56.56,0,0,1,.12,0l.09.1h.74c0,.18.16.09.22.16l.38.37c.11,0,.22,0,.34.05-.13.08-.25.2-.37.21s-.26.24-.36.39l-.17,0-.28.34.1.12v.26c-.06.13-.24.18-.27.34s-.16.2-.25.33l0,.25a1.2,1.2,0,0,0-.25.34c0,.14-.17.2-.23.31s-.09.29-.25.37H40l-.19-.18v-.3a.16.16,0,0,1,.24,0l.21.22c.24-.2-.1-.26-.05-.46l.13-.16v-.52l.39-.39-.13-.14v-.54l.27-.28v-.12c.13-.11.33-.1.38-.31l-.19,0c-.15-.13,0-.33-.1-.51a5.19,5.19,0,0,0-.56,0l-.2.2V135l-.13.14v.2c-.31.09-.37.4-.54.62v.38l.13.15v.13c-.18.21-.25-.08-.44-.07l-.17.13Zm2.37-.65c.1,0,.21,0,.12-.14,0,0-.07.07-.05.11s-.2,0-.11.13S41.1,136.1,41.08,136.07Zm.68-1.15c-.2,0-.21-.18-.33-.18s-.07.15,0,.24Z"/><path d="M9.58,12.05H8.51l-.13.12c-.25,0-.53,0-.82,0l-.12.12H6.37l-.13.13h-.5a.5.5,0,0,1-.43.14l-.15-.12L5,12.58H4.49l-.15.14H4c-.1.18-.32.07-.4.16s-.3.06-.42.13l-.39.23-.06-.14s0-.11.07-.11c.24,0,.41-.22.63-.27h.17l.4-.4c.22,0,.27-.19.42-.27s.28-.07.42-.12.28-.23.48-.15a.46.46,0,0,1,.42-.13l.14-.14h.26l.15-.13h.93l.1-.1s0,0,.05,0h1.6L9,11.12H10.1l.21.14.23-.14h1.84l.15-.14h1.34l.08.09.12,0h.6l.12-.12h1.34l.13-.13h1.1l.13.12H18c.06.13,0,.13-.08.13H16.55l-.14.13H15.2l-.12.13c-.39,0-.8,0-1.22,0l-.12.11H12.4l-.14.15H11.19l-.13.12h-.79l-.16.14H9.73Z"/><path d="M43.13,130.12l-.26.07c0,.05-.14.14-.22.25a2.51,2.51,0,0,0-.19.37c0,.14,0,.34,0,.53l-.2,0-.16-.29a.79.79,0,0,1-.67-.17.36.36,0,0,0-.42,0c0,.12.14.07.21.1l.38.38h.13l.2.36v.53c-.06,0-.11.05-.13,0a1.5,1.5,0,0,1-.58-.38c-.32,0-.53-.24-.83-.31l-.06.18c.07.2.26.23.4.3a1.75,1.75,0,0,1,.42.29,2.82,2.82,0,0,0,.52.25l.19.2.41,0,.22.19,0,.21-.17-.14H42l-.14.13h-.27a2.94,2.94,0,0,0-.25-.25H41l-.54-.29H39.26l0-.34c-.11-.11-.25,0-.38-.05s-.27,0-.4,0-.26,0-.39,0c0-.13.15-.19.23-.28s.16-.19.31-.22.21-.16.32-.26h.24l.15-.13h.41l.07-.17-.28-.32c0-.18.13-.21.19-.31l.15.12h.52l.15.14c.1,0,.21,0,.31,0-.07-.15-.16-.25-.33-.24-.09-.18-.28-.09-.41-.14a4.63,4.63,0,0,1,.15-.51h.13a.91.91,0,0,1,.29-.41.69.69,0,0,0,.23-.37c.13,0,.24-.05.37,0a2.4,2.4,0,0,0,.66.33c.18.05.22.28.42.28s.2.15.35.14A1.08,1.08,0,0,1,43,130S43.09,130.08,43.13,130.12Zm-3.34,1.58c-.12-.09-.21-.13-.26,0S39.68,131.79,39.79,131.7Z"/><path d="M23.31,5.35h-.74l-.14-.13h-.27c-.08-.08-.14-.19-.3-.1l0,.16.24.21h.48a.07.07,0,0,1,.06,0c.09.18.28.05.41.14a3.55,3.55,0,0,0,.55.28l0,0a.09.09,0,0,1-.05,0H23l-.13-.12h-.53l-.14-.14H20l-.14-.14H17l0-.2a20.42,20.42,0,0,1,3.31,0l.1.1h.78c.14.12.29.22.47.1s-.17-.28-.12-.48c-.2,0-.4,0-.59,0L20.81,5h-.39l-.24-.25-.24.13a.16.16,0,0,1-.1-.23s0,0,.05,0h1.34l.14.13h.44c0,.06.08.13.12.13s.21.05.3,0c-.11-.14-.27,0-.42-.08,0-.18-.13-.1-.22-.17l0-.18a1.63,1.63,0,0,1,.58,0c.1,0,.14.18.32.12l.34.4c.24,0,.38.22.58.16.11.11.06.2,0,.28A.49.49,0,0,0,23.31,5.35Zm-.87-.53s-.05,0-.05,0a.41.41,0,0,0,.05.09l0,0Z"/><path d="M89.33,45.73v-.54a.83.83,0,0,1-.55-.5.59.59,0,0,0-.16-.2c-.36-.36-.73-.71-1.08-1.09-.11-.12-.27-.12-.37-.23s-.27-.2-.32-.34a3,3,0,0,0-.63-.74l0-.05H86l-.09-.24-.15,0c-.42-.26-.52-.77-.93-1l.12-.2a1.79,1.79,0,0,1,.56.31c.16.14.39.19.52.37.23,0,.31.22.45.34s.31.32.45.47h.3c.14.31.14.31.46.47v.13l.24.24a1.32,1.32,0,0,0,.24.63h.14l.07.21.38.4c0,.24.3.27.27.5a3,3,0,0,0,.65.63l.12,0c.09.1,0,.26.09.36s.07.23,0,.36-.21,0-.31,0Z"/><path d="M86.18,128.55l-.09.09c-.15.1-.3,0-.41.05l-.64-.64v-.37l-.11-.11,0-.3-.1-.1a1.48,1.48,0,0,0,.27-.73,1.55,1.55,0,0,0,.74-.29h.42l0,.21.24.24v.67l.14.14v.81c.1.09.19.16.12.29s0,0-.05,0Z"/><path d="M8.41,7.63h.23l.14-.14H9l.15-.13c.27.08.41-.2.64-.26h.39L10.38,7h.5c.13,0,.18-.27.36-.09A2.21,2.21,0,0,1,11,7.2c-.28,0-.51.25-.8.15a1.88,1.88,0,0,1-.57.41H9.09l-.26.14L8.62,8H8.29l-.39.21c-.13.06-.26.19-.39.18s-.27.16-.41.14-.26.14-.41.14a7.8,7.8,0,0,1-1.08.63c-.09.06-.22,0-.28.14a1.25,1.25,0,0,1-.2.2l-.25-.14c-.1,0,0,.12-.08.2-.28.06-.51.35-.85.31-.13.12-.22.28-.42.29s-.2.08-.27.15-.33.2-.46.33-.34.18-.49.3-.11,0-.18,0a2.88,2.88,0,0,1,.31-.3c.13-.11.2-.29.4-.32s.21-.26.42-.28.21-.29.43-.25a3.17,3.17,0,0,1,1.13-.67C5.39,9,6,8.65,6.54,8.39c.1-.19.36,0,.46-.19.17,0,.28-.17.46-.18s.34-.13.54-.16A1.58,1.58,0,0,0,8.41,7.63Z"/><path d="M113.36,113.15H114c.2.1.18.34.33.47s.25.25.38.38.28.35.35.59.3.28.37.51.24.26.37.39v.41l-.26.12v.16a.58.58,0,0,1,.22.08,2.72,2.72,0,0,1,.3.29,1,1,0,0,0,0,.3c.05.09.16.15.07.3l-.18,0L116,117l-.78-.78v-.31l-1.13-1.12a1.5,1.5,0,0,1-.29-.42c-.06-.11-.06-.25-.18-.33a.36.36,0,0,1-.16-.27c0-.11-.17-.19-.26-.28S113.29,113.25,113.36,113.15Z"/><path d="M79,138.86c-.23.09-.33.34-.53.45v.16c-.28.23-.47.56-.81.73v-.33c.17-.09.13-.32.27-.42,0-.41.32-.67.41-1,0-.11.17-.2.26-.3v-.39l-.13-.14.44-.44c.08-.05.19,0,.27-.12s.19-.06.28-.14.2,0,.28,0l.13.13.42,0s0,.05,0,.07v.66s0,0,0,.05l-.28,0-.27.53h-.13c-.19.17-.34.4-.61.47Z"/><path d="M40.45,62.73l-.1-.09s0,0,0,0v-.66c-.17-.11-.14-.26-.11-.42a.14.14,0,0,1,.22,0,.4.4,0,0,0,.23.1c.05,0,.1.08.15.13h.39l.19.19v1.21l.1.09a.56.56,0,0,1,0,.12v.59l-.13.13v1.77l-.2,0c-.14-.17-.11-.32.08-.49L41,65.2V65l-.25-.25v-.48c-.09-.16-.18-.28-.15-.44l.15-.22-.28-.52Z"/><path d="M85.05,131V130a1.82,1.82,0,0,1,.2-.36.75.75,0,0,0,.23-.38l.31,0,.11-.11h.83c.1.15,0,.31,0,.46l.25.25,0,.29.11.11v.43l-.37.19H85.41Z"/><path d="M28.13,11.36l-.2.13-.08,0h-.73L27,11.4H26c-.08.14-.22.11-.37.11l-.17-.14h-.93l-.12-.12H21.38l-.16-.14h-2.7c0-.13,0-.13.1-.13h5l.15-.14h.39l.14.13h.81l.11-.11h.31l.09.25c.05,0,.1-.11.13-.11.21,0,.36-.14.54-.16h.14l.15.14H27l.15.13h.26l.14-.13c.24,0,.41.12.6.2Z"/><path d="M42.07,139.34l-.06-.22-.15.14c-.11-.18-.4-.08-.45-.34a2.86,2.86,0,0,1,0-.42c.16,0,.22.22.39,0s0-.25,0-.4l-.11-.11v-.3l.24-.24v-.42l.25-.21.16.08c.17.09.12.32.27.42v.36l.13.18v.38l.13.12v1.91c-.11.09-.23,0-.33,0l-.19-.37v-.35Zm.31-1.15c0,.05-.06.06-.06.08v.92l.1.11c.07.13,0,.25.09.36h.16s0,0,0-.06v-.75Z"/><path d="M34.69,138.53v-.27l.1-.09c.07-.14,0-.3,0-.45s.22-.27.37-.34.12,0,.13.06a1.56,1.56,0,0,0,.43.69v.2l.27.56a.64.64,0,0,1,0,.14,2.54,2.54,0,0,0-.39.49c-.1.21-.3.31-.42.5v.13c-.07.07-.14.08-.25,0v-.57a2.38,2.38,0,0,0,0-.59.81.81,0,0,0-.31.41h-.13c-.06,0-.06,0-.06-.31l.13-.15v-.26Z"/><path d="M85.15,132.21l.15-.31v-.6c.16-.12.32-.05.47-.07h.4l.15-.13h.53l.12.12.29,0c.14.3.14.3.46.47V132l.13.14c-.14.12-.31,0-.46.06l-.14-.13h-.81l-.11.12a4.42,4.42,0,0,1-.51,0l-.45.24C85.29,132.39,85.24,132.29,85.15,132.21Z"/><path d="M88,136.52V136l.36-.06a.16.16,0,0,0,0-.23c-.13-.12-.25-.25-.36-.36s0-.18.14-.2.29-.2.5-.11a.47.47,0,0,0,0,.16,3.73,3.73,0,0,0,.26.3v.39l.14.14v.26l.13.15v.37c.09.15.27.25.37.39l.16.35v.2l-.17.22c-.15,0-.23,0-.22-.18l.13-.17v-.13c-.08-.11-.21,0-.41-.11,0,0-.07-.05-.08-.13s-.11-.31-.25-.34-.33-.22-.53-.16Z"/><path d="M38.71,136.72v.33l-.13.15.2.19.12-.26c.15-.06.2.08.31.14l.16-.07.09-.06c.11.14,0,.3.06.44l-.14.15V138c-.06.17-.24.24-.33.38h-.28c-.07-.17-.28-.1-.37-.24a.41.41,0,0,0-.39-.19l.07-.25.15.13.09-.1-.24-.47-.21.3c-.29.05-.2-.17-.29-.24l-.22-.22,0-.15c.09-.09.21,0,.31,0l.15.14.2-.05-.14-.16c0-.15,0-.3,0-.45.19.11.43.16.54.38Z"/><path d="M90.66,46.06v-.2c-.2-.2-.42-.39-.6-.61s-.46-.25-.6-.47v-.36a.64.64,0,0,1-.1-.13,1.73,1.73,0,0,0-.42-.7s0-.11,0-.19h.36l.06.22c.14.14.33.3.48.48a6.9,6.9,0,0,1,.43.59v.11l.52.51c0,.25.32.29.29.54.19.14.25.38.39.58l-.18,0-.15-.14h-.2v-.27Z"/><path d="M89.33,138.55l-.23.07-.24.24h-.27l-.33.35v.91c-.2.07-.35.26-.6.21l-.22-.42.14-.19v-.52l.13-.12,0-.47.31,0s0,0,0,0l.39-.38.18,0,0,.34.17,0c.13-.08.07-.2.09-.36l.26-.12.14.14Z"/><path d="M83.43,136.59v.29l.25.47v.53l-.24.24v.26l-.18.19a.25.25,0,0,1-.09,0,1.37,1.37,0,0,1-.43-.84l-.19,0-.18-.19v-.27l.1-.06.54-.54Z"/><path d="M23.1,6.42c.15.14.27.3.48.33-.14.14-.31,0-.46.08L23,6.7h-.39l-.15-.14h-.26L22,6.68c-.24,0-.46,0-.68,0,0,0,0,0-.06,0l.26-.28s0,0,0,0h-.79l-.16-.15h-.4L20,6.29l-.11-.12h-.54L19.16,6s.06-.07.1-.07H21.1l.14.14h.53l.13.12h.52c.11.16.31.13.44.27S23,6.42,23.1,6.42Z"/><path d="M83,138.65V139l-.2,0-.19-.23v-.34a.35.35,0,0,0-.08-.11q-.33-.35-.66-.66s-.12,0-.24,0c.29.29.41.64.65.8l.13.29h0s0,0,0,.06c0,.22,0,.44,0,.65s-.17,0-.2-.07-.26-.12-.38-.23-.07-.2-.13-.27l-.19-.19c-.07-.08,0-.2-.13-.29s0-.2,0-.28l.15-.17v-.39c.14-.11.3,0,.45-.05s.2.29.42.27c0,.09.19.12.19.25s.19.19.13.34Z"/><path d="M84.76,138.91c-.14.22-.18.45-.4.55.1.12.22,0,.31.08s.15-.19.31-.13l.09.16a1,1,0,0,1-.19.18,2,2,0,0,1-.39.18.7.7,0,0,1-.21,0l-.09-.26H84l0,.22-.15.05s-.07.05-.1.07l-.16.07-.11-.09c.08-.41.47-.64.54-1.06l-.27-.13v-.14l.2-.19h.52C84.63,138.54,84.6,138.79,84.76,138.91Z"/><path d="M85,134.44l0,.22-.51.23a.53.53,0,0,0-.15.15v.53l-.18.19c-.13,0-.14-.14-.27-.18l.15-.27-.17-.2h-.22l-.77.39-.16-.19V135l.3-.17h.13l.5-.27h.37c.17,0,.36.07.49-.11Z"/><path d="M98.15,138l-.11.11c.12.14.27,0,.41.07a1.38,1.38,0,0,1,.38.21c.12.14.3.17.42.29a1.33,1.33,0,0,0,.38.23v.17c-.05,0-.11,0-.13,0s-.31-.12-.44-.24-.17,0-.32,0l-.17-.25h-.45c-.18-.15-.43-.19-.56-.43l-.37.18-.36-.38,0-.13s0,0,0,0H98Z"/><path d="M33,137.66h-.16l0-.2s.06-.07.08-.07h.79l.34.33V138c-.07.12-.2,0-.37.1l-.17.3v.28a.64.64,0,0,1-.36,0s0,0,0,0V138l.1-.1s0,0,0,0Z"/><path d="M119.32,96.21c-.18-.1-.39-.14-.43-.41s-.22-.18-.36-.24v-.85c.13,0,.16.07.2.12a.74.74,0,0,1,.1.22l.17.3.31.32v.26c.07.08.16.15.22.23a2.29,2.29,0,0,1,.1.23c.11.17.17.38.44.51l-.28.06-.47-.65Z"/><path d="M92.44,139.13l0-.13.47-.47,0,0,.05,0,.32-.12h.62c0,.14-.1.16-.15.24s-.2.15-.22.31-.12.17-.18.24Z"/><path d="M24.73,137.54l.27,0,.11-.11h.36c.12,0,.16-.19.31-.14l.14.13.27-.27h.15l.05.15-.62.62-.4-.23-.13.12H25a.51.51,0,0,1-.49.12l0-.18Z"/><path d="M95.7,138.91l-.21-.25v-.27c.17-.1.11-.27.14-.41l.19-.19h.26c0,.2.28.34.21.53Z"/><path d="M45.67,77.52h-.19c-.42-.27-.46-.78-.74-1.14,0-.06,0-.18,0-.26L44.6,76c0-.1-.05-.22.07-.32A1.85,1.85,0,0,1,45,76c.07.15.23.28.14.48a2.66,2.66,0,0,1,.32.6A3.41,3.41,0,0,0,45.67,77.52Z"/><path d="M36,136.19c-.12-.1,0-.23-.07-.32.17-.25.51-.27.64-.56l-.1-.17c0-.16.13-.21.25-.31l.22.13c.09,0,.16-.21.3-.08a.17.17,0,0,1,0,.05c-.18.17-.35.35-.52.52a.21.21,0,0,1-.1.23c-.12.08-.25.15-.37.24A3.44,3.44,0,0,0,36,136.19Z"/><path d="M15.59,8c-.06-.11-.17-.12-.16-.22s0,0,.05,0h1.85s0,0,.07,0V8c-.1.11-.22,0-.32.06s-.14-.18-.27-.13L16.67,8Z"/><path d="M28.61,137.42l-.5.5a.13.13,0,0,1-.08,0c-.15-.13-.29-.28-.43-.42s0-.21,0-.33l.44.23.13-.11h.27Z"/><path d="M78.32,140.4l.08-.19h.15l.25.25h.54l.11.12h0l.11-.11h.31l0,.18c-.09.12-.21.05-.31.08s-.14.11-.21.13a.46.46,0,0,1-.31-.07C78.89,140.65,78.62,140.55,78.32,140.4Z"/><path d="M48.84,82.48h-.16c-.11-.08,0-.22-.07-.3s-.11-.23-.17-.33a1.26,1.26,0,0,0-.21-.2c0-.17.06-.23.12-.31v-.27a.19.19,0,0,1,.26,0v.53c.06.09.14.15.13.19C48.68,82,49,82.2,48.84,82.48Z"/><path d="M94.15,49.59c.23.3.51.43.57.73.25.16.24.51.5.61l0,.19-.18,0a1.45,1.45,0,0,0-.46-.6c0-.27-.29-.36-.41-.57Z"/><path d="M30.36,137.67h.52l.06.05c-.13.07-.12.22-.19.33H30a1.55,1.55,0,0,0-.08-.23,1.32,1.32,0,0,0-.12-.2C30,137.48,30.1,137.49,30.36,137.67Z"/><path d="M23.29,5.35h.21l.15-.13h.26a1.73,1.73,0,0,0,.24.23.78.78,0,0,0,.23.08l0,.21h-.59C23.64,5.58,23.35,5.61,23.29,5.35Z"/><path d="M125.21,127.08h.2a.74.74,0,0,1,.24.36c0,.15.25.15.36.24s0,.3,0,.49c-.29-.17-.41-.45-.67-.55,0-.09,0-.19,0-.25S125.21,127.19,125.21,127.08Z"/><path d="M83.43,136.58v-.25l.2-.3c.25.07.34.24.47.37s0,.16-.1.23a.63.63,0,0,0-.08.23h-.17l-.08-.26Z"/><path d="M28.1,11.38h.26l.24-.29.18.08c-.06.17.21.23.14.43a1,1,0,0,0-.38.12.49.49,0,0,1-.37,0C28.07,11.64,28.18,11.5,28.1,11.38Z"/><path d="M90.46,138.06l-.12.12c-.14,0-.31,0-.41.16l-.09-.19.4-.36h.3l.39.2v.13C90.83,138.24,90.71,138.23,90.46,138.06Z"/><path d="M91.32,138.46v.22s0,0-.06,0h-.79s0,0-.06,0v-.3c.15-.11.31,0,.44-.06l.15.14Z"/><path d="M80.08,140.67c.13-.14.37,0,.46-.19h.39l.19-.14c.17,0,.2.13.3.19l-.17.19H80.13Z"/><path d="M42.39,134l.22-.09a1.33,1.33,0,0,1,.53.76l-.26.18h-.23c-.1-.1-.09-.12.07-.32v-.29Z"/><path d="M93.88,138.8l.13-.14v-.13l.34-.33s.06.07.06.1a.26.26,0,0,1-.07.16c-.08.08,0,.16-.06.25a.35.35,0,0,1-.08.16c-.1.1,0,.21,0,.28l-.19.27c0-.06-.08-.07-.08-.09Z"/><path d="M42.6.75V.43l.17,0,.16.14h.38a2.19,2.19,0,0,1,.22.2s-.06.07-.08.07h-.78S42.63.77,42.6.75Z"/><path d="M63.63,102.41l-.21,0-.2-.19s0-.11,0-.13c.17-.13.11-.43.37-.48,0,0,.08,0,.12,0s0,.2,0,.31-.16.15-.25.25Z"/><path d="M79,138.86h.48l.07.16s-.06.11-.08.11c-.26,0-.3.19-.37.39h-.17c-.11-.1,0-.22-.06-.32l.13-.15Z"/><path d="M126.15,128.42v.2c-.15.11-.32.06-.49,0,0-.18-.22-.31-.18-.52.07,0,.17,0,.19,0s.28.09.37.21S126.11,128.4,126.15,128.42Z"/><path d="M94.82,138.13l.19-.19c.17.07,0,.22.07.33l-.09.09a.25.25,0,0,0,0,.11V139l-.21,0c-.1-.17,0-.32-.06-.47l.14-.14Z"/><path d="M118.09,94.75l.3.25v.15c-.11.1-.24.06-.37,0a1.45,1.45,0,0,1,0-.51c0-.08,0-.17.05-.25h.18l0,.18Z"/><path d="M100.73,63a5.51,5.51,0,0,1,.37.61s0,.16,0,.25,0,0,0,0h-.17c-.09-.11,0-.22,0-.32l-.09-.1C100.66,63.28,100.74,63.12,100.73,63Z"/><path d="M106.73,79.06v.31l-.2,0c-.12-.16,0-.32-.11-.51l-.08-.09c0-.1,0-.21,0-.31s.15.12.23.17v.27Z"/><path d="M38,139H38l-.11.13h-.29l-.2-.2c0-.05,0-.13,0-.16s.2,0,.27.07.18-.19.35-.06Z"/><path d="M123.31,125.06h-.47l-.17-.28v-.17c.08-.1.16-.09.27,0S123,124.92,123.31,125.06Z"/><path d="M100,139.8a2.1,2.1,0,0,0-.78-.46c.18-.12.32,0,.42-.08l.41.21C100,139.57,100.07,139.69,100,139.8Z"/><path d="M40.1,3.21h.41c.06.08.17.12.18.24a1.75,1.75,0,0,1-.51,0c-.08,0-.17,0-.25,0S40.07,3.3,40.1,3.21Z"/><path d="M31.37,139.13l0-.21.31-.19h.18l.08.2-.33.2Z"/><path d="M120,121.62l.22,0,.18.26v.23l-.2.08-.2-.28Z"/><path d="M90.53,139.08v0c.08-.11.2,0,.35-.07l.19.33h0c-.08.12-.2,0-.35.08Z"/><path d="M81.93,139.67l0,.21-.31.19h-.18l-.08-.2.33-.2Z"/><path d="M94.15,49.68c-.13,0-.17-.13-.26-.19s-.18-.09-.26-.13V49l.21,0,.06.23.25.19Z"/><path d="M84.76,137.79V138l-.18,0h-.27l-.18,0c0-.13.12-.17.18-.25Z"/><path d="M127.09,129.09h-.33l-.16.14c0-.07-.06-.14,0-.18a3.1,3.1,0,0,1,.21-.36h.13Z"/><path d="M77.67,140.24v.32l-.19.05s-.06-.05-.06-.07c0-.23,0-.46,0-.68,0,0,.06-.06.07-.05s0,.2.07.29S77.62,140.18,77.67,140.24Z"/><path d="M1,14.59H.43l0-.22a.83.83,0,0,1,.52,0Z"/><path d="M32.56,138.39a2.89,2.89,0,0,0-.25.24,2.09,2.09,0,0,0-.08.23h-.16l-.09-.2.45-.32Z"/><path d="M22.68,139.14l-.05-.19.26-.27.05-.22.2,0A1.1,1.1,0,0,1,22.68,139.14Z"/><path d="M48.08,80.91c0,.1,0,.23,0,.35a.21.21,0,0,1-.18-.14,2,2,0,0,1-.18-.39s0-.07.06-.11Z"/><path d="M91.61,140.47l.28.19c-.18.14-.33,0-.48.1l-.17-.21C91.32,140.47,91.32,140.47,91.61,140.47Z"/><path d="M80,107.53h-.16l-.18-.44s0,0,0-.07l.17,0,.21.4Z"/><path d="M18.77,5.05c0-.13.15-.14.17-.23s.32,0,.46,0-.14.13-.17.23S18.92,5.12,18.77,5.05Z"/><path d="M41.22,138.09l-.36.38c-.09,0-.16,0-.14-.23l.22-.18C41,138.08,41.14,138,41.22,138.09Z"/><path d="M93.82,140.48h.3l0,.2c-.19.11-.37,0-.62,0Z"/><path d="M126.15,128.42v-.22l.2-.07.2.23v.14C126.36,128.71,126.29,128.39,126.15,128.42Z"/><path d="M38.05,138.55l.18-.22h.15c.11.11.06.24,0,.36S38.16,138.63,38.05,138.55Z"/><path d="M40,135.38c.13,0,.26,0,.39.05v.31l-.13,0c-.14,0-.1-.13-.13-.2S40,135.49,40,135.38Z"/><path d="M44.39,78.2l.21,0v.16l-.14.14c0,.1.09.25-.08.32-.09-.11-.05-.22-.05-.32S44.29,78.32,44.39,78.2Z"/><path d="M121.92,123.6h.14l.2.37-.13,0-.29-.2Z"/><path d="M62,101.64c-.12,0-.23,0-.33,0s.14-.13.16-.22.23,0,.33,0S62,101.54,62,101.64Z"/><path d="M42.49,65.37h0c0,.14.15.24.18.38s0,0,0,.1l-.23,0A.84.84,0,0,1,42.49,65.37Z"/><path d="M42,3.88h-.31l0-.2c.11-.11.23,0,.33-.07A.17.17,0,0,1,42,3.88Z"/><path d="M119.31,121.37a.48.48,0,0,0,.18-.05c.06,0,.1-.09.16-.12a.6.6,0,0,1,.19,0,.48.48,0,0,1,0,.12l-.27.27Z"/><path d="M88.92,139.87v-.13c.11-.13.24-.06.38-.05l0,.17A.29.29,0,0,1,88.92,139.87Z"/><path d="M92.14,138.38v.15a.27.27,0,0,1-.38,0l.2-.24Z"/><path d="M46.47,1.31c-.16,0-.29.08-.37,0l.15-.23C46.47,1.05,46.48,1.15,46.47,1.31Z"/><path d="M88.94,140.62v-.25l.13,0,.28.18C89.21,140.65,89.1,140.58,88.94,140.62Z"/><path d="M13.48,6.57l-.19,0,0-.16a.29.29,0,0,1,.39,0Z"/><path d="M45.93,78.4l0-.18c.13,0,.17.13.25.19l0,.17C46.05,78.56,46,78.46,45.93,78.4Z"/><path d="M34.53,137.05a.94.94,0,0,1-.63,0C34,137,34,137,34.53,137.05Z"/><path d="M59.59,100.41v.26l-.22,0,0-.25Z"/><path d="M43.74,70.86c-.12-.14-.07-.26-.08-.36a1.13,1.13,0,0,1,0-.18C43.81,70.33,43.81,70.33,43.74,70.86Z"/><path d="M44.81,81.52a.93.93,0,0,1-.05-.62C44.88,80.9,44.88,80.9,44.81,81.52Z"/><path d="M29.26,10.68l.18.07-.17.25-.18-.06Z"/><path d="M28.93,10.51v-.16l.24,0,0,.2A.17.17,0,0,1,28.93,10.51Z"/><path d="M18.66,6.36a.72.72,0,0,1-.61,0A.66.66,0,0,1,18.66,6.36Z"/><path d="M30.82,138.59h-.26l0-.22.25-.05Z"/><path d="M122.27,124.34v-.17l.23,0,0,.2A.16.16,0,0,1,122.27,124.34Z"/><path d="M26.93,4.3V4l.22,0,.05.25Z"/><path d="M29.05,138.52a1.06,1.06,0,0,1-.64,0C28.52,138.46,28.52,138.46,29.05,138.52Z"/><path d="M75.21,107.58c-.13-.24,0-.4-.11-.65C75.27,107.13,75.27,107.13,75.21,107.58Z"/><path d="M32.61,139.53h.17l0,.24-.2,0A.17.17,0,0,1,32.61,139.53Z"/><path d="M127.16,131.37h.16l.05.23-.2,0A.16.16,0,0,1,127.16,131.37Z"/><path d="M115.29,89.43v.26l-.21,0,0-.25Z"/><path d="M62.34,101h.16l0,.23-.2,0A.16.16,0,0,1,62.34,101Z"/><path d="M121.67,123.46h-.17l0-.23.2,0A.16.16,0,0,1,121.67,123.46Z"/><path d="M115.71,91.12V91l.23,0,0,.2A.16.16,0,0,1,115.71,91.12Z"/><path d="M1.25,12.08l0-.23c.09-.09.17-.09.24,0S1.33,12,1.25,12.08Z"/><path d="M28.86,137.8a.3.3,0,0,1,0-.41A.28.28,0,0,1,28.86,137.8Z"/><path d="M37.53,138.44l0-.17a.17.17,0,0,1,.28,0C37.69,138.32,37.65,138.42,37.53,138.44Z"/><path d="M84.24,140.94a.3.3,0,0,1-.41,0A.3.3,0,0,1,84.24,140.94Z"/><path d="M95.11,51.34l.31-.06c.09.1.09.17,0,.25S95.31,51.39,95.11,51.34Z"/><path d="M42.78,66.11a.38.38,0,0,1,0,.42C42.72,66.42,42.72,66.42,42.78,66.11Z"/><path d="M47,79a.11.11,0,0,1-.13-.1c0-.1,0-.2,0-.31a.12.12,0,0,1,.14.1C47,78.8,47,78.9,47,79Z"/><path d="M47.14,79.41a.11.11,0,0,1-.13-.09c0-.11,0-.21,0-.31a.1.1,0,0,1,.13.09C47.15,79.2,47.14,79.3,47.14,79.41Z"/><path d="M114.56,89.41a.38.38,0,0,1,0,.42C114.5,89.73,114.5,89.73,114.56,89.41Z"/><path d="M38,139h.18c.13.07.07.16.08.28C38.15,139.19,38.06,139.13,38,139Z"/><path d="M121.05,122.93l0-.29.16.15,0,.09-.11.05Z"/><path d="M123.33,125.4l0-.17c.14,0,.16.14.26.17A.18.18,0,0,1,123.33,125.4Z"/><path d="M48,1.12a.37.37,0,0,1-.41,0C47.65,1.07,47.65,1.06,48,1.12Z"/><path d="M94.28,139.81l-.29,0,.15-.17.09,0a.37.37,0,0,1,0,.11S94.28,139.71,94.28,139.81Z"/><path d="M100.64,140.07l-.18-.18c0-.13.12-.07.18-.09A.16.16,0,0,1,100.64,140.07Z"/><path d="M120.73,122.26a.17.17,0,0,1,0,.27A.16.16,0,0,1,120.73,122.26Z"/><path d="M.07,13.66c.1.08.1.17,0,.26A.16.16,0,0,1,.07,13.66Z"/><path d="M116.58,117.72c-.09-.11-.1-.19,0-.27S116.66,117.59,116.58,117.72Z"/><path d="M114.84,91.72c.08.11.09.18,0,.26S114.75,91.84,114.84,91.72Z"/><path d="M64.8,102.28a.55.55,0,0,1-.18,0s0,0,0-.08,0,0,0,0l.18,0Z"/><path d="M119.62,97.73a.86.86,0,0,1,0-.17s.06,0,.09,0l0,0a1.1,1.1,0,0,1,0,.18Z"/><path d="M2,11.38a.16.16,0,0,1,0-.27A.17.17,0,0,1,2,11.38Z"/><path d="M64.42,102.64a.16.16,0,0,1-.27,0A.16.16,0,0,1,64.42,102.64Z"/><path d="M18.2,5.19a.55.55,0,0,1-.18,0s0,0-.05-.08a.07.07,0,0,1,.05,0l.18,0Z"/><path d="M46.47,124.54c0,.08.05.2-.07.26C46.34,124.61,46.34,124.61,46.47,124.54Z"/><path d="M26.52,4.28c.08-.14.08-.14.26-.08C26.73,4.35,26.61,4.26,26.52,4.28Z"/><path d="M125.19,128.44a1.1,1.1,0,0,1,0,.18l-.08,0s0,0,0,0,0-.12,0-.18Z"/><path d="M127.07,129.08c.16.09.16.09.1.27C127,129.29,127.12,129.17,127.07,129.08Z"/><path d="M41.25,1.87c-.09,0-.21.07-.26-.08C41.17,1.73,41.17,1.73,41.25,1.87Z"/><path d="M102.52,65.89c-.09-.11-.1-.18,0-.26S102.6,65.77,102.52,65.89Z"/><path d="M31.47,137.59a.17.17,0,0,1,.27,0A.16.16,0,0,1,31.47,137.59Z"/><path d="M47.14,79.41c.14.08.14.08.08.25C47.08,79.61,47.17,79.49,47.14,79.41Z"/><path d="M105.42,79.66a1.1,1.1,0,0,1,0-.18s0,0,.08,0,0,0,0,0a1.1,1.1,0,0,0,0,.18Z"/><path d="M105.28,80.37l.18,0s0,.05,0,.08,0,0,0,0l-.18,0Z"/><path d="M89.43,138.75a.55.55,0,0,1,0,.18s0,0-.08,0,0,0,0,0a1.1,1.1,0,0,1,0-.18Z"/><path d="M40.74,139.11a1.11,1.11,0,0,1,0-.17s.05,0,.08-.05.05,0,.05,0a1.1,1.1,0,0,0,0,.18Z"/><path d="M98.28,139a.55.55,0,0,1-.18,0s0-.05,0-.08a.07.07,0,0,1,0,0l.17,0Z"/><path d="M89.21,139.16a.55.55,0,0,1,.18,0s0,.05,0,.08a.07.07,0,0,1,0,0l-.18,0Z"/><path d="M89.93,139.12c.09.11.09.19,0,.26S89.84,139.24,89.93,139.12Z"/><path d="M100.33,139.65a1.1,1.1,0,0,1,0-.18s0,0,.09-.05a.07.07,0,0,1,0,.05c0,.06,0,.12,0,.18Z"/><path d="M.39,13.34l0,.05,0-.09s0,0,0-.05Z"/><path d="M62.74,101.77a.41.41,0,0,1,0,.09s0,0,0,0a.79.79,0,0,1,0-.09S62.73,101.79,62.74,101.77Z"/><path d="M17.68,8.5l-.09,0s0,0,0,0l.09,0Z"/><path d="M116.33,116.52l0,0-.09,0s0,0-.05,0Z"/><path d="M116.62,116.86l0,0a.41.41,0,0,1,0-.09s0,0,0,0Z"/><path d="M49.71,119.9l0-.05a.41.41,0,0,1,0,.09s0,0,0,0Z"/><path d="M12.19,6.76l-.09,0,0,0a.18.18,0,0,1,.09,0S12.18,6.74,12.19,6.76Z"/><path d="M46.22,121.24l.05,0a.18.18,0,0,1,0,.09s0,0,0,0Z"/><path d="M23.93,6.14l-.09,0s0,0,.05,0a.18.18,0,0,1,.09,0Z"/><path d="M91.69,46.62l0,.05-.09,0s0,0-.05,0Z"/><path d="M126.3,128.77l0-.08s.05,0,0,0a.18.18,0,0,1,0,.09Z"/><path d="M100.66,62.78l-.09-.05.05,0,.09,0Z"/><path d="M83.65,135.63l-.08,0s0,0,0,0l.09,0Z"/><path d="M42.24,66.93l-.05,0,.09,0s0,0,0,0Z"/><path d="M88,137.84l0-.05a.41.41,0,0,1,0,.09l0,.05Z"/><path d="M27.86,138.13l-.09,0,0,0a.13.13,0,0,1,.09,0S27.84,138.11,27.86,138.13Z"/><path d="M32.73,138.18l0-.05a.18.18,0,0,1,.09,0s0,0,0,0Z"/><path d="M46.43,78.89l0,0-.09,0s0,0,0,0Z"/><path d="M117.85,94.34l-.09,0-.05,0a.18.18,0,0,1,.09,0S117.83,94.32,117.85,94.34Z"/><path d="M30.25,139.08l-.05,0,0-.09,0,0Z"/><path d="M95.6,139.22l0,.05,0-.09s0,0,0-.05Z"/><path d="M49.13,81.87l-.05.08s0,0,0,0l0-.09Z"/><path d="M93.21,139.6a.18.18,0,0,1-.09,0s0,0-.05,0l.09,0S93.19,139.59,93.21,139.6Z"/><path d="M29.13,139.67a.18.18,0,0,1,0,.09s0,0,0,0l0-.09S29.12,139.68,29.13,139.67Z"/><path d="M83.15,139.72l-.05.08s0,0,0,0a.18.18,0,0,1,0-.09Z"/><path d="M34.47,140.05l0-.05.09,0,0,0Z"/><path d="M96.22,138.73a.18.18,0,0,1,0,.09s0,0,0,0a.79.79,0,0,1,0-.09S96.21,138.75,96.22,138.73Z"/><path d="M83.5,49.56,83,48.9l0-.15h.46l.3.42v.32C83.72,49.6,83.6,49.5,83.5,49.56Z"/><path d="M87.72,54.49h-.24a1.48,1.48,0,0,1,0-.19.92.92,0,0,1,.06-.48l.21.38Z"/><path d="M86,54.78v-.23c.1-.1.22,0,.35-.06l0,.21C86.26,54.81,86.15,54.74,86,54.78Z"/><path d="M85.43,53.71h.23c.09.1,0,.22.06.35l-.21,0C85.4,54,85.46,53.87,85.43,53.71Z"/><path d="M85.78,52.36h-.13c-.13-.11-.06-.24-.05-.38l.17,0A.29.29,0,0,1,85.78,52.36Z"/><path d="M82.82,52.21l.33.33c0,.12-.12.07-.11.07l-.3-.2Z"/><path d="M85.1,49.51a.37.37,0,0,1,0,.41C85,49.83,85,49.83,85.1,49.51Z"/><path d="M75.2,49.13c.09.11.09.19,0,.26S75.11,49.25,75.2,49.13Z"/><path d="M85.24,50.88c-.1-.09-.1-.18,0-.26C85.34,50.7,85.34,50.79,85.24,50.88Z"/><path d="M80.6,48.16l0,.05,0-.09s0,0,0,0Z"/><path d="M89,58.4l0,.05-.09,0,0,0Z"/><path d="M86.45,50.88l0,.09,0,.05a.41.41,0,0,1,0-.09Z"/><path d="M86,51.53l0,0,.09-.05s0,0,0,.05Z"/><path d="M85.69,50.17l0,0a.79.79,0,0,1,0-.09l0,0Z"/><path d="M84.1,49.34l-.09,0s0,0,0,0l.09,0Z"/><path d="M97.45,105.22c-.12.09-.09.34-.29.43H97l-.5.51c-.21,0-.33.24-.62.13l-.15-.18v-.26c.06-.07.12-.17.19-.18a1.41,1.41,0,0,0,.45-.2,2.51,2.51,0,0,0,.37-.36c.21.1.32-.11.54-.13Z"/><path d="M97.5,105.65v-.21c.12-.07.26-.06.33-.19.12.12.11.14-.14.4Z"/><path d="M93.86,104.36l0,.09s0,0,0,0l0-.09Z"/><path d="M45,32.65v-.31c.1-.15.24,0,.33-.08.13.12,0,.24.08.33C45.27,32.76,45.13,32.63,45,32.65Z"/><path d="M45.93,32c0-.12,0-.23,0-.33s.13.15.23.17,0,.22-.05.32S46,32,45.93,32Z"/><path d="M45.6,31.06h.16l.05.24-.2,0A.17.17,0,0,1,45.6,31.06Z"/><path d="M49,32.14c.12,0,.25,0,.37,0l0,.12c-.08.14-.14.32-.36.22S49,32.26,49,32.14Z"/><path d="M47.63,31.71l-.09,0s0-.05.05,0a.18.18,0,0,1,.09,0Z"/><path d="M54,12.58l0,.09s0,0,0,.05a.18.18,0,0,1,0-.09S54,12.6,54,12.58Z"/><path d="M54.5,14.86v.35l-.06,0h-.91l-.27.16c-.15-.13-.08-.26-.07-.38s0,0,.05,0h.53l.08-.08a.43.43,0,0,1,.13-.05Z"/><path d="M50.2,6.7h.4l0,.18c-.11.13-.24.07-.38.06Z"/><path d="M39.48,134h-.61l0-.2c.06,0,.13-.07.17-.05S39.25,133.91,39.48,134Z"/></g></g></svg>