<svg xmlns="http://www.w3.org/2000/svg" viewBox="0 0 69.4 69.42"><title>Recurso 236MODERN ICON</title><g id="Capa_2" data-name="Capa 2"><g id="Capa_1-2" data-name="Capa 1"><path d="M46.12,46.28H26.25c-.31-.21-.19-.54-.19-.81V26.22c-.11-.1-.15-.17-.2-.17a4.87,4.87,0,0,0-.54,0H20.45a23,23,0,0,1-.09-5.7,4.37,4.37,0,0,1,1.4-.08c.41,0,.83,0,1.27,0,.28-.46.07-1,.13-1.41a5.7,5.7,0,0,1,.11-1.46h2.64c.29-.51.11-1,.14-1.46s0-1,0-1.44V11.58h2.72c.09-.1.16-.15.16-.19A2.17,2.17,0,0,0,29,11V6c.44-.3.92-.12,1.38-.15s.94,0,1.45,0c.15-1,0-1.86.09-2.77.43-.27.92-.08,1.38-.11s.94,0,1.47,0V.16c.51-.28,1-.1,1.45-.14S37,0,37.44,0c.3.22.18.54.18.82,0,1.62,0,3.23,0,4.85a3.93,3.93,0,0,0,1.47.1c.42,0,.84,0,1.27,0,.3.44.11.93.15,1.39s0,.94,0,1.4a4.53,4.53,0,0,0,1.49.1c.42,0,.84,0,1.22,0a2.07,2.07,0,0,1,.16.17.47.47,0,0,1,0,.17v5.24s.07.09.16.2h2.61a3.46,3.46,0,0,1,.11,1.45c0,.42,0,.85,0,1.28.42.31.91.13,1.37.16s.95,0,1.36,0a1.62,1.62,0,0,1,.16.21,1.08,1.08,0,0,1,0,.18V23c.45.29.94.09,1.4.15a6,6,0,0,1,1.45.09v2.69c-.44.26-.92.07-1.38.1s-1,0-1.45,0H46.33c0,6.78-.06,13.45-.09,20.12C46.24,46.2,46.16,46.24,46.12,46.28Z"/><path d="M69.4,49.32V57.7c-.07.07-.12.15-.16.15H.23c-.05,0-.09-.08-.17-.14V49.32c.08-.06.12-.14.17-.14h69S69.32,49.25,69.4,49.32Z"/><path d="M69.4,63.63v5.65c-.08.06-.13.13-.17.13H.22A21.87,21.87,0,0,1,.1,63.74s.09-.1.14-.1Z"/></g></g></svg>