<svg xmlns="http://www.w3.org/2000/svg" viewBox="0 0 336.86 352.18"><title>Recurso 31GRAPHS</title><g fill="rgba(80, 255, 80, 0.666)" id="Capa_2" data-name="Capa 2"><g id="Capa_1-2" data-name="Capa 1"><path d="M103.6,217.74l-.68-.67h-6.7s-.11-.07-.17-.11c-.38-.69.31-.86.59-1.24h6.74c.06-.06.13-.1.16-.17a.36.36,0,0,0,.06-.2V104.76l-.43-.49a2.12,2.12,0,0,1,.1-1.12H107c.13-.13.22-.18.23-.24a3.34,3.34,0,0,0,0-.45v-3.6c.37-.4.8-.22,1.22-.13,0,.06.12.11.13.17v3.54l-.45.53c.6.34,1.21.12,1.79.16s1.2,0,1.8,0h10.82V98.73l.66-.11.68.68v3.15l-.43.47c.11.07.23.21.35.21q6.77,0,13.51,0a3,3,0,0,0,.51-.11c.08-1.38,0-2.79.06-4.24l.64-.2.64.82v3.07l-.38.5c.14.09.2.16.26.16h14l.16-.62-.47-.51v-2.7c.3-.21.43-.62.84-.67s.59.41.92.62V102c-.07.25-.76.45-.25,1h15c.33-.25-.09-.31-.11-.38a1.86,1.86,0,0,1-.17-.48c0-1.12,0-2.25,0-3.36.39-.38.81-.24,1.24-.12a2.87,2.87,0,0,1,.11,1.3c0,.53,0,1,0,1.58v1.29a1.82,1.82,0,0,0,.2.2.53.53,0,0,0,.22,0h13.73c.06,0,.11-.08.23-.17l-.37-.48V98.8c.38-.28.75-.12,1.11-.14,0,.06.15.11.15.16,0,1.35,0,2.69.05,4,0,.06.08.12.15.23h14.6c0-.19.09-.4.13-.58L200,102V99.3c.31-.2.44-.62.85-.66s.59.42.92.63V102c-.08.27-.79.46-.25,1.06H215.1a.83.83,0,0,0,.16-.17.53.53,0,0,0,0-.22V97.07c.51-.2.27-1,.82-1.14s.58.42,1,.59v6.39c.13.13.18.21.24.22a3.38,3.38,0,0,0,.45,0h13.61a7.51,7.51,0,0,0,.11-2.17c0-.74,0-1.48,0-2.14.43-.3.8-.16,1.16-.16.39.46.14,1,.18,1.5s0,.9,0,1.35a3.55,3.55,0,0,0,.14,1.57h13.64c.07-.07.14-.11.17-.17a.55.55,0,0,0,0-.22V98.87c.36-.42.79-.22,1.32-.13.08,1.38,0,2.79,0,4.19a.83.83,0,0,0,.17.16.5.5,0,0,0,.21,0h14a1.49,1.49,0,0,0,.4-.11c.27-.4.05-.68-.3-.94V99.19l.72-.56c.52-.07.7.43,1,.68V102l-.45.49,0,.45c.05,0,.1.14.16.15.63.1,12.75,0,14.11-.07.32-.43,0-.67-.3-1V99.22l.88-.61c.37-.06.54.45.88.7V102l-.45.48q0,.24,0,.45c.05.06.1.15.16.16.65.09,13.29,0,14.65-.09V98.75c.27,0,.48-.09.69-.11a3.38,3.38,0,0,1,.45,0c.07.11.22.22.22.34,0,1.34,0,2.68,0,4,.14.12.2.2.25.2h13.49c.44-.47.17-1,.21-1.51s0-.9,0-1.35V98.81a1.66,1.66,0,0,1,1.17-.13,1.31,1.31,0,0,1,.18.38c0,1.12,0,2.25,0,3.38l-.44.48c.12.07.24.21.36.21q6.75,0,13.51,0a2,2,0,0,0,.41-.09.71.71,0,0,0,.12-.18.81.81,0,0,0,0-.22V98.85a1.16,1.16,0,0,1,1.3-.07v3.71l-.36.47a1,1,0,0,0,.22.17.59.59,0,0,0,.23,0h3.34a1,1,0,0,1,.18.18.49.49,0,0,1,0,.21q0,56,0,111.9c0,.06.07.12.18.29h6.32l.7.66v.47c-.13.07-.25.21-.37.21h-6.64a2.06,2.06,0,0,0-.19.27.88.88,0,0,0,0,.23V329.42l-.68.68c-.26-.27-.52-.53-.81-.85H217.25c-.05.05-.12.09-.15.16a.49.49,0,0,0,0,.21v6.45l-.65,1.13-.42.16-.72-1.36v-6.56c-.13-.13-.17-.2-.24-.23a.53.53,0,0,0-.22,0H128.6s-.11.1-.16.15a1.09,1.09,0,0,0,1.27.79v1.52l-.39.42.59,1.15c.48.62,1.49,1.11,1.75,2.19l2.07,2.07c0,.15,0,.29,0,.44.41.67,1.32,1,1.39,1.9l1.76,1.75c-.07.72.62.94,1,1.41s.61.95.85,1.33c.16.11.22.18.28.18a3.38,3.38,0,0,0,.45,0h7.88a.78.78,0,0,1,.21,0l.64.63v.45c-.12.08-.24.22-.36.22h-9.9c0-.29,0-.59-.14-.69-.72-.54-.91-1.47-1.57-2.07a8.78,8.78,0,0,1-1.8-2.16,10.36,10.36,0,0,0-1.87-1.94c-.13-1.08-1.46-1.4-1.59-2.49l-1.88-1.88-.82-1.39-.55.42h-1.43c-.24-.32-.11-.75-.49-1-.58-.36-.66-1.07-1-1.61-.1-.15,0-.44,0-.8l-1.29-1H105.08l-.72,1-1.2-1.31v-.83l.44-.47Zm46.51,66.43h162a1.29,1.29,0,0,0,.41-.15c0-.35.08-.7.11-1,.08-.07.14-.16.19-.16h2.67l.52.47h1.29l.47.39h1.38l.62-.65-.39-.39v-1.87l.37-.48c-.27-.24-.48-.45-.67-.63-.87,0-1.69,0-2.52,0-.12,0-.24-.12-.37-.19,0-.36-.14-.74.2-1.15.59,0,1.25,0,1.92,0,.35,0,.75.15,1-.24V264.79a.81.81,0,0,0,0-.22c0-.06-.1-.11-.24-.24h-2.73c-.48-.76.25-.94.5-1.33.37,0,.75,0,1.12,0s.89.14,1.32-.17V248.74c-.53-.28-1.06-.09-1.57-.15s-1,.19-1.5-.17a1.63,1.63,0,0,1,.14-1.18c.44,0,.95,0,1.46,0s1,.23,1.51-.21q0-6.74,0-13.49c0-.05-.08-.11-.2-.25a14.54,14.54,0,0,1-1.47,0c-.49,0-1.05.26-1.47-.22.08-.35-.16-.75.25-1.14h2.75a1.83,1.83,0,0,0,.14-.48q0-7,0-14a.49.49,0,0,0,0-.21.84.84,0,0,0-.19-.19H304a.39.39,0,0,1-.4-.13c-.11-.42-.27-.84.12-1.22h15.08a.54.54,0,0,0,.22,0c.07,0,.11-.09.2-.17V202.26a17,17,0,0,0-1.81,0l-1.28-.66,0-.49.78-.67h2.2c.1-.14.17-.2.17-.26q0-6.85,0-13.73a.49.49,0,0,0,0-.21.75.75,0,0,0-.15-.16c-.95-.1-1.92.05-2.84-.08-.13-.5-.29-.93.07-1.27,1-.11,1.94.07,2.92-.11V170.69c-.54,0-1.06,0-1.56,0s-1,.19-1.5-.16v-1.18c.57,0,1.08,0,1.59,0s1,.23,1.51-.21q0-7,0-13.94c0-.06-.08-.11-.2-.25h-1.71c-.34-.22-.51-.35-.7-.45s-.37-.14-.52-.2c-.09-.62.4-.81.66-1.16.37,0,.75,0,1.12,0s.89.14,1.32-.16V139.67h-2.39c-.34-.41-.81-.61-.71-1.21l.75-.67h2.24a1.83,1.83,0,0,0,.14-.48q0-6.75,0-13.51a.42.42,0,0,0,0-.2c0-.07-.1-.11-.16-.17-1-.09-1.91,0-2.84-.07-.11-.51-.28-.93.11-1.31.45,0,.9,0,1.35,0s1,.15,1.54-.16v-8.7a51.84,51.84,0,0,0-8.5,0,11.29,11.29,0,0,1-.3,3.14c-.11.27-.22.53-.34.8l-.73-.77c0-.55,0-1.08,0-1.6s.19-1.19-.16-1.75H296.6a3.38,3.38,0,0,0-.45,0c-.06,0-.11.08-.17.13l-.56.55v2.72l-.66.61-.68-.63v-2.72l-.67-.66H279.94c-.06,0-.12.08-.18.13l-.51.51.42.51v1.72c0,.06-.08.12-.34.49.08-.15-.09,0-.09.22,0,.43-.27.47-.67.47-.21-.22-.45-.48-.7-.73,0-.53,0-1.06,0-1.58s.19-1.18-.17-1.74H264.62c-.06,0-.11.09-.25.19v3.2c-.38.24-.49.7-1,.66s-.54-.46-.85-.67c0-.67,0-1.35,0-2a1.22,1.22,0,0,1,.14-.39l.28-.32-.66-.65H248.41c-.06,0-.12.09-.25.2v3.18l-.7.66-.66-.67c0-.51,0-1,0-1.56a4.44,4.44,0,0,0-.12-1.77H233.46l-.64.68v2.64l-.65.7-.65-.66c-.09-1.1,0-2.21-.07-3.4h-14a.36.36,0,0,0-.2.06,1.21,1.21,0,0,0-.16.16q0,8.1,0,16.2c0,.06-.09.11-.17.19h-1l-.62-.65c0-5.22,0-10.4,0-15.58a.42.42,0,0,0,0-.2,1,1,0,0,0-.18-.18H202c-.06,0-.11.09-.25.2v3l-.65.83-.51,0c-.2-.37-.39-.74-.64-1.24,0-.37,0-.89,0-1.42a1.5,1.5,0,0,1,.15-.38l.27-.32c-.21-.21-.42-.43-.65-.65H185.81c-.06,0-.12.09-.25.21v3.17l-.69.66-.67-.67c0-.52,0-1,0-1.57s.16-1.18-.12-1.76H170.27c-.07,1.14,0,2.25-.05,3.36l-.67.66-.68-.79v-3.13a2.33,2.33,0,0,0-.48-.14H154.88a.49.49,0,0,0-.21,0,.75.75,0,0,0-.16.15c-.07,1.11,0,2.22,0,3.23-.43.34-.63.87-1.19.54a2.57,2.57,0,0,0-.56-1.09v-1.75l.39-.49-.62-.59c-.83,0-1.57,0-2.32,0,0,0-.1.1-.16.16a16.46,16.46,0,0,0,0,1.86l.43.41v1.35l.44.46v2.92l-.89.6v163A2.11,2.11,0,0,0,150.11,284.17ZM116.61,123.4c-.7,0-1.23,0-1.75,0s-1.18-.16-1.76.12v14.23h2.84c.34.41.81.61.71,1.2l-.75.68h-2.7a1.83,1.83,0,0,0-.14.48q0,6.3,0,12.61a.33.33,0,0,0,0,.2c0,.07.1.11.15.17,1,.09,1.92,0,2.79.06.29.37.71.53.57,1.22l-.56.52h-2.32l-.52-.42c-.23,2.34-.21,13,0,14.88h3.54c-.3.49.11.92-.32,1.3-1.1.07-2.22,0-3.34.05,0,.32-.06.53-.06.75q0,6.18,0,12.38c0,.28-.08.6.22.81,1,0,2,0,2.92,0a1.64,1.64,0,0,1,.41.16v1.07a6.43,6.43,0,0,1-1.79.12c-.57.08-1.18-.19-1.77.18q0,7,0,13.94c0,.06.07.12.16.26h2.84c.12.41.64.48.58,1.18,0,.17-.42.34-.64.65-.66,0-1.33,0-2,0a1.68,1.68,0,0,1-.44-.14c-.12,0-.14-.48-.45-.12v13.61c.1.08.16.16.21.16H129l.34.34c.3.26.51.54.14,1H113.21c-.22,2.23-.21,12.93,0,14.88h3.55c-.3.48.11.92-.32,1.3-1.1.09-2.21,0-3.29.06a3,3,0,0,0-.11.51q0,6.52,0,13.05a.34.34,0,0,0,.06.2,1.25,1.25,0,0,0,.16.17c1,0,1.94,0,2.92,0a1.29,1.29,0,0,1,.41.15v1.07c-.6.26-1.2,0-1.78.12s-1.19-.18-1.72.14v14.18c1,.21,2,0,2.89.13l.69.66-.15.67h-3.3c-.1.14-.18.2-.18.25q0,6.64,0,13.29a.49.49,0,0,0,0,.21c0,.06.1.1.15.16,1.11.11,2.22-.06,3.3.08.12.5.28.92-.11,1.3-.52,0-1,0-1.56,0a4.37,4.37,0,0,0-1.84.15c0,1.4.07,2.8.12,4.21,0,0,.09.08.14.11l.5-.45h1.31l.42-.42h1.3l.52-.4h2.82l.2,1.26c8.45.16,25.69.1,28.27-.09V217.45a.46.46,0,0,0,0-.2,1,1,0,0,0-.18-.18h-13a3.38,3.38,0,0,1-.45,0c-.06,0-.11-.08-.17-.13-.06-.42-.27-.86.15-1.21h13c.3.06.33.61.72.27.17-9.61.1-92.55-.09-95.18a4.93,4.93,0,0,1-2.13-.8c-.17-.46.29-.63.45-.94a1.69,1.69,0,0,1,.48-1.42v-2.16l.37-.37v-1.94a52.47,52.47,0,0,0-8.48,0c-.1,1.1.05,2.21-.07,3.25-.4.32-.59.85-1.16.54-.05,0-.14-.11-.14-.16,0-1,0-2.1,0-3.14l-.67-.67h-13c-.06,0-.12.08-.25.19v3l-.67.86-.7-.7c0-.43,0-.88,0-1.33s.15-1-.11-1.49l-.5-.5h-8.71a53.32,53.32,0,0,0,.07,8.93c1.11.07,2.22,0,3.36,0ZM279.09,319.74h14.54a.81.81,0,0,0,.22,0c.07,0,.11-.1.24-.24v-3.18c.77-.5.94.24,1.34.49,0,.44,0,.89,0,1.34s-.15,1,.15,1.55h13.73c.17-1.13,0-2.25.09-3.35,0-.06.1-.11.16-.16l.51-.06.66.6c0,.63,0,1.09,0,1.53s-.25,1.05.22,1.48h7.88a.53.53,0,0,0,.22,0c.07,0,.11-.1.25-.23v-7.21c.34-.34.66-.59.26-1.06l-3.26-.11c-.06,0-.11-.1-.16-.15,0-.35-.16-.74.21-1.14h2.72l.64-.69-.39-.39V297c.29-.29.61-.53.28-1a7.52,7.52,0,0,0-1.72-.09c-.57-.08-1.18.18-1.77-.18.1-.36-.12-.74.2-1.15h2.56l.87-.66-.44-.5v-5.81a3,3,0,0,0,.42-.59c0-.11,0-.27-.07-.41s-.1-.15-.16-.15h-3.13l-.49.45c-1,0-2,0-2.95,0-.12,0-.24-.12-.37-.19l-.07-1.15H218.12c-.35,0-.75-.14-1,.22V298c-.37.16-.5.73-1.12.62l-.65-.55V286.64l.38-.5-.67-.62H151.47c-.49,0-1.05-.25-1.49.21q0,13.17,0,26.34a1.09,1.09,0,0,0,.14.38l.74.26v3.66c-.78.41-.15,1.47-.89,1.89.09.49-.25,1.05.22,1.46h2.72c.05,0,.1-.1.18-.19l-.4-.48v-1.73c.15-.25.39-.49.41-.74,0-.44.3-.44.66-.46l.71.68c0,.53,0,1,0,1.43s-.23,1,.21,1.5h14s.11-.09.24-.21V316.8l.74-.7.59.18c.07,1.16,0,2.27.05,3.4.32,0,.53.06.74.06H183.4c.28,0,.6.08.8-.23v-2.76c.42-.13.56-.94,1.36-.42,0,.51,0,1.1,0,1.69s-.18,1.18.19,1.72h14.42c.06,0,.11-.1.21-.19l-.36-.45v-1.73c.29-.55.48-.9.64-1.22.65-.1.78.44,1.11.71,0,.45,0,.9,0,1.35s-.21,1,.21,1.53h13c.06,0,.12-.08.25-.18V304.2c.38-.24.5-.69,1.14-.66.22,0,.38.43.69.65v15.07a.88.88,0,0,0,0,.23c0,.06.09.11.17.2a5.37,5.37,0,0,0,.61.05h12.83c.28,0,.6.08.8-.24v-2.69c.39-.25.56-1,1.35-.48,0,.52,0,1.11,0,1.69s-.19,1.19.19,1.72h13.3a.81.81,0,0,0,.22,0c.07,0,.11-.1.17-.16.26-1.13-.18-2.33.23-3.43.64-.1.84.38,1.19.66,0,.43,0,.88,0,1.33s-.15,1,.14,1.55c.2,0,.42.05.63.05h12.83c.29,0,.6.08.8-.25v-2.68c.34-.26.54-.75,1.17-.66l.64.79v2.6c.14.11.19.2.25.2h12.83a.51.51,0,0,0,.22,0c.06,0,.1-.1.16-.15.13-.95-.07-1.92.1-2.82.38-.3.58-.83,1.14-.52a2.63,2.63,0,0,0,.58,1.08v1.76ZM113.81,286.42c-.31-.05-.33-.6-.76-.25q0,4,0,8.07c0,.06.07.12.18.28.52,0,1.1,0,1.69,0s1.18-.18,1.76.21c-.14.34.13.73-.24,1.13-.75,0-1.56,0-2.38,0-.34,0-.75-.15-1,.23v13.28a.79.79,0,0,0,0,.22c0,.06.1.11.24.24h3.47c-.28.49.1.91-.34,1.34-.48,0-1,0-1.52,0a5.71,5.71,0,0,0-1.75.09,43.14,43.14,0,0,0,.11,8.46h9s.11-.09.2-.17c0-1.07.08-2.18.13-3.28,0-.05.1-.1.15-.15h.45l.64.64c.1,1,0,1.92.1,3h13.52a.36.36,0,0,0,.2-.06.83.83,0,0,0,.17-.16c0-.52,0-1,0-1.56a4.7,4.7,0,0,1,.11-1.75c.7-.27.89.33,1.23.66,0,.45,0,.91,0,1.35s-.22,1,.21,1.52h8.07c.06,0,.12-.08.17-.13.3-.62,0-1.09-.35-1.57,0-.53,0-1.05,0-1.58,0-.36-.05-.72-.08-1.09-.64-.29-.15-1-.49-1.37a.83.83,0,0,1-.3-.83l.68-.6,1.38-.07c.09-.12.16-.18.16-.24q0-13.17,0-26.33a.49.49,0,0,0,0-.21.67.67,0,0,0-.14-.15h-28.1l-.21,1.3h-3a1.2,1.2,0,0,1-.39-.13l-.32-.31ZM231.45,104.49H217.3c-.05,0-.1.1-.18.17v1.08l.9.18.53.77c.56.1,1-.13,1.26.33-.16.3.16.71-.2,1l-.93.11-.8,1.23-.75.16v2c.1.08.16.16.21.16q51.78,0,103.54,0c.21.31.62.45.69,1l-.47.62q0,51,0,102.15c0,.05.08.11.17.21h1.64l1.8-1.8c.06-.2-.19-.62.24-.86.35.07.75-.16,1.07.2-.24.69.4,1.16.51,1.79,0,.3.46.53.66.73l1-.06a6.71,6.71,0,0,0,.07-.69q0-6.19,0-12.38c0-.12-.12-.25-.2-.39h-1c.07.75-.7.23-1,.59-.29.52.25,1.2-.33,1.65-.35-.08-.75.16-1.06-.19l-.09-1.5a8.07,8.07,0,0,1-3.1-1.29c-.08-.55.42-.73.68-1.07h.9a2.44,2.44,0,0,1,1.56-1.57c.1-.34-.14-.74.16-1.05a1.56,1.56,0,0,1,1.21.16v.89a6.69,6.69,0,0,1,.79.81,2.71,2.71,0,0,1,.28.77c.4-.09.8.15,1.13-.19V186.07c-.25,0-.53-.12-.64,0-.58.47-1.11,1-1.4,1.27-.27.66,0,1.08-.37,1.37-.35,0-.73.14-1.08-.13l-.09-.76L322.9,186l-.72,0-.67-.71.2-.6h1.42L324.7,183v-.84l.71-.68.62.58c0,.51,0,.8,0,.76l1.79,1.81.37-.09a3.93,3.93,0,0,0,.07-.6q0-6.42,0-12.84c0-.12-.12-.25-.19-.39h-.8L326,171.85v1.4a1.17,1.17,0,0,1-1.35-.13v-1.49c-.85.1-1.07-.74-1.62-.94h-.8c-.15-.27-.55-.36-.61-.75l.65-.63h.88a4.09,4.09,0,0,1,.51-.93,6.18,6.18,0,0,1,1.06-.67v-.87l.67-.67.64.71v.86l1.57,1.56s.14,0,.21,0l.4-.13a2,2,0,0,0,.09-.41q0-6.75,0-13.51c0-.12-.14-.24-.21-.36h-.92L326.11,156c-.18.5.11,1-.19,1.52-.42.07-.86.28-1.22-.15v-.82L323.16,155c-1.45-.5-1.58-.58-1.61-.9a1.24,1.24,0,0,1,.79-.91l.82,0c.55-.55,1-1,1.5-1.51,0,0,0-.13,0-.07,0-.42.05-.7.07-1,.28,0,.56-.08.66,0a2,2,0,0,1,.67.84,3.5,3.5,0,0,0,1.1,1.79c.35-.08.75.16,1.08-.17V139.78c-.38-.29-.75-.12-1.06-.14l-1.15,1.09v.92l-.6.6-.72-.5c0-.53-.05-.82-.06-1.13a13.13,13.13,0,0,0-1.48-.91,3.57,3.57,0,0,0-1-.16c-.21-.31-.66-.44-.61-.91s.46-.54.69-.83h.82l1.52-1.44c.24-.5-.06-.92.34-1.25.32,0,.69-.13,1.07.13,0,.33.07.68.11,1l.8.8c.09.24,0,.59.34.72.34-.07.74.16,1.07-.23,0-4.61,0-9.26,0-13.91,0,0-.08-.11-.12-.17s-.13-.09-.19-.09-.28,0-.16,0l-1.77,1.76,0,.73-.66.62-.67-.66V125a2.44,2.44,0,0,1-1.56-1.57h-.92l-.69-.75.65-.64h.74l1.81-1.8c0-.2-.2-.62.22-.87.35.08.75-.16,1.08.2v1.52c.13.1.38.26.61.45s.41.4.57.55l1,0c.27-3.39.23-13.61-.05-13.89l-.44,0a2.48,2.48,0,0,0-1,1.31l-.63.16c0,.57-.06,1.07-.08,1.55-.49.16-.9.28-1.3-.08v-.86a2.92,2.92,0,0,0-1.36-1c-.07-.35.16-.75-.19-1l-1.47-.07c-.4-.77.28-.94.58-1.32h.87a3.12,3.12,0,0,1,1.57-1.11c-.09-.37.15-.77-.18-1.08H310.9c-.27.39-.13.75-.12,1.17l.68.19.88.84c.36.08.76-.16,1.1.22-.06.32.13.68-.12,1l-1.22.21v1a2.59,2.59,0,0,0-1.36,1c-.07.35.16.75-.19,1-.36,0-.73.14-1.07-.11-.31-.51.22-1.19-.31-1.67h-.45c-.25-.5-.41-1.07-1-1.34-.35-.07-.76.16-1.05-.22.05-.35-.15-.73.2-1.14h1l1.54-1.08c-.09-.49.13-.89-.25-1.17H295.66c-.05,0-.1.1-.18.18v.7l1.09,1.47c.56.14,1.16-.43,1.57.13-.08.35.15.75-.2,1.08l-1.51.08c-.07.47-.14.88-.2,1.24l-.67.14c-.35.57.18,1.25-.35,1.73-.35-.09-.75.15-1.08-.18L294,110l-1.18-.68c-.23-.38.09-.79-.25-1.12l-1-.12c-.21-.22-.41-.42-.59-.62l.65-.67h.91a7.45,7.45,0,0,1,.8-.79,3.81,3.81,0,0,1,.83-.3c-.18-.37.12-.77-.28-1.16H279.55c-.11,0-.22.16-.32.23v1a3.37,3.37,0,0,1,.77.28,6.29,6.29,0,0,1,.77.78c.54.07,1.07-.17,1.55.17V108l-1.1.08-.64.64v.51l-.77.26c-.11.55-.57,1-.65,1.53,0,.08-.24.13-.36.18s-.18,0-.22,0c-.23-.19-.44-.4-.65-.6-.12-.49.09-1.07-.48-1.39,0-.61-.38-.89-.81-1.14l-.84,0-.59-.63.62-.69h1.37l.64-.65c0-.35.05-.71.08-1.27,0,0,.63,0,.16-.33H264.23c-.1,0-.2.16-.3.24.57.32.38.9.47,1.31l.62.7h1.37l.62.61-.51.71-1.14.06-.19.91-.79.54-.05,1c-.35.23-.47.68-.94.62s-.54-.46-.83-.68c-.08-.35.16-.74-.16-1l-.62-.16a1.85,1.85,0,0,0-.79-1.23c-.34-.16-.75.16-1.09-.2v-1.17c.54,0,1.05,0,1.38,0,.65-.59,1.21-1.09,1.77-1.61-.06-.22-.12-.42-.19-.64H248.42c-.06,0-.11.07-.22.15v1.09l.89.19.55.79c.65.11,1.2-.2,1.68.26-.12.32.14.7-.14,1-.53.32-1.21-.23-1.68.33v.89c-.48.29-1.1.39-1.35,1-.06.35.16.76-.22,1-.35-.07-.74.16-1.06-.14-.28-.52.26-1.2-.25-1.6l-.67-.18c0-.41-.08-.77-.11-1.08-.57-.39-1.25.15-1.76-.39.13-.31-.15-.7.22-1.11h1.16l1.42-.74c-.27-.47.17-1-.31-1.51H233.11c-.06,0-.12.07-.22.15v.85l1,1.22c.63.11,1.18-.2,1.63.23-.05.35.15.73-.15,1.09l-1,.1c-.5.32-.56.87-.83,1.26l-.58.12c-.36.57.18,1.25-.35,1.72-.35-.07-.75.16-1-.12-.32-.54.25-1.23-.18-1.55s-.93.05-1.22-.31c0-.36-.07-.71-.1-1.07l-1.37-.23c.19-.42-.1-.82.23-1.16l1.14-.13c.16-.71.94-.73,1.37-1.07Zm-30.08.16a2.9,2.9,0,0,1,.38.65,3,3,0,0,1,0,.78l.54.51c.84.34,1.54-.09,2.15.36-.06.36.15.74-.21,1.14h-1.48l-.19.92-.85.61v1c-.35.13-.44.63-1.11.55a12.31,12.31,0,0,1-.81-1.7l-.66-.18-.13-.62c-.19-.18-.4-.4-.69-.69h-1c-.08-.5-.29-.93.14-1.29H199l.58-.77.9-.32c-.2-.37.12-.78-.28-1.16H185.88c-.11,0-.22.16-.32.23v1a2.73,2.73,0,0,1,.77.29,5.67,5.67,0,0,1,.77.78H188l.66.66a2.53,2.53,0,0,1-1.2.8c-.51.15-.51.82-.81,1.23h-.44l.18.18-.85.43c0,.51-.05.79-.06,1.06-1.06.16-1.06.16-1.37-.14v-1.41l-.73-.25c-.26-.43.08-.84-.17-1.07-.47-.32-1,.12-1.3-.41.08-.35-.16-.75.19-1,.78.16,1.31-.46,2-.64v-1.49c-.28-.27-.59-.15-.88-.15q-6.3,0-12.6,0a1,1,0,0,0-.38.16v1.09a13.49,13.49,0,0,0,1.46.91,3.58,3.58,0,0,0,1,.14l.56.61-.63.69h-.92l-.62.62-.12.61-.82.28c-.07.56.16,1.1-.17,1.59h-1.15c0-.55,0-1-.07-1.73-1.09.23-1.16-.74-1.54-1.37-.38-.08-.78.15-1.07-.17v-1.06a3.93,3.93,0,0,0,2.65-1.29c-.08-.36.15-.76-.24-1.09H154.31c-.06,0-.12.07-.21.14l.61,1.21h.77l.54.93h1l.61.65-.65.66c-.35.09-.75-.15-1.08.17l-.12,1c-.57.19-1.18.34-1.27,1-.06.45-.4.61-.65.85s-.39,0-.66,0c0-.4-.06-.75-.11-1.33l-.8-.53c-.11-.58.13-1-.31-1.24-.5-.07-1,.2-1.5-.17a1.61,1.61,0,0,1,.12-1.13l1.18-.07,1.42-1.12c-.16-.38.12-.79-.29-1.11H139c-.06,0-.12.08-.17.12a4.5,4.5,0,0,0,.46,1.08,8.68,8.68,0,0,0,1,1c.63.13,1.19-.22,1.64.31-.16.31.15.72-.23,1h-.8c-.62.3-.78.87-1,1.34l-.63.13-.12,1.11-.69.64-.59-.21v-1a4.94,4.94,0,0,0-1-.92c-.48-.27-.21-.86-.62-1.11-.5-.06-1,.17-1.51-.16l-.08-.57.58-.58c.49,0,.89,0,1.05-.12.47-.45,1.28-.4,1.55-1.18-.1-.27.16-.69-.24-1H124.12c-.06,0-.12.08-.21.16V106l.62.78h1.84c.06,0,.11.1.16.15,0,.36.14.73-.13,1.12l-1.45.07a4.7,4.7,0,0,0-1.13,2.46l-.65.7-.6-.14-.14-1.19-1.27-.73v-.45l-.64-.64-1-.1c-.14-.47-.28-.9.1-1.28h1.33l.88-.84.7-.21c0-.41.14-.79-.11-1.12a2.17,2.17,0,0,0-.41-.09H108.91c-.12,0-.24.14-.36.21v1.36l.72.71h1.85c.15.5.29.92-.08,1.31h-1.38c-.11.68-.63,1.09-1.16,1.63v1.42c-.5.1-.93.28-1.3-.12v-1l-1.31-.86c-.13-.37.12-.78-.29-1.09l-.69.12c0,4.6.08,9.15.12,13.71,0,0,.11.09.23.2.87-.26,1.28-1.12,1.83-1.53.22-.48-.07-.9.34-1.23.31.07.68-.13,1.08.16,0,.46,0,1,.07,1.3l1.19,1.4c.56-.71.92.36,1.48.07v-9.91l.71-.71H215.29c0-.72,0-1.37,0-2l-.33-.33c-.07-.41-.15-.82-.22-1.22h-1.44l-.68-.68.62-.71h1.46l.69-.73c-.26-.44.19-1-.29-1.48H201.58C201.52,104.5,201.47,104.58,201.37,104.65ZM319.05,321.09H217.34c-.06,0-.11.08-.22.16v1.91a14.23,14.23,0,0,1,1.28,1.3,4.61,4.61,0,0,0,1.41,1c-.13.33.14.74-.24,1h-1.32c-.27.41-.74.42-1.13.64v.59c1.15.1,13.5.2,14.16.11.06,0,.11-.1.2-.19l-.06-.58c-.41-.27-1,.13-1.26-.31s-1,.05-1.38-.48c.08-.35-.15-.75.18-1.06l1.09-.13c0-1,1.1-1.31,1.41-2l.07-.94c.49-.15.91-.28,1.3.09v.87l2,2,.69.19c0,.42.14.78-.12,1.18l-1.27.07-1.3.68.14.6h13.69c.47-.74-.27-.91-.51-1.3h-1.35c-.26-.39-1-.55-.54-1.29l1-.11.66-.62V324l.89-.43c.09-.55-.2-1.09.23-1.58.32.09.7-.14,1.06.14l.11,1c.25.28.44.51.55.64l.72.19c-.05.67.4.94.82,1.22.35.06.76-.16,1,.23v.46l-.66.65h-.87l-.36.33c-.47.27-.88-.05-1.22.31v.73H259c.6,0,1.21,0,1.8,0s1.19.19,1.73-.14l.05-.48a10.05,10.05,0,0,0-1.23-.71,1.36,1.36,0,0,0-.64,0l-.88-.68.19-.66h1c.21-.26.56-.5.64-.82a1.67,1.67,0,0,1,.43-.73c.18-.21.44-.44.47-.69s.3-.51.5-.7a2.36,2.36,0,0,1,.64-.32l.72.72v.77l1.76,1.76c.23.07.65-.17.91.23v.45c-.22.21-.43.42-.64.64l-1.44.06c-.33.41-.86.62-.53,1.19a3.26,3.26,0,0,0,1.52.12c.6,0,1.2,0,1.8,0h6.75c.52,0,1.05,0,1.57,0s1.19.19,1.73-.14l0-.4-.63-.84H276l-.84-.64.19-.66h.92c.29-.38.74-.44,1.12-.62a5.11,5.11,0,0,0,.59-2c.33-.23.47-.67,1.18-.55l.52.65-.4.48c.58.32,1.35.31,1.37,1.25,0,.27.44.53.55.65.53.16.95-.08,1.21.32v.44l-.67.68c-.27,0-.71-.13-.83,0-.36.43-1,.31-1.29.74l-.36.47c1.64.11,14,.17,14.68.07.06,0,.11-.1.19-.19L294,327c-.94.06-1.61-.7-2.47-.59-.23-.25-.43-.46-.64-.7l.21-.59H292a1.69,1.69,0,0,0,.87-1.24,1.9,1.9,0,0,0,1.24-.8c.08-.35-.16-.75.18-1.07h1.12c0,.4.06.76.09,1.11a5.34,5.34,0,0,1,.62.64c.16.23.2.52.34.76a3.59,3.59,0,0,0,.37.53c.62.13,1-.1,1.32.28v.49l-.67.6a4.07,4.07,0,0,0-1,.16,8.27,8.27,0,0,0-1.07.65l.21.59h13.55c.06,0,.11-.09.2-.17v-.57c-.72-.17-1.25-.8-2-.65l-.64-.62v-.52l.77-.26,1.91-1.91.05-1c.53-.09,1-.29,1.33.13v.89a2,2,0,0,0,1.24.8c.09.26.19.52.27.77h.52l.61.65v1a3.88,3.88,0,0,0-2.63,1.27c.07.07.12.17.18.17,1.89.1,12.08,0,13.77-.09,0-.27-.08-.52-.11-.77h-1l-.5-.46h-.88c-.64-.67-.64-.67-.53-1.28l.68-.08,2.33-2.32c0-.14,0-.42,0-.68.49-.16.91-.28,1.25,0,.19.53-.1,1.07.2,1.55l.77.26v.5c.39.25.56,1,1.25.55a2,2,0,0,0,.09-.41q0-6.53,0-13.05c0-.12-.14-.24-.21-.37h-.93l-1.09,1.15v.82c-.38.31-.55,1-1.33.58,0-.29,0-.65-.06-.86l-1.57-1.7c-.54.09-1.09-.21-1.55.21v6.74l-.46.49v1.3l.47.62c-.06.56-.48.69-.69,1h-1.34ZM202.38,326.5c-.13.41-.94.54-.49,1.24a1.47,1.47,0,0,0,.4.1q6.54,0,13.06,0c.12,0,.24-.13.39-.22l-1.19-1.11H213.3c-.31-.37-1-.55-.59-1.31H214c.85-.39.74-1.25,1.28-1.66v-1.31l.42-.48-.64-.66H150.22l-.48.44h-.88l-.47-.42H113.28l-.47.4H112l-.76-.63c0-3.35,0-6.64,0-9.94,0-.06-.1-.11-.17-.18l-.48.42h-.9l-1.11,1.17v.81c-.37.31-.54,1-1.33.59l0-.87-1.61-1.74-.62.2v13.54c0,.06.09.12.15.19a1.09,1.09,0,0,0,.75-.86c.12-.7.75-.8,1.27-1l.22-1.23c.45.1.85-.14,1.16.2.1.48-.09,1.06.48,1.37l0,1,.75.66h1.39l.08.63-.67.67h-1.34c-.26.39-1,.55-.58,1.24a119.88,119.88,0,0,0,13.9-.1,9.88,9.88,0,0,0-.87-.68,9.05,9.05,0,0,0-.94-.45c-.42-.05-.87.11-1.29-.13-.11-.42-.26-.84.12-1.22h.88a2.38,2.38,0,0,0,.83-1.23c.18-.52.86-.46,1.22-.81.08-.35-.16-.75.16-1.06l.58-.08.59.6a3.23,3.23,0,0,0,1.22,2.57c.49.09,1-.22,1.49.22v.45a2.66,2.66,0,0,1-1.27.91l1,1.11h11.32s.1-.1.2-.2c-.36-.32-.62-.77-1.2-.75-.3-.63-1-.21-1.38-.48s-.93-.63-.35-1.24h.79l2.15-2.15c.06-.29-.17-.69.19-1l.29,0c.39.26.69.47.84.56l.06,1.08.83.3c0,.66.39.93.82,1.2.35.07.76-.17,1,.24v.45l-.66.66h-.87c-.26.41-.75.4-1.14.64l0,.61a2.24,2.24,0,0,0,1.11.1l12.6,0c.05,0,.1-.1.11-.1l-1-1.19-1-.06c-.37-.44-1-.71-.39-1.32h.89c.26-.34.63-.54.72-1.06.06-.37.55-.66.85-1,.08-.35-.16-.75.18-1l.43-.05a2.5,2.5,0,0,1,1,1.36h.48c.19.36.67.5.68,1.08,0,.26.44.52.62.71a1.76,1.76,0,0,1,1.12.26c.13.57-.4.74-.65,1.09h-1.33c-.25.43-.76.39-1.14.65l0,.58c3.58.27,14,.22,14.32-.07l0-.51a3.93,3.93,0,0,1-.54-.2c-.25-.13-.48-.29-.72-.44-.48-.1-1,.26-1.48-.3.15-.3-.15-.72.21-1l1.09-.11c0-1.05,1.14-1.32,1.41-2,0-.43,0-.72.07-1a1.78,1.78,0,0,1,1.3.12V323l2.09,2.12.6.18c0,.41.14.79-.18,1.2h-1.08l-1.53,1.17c2,.24,11.79.25,14,0,.25-.67-.35-.87-.68-1.2-.5-.09-1,.21-1.49-.2,0-.36-.15-.73-.11-.78l1.35-.93c.11-.37.16-.57.21-.74l.64-.14c.37-.55-.16-1.23.34-1.71.36.06.75-.15,1.09.16,0,.34.08.69.11,1,.64.23,1.24.4,1.33,1.25,0,.28.46.52.63.7a1.65,1.65,0,0,1,1.14.28c.08.54-.41.73-.67,1.07h-.89l-.51.48c-.29,0-.58,0-.88,0-.06,0-.11.1-.19.19l.05.57c1.67.12,13.06.17,14.61.07.06,0,.11-.1.15-.15-.26-.69-1.07-.65-1.53-1.1-.16-.15-.57-.05-.9-.07l-.46-.43a.54.54,0,0,1,0-.92h.88l.66-.65v-.43a2.59,2.59,0,0,0,1.36-1c.07-.35-.17-.75.19-1.05l.34,0,.79.56c0,.53,0,.81,0,.72l1.86,1.87a1.14,1.14,0,0,1,.83.28c.08.55-.42.73-.68,1.07Zm125.93-48.22c0-4.69,0-9.19,0-13.7,0,0-.11-.09-.17-.15a2.58,2.58,0,0,0-2.06,1.13c0,.32,0,.61,0,.86l-.71.67-.58-.17c0-.57-.05-1.07-.07-1.48l-1.22-.64a8,8,0,0,0-.94-.44c-.32-.1-.75.17-1-.3s.43-.73.69-1.06h.9a2.43,2.43,0,0,1,1.56-1.56c.06-.51-.15-1,.15-1.51l.59-.1.64.71v.72c.63.67,1.15,1.2,1.69,1.78l.54-.21q0-7,0-14s-.1-.1-.15-.16l-.26,0L326,250.49c0,.16.22.58-.29.83-.29-.13-.71.15-1-.24v-.91L323,248.6h-.78l.17-.19-.92-.46.17-.66,1.49-.09a3.33,3.33,0,0,1,.5-.91,6.18,6.18,0,0,1,1.06-.67v-.87l.55-.55.78.48v1.11l1.54,1.41c.05,0,.14,0,.21,0l.4-.12a1.53,1.53,0,0,0,.1-.41q0-6.53,0-13.05c0-.12-.13-.24-.21-.37h-.9c-.37.42-.91.73-1.11,1.15l-.07,1c-.51.11-.93.28-1.31-.11v-.9a4.44,4.44,0,0,0-1.78-1.13h-.67c-.28-.37-1-.54-.6-1.23.51-.37,1.19.16,1.67-.31,0-.36.05-.72.07-1.05l1.3-.25c.08-.59-.14-1.12.16-1.6.68-.25.88.34,1.2.68,0,.85,0,.85.22,1h.59a1.58,1.58,0,0,0,.86,1.39l.59-.18c0-4.84,0-9.64,0-14.44,0-.06-.08-.11-.12-.17l-.29-.07-1.83,1.82,0,.47-.66.88-.64-.19-.08-1.54-.69-.18-1.28-1.27a3.07,3.07,0,0,0-1.59.16v53.48q0,4,0,8.1c0,.13.13.25.2.37l1-.91h.7l1.72-1.56c.08-.42-.15-.82.27-1.14.3.14.7-.15,1,.18,0,.34.07.69.11,1a3.38,3.38,0,0,1,1.06,1.48Zm0,16.15c0-4.94,0-9.74,0-14.54,0-.05-.1-.1-.16-.16l-.24,0-1.85,1.85v.63l-.66.73-.69-.26v-1.55c-1,.07-1.33-.95-2.1-1.45-.29.15-.7-.16-1,.19v14.6a2.65,2.65,0,0,0,1.72-.06l.06-.9,1.12-.77c.38-.73,0-1.28.39-1.74l.42,0,.78.62v1.54l.72.15a3.51,3.51,0,0,0,.26.72,3.61,3.61,0,0,0,.58.59Zm-6.61,1.48c-.2,2.12-.2,11.8,0,13.89h1c.58-.44.88-1.11,1.56-1.32.13,0,.26-.1.38-.15.28-.52-.25-1.19.32-1.65.55-.08.75.39,1.09.67v1c.45.42.94.88,1.42,1.35.26.25.51.24.85,0,0-4.43,0-8.91,0-13.39,0-.12-.14-.24-.21-.37h-1.38l-.63.68c0,.44,0,.94-.07,1.42a1.16,1.16,0,0,1-1.28-.05c0-.5-.05-1-.07-1.42l-1.18-.6ZM107.2,281.74c-.47-.52-.92-1-1.34-1.52a2.22,2.22,0,0,1-.21-.6l-.65.15v14.6a.55.55,0,0,0,.82,0l.06-.87,1.3-.89c.1-.61-.18-1.15.2-1.61l.44,0,.77.62V293l.81.81.15.72a3.72,3.72,0,0,1,.89,0,3.06,3.06,0,0,1,.73.43c0-.29.08-.5.08-.71V280.08c0-.13-.12-.25-.22-.45-.46.13-1-.11-1.47.15a1.45,1.45,0,0,0-.64,1.09c-.63.29-.2,1-.47,1.38s-.64.93-1.25.34Zm4-49.23v-15.2c0-.05-.1-.11-.18-.2h-1.44a4.64,4.64,0,0,0-1.13,2.36l-.63.8-.65-.18v-.87l-2.12-2.11a1.93,1.93,0,0,0-.14.54q0,7,0,13.95c0,.11.15.22.26.36l.57-.14.12-1,1.26-.82c.11-.46-.13-.85.19-1.17.67-.24.87.33,1.22.71v.83a5.78,5.78,0,0,1,.65.67,6.92,6.92,0,0,1,.46.9h.88Zm-6.17-46.46c-.08.94-.2,13.52-.13,14.13,0,0,.11.1.2.18h.59a1.48,1.48,0,0,1,1.37-1.41c.08-.44.16-.85.24-1.26.43.1.82-.14,1.15.19,0,.34.08.69.11,1l.8.8.14.72a4.45,4.45,0,0,1,.9,0,2.88,2.88,0,0,1,.67.41c.07-.87.19-14.59.13-15.05,0-.06-.11-.1-.26-.24-.21.85-1,.24-1.56.67a11,11,0,0,0-.65,1.15,14.13,14.13,0,0,0-.43,1.42c-.4-.2-.81.1-1.11-.26l-.09-.91-1.24-.81-.17-.78Zm0-31.07c-.08.93-.19,13.54-.13,14.13,0,.06.11.1.17.16a.52.52,0,0,0,.73-.19c.08-.35-.16-.75.18-1.05l1.1-.12.11-1.08.63-.65.66.66v.87l.88.92.18.81c.63-.4,1,.16,1.56.27.24-4.07.18-14.93,0-15.13-.53-.29-.73.09-.87.21-.46.27-.87,0-1.17.26s0,.84-.3,1.26a3.64,3.64,0,0,0-.43,1.34c-.43-.1-.83.14-1.15-.23v-.86a2.64,2.64,0,0,0-.46-.48,8.09,8.09,0,0,0-.87-.45l-.15-.68Zm0-31.54c-.2,2-.21,12,0,14.32l.66,0c.16-.31,0-.76.42-1s.7-.42,1-.6c.16-.38-.11-.79.3-1.12.31.1.69-.14,1.14.23-.53.69.32,1.07.44,1.7s1,.67,1.48,1.13c.22.23.53.14.75-.12v-14.8c0-.06-.07-.12-.15-.24a2.44,2.44,0,0,1-.63.39,3.16,3.16,0,0,1-.81,0,4.57,4.57,0,0,0-1.15,2.48l-.62.69-.66-.66-.07-1-1.27-.23c-.13-.44.11-.83-.22-1.19Zm6,139.87c.2-2,.19-13.05,0-15.16l-.52.41-1.39.07c-.43.4.08,1-.39,1.28s0,1-.48,1.38c-.14,0-.29,0-.44,0l-.62-.08c0-.42-.08-.77-.13-1.18l-.64-.13c-.3-.43-.34-1.08-1-1.33l-.52.2v14c0,.06.09.11.21.26l.66-.11c.11-.46-.13-.86.18-1.16s.91.17,1.2-.33c.08-.51-.19-1,.17-1.5l.49-.06.73.63v1a3.43,3.43,0,0,1,1,1.4Zm-1.43-16.07h.82c.31,0,.32.6.75.25V233.12c0-.06-.07-.12-.15-.24l-.69.44h-1.23l-.62.65c-.09.54.2,1.08-.21,1.55h-1c-.1-1.09-1.14-1.51-1.7-2.26l-.57.11a4.77,4.77,0,0,0-.09,1.73c0,.52,0,1.05,0,1.58v7c0,.6,0,1.21,0,1.8s-.19,1.18.15,1.77l.64,0,.15-.66c.41-.42.84-.84,1.25-1.27,0,0,0-.13,0-.09l.06-1c.67,0,.67,0,1.32.59v.88C109.08,246.09,109,246.92,109.68,247.24ZM105,170.78c0,4.63,0,9.14,0,13.64,0,.05.1.1.19.18h.59a1.5,1.5,0,0,1,1.4-1.42q.06-.57.12-1.08l.63-.59.66.66v.9c.52.42.46,1.24,1.13,1.57h.87c.23.21.23.21.65.28v-14.7a3,3,0,0,1-.72.45,1.9,1.9,0,0,1-.62,0l-1.28,1.05c-.12.64.2,1.19-.27,1.67-.32-.14-.71.15-1.11-.23v-1.41a3.69,3.69,0,0,1-.84-.37,6.51,6.51,0,0,1-.75-.73Zm6.16,139c.19-2.07.2-12.08,0-14.33l-.74.46h-1.21l-.33.35c-.48.82,0,1.39-.53,1.87-.31-.11-.69.14-1-.16l-.12-1c-.29-.5-.86-.53-1.24-.83s-.6-.39-1,0v1.1q0,6,0,12.1a2.23,2.23,0,0,0,.18.58l2-2c.05,0,.07-.12,0,0,.16-.49-.08-.9.3-1.18h.47l.67.71c0,.39-.14,1,.41,1.28a1.2,1.2,0,0,0,.76,1.11Zm-6-45.36c-.2,2.17-.19,11.8,0,13.84h.64a1.48,1.48,0,0,1,1.37-1.41l.23-1.26c.43.08.82-.13,1.13.16a3.65,3.65,0,0,0,1.3,2.55,2.14,2.14,0,0,1,.67,0,3.32,3.32,0,0,1,.67.39c.2-2.2.19-12.27,0-14.33H110c-.64.48-1.06.78-1.43,1.05v.91l-.66.74-.62-.15c0-.56-.06-1.07-.09-1.63l-1.11-.09C105.71,265,105.53,264.54,105.09,264.43Zm4-48.71h2s.1-.1.26-.26c0-4.44-.08-9-.13-13.55,0-.05-.1-.09-.19-.18-.61.06-1.07.75-1.76.51l-.66.65c-.06.51.16,1-.16,1.53h-1c-.42-.55.1-1.22-.35-1.71-.5-.06-1,.06-1.4-.46-.06-.08-.39,0-.67,0,0,4.4,0,8.74,0,13.07,0,.12.14.24.22.36h.39l1.62-1.56c.09-.39-.15-.79.18-1.09h1.25C108.22,214.05,109.22,214.65,109,215.72Zm1.54-62.6c.2.2.2.2.62.27V139.32c-.46-.33-.68,0-1,.18a2.45,2.45,0,0,1-.92.16l-.74.61v1.38l-.71.71c-.14-.42-.65-.52-.67-1.09,0-.28-.44-.57-.71-.82s-.54-.7-1-.84l-.41.12c-.25,4-.19,13.08.1,13.37l.48,0,1.59-1.68c.07-.24-.17-.63.13-1,.68-.28.86.34,1.2.66-.12.78.42,1.33.68,2Zm215.47-47.5,1.07,1.07h1.05a1.71,1.71,0,0,0,.12-1.12c0-.34.16-.73-.2-1.08-.54,0-1.12,0-1.7,0-.12,0-.23.15-.34.23Zm-218.89-1c-.37-.29-.75-.15-1.09-.15s-.73-.16-1.06.14c0,.64,0,1.29,0,1.93,0,.06.1.11.16.17h.53l.7-.83.76-.18Zm221.15,222c-1-.35-1.56.37-2.29.6l.15.65a7.94,7.94,0,0,0,2.14-.12ZM105,327.85c.61,0,1.18,0,1.76,0a1.15,1.15,0,0,0,.37-.15c-.06-.1-.09-.24-.18-.3-.39-.27-.81-.51-1.21-.78a.53.53,0,0,0-.74.05Z"/><path d="M115.83,41.9c-.06.5-.1.86-.13,1.19-.09.06-.14.15-.2.15h-3.57l-.4-.4h-2.81s-.12.09-.15.16a.49.49,0,0,0,0,.21q0,9.35,0,18.69c0,.05.08.11.17.21h13.6c.08-.09.15-.13.18-.2a.81.81,0,0,0,0-.22V57.38l.6-.22.73.69v4.07c.61.61.84,0,1.19-.22h2.54l1.59-.89h1.12c.66.19.66.88,1,1.34H301.92a3,3,0,0,1,1-1.34c.58-.22.76.7,1.39.46s.77.62,1.4.47a6.66,6.66,0,0,1,1.62,0l.49.4h1.46a3.74,3.74,0,0,0,.14-1.58c0-.52,0-1.05,0-1.57V57.35l.68-.19.63.83V97.12c-.37.32-.76.06-1.07.18-.09-.09-.19-.14-.19-.2q0-16.2-.05-32.4c0-.06-.07-.12-.15-.23h-1.37l-1.62.86h-2.06l-.4.4c-.51.07-1,0-1.56,0l-.07-1.63a1.28,1.28,0,0,0-.42-.17H132.66a2.83,2.83,0,0,0-1.6.17v1.41c-.13.12-.18.21-.24.21h-1.76l-.51-.45H126.5a8.74,8.74,0,0,0-1.88-.89,2,2,0,0,0-.6,0,1.73,1.73,0,0,0-.15.22.87.87,0,0,0,0,.23v31.7l-.67.67h-.44c-.08-.11-.23-.22-.23-.34q0-8.44,0-16.89V64.17c-.14-.11-.19-.2-.25-.2H108.78a1.52,1.52,0,0,0-.18.18.46.46,0,0,0,0,.2V97c0,.06-.07.12-.11.18a1.61,1.61,0,0,1-1.06.07s-.12-.09-.15-.16a.49.49,0,0,1,0-.21q0-16.09,0-32.2s-.08-.11-.16-.21h-2.26l-1.51.83h-1.64l-.51.47h-.91l-.61-.66-.11-1a.93.93,0,0,0-.22-.13A.87.87,0,0,0,99,64H67.51a.9.9,0,0,1-.19,0l-.64-.62c-.16-.6.42-.75.59-1.12h32a3,3,0,0,1,1-1.37H101l1.64.86h2.45l.55.44h1.47c.19-2.46.24-12.47.1-20-.3-.33-.7-.17-1-.17s-.74-.14-1.15.16V60.49l-.68.77-.49,0c-.07-.12-.19-.24-.19-.37q0-8.44,0-16.88V42.55c-.54-.42-.78-.1-1.12.24h-2.7l-.41.41H96c0-.4-.06-.76-.09-1.11-.06-.06-.1-.13-.16-.16a.49.49,0,0,0-.21,0H68.74s-.11-.08-.22-.16v-1a1.2,1.2,0,0,1,.4-.16H95.8c.07-.39.15-.8.23-1.21.06,0,.11-.13.17-.13h3.12l.39.4h1.61a9.11,9.11,0,0,0,2.13,1,5.3,5.3,0,0,0,.14-1.9c0-.67,0-1.35,0-2V8.34a1.17,1.17,0,0,1,1.33-.06v4.58a.59.59,0,0,0,.86.07,13.73,13.73,0,0,1,1.33-.73h2.53l.44-.43H112c.3.51.1,1,.18,1.54.12.07.23.2.36.21.6,0,1.2,0,1.8,0H321.05V12c.53-.46,1.08-.17,1.59-.26l.49.45h2.68c.33.55,1,.46,1.46.88.15.15.56,0,.83,0,.39-.51.17-1.05.2-1.55s0-1.2,0-1.8a3.23,3.23,0,0,1,.15-1.56h1a1.33,1.33,0,0,1,.16.41q0,46.49,0,93c-.37.4-.8.23-1.22.13a.43.43,0,0,1-.13-.17.81.81,0,0,1,0-.22V15.09c-.48-.43-1-.13-1.54-.22l-.5.45h-.86l-.51.46h-2.66l-.48.42-.62-.6-.14-.69H112.28l-.61.86H108l-1.5-.88h-1.3c-.07.14-.19.27-.19.39q0,12.27,0,24.54c0,.21,0,.42.07.68h2c.07-.07.14-.11.17-.18a.53.53,0,0,0,0-.22V35.83c.36-.43.79-.22,1.21-.15a.58.58,0,0,1,.14.17.81.81,0,0,1,0,.22v3.81c.58.22.58.22,1.12-.23h2.22l.5-.45h3.24l.22,1.22c2.94.23,187.31.31,201.54.1.07-.4.13-.81.21-1.27h2.88l.32.32c.68.26,1.5-.22,2.11.32.45.41,1.25-.1,1.54.64.06-.05.16-.08.16-.12.05-1.55.1-3.11.14-4.65.33-.36.74,0,1.06-.21.1.16.23.28.23.4,0,20.19,0,40.38,0,60.74l-.64.61-.54-.07c-.05-.13-.16-.25-.16-.38q0-26.23,0-52.46c0-.6,0-1.2,0-1.8,0-.05-.09-.11-.14-.16-.43-.23-.69,0-1,.39h-2.74l-.41.41c-.95,0-1.9,0-2.86,0-.06-.49-.1-.84-.14-1.19a1.24,1.24,0,0,0-.39-.16Z"/><path d="M45.06,317.42l1.26.14c.23.65,0,1.33.11,1.93l-.42.42v2.47l-1,2,.72.77H96.6c.4.38.16.78.24,1.13-.11.08-.23.22-.35.23-.67,0-1.35,0-2,0H38.92l-.61-.85,0-.32c0-.06.1-.16.15-.16h4.09l.61-.74c0-1.35,0-1.35-.84-2.66v-2.24l-.45-.47v-.91l.66-.65h.88c.09-.12.24-.23.24-.34,0-.6,0-1.2,0-1.8V116.41c-.54-.41-1.08-.06-1.62-.3L41.53,115l.37-.42v-.86l.46-.5V111l.85-.85v-1c-.08-.08-.13-.18-.18-.18H39c-.25-.39-1-.56-.51-1.32h5.07c.37-.79,0-1.5.23-2.24H18.65c-.33.43-.16.71.22,1,.17.92,0,1.89.11,2.84.49.27.34.76.43,1.18a4.11,4.11,0,0,0,.58,1l-1.5,1.21V320.87l1.24.72c.08,1,.08,1-.77,2.42v2.56l-.88,1.54.63.64h82.91c.43.69-.1.9-.36,1.21-.06.05-.11.13-.17.13H12c-.38-.4-.25-.82-.12-1.24a3.05,3.05,0,0,1,1.31-.11c.52,0,1,0,1.57,0H16c.38-.43.17-.9.21-1.32s0-.75,0-1.14l-.46-.48v-.88l-.43-.47v-2.71l.62-.61.68-.14V112.76c-.5-.21-1-.3-1.3-.84v-3.14l.43-.47v-.88l.44-.47V105.6c-.13-.08-.25-.2-.37-.2H12c-.06,0-.12-.08-.23-.15v-1l.61-.67h4.5l.58-.51.93.47H43.09c.33-.49.1-1,.15-1.42l-.86-1.6V98.44L41.94,98V96.49l.71-.58h.86c.07-.14.19-.27.19-.39q0-7.32,0-14.64c.36-.29.53-1,1.22-.61a.88.88,0,0,1,.12.17.81.81,0,0,1,0,.22V95.72c.43.29,1,.36,1.31.87V98l-.39.47V101l-.46.53v.85c-.21.3-.63.49-.46,1,.12.07.24.21.36.21H68.08l1.22.61c.32.53-.2.74-.46,1a1,1,0,0,1-.17.14.81.81,0,0,1-.22,0H45.28c-.45.47-.14,1-.23,1.54l.63.67H70.54c.57-.57-.09-.78-.28-1.16v-.84l-.39-.38V102.6l-.46-.59v-1.77c.12-.27.45-.51,1.31-.91V69.57l.7-.61.64.59V99.29c.38.44.79.11,1.23.35a1.8,1.8,0,0,0,.24.65c.17.24.42.41.33.8l-.43.48v2.21l-.46.5v2.23l-.45.49c0,.16,0,.31,0,.45s.25.18.38.18H96.79v1.19a1.24,1.24,0,0,1-.39.16H72.31c-.31.2-.23.52-.23.8q0,6,0,11.94c0,.21,0,.42,0,.6s.15.15.21.17a.88.88,0,0,0,.23,0H96.17l.66.67v.89c-.1.08-.21.23-.32.23-7.05,0-14.11,0-21.16,0H73.2c-.12.13-.22.18-.22.24,0,.6,0,1.2,0,1.78l.46.51v2.23c.51.28.44.74.44,1.41l-.91.6h-.69c-.07.13-.19.25-.2.38,0,.52,0,1.05,0,1.57V302.58l1.67.09.16.58-.48.51v2.7l-.4.4v1.76l-.45.54.61.68H96.63c.37.39.23.81.1,1.23-2.28.16-24.69.22-30.78.07-.34-.3-.1-.7-.18-1.05.11-.08.21-.24.32-.24,1.49,0,3,0,4.43,0a.57.57,0,0,0,0-.84,13.22,13.22,0,0,1-.72-1.34v-2.07l-.43-.43v-2.34c.35-.33.75-.09,1.1-.2.07-.12.2-.24.2-.36V131.37c-.25-.59-.86-.71-1.34-1v-2.27l.39-.37v-2.26c.32-.34.69-.56.39-1.07,0,0,0-.09-.1-.09-1.4,0-2.81,0-4.25,0l0-1.07.53-.58a.83.83,0,0,1,.21-.14.87.87,0,0,1,.23,0H70.5c.09-.09.16-.13.19-.2a.49.49,0,0,0,0-.21V109.26c0-.06-.08-.12-.16-.22H45.23l-.17.18.87.84v3.23c.69.33.35,1,.55,1.4l.31.31-.54,1.13-1,.12a1.2,1.2,0,0,0-.16.4Z"/><path d="M60.14,227.43h5.41l2,2a15.2,15.2,0,0,1,0,1.79c-.91,1.37-.91,1.37-1.72,1.73l-.06.43c.24.49.91.32,1.2.8s0,.94.59,1V237c-.3.51-.52,1-.8,1.35a3.06,3.06,0,0,1-1.39,1c-.68.29-.83.4-1.37,0-.36-.25-.82-.21-1.13-.6-.12-.15-.55-.07-.86-.1l-.52.46H59.27a4.73,4.73,0,0,1-1.59-2v-1.8c.56-.55.53-1.7,1.72-1.67l.05-.64c-.87-.39-.87-.39-1.77-1.76v-1.95a10.55,10.55,0,0,0,1.2-1.1C59.23,227.79,59.9,228,60.14,227.43Zm5,2.25h-5l-.59,1.19,1.15.57h3.82l1.26-.66C65.85,230.2,65.35,230,65.09,229.68Zm0,7.65.61-.62v-1l-1.07-.5-1.17.61c.28.46-.28.58-.35.89l.62.64Zm-5.6-.3c.69-.29,1.23,0,1.7-.3.08-1,.08-1-.17-1.2a5,5,0,0,0-.67,0c-.27,0-.59-.15-.86.18Zm3-3.14-.16-.16a2,2,0,0,0-.14.3s.09.1.14.15Z"/><path d="M194.18,58.57H193l-.34.34c-.41.11-.87.29-1.2-.12s-.86-.07-1.29-.36l-.13-.59-.76-.77c-.29-.83.17-1.76-.29-2.59-.49.46-.16,1-.26,1.56l-.42.5v1l-.62.47c-.23.17-.44.37-.68.52a9.6,9.6,0,0,1-.93.44h-1.16l-.47-.43H184l-1.12-1.12v-.88l-.45-.49v-3.6l.4-.4c0-.42.05-.93.08-1.43l1-1c.32-.24.95,0,1-.57h1.3c.48.53,1.46.41,1.73,1.4a6.09,6.09,0,0,1,.47,1.59c.64.43.3,1.09.4,1.64,0,.11.16.2.24.3,0-.06.15-.11.15-.16,0-.9,0-1.79,0-2.84a11,11,0,0,0,1.25-1.15c.35-.42,1-.24,1.27-.78h.75l1,.51L195,51.12V57C194.65,57.48,193.88,57.65,194.18,58.57Zm-3.22-3,.45.48a5.24,5.24,0,0,0,0,.69,1.12,1.12,0,0,0,.17.37l.36,0,1.21-1.07V52l-.63-.59h-.92L191,52.64Zm-4.5.94V52c0-.65,0-.66-.8-.67h-.85c-.23,2.37-.24,5,0,5.31s.42.64,1,.53Z"/><path d="M7,207.16H5.24l-1.62-1.58c.17-.48-.28-.64-.43-.92s.18-.54.32-.79a2.67,2.67,0,0,0,.16-1c.37-.73,1.17-1.09,2.15-1.57h5.23c.46.23.72,1,1.45.94l.55,1.27v1.51c-.45.46-.41,1.36-1.19,1.64a16.2,16.2,0,0,1-1.91.77,3.08,3.08,0,0,1,.6.14c.13,0,.21.2.34.27s.39.15.73.28l1.46,1.51v2.18l-1.57,1.61H10.6l-.32.33a1.6,1.6,0,0,1-.4.11H7a1,1,0,0,0-1.06-.45l-2.11-2.11c-.35-.3.14-1-.63-1.16v-1.06l.74-.58H5.38a16.91,16.91,0,0,1,0,1.81l.67,1.3.63-.09v-2.15c.47-1.13,1.67-1.26,2.3-2-.59-.71-.86.23-1.48.22Zm-.38-1.8H9.7l.47-.45c.36-.08.76.16,1.06-.17v-1.13l-1.54-.08-.45-.4H7c-.31.63-.93.32-1.39.5l-.57.61C5.32,204.93,6.16,204.84,6.57,205.36Zm2.68,6.75.47-.45h.89l.63-.62v-1.18c-.61,0-1.18,0-1.76,0-.27,0-.58-.13-.86.18v1.43Z"/><path d="M214,36.94h-3a2.45,2.45,0,0,1-.13-1.74h1.67l1.4-.72v-.54c-.59-.3-1.26-.08-1.9-.15-.61-.48-1.49-.59-1.9-1.4-.48.65-.08,1.34-.39,2.18l-.28.35v.92l-1.29,1.07h-2.48L204,35.19V33.64l-.46-.53V31.77l.44-.46V29.64c.48-.84.77-1.7,1.85-2.15h1.91L209.41,29a1.63,1.63,0,0,0,.67,1.13c.43-.24.17-.66.21-.84l1.82-1.81h2.07l2,2.33v4L215.09,36l-.54.07Zm-6.34-1.83c0-.72,0-1.24,0-1.77a1.17,1.17,0,0,1,.14-.38l.29-.31v-.88l-.46-.52V29.87c-.36-.09-.42-.62-1-.58-.37,0-.48.44-.77.62v4.63l.62.57Zm6.86-3.81c-.48-.8-.54-1.75-1.6-2.09l-.76.75v1.36c.21.2.43.41.66.65h.95Z"/><path d="M213.69,0h2.77a2.7,2.7,0,0,1,.07,1.76h-2.31l-.74.68V3c.57.22.57.22,1.1-.21.27.36.8.32,1.06.6s.89.16,1.1.62c.61,0,0,.9.75,1,.09-.66,0-1.32,0-2l.44-.49v-.7c0-.07,0-.16,0-.2L219.5.07h2.81l1,1c.24.49-.08,1.2.56,1.55V4.25l.41.53-.39.39V6.94l-.46.51V7.9l-1.66,1.57H220c-.42-.51-1.25-.46-1.57-1.11.31-.73-1.06-.76-.71-1.59-.4.55-.8,1.11-1.19,1.67s-1.12.61-1.6,1h-1.13c-.48-.42-1.13-.54-1.61-1s-.46-1.06-1-1.44V3l.43-.47v-.4ZM222,6.54V3.1l-.64-1.23h-1l-.57.63V7c.14.13.23.25.35.34s.34.24.52.37C221.29,7.46,221.58,6.91,222,6.54Zm-7.75,1.15c1-.18.9-1.15,1.31-1.54l-.45-1.09c-1.89-.13-1.89-.12-2.11.13V6.54C213.47,6.91,213.77,7.45,214.28,7.69Z"/><path d="M181.73,340.46h4.94c.31.2.23.51.23.8s0,.57,0,.86a4.82,4.82,0,0,1-1.83.13c-.52,0-1.05,0-1.55,0a1.1,1.1,0,0,0-.12,1.23,3.22,3.22,0,0,0,1.31.12,1.82,1.82,0,0,0,.36.2c.9.25,1.41,1,2,1.59.47-.42.05-1,.25-1.45a2.28,2.28,0,0,0,.44-1.34c.7-.71,1.39-1.39,2.16-2.15h2.54s.11.09.2.18v1.54a20.29,20.29,0,0,1-2.45.09l-.59,1.15c.49.62.78-.17,1.18-.26s.64.66,1.17.45l1.62,1.54V348a7.51,7.51,0,0,0-1.21,1.14c-.34.47-1.11.11-1.18.77H190a11.48,11.48,0,0,1-1.24-.65,8.77,8.77,0,0,1-.93-.84v-.88a5.22,5.22,0,0,1-.44-.63,2.67,2.67,0,0,1-.17-.65c-.13.17-.26.27-.29.39-.11.48.23,1-.24,1.47-.32.3-.19.86-.63,1.09l-1.3.67h-2.1a1.74,1.74,0,0,0-.42-.36,2.63,2.63,0,0,0-.57-.14l-.49-1.05.53-.67h.85l.67.49c.69.41,1.13-.72,1.89-.57v-1.5l-.73-.73h-2.8c0-1.63,0-3.18,0-4.73C181.58,340.56,181.67,340.51,181.73,340.46Zm9.52,7.62a2.85,2.85,0,0,0,.15-1.54c0-.35.15-.74-.19-1.13-.52,0-1.1,0-1.68,0-.12,0-.24.13-.36.2-.21.63.25,1.06.42,1.58a1.62,1.62,0,0,0,.84.92Z"/><path d="M66.5,204.41c-.68.19-.82-.61-1.35-.4l-2.74-2.66c-.12,0-.34,0-.4,0-.37-.47-1.1-.36-1.43-.88l-.65.65v1.8l.44.47v.44c-.43.47-1,.14-1.62.26l-1-1.36v-2.13l.79-.41.07-.84,1.26-.66h1.6c.56.46,1.4.62,1.87,1.32,1-.06,1.1,1.07,1.94,1.28.2-.65,0-1.32.15-2.18l.85-.63-.1-.64-.64-.13a4.42,4.42,0,0,0-.76-.73,10.41,10.41,0,0,0-1.32-.59l-1.25,1.37H61.05l-.47.43-.66-.65v-.9a3.39,3.39,0,0,1,1.75-1.27l0-.66-.69-.15-1.07-1.1v-.91l.63-.55c.33.15.82.22,1,.5.56.71,1.58.79,2.06,1.61.4-.29.75-.72,1.17-.82.58-.15.72-.74,1.33-.93h1.2a.53.53,0,0,1,.1.78c-.46.58-.54,1.51-1.56,1.59-.21,0-.39.36-.67.64l.76.17a4.82,4.82,0,0,1,1.53,2l-.76.76c0,.48.6.55.79,1.43v3.55Z"/><path d="M211.44,58.56l-.64-.66.41-.48v-.88l2.89-2.83.73-1.47c-.05-.45-.46-.58-.67-.88h-1.8l-.47.44h-.45c-.45-.45-.13-1-.22-1.49.33-.74,1.18-.75,1.69-1.21h1l2.15,1.08.5,1.17v1.46L215.47,55l-1.54,1.6c.49.31.94.15,1.37.18s.74,0,1.16,0l.28.79c.27.18.49.11.77-.08s.37-.77.64-1.09a3.88,3.88,0,0,1,.73-.58v-.92l-1.8-2.54c0-.53.44-.64.63-.94.14,0,.31-.09.42,0,.32.14.5.57.94.44a9.75,9.75,0,0,0,.49.9,3.25,3.25,0,0,0,.46.45c.51.08.73-.12.65-.69l1.24-1.08h.88l.61.59c0,.29,0,.48-.09.56a16.88,16.88,0,0,0-1.24,1.3c-.14.19-.12.51-.32.76a.94.94,0,0,0,0,1.2c.32.47.4,1.08.94,1.42a4,4,0,0,1,.72.71c-.06.25-.1.39-.14.52s-.11.11-.17.11h-1.74c-.26-.25-.47-.46-.68-.68v-.49l-.59-.23-1.24,1.4Z"/><path d="M151.58,351.73l-1-.05c-.33-.54,0-1.07-.16-1.4l.81-1.54c0,.08,0,0,0,0L150,347.44v-4.09a6.9,6.9,0,0,0,.77-.76,2.48,2.48,0,0,0,.28-.76l.51,0,1-.92h.88l.33-.33c.72-.51,1.19.27,1.8.35a1.83,1.83,0,0,0,.87-1.16c.11-.44.63-.78,1-1.16l.74.73v1.35l-.88.93a4.13,4.13,0,0,1,1.31,1.74v4.25a7.6,7.6,0,0,0-1.33,1.25c-.42.59-1.19.54-1.6,1.08h-2.73c-.2.27-.53.54-.59.86S151.81,351.35,151.58,351.73Zm-.29-6.31.75,1.34.45,0c.36-.74.71-1.5,1.1-2.24a10.13,10.13,0,0,0,1.25-2.1c-.71-.53-1.21.14-1.78.33a1.37,1.37,0,0,0-.85.9A15.43,15.43,0,0,1,151.29,345.42Zm5.39-2c-.5.59-1,.8-.85,1.34-1,.68-1.09,1.94-1.78,2.82-.07.09.09.38.14.56h.95c.38-.55,1.25-.39,1.57-1.13l.06-1.38.39-.39-.4-.47Z"/><path d="M62.62,220.19h2.7c.77.76,1.45,1.44,2.24,2.24V224l-.44.47v.5l-.77.26-.8.8H64.22l-.49.45H61.49l-.4-.4L59.65,226c-.64-.64-1.27-1.28-1.95-1.95v-1.66L60,220.18h1.84l-.48-.63v-6.44l.62-.55.69.68Zm-1.57,4.08h3.13l.48-.45c.35-.08.74.16,1-.16l.08-.57-.69-.64h-.9l-.48-.4H61.44c-.3.63-.92.31-1.38.49l-.58.61C59.81,223.83,60.64,223.76,61.05,224.27Z"/><path d="M100.68,103.64c.18.47.95.22,1.12.79s-.4.58-.62.92H74c-.33-.25-.1-.65-.17-1l.62-.67Z"/><path d="M104.72,101.79h-.9c-.07-.12-.21-.24-.21-.36q0-12.14,0-24.26V66l.67-.68.61.61v35.71C104.88,101.68,104.78,101.74,104.72,101.79Z"/><path d="M182,54.75v2.69l-.84.83-1.28.73h-1.48a4.62,4.62,0,0,1-2.24-1.61c.15-.44-.3-.61-.46-.91-.12-.77.38-1.33.67-2,.18-.41.19-.4.15-1.22l-.34-.34V50.59l1.15-.81-.13-.13,1.19-.52h1.54a5.35,5.35,0,0,1,2,1.61V53l-1,.69Zm-4,1.74.63.72h.92l.63-.64V55.7l-.66-.82c-.5.23-1-.13-1.52.26ZM179.07,51c-.41.37-.8.71-1.19,1l.68.68c.35,0,.74.15,1.1-.16v-1Z"/><path d="M240.27,59H239.1a13.19,13.19,0,0,1-1.64-1c-.47-.41-.45-1.07-1-1.46v-5c.23-.44.85-.74,1-1.45s1.08-.4,1.34-1h1.39c.44.5,1.4.42,1.61,1.23.15.54.75,1,.46,1.63l.45.49v3.14l-.45.49v1.33l-1.13,1.13C240.72,58.43,240.5,58.77,240.27,59Zm-.65-1.8.87-.6V51.73a.42.42,0,0,0-.05-.2.81.81,0,0,0-.16-.16,3.27,3.27,0,0,0-1.54.13v5.07C239,56.75,239.14,57.18,239.62,57.21Z"/><path d="M38.5,217.94l-.64-1.25v-1.61c-.69-.82-.72-.82-1.32-.45l.36.36a1.63,1.63,0,0,1,0,.59c-.37,1.08-.77,2.16-2.09,2.47-.12,0-.21.2-.35.34H32.66c-.23-.07-.37-.59-.91-.39-.36-.43-.75-.85-1.09-1.32a2.87,2.87,0,0,1-.45-.93,2.2,2.2,0,0,1,0-.68l.45-.49v-.89c.31-.32.61-.65,1-.95s.86-.19,1.08-.62h4c.23.55.86.47,1.28.75s1.07.41,1.14.86c.11.6.57.83.91,1.28v2.34a3.11,3.11,0,0,0-.78.34A.76.76,0,0,1,38.5,217.94Zm-5.83-3.57c-.25.34-.75.51-.67,1.06.42.75,1.25.86,2,1.24l1.22-1.17c-.08-.46.14-.87-.26-1.13Z"/><path d="M67.57,175v1.56l-2.29,2.3h-2l-.41.41H61.51L61,178.8h-1.3l-2.07-2V175l2-2h6Zm-6.52,2h3.13l.48-.45c.36-.08.75.16,1.06-.17v-1.14l-1.54-.07-.45-.4H61.45c-.31.62-.92.34-1.05.38l-.94.69C59.81,176.54,60.63,176.48,61.05,177Z"/><path d="M59.92,76.07h1.29V74.28l1.63-1.74h2.74a7.62,7.62,0,0,1,2,2.38v1.83l-1,1.59-1.08,0-.68-1.14c0-.24.58-.43.92-.9l0-.85-.63-.7c-.59-.09-1.24,0-1.85,0-.1.1-.2.16-.2.21,0,.9,0,1.79,0,2.74l-.75.63H58.7l-1-1.28V73.74l.57-1.14c.29-.18.66-.06,1,0l.64.63Z"/><path d="M30.2,208.3l.46-.5v-.94l.71-.22.88-.84H34l.34-.33a3.13,3.13,0,0,1,1.49-.07l.37.36h1.65c.83.62,2.08.68,2.18,2v1.7l-1.83,1.82-.8.37H33.14l-.47-.43h-.83A4.83,4.83,0,0,1,30.2,209Zm6.53,1.11h.9l.6-.61-.55-1.14h-5c-.2.3-.64.42-.63,1.08,0,.19.42.35.63.64l1,.08.4.4h2.24Z"/><path d="M218.65,36.94l-1.57-1.63V29.54l.44-.48V28.6l1.17-1.1h2.23l1.62,1.85.38.78v1.59l.46.5v.43l-.45.48v1.33l-.45.48v.79c-.22.47-.76.76-1.12,1.21Zm.9-1.8c.35-.08.75.16,1.14-.23V33.55l.39-.38V31.26l-.39-.39V30c-.34-.28-.48-.81-1.25-.69l-.54.59v4.57Z"/><path d="M32.82,224.72A4.16,4.16,0,0,1,30.68,223c.13-.37-.32-.54-.48-.84a2.14,2.14,0,0,1,0-.67,2.92,2.92,0,0,1,.45-.94c.45-.57,1-1.11,1.46-1.68h6.07l.51.8.7.06.66,1.26v1.47l-1.86,1.85-.78.35H36c-.38.16-.53.64-1,.47l-.48-.45Zm4.74-4.12c.24.24.19.15.13.15H33.2l-1.2.63,0,.46.64.64h.87l.49.45h2.24l.49-.46h.88l.62-.62C38.09,221.54,37.92,221.25,37.56,220.6Z"/><path d="M80.27,29.74l-.09.61,1.22.74h1.17a5.91,5.91,0,0,1,1.2,1.15v3l-1.54,1.65H78.6l-.66-.65v-1l.81-.63c.24-.09.59,0,1.19.43H81.3l.77-1.5-1.39-1.23c-.55-.25-.94.43-1.57.51l-.56-.51c-.08-.1-.16-.16-.16-.22,0-1.34,0-2.68,0-4l.68-.67H83.5c.06,0,.12.08.23.15v1.45l-.61.65Z"/><path d="M35.91,83.33h1.6c.48.41,1.12.55,1.62,1s.34,1.15.95,1.39V88a2.52,2.52,0,0,0-.57,1.13H38l-.48-.69.33-.33V85.74c-.3-.31-.69-.14-1-.15a2,2,0,0,0-1.15.12v2.78l-.55.55c-.06,0-.11.13-.17.13a3.38,3.38,0,0,1-.45,0H31.32l-.66-.67V84.14l.55-.78c.7-.11.84.32,1.2.58v2.75a1.18,1.18,0,0,0,1.34.08V85.58a7.08,7.08,0,0,1,.77-1.36A6.7,6.7,0,0,1,35.91,83.33Z"/><path d="M58.34,185.1l-.65-1.28v-3.45l.6-.63h1.46a1.12,1.12,0,0,1,.16.41c0,1,0,1.95,0,2.92.37.4.8.22,1.3.11v-1.86l1.52-1.52a3.83,3.83,0,0,1,1.51-.1c.44,0,.89,0,1.28,0a4.5,4.5,0,0,1,2,2v2.18l-.63,1.21h-1.8a.5.5,0,0,1-.11-.76,1.4,1.4,0,0,0,.37-.76c0-.24.3-.46.45-.66l-.67-1.39H63.75l-.67.63v2.7c-.14.14-.18.23-.24.24a3.38,3.38,0,0,1-.45,0Z"/><path d="M200.83,340.46v1.16l-.85.84c.24.6-.72.78-.47,1.38l-1,.78c.27.65.33,1.23.66,1.52.73.63.87,1.69,1.69,2.18v.93c-.46.43-1,.13-1.58.23a11.52,11.52,0,0,1-1.1-1.28,9.61,9.61,0,0,1-.66-1.42c-.72.28-.57,1.08-1,1.42s-.47.87-.79,1.26c-.59,0-1.19,0-1.78,0-.06,0-.11-.09-.17-.14-.24-.43,0-.71.32-.92s.43-.72.64-1.08.69-.52.72-.82a1.81,1.81,0,0,1,.47-.88v-1.35a5.48,5.48,0,0,1-1-1.4c-.28-.62-.47-1.4-1.25-1.7l.7-.7h1.33a5.53,5.53,0,0,0,.93,1.37,5.09,5.09,0,0,1,.74,1.23c.92-.17.75-1.14,1.29-1.55-.08-.55.43-.73.68-1.06Z"/><path d="M88.74,56.37a10.49,10.49,0,0,1-.64,1.23,9.39,9.39,0,0,1-.93,1h-.45l-.47.44H84.44c-.32-.58-.89-.41-1.43-.5a2.89,2.89,0,0,1,0-1.7H84.4a1.73,1.73,0,0,0,1.31.41c.71-.24.65-1.08,1.19-1.55a8.2,8.2,0,0,0-1.05-1.12H83.58c-.47-.54-.07-1.09-.43-1.78l-.27-.29V51.14l.46-.49v-.89c.13-.07.25-.2.37-.2h4.83c.35.42.11.8.21,1.12l-.69.68H85.18v1.19c.49.33,1,.1,1.52.16.25.52.89.4,1.27.77s.23,1,.77,1.26Z"/><path d="M34.68,91.42l1-1.33h2.42c.66.68,1.33,1.37,2,2.12v2.6L39,95.92H38l-.57-.68.33-.4V92.48L36.7,92l-1,.4c-.26.47-.06,1-.15,1.53a2.54,2.54,0,0,1-1.73.1V92.62c-.37-.45-.77-.22-1.15-.3l-.81.7L33,95.14l-.73.87-1.56-.68-.06-1-.42-.48V92.71a2.3,2.3,0,0,0,.52-1.64l.65-.13.79-.8h1.68Z"/><path d="M40.1,230.36l-.68.67H37.68s-.11-.07-.17-.11l-.27-.77h-.51l-2-2.07-1.37-.66c-.69.18-.88.9-1.37,1.14.07.78.68.95.93,1.39,0,.39,0,.39-.67,1.08H31.3l-.62-.68c-.08-.42.11-1-.47-1.31v-.92l.44-.47v-.89c.31-.66,1.15-.59,1.57-1.12h2.24l.49.45h.43l2.24,2.24c.07-.11.22-.22.22-.33,0-.68,0-1.35,0-2.1l.53-.58a1.63,1.63,0,0,1,1.08-.1l.64.64Z"/><path d="M234,52.7c.24.54.9.38,1.27.78s.26,1,.76,1.26v1.64a13.61,13.61,0,0,1-.65,1.24,5,5,0,0,1-.6.67l-1.4.66h-1.68c-.31-.57-.91-.33-1.34-.4-.34-.54-.13-1.07-.18-1.57.43-.51,1,0,1.42-.28a1.74,1.74,0,0,0,1.49.5l.65-.62v-1.4l-.54-.6c-.77-.17-1.59,0-2.39-.1-.38-.47-.14-1-.17-1.51s0-1.2,0-1.8a3.41,3.41,0,0,1,.14-1.57h4.58l.67.6c.1.6-.37.8-.71,1.21h-2.82c0,.29-.06.5-.06.71s0,.61.45.59S233.59,52.7,234,52.7Z"/><path d="M7.3,221.12a6,6,0,0,1,2,1.42c.52.63,1.12,1.19,1.68,1.78.48-.52.2-1.06.26-1.56a4.55,4.55,0,0,1,.14-1.58h1.49a.54.54,0,0,1,.15.15.49.49,0,0,1,0,.21v4.79l-.77.65a1.68,1.68,0,0,1-.7,0,4.31,4.31,0,0,1-1.27-.72c-.83-.76-1.6-1.58-2.25-2.23L6,223l-1,1.06c.78,1.12.87,1.35.85,2.31-.46.35-1,.09-1.55.17l-.6-.69a1.81,1.81,0,0,0-.47-1.31c0-.14,0-.29,0-.43s0-.3,0-.45c.16-.31.61-.47.44-1l1.61-1.58Z"/><path d="M58.86,82l-.72-.18c0-.62,0-1.28,0-1.93a.85.85,0,0,1,.17-.16.46.46,0,0,1,.2,0h3.94l.61-.85c.91-.17,1.06.5,1.77.82H67a7.39,7.39,0,0,0,.31.85,1.71,1.71,0,0,0,.29.32L66.45,82H64.66c-.08.12-.23.23-.23.35,0,.82,0,1.65,0,2.67l-.72.59H63c-.44-.14-.62-.72-1-.8A2.5,2.5,0,0,1,60.77,84c-.33-.31-.64-.64-1-1Zm2.48.08c.07.36.41.51.62.75h.46a.57.57,0,0,0-.07-.93C62.05,82.1,61.66,81.8,61.34,82.12Z"/><path d="M77,30.85l-.44.47v.89l.46.51v.84l.4.49-.39.38v1.16c-.26.85-1.1.78-1.57,1.3H72.28l-.65-.61V34.91c.27-.38.68-.16,1.06-.23l.51.44h1.35l.65-.61,0-1-.91-.62h-.7L73,32.23v-.9c.44-.53,1.1-.06,1.5-.25l.73-.64c.1-.6-.38-.8-.65-1.14h-.91l-.47.44H71.86c-.26-.22-.27-.22-.16-1.66.28-.35,1,.18,1-.58h2.81c.42.53,1.25.46,1.56,1.12Z"/><path d="M81.53,49.75V54l.91.9c.09.59-.66.68-.93,1.15v2.36c-.57.31-1.09.06-1.53.19-.27-.27-.49-.48-.7-.7V56.54l.44-.47c-.07-.07-.12-.17-.17-.17H76.42l-.71-.68,0-.92c.27-.27.71-.53.85-.91a2.21,2.21,0,0,1,.51-.91c.34-.31.64-.64,1-.95l.8-.8c0-.14,0-.29.06-.52.14-.06.32-.12.5-.21l.68-.4A2.15,2.15,0,0,1,81.53,49.75Zm-2.47,4.3a.91.91,0,0,0,.09-1.23l-.75.47C78.32,54,78.65,54.09,79.06,54.05Z"/><path d="M203.08,35.14v1.13l-.49.54c-.09.06-.15.13-.21.13h-4.89c-.09-.08-.18-.13-.19-.19,0-.59,0-1.18,0-1.76l3.11-3.11v-.54l.45-.49V30l-.65-.65h-.91l-.47.42h-1.35c-.37-.5-.2-1.08-.16-1.63.38-.2.84-.23,1.1-.6H201c.57.58,1.1,1.1,1.64,1.64-.16.43.34.57.49,1-.47.92-1,1.9-1.65,3.25L200,34.9c.12.13.17.23.22.23Z"/><path d="M163,343.64v-1.23c-.12-.07-.17-.15-.23-.15H161l-.52.44c-.6.09-.76-.43-1.13-.73.07-.18.14-.38.23-.56s.31-.62.47-.94h1.78l.49-.45.49.45h.79l1.64,1.63v1.55a8.19,8.19,0,0,1-2.83,3.79,5.57,5.57,0,0,0,2.15.23c.17.17.39.37.64.6v1c-.26.26-3,.27-5.76,0v-1.4C160.48,346.51,162.25,345.64,163,343.64Z"/><path d="M198.16,7.45l3.55-3.55v-2a12.49,12.49,0,0,0-1.94-.08l-.49.45h-.89c-.39-.28-.14-.69-.28-1.12L199.46.05h2.95a4.06,4.06,0,0,1,1.19,1.4c.27.68.83,1.26,0,1.9.2.71-.47,1.18-.53,1.93-.52.5-1.11,1.07-1.69,1.65,0,0,0,.1,0,.24h1.64l1.4.71v.9c-.1.08-.21.23-.32.23-1.94,0-3.88,0-5.78,0C198,8.48,198.22,8,198.16,7.45Z"/><path d="M172,348.5v.76c-.13.07-.25.19-.38.19-1.78,0-3.56,0-5.29,0a3.16,3.16,0,0,1-.17-1.42c.19-.5.66-.78,1-1.15a13.77,13.77,0,0,0,1.41-1.45,6.18,6.18,0,0,1,1.15-1.55v-1.47c-.11-.08-.16-.16-.22-.16h-2.21c-.28.28-.51.62-1,.39-.34-.46-.09-1-.16-1.53l.7-.64h1.25l.52-.45.47.42h1.34l1.12,1.14v2.6l-.74,1.29-1.93,1.93c.1.09.19.24.3.24.67,0,1.34,0,2.24,0Z"/><path d="M60.89,209.41l-.14,1.22a3.08,3.08,0,0,1-1.53.11c-.37-.29-.13-.7-.26-1.33l-1.32-1,1.14-1.26h6.88l.21-1.29h1.07l.63,1.23v2.4l-.65,1.26H66c-.49-.27-.08-.81-.31-1.18,0,0-.1-.15-.15-.15Z"/><path d="M206.68,7.51V2.89c-.36-.35-.76,0-1.36-.38-.12-.09.14-.5,0-.92A4.79,4.79,0,0,0,207.36.06c.5-.09,1,0,1.57-.06V7.56l1.34.21V8.85c-.05.05-.1.13-.16.15a.53.53,0,0,1-.22,0h-4.26c-.06,0-.12-.09-.22-.17v-1C205.75,7.48,206.16,7.81,206.68,7.51Z"/><path d="M3.66,217.9v-1.06l.59-.64h6.31l.68-.66.14-.68h1.54c.08.11.16.17.16.22,0,1.35,0,2.69,0,4l-.66.66h-.9c-.49-.28-.07-.83-.31-1.19l-.48-.48c-.06,0-.11-.11-.17-.11H7c-.29.36-.67.57-.71,1.11,0,.25-.4.6-.72.68-.54.08-.65-.4-1-.55l-.13-1.15Z"/><path d="M171.6,52.32l-1.19-.12c-.31-.35-.1-.73-.16-1.08.54-.72,1.59-.76,2-1.56h.93l.71.71v6.87l1.13.11c.34.3.1.7.18,1-.11.09-.21.25-.32.26h-4.41c-.39-.36-.15-.76-.23-1.1.3-.5.84-.09,1.11-.27s.24-.16.24-.21C171.6,55.48,171.6,54,171.6,52.32Z"/><path d="M58.87,244.09h-.53l-.63-.64a3,3,0,0,0,.57-1.15h7.25c.4-.38.16-.78.24-1.12.27-.41.68-.17,1-.26.1,0,.2.05.22.1.15.31.27.63.45.93a3.27,3.27,0,0,1,.15,1.52c0,.44,0,.88,0,1.11-.28.56-.47.93-.67,1.31h-1c-.07-.39-.14-.8-.22-1.21l-.48-.47c-.06,0-.11-.12-.17-.12H61.49c-.3.36-.68.57-.72,1.11,0,.25-.39.6-.74.69-.51.06-.63-.39-.93-.58Z"/><path d="M205.35,344.69v2.73l-.43.49c0,.24.11.62,0,.82a11.93,11.93,0,0,0-.87,1.66c-.38.76-1.11,1.16-1.55,1.76h-1c-.63-.86.27-1.43.39-2.15.61-.35.69-1.07,1.16-1.68v-4.45c-.59-.78-.77-2-1.73-2.71v-1c.15-.05.34-.13.53-.18.65-.2,1,.6,1.57.53,0,.06.14.12.13.17-.07.64.53.84.85,1.28a3.52,3.52,0,0,0,.15,1c.1.25.42.4.36.75A.87.87,0,0,0,205.35,344.69Z"/><path d="M60.85,89.18v1.16L60,91c-.5.07-.66-.44-1-.7V89.4l-1.28-.74.47-1.14a1,1,0,0,1,.17-.14.88.88,0,0,1,.23,0h7l.22-1.23c.35-.26.72-.05,1-.13l.66,1.28v2.4l-.64,1.23H65.84c0-.41-.08-.76-.11-1.11l-.63-.64Z"/><path d="M65.7,187.8c.06-.51.1-.87.14-1.2.35-.31.73-.06,1.06-.17l.67,1.29v2.55c-.5.38-.77,1.09-1.48,1.16-.58-.31-.16-.86-.39-1.22l-.47-.48c-.06,0-.12-.12-.17-.12h-4c-.39.32-.16.72-.23,1.07l-.56.69c-.82.14-.88-.49-1.26-.59v-1l-.84-.3V188a1.29,1.29,0,0,1,.41-.15Z"/><path d="M178.35,347.43l.46.49v.77a14,14,0,0,0,.8,1.34,9.37,9.37,0,0,0,.94,1v1a3.26,3.26,0,0,1-1.57.1c-.17-.31-.66-.41-.62-.85s-.29-.51-.48-.7a1.18,1.18,0,0,1-.47-.93c-.73-.34-.08-1.33-.79-1.69,0-.36-.06-.73-.07-1.09,0-.82,0-1.64,0-2.52l.42-.52v-1.32c.24-.24.48-.51.76-.75s.08-.7.46-.94a5.33,5.33,0,0,0,.8-.78c.5-.08,1,0,1.56-.05,0,.41,0,.69.06,1a2.24,2.24,0,0,1-.21.38c-.31.33-.67.61-.94,1a10.61,10.61,0,0,0-.65,1.24v.72l-.46.49Z"/><path d="M205,58.56l-.12-.69,1.82-1.29v-4.1c-.28-.39-.69-.15-1.26-.32l-.58-.71c.08-.16.14-.49.26-.51a1.22,1.22,0,0,0,.77-.33c.13-.13.38-.15.67-.25l.24-.69c.49-.26,1,0,1.48-.15.1.19.21.32.21.44,0,2.17,0,4.34,0,6.61l1.82,1.29-.69.7Z"/><path d="M223.84,51.08l1.71-.77c0-.17.08-.38.13-.58s.25-.18.38-.17c.43,0,.88-.13,1.36.17v6.75c.49.74,1.4.7,1.8,1.4l-.62.64h-4.22l-.56-.62.69-.69H225l.62-.62V52.32l-.68-.07-.43,0C224.19,51.89,223.72,51.68,223.84,51.08Z"/><path d="M70.27,57.43l1.3-.75V52.43c0-.06-.1-.15-.16-.16-.29,0-.59,0-.87,0-.43-.27-.21-.69-.28-1.12.16-.17.34-.49.58-.56a3.11,3.11,0,0,0,1.41-1h1c.08.1.14.15.16.22a.81.81,0,0,1,0,.22v6.47c.41.72,1.33.68,1.77,1.36l-.59.64H70.45C70.12,58.18,70.36,57.78,70.27,57.43Z"/><path d="M195.8,53.39l1.57-1.1h5l.72.6v1l-.66.66h-5.4c-.25-.22-.46-.55-.92-.47C196.07,54,196,53.69,195.8,53.39Z"/><path d="M203.08,55v1.61c-.1.09-.15.18-.2.18h-6.16L196,56.2c-.13-.7.31-.84.47-1.1.1-.06.15-.14.21-.14Z"/><path d="M65.32,219.1l-.63.63h-1c-.08-.11-.16-.16-.17-.22v-6.28a2.3,2.3,0,0,1,1.65-.15,1.37,1.37,0,0,1,.14.4C65.32,215.34,65.32,217.2,65.32,219.1Z"/><path d="M277.87,330.78a1.77,1.77,0,0,1,1.1-.69l.66,1.27V334l-.7.56c-.56.11-.69-.46-1.06-.62Z"/><path d="M153.71,330l.72.67v3.23l-.6.66h-.53a7.25,7.25,0,0,0-.28-.78c-.06-.12-.21-.21-.32-.33v-2.25c.21-.25.53-.47.46-.92C153.15,330.26,153.5,330.14,153.71,330Z"/><path d="M200,331.38c.25-.5.45-.87.64-1.24l.46,0,.66.63V334l-.7.56c-.29,0-.56,0-.63-.41a3.79,3.79,0,0,0-.43-.86Z"/><path d="M263.69,330l.62,1.48v2.47l-.6.65c-.62.15-.76-.42-1.14-.6v-2.75c.22-.25.54-.47.47-.92C263,330.26,263.38,330.14,263.69,330Z"/><path d="M333.91,139.58h-3.16c-.35-.31-.12-.7-.21-1.11l.78-.61h2.05l1.23.62V139Z"/><path d="M331.23,154.93l-.63-.63v-1c.11-.08.16-.16.22-.16h2.87l.92.69c0,.44-.07.64-.47.69-.25,0-.47.26-.74.43Z"/><path d="M334,200.41l.66.72c0,.36,0,.61-.46.65-.25,0-.48.26-.78.43h-2.17l-.61-.7v-.92c.09-.09.14-.18.2-.18Z"/><path d="M98.63,138.75c.06-.49.47-.63.68-.93h2.4l1,.56c.1.73-.37.84-.53,1.19H99.2Z"/><path d="M102,200.41c.21.29.61.44.68.84s-.43.57-.58.92H99.83l-1.19-.68a1.77,1.77,0,0,1,.68-1.08Z"/><path d="M102,153.12c.21.22.43.42.63.64,0,.05,0,.14,0,.22,0,.45-.41.57-.63.91H99.83l-1.18-.68c-.09-.57.42-.75.67-1.09Z"/><path d="M326.05,334.56h-1.18a1.28,1.28,0,0,1-.16-.4c0-1.32,0-2.64,0-3.89.81-.44,1,.25,1.35.51Z"/><path d="M107.43,330.1h.45l.63.65v3.68c-.36.31-.74.11-1.09.16A11.12,11.12,0,0,1,107.43,330.1Z"/><path d="M168.89,330.77l.68-.67.54.54a.55.55,0,0,1,.13.18.81.81,0,0,1,0,.22v3.33c-.05.05-.09.14-.15.15l-1,.1a1.59,1.59,0,0,1-.18-.47C168.89,333,168.89,331.93,168.89,330.77Z"/><path d="M231.49,330.77l.73-.73c.11.26.23.51.35.77l.15-.15s.11.11.11.17a3.23,3.23,0,0,1,0,.44v3.11c-.36.4-.79.21-1.21.14,0,0-.14-.11-.14-.16Z"/><path d="M185.38,334.56h-1a1.39,1.39,0,0,1-.16-.4c0-1.11,0-2.22,0-3.36l.59-.62c.34,0,.4.33.63.45a1.33,1.33,0,0,1,.13.4q0,1.67,0,3.33C185.55,334.41,185.46,334.47,185.38,334.56Z"/><path d="M248.12,330.89v3.52c-.32.38-.73.07-1,.23-.12-.14-.28-.25-.28-.35,0-1.18,0-2.36,0-3.52l.69-.69Z"/><path d="M123.86,333.94c-.65.59-.65.59-1.22.58-.25-.41-.11-.85-.12-1.28,0-1,0-2,0-3,.81-.41,1,.26,1.35.53Z"/><path d="M310.52,334.6h-.89c-.08-.11-.23-.22-.23-.34,0-1.17,0-2.35,0-3.49l.68-.68.61.63c0,1.24,0,2.48,0,3.72C310.67,334.5,310.57,334.55,310.52,334.6Z"/><path d="M138,330.19c.56-.34.75.22,1,.38.1.12.19.17.19.23v3.11c-.37.27-.54.94-1.21.6-.05-.05-.13-.11-.13-.17q0-2,0-4C137.83,330.29,137.91,330.24,138,330.19Z"/><path d="M294.08,330.77l.73-.73.35.77.15-.15s.11.11.12.17,0,.29,0,.44v3.11c-.36.4-.79.21-1.21.14,0,0-.13-.11-.13-.16C294.08,333.17,294.08,332,294.08,330.77Z"/><path d="M98.68,248.59v-1.17c.1-.08.15-.17.21-.17h3.57c.43.35.21.79.16,1.21-.06,0-.11.13-.17.14Z"/><path d="M102.66,106.74v1.17c-.1.09-.15.18-.21.18H98.88c-.43-.35-.21-.79-.16-1.2.06,0,.11-.14.17-.14Z"/><path d="M98.68,123.22v-1a1.31,1.31,0,0,1,.42-.16c1.12,0,2.24,0,3.35,0,.06,0,.11.09.21.17v1c-.17.06-.29.16-.42.16H98.89C98.83,123.4,98.78,123.31,98.68,123.22Z"/><path d="M334.78,170.65h-4c-.37-.34-.05-.75-.22-1.06.15-.1.27-.24.39-.24,1.18,0,2.36,0,3.48,0C334.8,169.71,334.47,170.12,334.78,170.65Z"/><path d="M330.6,186v-1.19a1.33,1.33,0,0,1,.41-.16c1.17,0,2.34,0,3.6,0,0,.42,0,.71,0,1a.7.7,0,0,1-.22.35s-.14,0-.22,0Z"/><path d="M102.66,294.7v1a1.48,1.48,0,0,1-.42.16H98.89c-.06,0-.11-.09-.21-.17v-1a1.48,1.48,0,0,1,.42-.16h3.35C102.51,294.53,102.56,294.62,102.66,294.7Z"/><path d="M98.64,279.44v-.9c.12-.07.23-.22.35-.22h3.48c.38.38.15.77.23,1.12C102.37,279.78,100.11,279.78,98.64,279.44Z"/><path d="M330.6,123.22v-1a1.23,1.23,0,0,1,.42-.16c1.11,0,2.23,0,3.35,0,.05,0,.11.09.2.17v1a1.48,1.48,0,0,1-.42.16H330.8C330.74,123.4,330.69,123.31,330.6,123.22Z"/><path d="M102.66,310v1a1.48,1.48,0,0,1-.42.16H98.89c-.06,0-.11-.09-.21-.17v-1a1.48,1.48,0,0,1,.42-.16h3.35C102.51,309.84,102.56,309.93,102.66,310Z"/><path d="M102.65,169.34v1.17c-.09.08-.15.17-.21.17H98.87a1.72,1.72,0,0,1-.14-1.22c.06,0,.11-.13.17-.13Z"/><path d="M334.57,106.92v1a1.86,1.86,0,0,1-.42.16H330.8c-.06,0-.11-.09-.2-.18v-1a1.23,1.23,0,0,1,.42-.16c1.11,0,2.23,0,3.35,0C334.42,106.75,334.48,106.84,334.57,106.92Z"/><path d="M102.65,232.08v1a1.08,1.08,0,0,1-.4.16c-1.12,0-2.24,0-3.35,0-.06,0-.11-.08-.26-.2a7.14,7.14,0,0,1,0-.79.74.74,0,0,1,.23-.34s.14,0,.21,0c1,0,2.09,0,3.13,0A1.52,1.52,0,0,1,102.65,232.08Z"/><path d="M102.66,184.65v1.16c-.09.09-.15.18-.2.18H98.88c-.43-.35-.21-.79-.16-1.21,0,0,.11-.14.16-.14C100.07,184.64,101.27,184.65,102.66,184.65Z"/><path d="M330.6,326.32v-1a1.33,1.33,0,0,1,.41-.16h3.33c.06,0,.12.08.17.12.36.68-.32.85-.59,1.23H330.8C330.75,326.49,330.69,326.4,330.6,326.32Z"/><path d="M334.61,247.47v.45l-.65.63h-3.23c-.31-.36-.11-.74-.17-1.09A9.07,9.07,0,0,1,334.61,247.47Z"/><path d="M330.6,311.19V310c.09-.08.15-.17.2-.17h3.56c.06,0,.11.09.17.14,0,.56,0,.56-.46,1.07-.06.05-.12.13-.17.13Z"/><path d="M330.51,232h4l.15.62-.73.65h-3.18C330.4,232.9,330.64,232.51,330.51,232Z"/><path d="M102.7,263v1.12c-.12.08-.23.22-.34.22-1.18,0-2.36,0-3.59,0l-.16-.66.78-.69Z"/><path d="M330.51,263h3.4l.69.61v.48c-.06.06-.11.16-.16.16h-3.71C330.41,264,330.63,263.57,330.51,263Z"/><path d="M334,278.31c.37.46.89.66.56,1.22,0,0-.11.13-.17.13h-3.56c-.43-.35-.21-.78-.16-1.2a1.22,1.22,0,0,1,.39-.14Z"/><path d="M333.87,295.84h-3.12c-.35-.34-.11-.73-.19-1.08.11-.08.22-.22.33-.23h3.59l.17.67Z"/><path d="M102.61,325.28c.35.67-.34.84-.6,1.22H99.35c-.63-.63-.63-.63-.62-1.21,0-.05.11-.14.16-.14h3.55S102.55,325.23,102.61,325.28Z"/><path d="M1.32,95H.26c-.49-.33-.06-.8-.26-1.1.4-.4.79-.17,1.14-.25C1.66,94.13,1.24,94.58,1.32,95Z"/><path d="M172.8,281.08l-.56-.53h-.85l-1.15-1.11c.17-.48-.28-.65-.43-.93v-5.39l2-2h2.29a2.61,2.61,0,0,1,1.1,1.15,3.06,3.06,0,0,1,.55,1.79c.68.3.12,1.12.68,1.54.3-.67.06-1.35.21-2.07l.39-.44v-.9a3.16,3.16,0,0,0,1.56-1.1h1.78c.41.49,1.24.41,1.56,1.05s.43,1,.65,1.57c.5-.2.59-.63.82-1.06a8.29,8.29,0,0,1,1.42-1.57h2.34l.91.89,1.08,2.19v3.49c-.51.27-.39.75-.4,1.2a6.32,6.32,0,0,1-2.75,2.17l-.69-.48h-.77a5,5,0,0,1-1.79-2.64c-.57,0-.12.61-.47.78s-.21.81-.63,1.09a4.35,4.35,0,0,0-.73.76h-1l-.34.34c-.45-.08-.82-.5-1.33-.35a4.32,4.32,0,0,1-1.7-2.29v-1.54c-.13-.12-.19-.21-.23-.2a.26.26,0,0,0-.16.15c-.14.47.06,1-.46,1.4-.15.11,0,.56-.07.94-.58.44-1,1.19-1.75,1.54Zm13-8.08-1.08,1.08v3.6c.53.43.43,1.26,1,1.43l1.16-1v-4.57Zm-11.93,5.09V274l-1.12-1-1.11,1v4l1.08,1.24Zm5.64-5.07-1.14,1v3.6c.49.46.46,1.26,1.16,1.6.32-.37.66-.75,1.05-1.17v-4.51Z"/><path d="M217,204.27c-.24.17-.38.57-.78.64s-.59-.4-.92-.62V153.73a2.59,2.59,0,0,1,1.7-.06Z"/><path d="M215.28,229.6l.64-1.23.46-.05.66.63v50.16l-.7.55c-.55.08-.72-.42-1.06-.67Z"/><path d="M153.22,216.94c0-.57,0-.57.46-1.09,0,0,.11-.13.17-.13h50.36c.32.35.9.56.66,1.21C202.68,217.12,155.35,217.12,153.22,216.94Z"/><path d="M228.44,217c-.39-.69.32-.85.59-1.23h49.91c.33.34.94.52.66,1.2a1.32,1.32,0,0,1-.39.14C265.72,217.24,231.28,217.16,228.44,217Z"/><path d="M217.08,222.7c-.28.22-.46.57-.71.66-.59.07-.72-.38-1.05-.6v-4.61l.46-.46-1.22-.59h-4.42l-.72-.7.68-.68H215c.06,0,.11-.07.25-.15v-5c.38-.24.49-.68,1-.69s.53.45.91.68v5c.13.09.19.15.25.16a.81.81,0,0,0,.22,0h5.13l.67.67v.44c-.11.08-.23.23-.34.23H217.3c-.12.12-.21.17-.22.23a3.38,3.38,0,0,0,0,.45Z"/><path d="M166.63,275.62v-1.54l.45-.5-1.15-.59-.42.35a14.63,14.63,0,0,1-2,0v-1.59c.39-.22.86-.23,1.11-.61h2.6l1.64,1.64v2.71c-.74.29-.73,1.18-1.28,1.66s-1,.9-1.47,1.36c.53.49,1.08.22,1.57.26s1,0,1.49,0a3.05,3.05,0,0,1,.11,1.62c-.05.05-.09.12-.16.15a.49.49,0,0,1-.21,0h-5.2l-.66-.63c0-.25,0-.54,0-.72Z"/><path d="M215.28,135.34c.29-.21.43-.61.83-.68s.59.4.93.62v12.33l-.69.56c-.56.08-.74-.42-1.07-.68Z"/><path d="M284.67,216.93v-1.05a1.64,1.64,0,0,1,.41-.16h12.8l.62.58c.06.37-.4.36-.4.63C295.85,217.12,286.76,217.12,284.67,216.93Z"/><path d="M136.75,179.69h1.15l1.24-.64c-.16-.26-.16-.26-2.17-.26l-1.84-1.85c.05.23,0,.08,0-.05-.18-.38-.63-.67-.44-1.16a9.34,9.34,0,0,1,.73-1.49,2.21,2.21,0,0,1,.8-.78c.31-.15.72-.1.89-.57h2.51c-.41-.39-.41-.39-1.55-.4l-.49-.46h-.72l-1.26-.65,0-.45-.89-.93v-1.35c.18-.18.31-.42.5-.48.57-.18.11-1.34,1.08-1.1.32-.57.89-.38,1.37-.49.13,0,.22-.2.37-.35h3.69a1.4,1.4,0,0,0,1.1.4l1.75,1.76v2c-.51.5-1,1-1.71,1.64h-1.1l-.53.46c-.33.12-.81-.17-1.12.25.11.11.16.21.21.21h2.24c.45.36.72,1,1.41,1,.07,0,.12.23.19.36l.45.84v1.67c-.54.23-.38.9-.78,1.26s-1,.26-1.27.76c-.65,0-1.31,0-2.16,0l.76.83h1.54l1.86,1.87v1.8L143,184.89c-.31.33-.95,0-1.25.63h-3.64c-.24-.12-.44-.58-.86-.41-.62.24-.8-.69-1.4-.48,0,0-.16-.2-.23-.33a3.53,3.53,0,0,0-.25-.56,6.58,6.58,0,0,0-.64-.66v-1.37Zm4.45-4.95h-2.69l-.48.44c-.37.08-.77-.15-1.07.19,0,.36-.14.73,0,1l1.14.57h3.38l1.26-.66c-.08-.38.16-.78-.2-1.07l-1-.06ZM137,183.3c1.49,0,3,0,4.44,0a2.2,2.2,0,0,0,1.32-.16v-.9l-.61-.74h-4.76a.53.53,0,0,0-.22,0c-.07,0-.11.1-.23.22s0,.51,0,.8S137,183,137,183.3Zm0-13.21c2.36.22,5,.23,5.31,0s.59-.4.48-1l-.71-.68h-4.67a.81.81,0,0,0-.22,0c-.07,0-.11.1-.19.18Z"/><path d="M137.17,186h.68l2.21,1.11,1.13,1.13h.47l.42.91h.59c.29-1,0-2,.15-3,.37-.29.75-.11,1.1-.14l.65.64v4.51l-.62.64h-1.34a1.52,1.52,0,0,1-.29-.2c-.64-.62-1.31-1.23-1.89-1.9s-1.48-.67-1.84-1.41h-1.52c-.07.12-.14.18-.14.24,0,.59,0,1.18,0,1.71l.44.52c.09.61-.43.75-.69,1.07h-.89c-.35-.69-.7-1.37-1.11-2.19v-1.17c.39-.5,1.13-.76.94-1.55l.62,0Z"/><path d="M324.85,143.3c.56-.31.76.21,1.08.46,0,.06.12.12.12.18,0,1.63,0,3.27,0,4.91-.36.4-.79.21-1.21.14,0-.06-.13-.12-.13-.17,0-1.79,0-3.57,0-5.36C324.71,143.41,324.8,143.35,324.85,143.3Z"/><path d="M326.05,133.11c-.44.36-.64.88-1.2.57-.05-.06-.14-.11-.14-.16,0-1.79,0-3.58,0-5.36,0-.06.09-.11.17-.21s.39,0,.6,0,.59,0,.58.44,0,1.05,0,1.57Z"/><path d="M299.57,108c-.32-.55.2-.76.46-1.07.05,0,.11-.13.16-.13h4.91c.43.35.22.79.16,1.21-.05,0-.11.14-.16.14h-5.36C299.69,108.09,299.63,108,299.57,108Z"/><path d="M326.05,206.49v5.13h-1.17c-.06-.14-.17-.26-.17-.39q0-2.56,0-5.13c0-.06.07-.12.11-.18l.52-.14C325.55,206,325.8,206.23,326.05,206.49Z"/><path d="M274.18,108c-.06,0-.11.13-.17.13h-5.35c-.06,0-.11-.1-.21-.18v-1a1.23,1.23,0,0,1,.42-.16h4.69C274.19,107.37,274.19,107.37,274.18,108Z"/><path d="M324.7,159.65l.66-.65.64.59v5.11a3.49,3.49,0,0,1-.55.12,3.65,3.65,0,0,1-.59,0c-.07-.11-.15-.16-.15-.22C324.7,162.93,324.7,161.3,324.7,159.65Z"/><path d="M324.88,174.78h1c.06.15.17.27.17.4,0,1.55,0,3.11,0,4.71l-.57.62c-.38.07-.36-.4-.62-.39a2,2,0,0,1-.15-.45c0-1.56,0-3.12,0-4.67C324.71,174.94,324.79,174.88,324.88,174.78Z"/><path d="M242.75,107v.89c-.12.08-.23.22-.35.22-1.62,0-3.25,0-4.83,0l-.68-.68.63-.6h5.07S242.69,106.91,242.75,107Z"/><path d="M289.62,108.06h-5.24l-.66-.64.64-.64h5C289.73,107.13,289.5,107.52,289.62,108.06Z"/><path d="M258.46,107.46l-.52.52a.45.45,0,0,1-.17.11h-4.89c-.4-.36-.22-.79-.14-1.21,0,0,.11-.13.16-.13h5Z"/><path d="M227,106.74v1.17c-.1.08-.15.18-.21.18h-5l-.59-.76.76-.2-.26-.27c.06,0,.12-.11.18-.11a3.2,3.2,0,0,1,.44,0Z"/><path d="M326,190.45v5.27c-.35.34-.74.1-1.09.18-.08-.11-.22-.23-.22-.35,0-1.63,0-3.26,0-4.83C325.08,190.34,325.48,190.58,326,190.45Z"/><path d="M326.05,117.35c-.44.36-.65.88-1.2.57-.05-.06-.14-.11-.14-.17,0-1.64,0-3.27,0-4.91,0,0,.09-.11.17-.2h1a1.33,1.33,0,0,1,.16.41C326.06,114.46,326.05,115.87,326.05,117.35Z"/><path d="M315.28,107.91v-1a1.31,1.31,0,0,1,.42-.16H320l.56.75-.47.48a1.46,1.46,0,0,1-.39.12h-4.23C315.43,108.09,315.38,108,315.28,107.91Z"/><path d="M205.86,107.92v-1a1.27,1.27,0,0,1,.41-.16c1.72,0,3.44,0,5.15,0,.06,0,.11.09.21.17v1a1.33,1.33,0,0,1-.41.16h-5.15C206,108.09,206,108,205.86,107.92Z"/><path d="M143.27,108.09v-1.17c.1-.09.15-.17.21-.17h5.37c.41.36.22.8.14,1.21-.05,0-.11.14-.16.14Z"/><path d="M127.51,107.92v-1a1.12,1.12,0,0,1,.41-.16c1.71,0,3.43,0,5.15,0,.05,0,.11.09.21.17v1a1.48,1.48,0,0,1-.42.16h-5.15S127.6,108,127.51,107.92Z"/><path d="M180.1,106.91v1a1.39,1.39,0,0,1-.38.17H175l-.61-.57c-.09-.38.4-.35.38-.61a1.64,1.64,0,0,1,.45-.16c1.55,0,3.11,0,4.67,0C180,106.75,180,106.83,180.1,106.91Z"/><path d="M195.87,106.91v1a1.45,1.45,0,0,1-.39.17h-4.72l-.61-.57c-.09-.38.4-.35.38-.61a1.64,1.64,0,0,1,.45-.16c1.56,0,3.11,0,4.67,0C195.71,106.75,195.76,106.83,195.87,106.91Z"/><path d="M112.19,107.38l.52-.52c.06,0,.12-.11.18-.11a3.2,3.2,0,0,1,.44,0h4c.62.64.62.64.59,1.23-.06,0-.11.12-.17.12H112.8Z"/><path d="M164.35,106.74v1.18c-.1.08-.16.17-.21.17h-4.93c-.4-.36-.21-.79-.14-1.21.06,0,.11-.13.17-.13Z"/><path d="M107.24,118v-5.18c.32-.34.72-.11,1.06-.18.08.11.24.21.24.32,0,1.49,0,3,0,4.41C108.18,117.64,108,118.11,107.24,118Z"/><path d="M227,325.15v1.16c-.1.09-.15.18-.2.18h-4.92c-.28-.37-1-.54-.61-1.22.06,0,.11-.13.17-.13Z"/><path d="M242.65,325.27c.36.68-.33.85-.6,1.23H237.6c-.29-.36-.95-.53-.63-1.21.06-.05.11-.14.17-.14h5.34C242.54,325.15,242.59,325.23,242.65,325.27Z"/><path d="M299.52,325.18h5.69l.18.64-.79.64h-4.48C299.84,326.13,299.38,325.92,299.52,325.18Z"/><path d="M284.42,326.5c-.28-.37-.95-.54-.6-1.22.05,0,.11-.13.17-.13h5.34c.05,0,.11.09.16.13,0,.57,0,.57-.45,1.08-.06.05-.11.13-.17.13Z"/><path d="M274.17,325.27c.36.68-.32.85-.59,1.23h-4.46c-.29-.36-.95-.53-.62-1.21.05-.05.1-.14.16-.14H274C274.06,325.15,274.11,325.23,274.17,325.27Z"/><path d="M257.83,325.15l.74.73-.88.23.26.27a.4.4,0,0,1-.39.12h-4.68c-.41-.36-.21-.79-.15-1.21.06-.05.11-.14.16-.14Z"/><path d="M325.87,320.6h-1a1.23,1.23,0,0,1-.16-.42c0-1.56,0-3.13,0-4.7,0-.05.09-.11.17-.2h1a1.48,1.48,0,0,1,.16.42c0,1.56,0,3.13,0,4.7C326.05,320.45,326,320.51,325.87,320.6Z"/><path d="M320.59,325.89l-.57.56h-4.61c-.29-.37-.11-.75-.15-1.1.12-.07.24-.19.36-.2h4.44Z"/><path d="M180.11,325.15v1.17c-.1.08-.15.17-.21.17H175c-.62-.64-.62-.64-.59-1.23,0,0,.11-.12.17-.12Z"/><path d="M128.15,326.5c-.26-.38-1-.55-.58-1.24.06,0,.12-.11.17-.11h5.35c.4.37.23.8.14,1.21-.06.05-.11.13-.17.13Z"/><path d="M195.77,325.15c.36.72-.17.92-.47,1.29h-4.58l-.66-.6v-.48c.42-.45,1.25.08,1.55-.66l.49.45Z"/><path d="M206.47,326.5c-.36-.45-.88-.65-.57-1.21,0-.05.11-.14.16-.14h5.34c.06,0,.12.08.17.12.37.68-.32.85-.58,1.23Z"/><path d="M149,325.29c.32.56-.24.75-.41,1-.11.09-.17.17-.22.17h-4.45c-.27-.38-1-.55-.6-1.23.06,0,.12-.12.17-.12h5.34C148.89,325.15,148.94,325.24,149,325.29Z"/><path d="M112.29,325.69l.5-.51h5.13l.11.62-.68.68h-4.59Z"/><path d="M107.37,315.28h1a1.12,1.12,0,0,1,.16.41c0,1.56,0,3.13,0,4.7,0,.05-.09.11-.17.2a5.39,5.39,0,0,1-.6.05c-.31,0-.59,0-.58-.45,0-.89,0-1.79,0-2.68,0-.67,0-1.35,0-2C107.21,315.44,107.29,315.38,107.37,315.28Z"/><path d="M164.34,325.15v1.18a1.08,1.08,0,0,1-.39.16h-4.24c-.64-.62-.64-.62-.65-1.27a4.07,4.07,0,0,1,.61-.08Z"/><path d="M324.7,268.45h1.18c.08.1.17.15.17.21,0,1.79,0,3.58,0,5.37-.36.41-.79.22-1.21.14,0-.05-.13-.11-.13-.17C324.7,272.21,324.7,270.42,324.7,268.45Z"/><path d="M326.05,227.38h-1.17c-.08-.1-.17-.15-.17-.21,0-1.79,0-3.58,0-5.37.36-.47.82-.06,1.12-.25.14.16.23.22.23.27C326.06,223.62,326.05,225.41,326.05,227.38Z"/><path d="M326.05,242.51l-.66.66-.65-.61v-5.07l.84-.4.47.47Z"/><path d="M326.05,258.46h-1.16c-.32-.27-.18-.59-.18-.87,0-1.62,0-3.24,0-4.78.7-.4.9.12,1.22.37,0,.06.13.11.13.17C326.06,255,326.05,256.62,326.05,258.46Z"/><path d="M324.7,284.21h1.18c.08.09.17.15.17.2,0,1.63,0,3.27,0,5l-.76.61c-.06-.19-.14-.48-.22-.77l-.25.24c0-.06-.1-.11-.11-.17a3.38,3.38,0,0,1,0-.45Z"/><path d="M325.89,305.33h-1c-.07-.12-.22-.23-.22-.35,0-1.78,0-3.56,0-5.28.38-.38.78-.14,1.12-.22.08.11.22.23.22.35,0,1.64,0,3.28,0,4.92A2.26,2.26,0,0,1,325.89,305.33Z"/><path d="M107.75,289.89l-.5-.5v-5.06c.37-.29.74-.11,1.09-.15.07.12.2.24.2.36,0,1.56,0,3.12,0,4.87Z"/><path d="M107.2,221.61h1.17c.08.1.17.15.17.2,0,1.8,0,3.59,0,5.38-.35.43-.79.21-1.2.16,0-.06-.14-.11-.14-.17C107.2,225.39,107.2,223.6,107.2,221.61Z"/><path d="M108.52,190.33v5.37c-.09.1-.14.19-.2.2h-.89c-.08-.11-.22-.23-.22-.35,0-1.63,0-3.26,0-4.83C107.58,190.31,108,190.64,108.52,190.33Z"/><path d="M108.52,159.7v5c-.22,0-.43.08-.63.1h-.45c-.08-.11-.23-.22-.23-.33,0-1.78,0-3.56,0-5.39l.67-.17Z"/><path d="M107.38,128h1a1.12,1.12,0,0,1,.16.41c0,1.56,0,3.12,0,4.69-.63.63-.63.63-1.21.63,0-.06-.13-.11-.13-.17,0-1.78,0-3.57,0-5.36C107.21,128.1,107.29,128,107.38,128Z"/><path d="M107.2,252.79c.72-.36.92.16,1.23.41,0,.06.12.12.12.18v4.89c-.38.39-.8.23-1.22.13,0-.06-.12-.11-.12-.17C107.2,256.45,107.2,254.66,107.2,252.79Z"/><path d="M108.55,242.51l-.66.66-.65-.61v-5.07l.84-.4.47.47Z"/><path d="M108.55,179.92l-.73.73-.32-.78-.18.17s-.11-.11-.11-.17a3.27,3.27,0,0,1,0-.44V175c.34-.47.8-.07,1.11-.25.14.15.23.2.23.25C108.55,176.61,108.55,178.24,108.55,179.92Z"/><path d="M108.55,305.29h-1.18c-.08-.1-.16-.16-.16-.21,0-1.8,0-3.59,0-5.38.36-.4.79-.21,1.21-.14,0,.06.14.12.14.17Z"/><path d="M107.36,268.45h1a1.15,1.15,0,0,1,.16.39c0,1.56,0,3.12,0,4.69-.34.32-.52.93-1.19.66a1,1,0,0,1-.15-.38c0-1.71,0-3.43,0-5.14C107.21,268.62,107.29,268.56,107.36,268.45Z"/><path d="M108.55,206.47v5c-.35.48-.81.06-1.11.26-.14-.16-.23-.21-.23-.27,0-1.78,0-3.57,0-5.35,0-.06.08-.12.13-.17C107.9,205.89,107.9,205.89,108.55,206.47Z"/><path d="M108.4,149h-1a1.43,1.43,0,0,1-.15-.42c0-1.77,0-3.53,0-5.22.69-.41.9.11,1.21.36S108.63,146.69,108.4,149Z"/></g></g></svg>