<svg xmlns="http://www.w3.org/2000/svg" viewBox="0 0 308.32 77.47"><title>Recurso 292MODERN ICON</title><g id="Capa_2" data-name="Capa 2"><g id="Capa_1-2" data-name="Capa 1"><path d="M46.42,34.64a210.48,210.48,0,0,0,12.92-19,3.54,3.54,0,0,0,2.75-2c.36-1.06,0-2.2-1.19-3.39L55.53,4.64a1.46,1.46,0,0,0-1.4-.42l-4,.92-39.53,1a1.47,1.47,0,0,0-1.07.5A1.42,1.42,0,0,0,9.2,7.74L10.07,16a1.46,1.46,0,0,0,1.54,1.32l34.81-1.58C39,30.23,23.61,44.83.7,59.15A1.5,1.5,0,0,0,.47,61.5l6.39,5.93a1.47,1.47,0,0,0,1,.39,1.42,1.42,0,0,0,.82-.23A169.41,169.41,0,0,0,38.89,43.28a249.92,249.92,0,0,1,26,24.8,1.49,1.49,0,0,0,2,.15l7-5.69A1.48,1.48,0,0,0,74,60.38,279.54,279.54,0,0,0,46.42,34.64Z"/><path d="M150.18,24.77,80.12,23.46a1.49,1.49,0,0,0-1.51,1.46l-.14,7.52A1.48,1.48,0,0,0,79.92,34l32.7.61-.06,3c-.22,12.22-5,22-14.33,29a1.5,1.5,0,0,0-.59,1.18,1.48,1.48,0,0,0,.57,1.17L105,74.12a1.43,1.43,0,0,0,.88.31,1.45,1.45,0,0,0,1-.37c10.71-9.39,16.28-21.62,16.55-36.34l0-3,26.55.49a1.48,1.48,0,0,0,1.51-1.45l.14-7.52A1.49,1.49,0,0,0,150.18,24.77Z"/><rect x="110.2" y="-15.7" width="10.49" height="48.43" rx="1.48" ry="1.48" transform="translate(104.78 123.77) rotate(-88.93)"/><path d="M220.22,28.56a1.47,1.47,0,0,0-2.35.29c-9.34,16.17-24,26.22-43.59,29.89L175.19,10a2.84,2.84,0,0,0,1.27-2.76c-.39-1.52-2.24-1.77-2.85-1.85h-.16l-7.52-.14a1.49,1.49,0,0,0-1.51,1.46l-1,56.49L162.73,65a1.49,1.49,0,0,0,.48,1.67l5.4,4.2a1.41,1.41,0,0,0,.88.31h.25c25.94-3.91,44.91-15.65,56.39-34.9a1.48,1.48,0,0,0-.21-1.79Z"/><path d="M306.86,19.48,279.64,19,279.89,5a2.94,2.94,0,0,0,1-2.7c-.36-1.58-2.18-2-2.78-2.16a1.64,1.64,0,0,0-.32,0L270.64,0a1.49,1.49,0,0,0-1.51,1.46l-.32,17.31-34.75-.65a1.49,1.49,0,0,0-1.51,1.46l-.14,7.52a1.49,1.49,0,0,0,1.46,1.51l29.39.54c-8.15,11.65-19.18,21.79-32.81,30.17a1.48,1.48,0,0,0-.24,2.34l6.72,6.28a1.51,1.51,0,0,0,1.85.15A125.89,125.89,0,0,0,268.42,40L268,64c0,1.28-.38,2.51-2.8,2.91l-6.71-.13A1.48,1.48,0,0,0,257,68.5l1.23,7.55a1.47,1.47,0,0,0,1.43,1.24l9.57.18c6,.11,9.41-3.27,9.52-9.51l.72-38.51,27.23.51a1.48,1.48,0,0,0,1.51-1.45l.14-7.52A1.49,1.49,0,0,0,306.86,19.48Z"/></g></g></svg>