<svg xmlns="http://www.w3.org/2000/svg" viewBox="0 0 67.44 51.51"><title>Recurso 222MODERN ICON</title><g id="Capa_2" data-name="Capa 2"><g id="Capa_1-2" data-name="Capa 1"><path d="M38.05,44.06c.11-.2.21-.4.31-.61V5h0V0H34.54V44.06Z"/><path d="M31.26,44.06V0H29.11V44.06Z"/><path d="M27.37,44.06V0H25.22V44.06Z"/><path d="M54.83,44.06q0-22,0-44.06H53.18q0,22,0,44.06Z"/><path d="M51.52,44.06c.14-.58-.46-.72-.5-1V0h-5V44.06Z"/><path d="M42.77,44.06V0H41.12q0,22.08,0,44.06Z"/><path d="M0,0V50.74a4.86,4.86,0,0,0,0,.54c0,.08.13.13.22.22h4l.75-.8V0Z"/><path d="M57.09,44.06H60.8V0H57.09Z"/><path d="M22.44,44.06c.15-7.24.12-35.38,0-44.06H17.07c-.15,9-.18,36.56,0,44.06Z"/><path d="M62.5,0V50.4a.81.81,0,0,0,0,.27,1,1,0,0,0,.18.27l.63.57h3.9c.1-.11.21-.18.21-.25q0-25.63,0-51.26Z"/><path d="M15.36,44.06V0H11.52V44.06Z"/><path d="M9.26,44.06V0H7.68q0,22.08,0,44.06Z"/></g></g></svg>